G04 #@! TF.GenerationSoftware,KiCad,Pcbnew,(5.1.2-1)-1*
G04 #@! TF.CreationDate,2019-09-17T20:14:48-04:00*
G04 #@! TF.ProjectId,TimeMachine,54696d65-4d61-4636-9869-6e652e6b6963,rev?*
G04 #@! TF.SameCoordinates,Original*
G04 #@! TF.FileFunction,Profile,NP*
%FSLAX46Y46*%
G04 Gerber Fmt 4.6, Leading zero omitted, Abs format (unit mm)*
G04 Created by KiCad (PCBNEW (5.1.2-1)-1) date 2019-09-17 20:14:48*
%MOMM*%
%LPD*%
G04 APERTURE LIST*
%ADD10C,0.150000*%
G04 APERTURE END LIST*
D10*
X148209000Y-120142000D02*
G75*
G02X149479000Y-120142000I635000J0D01*
G01*
X149479000Y-120142000D02*
X149479000Y-122428000D01*
X149479000Y-122428000D02*
G75*
G02X148209000Y-122428000I-635000J0D01*
G01*
X148209000Y-120142000D02*
X148209000Y-122428000D01*
X143002000Y-120142000D02*
X143002000Y-122428000D01*
X144272000Y-120142000D02*
X144272000Y-122428000D01*
X144272000Y-122428000D02*
G75*
G02X143002000Y-122428000I-635000J0D01*
G01*
X143002000Y-120142000D02*
G75*
G02X144272000Y-120142000I635000J0D01*
G01*
X154305000Y-80391000D02*
G75*
G02X155829000Y-79883000I1524000J-2032000D01*
G01*
X140081001Y-94614999D02*
G75*
G03X139573000Y-96139000I2031999J-1524001D01*
G01*
X154305000Y-80391000D02*
X140081000Y-94615000D01*
X244602000Y-79883000D02*
G75*
G02X247142000Y-82423000I0J-2540000D01*
G01*
X247142000Y-129540000D02*
G75*
G02X244602000Y-132080000I-2540000J0D01*
G01*
X241046000Y-132080000D02*
X241046000Y-139192000D01*
X244602000Y-132080000D02*
X241046000Y-132080000D01*
X142113000Y-132080000D02*
G75*
G02X139573000Y-129540000I0J2540000D01*
G01*
X139573000Y-129540000D02*
X139573000Y-96139000D01*
X175514000Y-132080000D02*
X175514000Y-139192000D01*
X241046000Y-139192000D02*
G75*
G02X240538000Y-139700000I-508000J0D01*
G01*
X176022000Y-139700000D02*
G75*
G02X175514000Y-139192000I0J508000D01*
G01*
X244602000Y-79883000D02*
X155829000Y-79883000D01*
X247142000Y-129540000D02*
X247142000Y-82423000D01*
X142113000Y-132080000D02*
X175514000Y-132080000D01*
X240538000Y-139700000D02*
X176022000Y-139700000D01*
M02*
