M48
; DRILL file {KiCad (5.1.2-1)-1} date Sunday, July 21, 2019 at 02:09:39 PM
; FORMAT={-:-/ absolute / inch / decimal}
; #@! TF.CreationDate,2019-07-21T14:09:39-04:00
; #@! TF.GenerationSoftware,Kicad,Pcbnew,(5.1.2-1)-1
FMAT,2
INCH
T1C0.0118
T2C0.0157
T3C0.0300
T4C0.0433
%
G90
G05
T1
X5.625Y-4.57
X5.635Y-4.355
X5.655Y-4.29
X5.67Y-4.485
X5.67Y-4.66
X5.75Y-4.29
X5.845Y-4.29
X5.88Y-4.325
X5.885Y-4.425
X5.885Y-4.525
X5.885Y-4.625
X6.025Y-4.75
X6.025Y-4.8
X6.04Y-4.25
X6.05Y-4.575
X6.07Y-4.79
X6.1Y-4.315
X6.1Y-4.545
X6.125Y-4.6
X6.13Y-4.855
X6.15Y-4.21
X6.155Y-4.78
X6.185Y-4.61
X6.185Y-4.915
X6.25Y-4.19
X6.25Y-4.65
X6.25Y-4.7
X6.25Y-4.75
X6.29Y-4.225
X6.345Y-4.15
X6.425Y-4.09
X6.425Y-4.31
X6.475Y-4.2
X6.5Y-3.995
X6.515Y-4.49
X6.525Y-4.675
X6.525Y-4.775
X6.53Y-4.405
X6.54Y-3.9
X6.56Y-3.8
X6.575Y-4.725
X6.58Y-4.025
X6.6Y-3.71
X6.615Y-3.49
X6.625Y-4.95
X6.7Y-3.57
X6.7Y-3.72
X6.7Y-3.865
X6.715Y-4.515
X6.72Y-4.025
X6.72Y-4.885
X6.725Y-4.665
X6.735Y-4.805
X6.75Y-3.8504
X6.75Y-4.725
X6.755Y-4.58
X6.775Y-4.335
X6.775Y-4.85
X6.775Y-4.9
X6.78Y-4.95
X6.79Y-3.63
X6.795Y-3.715
X6.795Y-3.795
X6.8Y-4.66
X6.82Y-4.185
X6.82Y-4.28
X6.825Y-4.415
X6.825Y-4.9
X6.8504Y-3.4252
X6.875Y-3.55
X6.875Y-4.3
X6.875Y-4.35
X6.875Y-4.4
X6.875Y-4.45
X6.875Y-4.5
X6.875Y-4.55
X6.875Y-4.6
X6.875Y-4.65
X6.88Y-4.845
X6.89Y-3.595
X6.9Y-3.71
X6.9134Y-3.8504
X6.925Y-4.825
X6.935Y-3.78
X6.94Y-3.625
X6.945Y-5.165
X6.95Y-4.86
X6.975Y-4.94
X7.0Y-4.825
X7.0079Y-3.5354
X7.0079Y-3.8504
X7.025Y-4.89
X7.0394Y-3.5669
X7.0394Y-3.811
X7.05Y-4.825
X7.05Y-5.15
X7.06Y-4.325
X7.07Y-3.97
X7.075Y-4.375
X7.075Y-4.89
X7.09Y-4.99
X7.115Y-3.655
X7.125Y-4.92
X7.1339Y-3.5748
X7.1339Y-3.8189
X7.15Y-4.825
X7.15Y-5.15
X7.165Y-5.065
X7.1654Y-3.5354
X7.1654Y-3.8583
X7.175Y-4.89
X7.2Y-4.825
X7.21Y-3.6
X7.225Y-4.525
X7.235Y-4.92
X7.25Y-4.15
X7.25Y-4.825
X7.25Y-5.15
X7.255Y-3.78
X7.255Y-4.01
X7.275Y-4.325
X7.275Y-4.375
X7.275Y-4.575
X7.285Y-4.895
X7.3Y-4.825
X7.3Y-5.08
X7.325Y-4.075
X7.335Y-4.15
X7.335Y-4.85
X7.34Y-3.66
X7.35Y-5.15
X7.365Y-4.8
X7.375Y-3.835
X7.38Y-5.065
X7.4Y-4.125
X7.4Y-4.225
X7.405Y-4.075
X7.425Y-4.375
X7.425Y-4.55
X7.425Y-4.64
X7.44Y-3.59
X7.44Y-4.94
X7.44Y-5.05
X7.45Y-5.15
X7.46Y-4.81
X7.465Y-4.525
X7.475Y-3.78
X7.475Y-3.89
X7.485Y-4.35
X7.485Y-4.6
X7.495Y-4.025
X7.505Y-4.65
X7.525Y-4.55
X7.535Y-4.31
X7.54Y-5.04
X7.55Y-4.8
X7.55Y-5.15
X7.57Y-3.78
X7.57Y-3.89
X7.58Y-4.575
X7.59Y-4.915
X7.615Y-4.65
X7.625Y-4.81
X7.64Y-3.745
X7.64Y-4.525
X7.65Y-5.15
X7.665Y-5.03
X7.67Y-4.125
X7.675Y-5.09
X7.68Y-3.89
X7.685Y-4.075
X7.69Y-4.32
X7.69Y-4.575
X7.695Y-4.81
X7.71Y-4.525
X7.715Y-4.915
X7.735Y-4.025
X7.735Y-4.35
X7.745Y-5.03
X7.75Y-5.15
X7.76Y-4.65
X7.76Y-5.075
X7.775Y-4.81
X7.815Y-4.915
X7.815Y-5.015
X7.85Y-5.15
X7.86Y-4.7
X7.89Y-4.8445
X7.89Y-4.99
X7.9Y-4.725
X7.9Y-5.1
X7.925Y-4.21
X7.925Y-4.36
X7.94Y-3.45
X7.94Y-4.915
X7.945Y-4.025
X7.95Y-4.725
X7.95Y-5.065
X7.95Y-5.15
X7.955Y-4.58
X7.965Y-4.125
X7.975Y-4.21
X7.98Y-4.415
X7.995Y-3.89
X8.0Y-4.075
X8.0Y-4.725
X8.015Y-4.865
X8.015Y-4.99
X8.025Y-4.75
X8.035Y-4.125
X8.035Y-4.45
X8.035Y-4.5
X8.05Y-4.025
X8.05Y-4.6
X8.05Y-5.15
X8.075Y-4.92
X8.075Y-5.065
X8.09Y-3.815
X8.09Y-4.18
X8.09Y-4.4
X8.1Y-4.725
X8.105Y-4.845
X8.115Y-4.775
X8.125Y-3.89
X8.125Y-4.1
X8.125Y-4.935
X8.135Y-4.5
X8.15Y-4.025
X8.15Y-4.725
X8.15Y-4.975
X8.15Y-5.125
X8.15Y-5.1675
X8.16Y-3.735
X8.175Y-4.575
X8.175Y-4.785
X8.175Y-4.915
X8.2Y-4.075
X8.2Y-4.21
X8.2Y-4.45
X8.2Y-4.725
X8.21Y-4.15
X8.215Y-3.785
X8.225Y-3.685
X8.25Y-3.85
X8.25Y-4.025
X8.25Y-4.4
X8.25Y-4.775
X8.25Y-4.875
X8.25Y-4.975
X8.25Y-5.125
X8.25Y-5.1675
X8.26Y-4.5
X8.275Y-3.65
X8.285Y-3.745
X8.3Y-3.425
X8.3Y-3.475
X8.3Y-3.875
X8.3Y-4.075
X8.3Y-4.35
X8.3Y-4.475
X8.3Y-4.875
X8.325Y-3.625
X8.325Y-4.78
X8.34Y-3.68
X8.35Y-3.825
X8.35Y-4.05
X8.35Y-4.425
X8.35Y-4.975
X8.35Y-5.125
X8.35Y-5.1675
X8.375Y-4.78
X8.38Y-3.775
X8.395Y-4.025
X8.395Y-4.875
X8.4Y-4.075
X8.4Y-4.125
X8.4Y-4.375
X8.4Y-4.6
X8.41Y-4.55
X8.41Y-4.95
X8.41Y-5.055
X8.425Y-3.85
X8.425Y-4.175
X8.425Y-4.225
X8.425Y-4.275
X8.445Y-3.69
X8.45Y-4.1
X8.45Y-4.75
X8.45Y-4.9
X8.45Y-5.15
X8.46Y-3.8
X8.46Y-3.9
X8.46Y-4.5
X8.475Y-4.15
X8.475Y-4.2
X8.475Y-4.25
X8.485Y-4.85
X8.49Y-4.31
X8.49Y-4.97
X8.51Y-4.45
X8.52Y-3.67
X8.54Y-3.945
X8.55Y-4.6
X8.55Y-4.725
X8.55Y-5.15
X8.555Y-3.855
X8.565Y-4.395
X8.565Y-4.5
X8.565Y-4.55
X8.575Y-3.615
X8.585Y-3.705
X8.59Y-4.03
X8.595Y-3.8
X8.6Y-4.6
X8.6Y-4.725
X8.625Y-4.225
X8.625Y-4.325
X8.625Y-4.425
X8.625Y-4.55
X8.635Y-4.825
X8.65Y-4.725
X8.65Y-5.15
X8.665Y-3.88
X8.665Y-3.955
X8.68Y-3.66
X8.69Y-4.485
X8.72Y-4.13
X8.74Y-4.325
X8.75Y-5.15
X8.76Y-4.19
X8.775Y-4.825
X8.79Y-4.41
X8.79Y-4.55
X8.825Y-4.025
X8.825Y-4.21
X8.825Y-4.89
X8.85Y-5.15
X8.855Y-3.975
X8.855Y-4.315
X8.855Y-4.495
X8.865Y-5.0
X8.875Y-4.075
X8.9Y-3.9
X8.9Y-4.55
X8.9Y-5.05
X8.9Y-5.1
X8.915Y-3.45
X8.95Y-5.15
X8.975Y-5.025
X8.975Y-5.075
X9.015Y-4.95
X9.025Y-4.05
X9.025Y-4.5
X9.05Y-5.15
X9.06Y-4.325
X9.06Y-4.375
X9.06Y-4.425
X9.06Y-4.475
X9.075Y-4.685
X9.09Y-4.025
X9.09Y-4.14
X9.1Y-4.64
X9.1Y-5.15
X9.135Y-4.31
X9.14Y-3.975
X9.15Y-5.15
X9.16Y-3.625
X9.165Y-4.235
X9.2Y-4.39
X9.2Y-5.16
X9.23Y-4.075
X9.23Y-4.165
X9.24Y-4.315
X9.25Y-5.15
X9.265Y-4.015
X9.265Y-4.465
X9.265Y-4.54
X9.3Y-5.16
X9.305Y-4.1
X9.305Y-4.2
X9.305Y-4.3
X9.35Y-5.15
X9.405Y-4.55
X9.45Y-5.15
X9.475Y-3.65
X9.525Y-4.2
T2
X5.535Y-3.765
X5.535Y-3.915
X5.535Y-4.115
X5.535Y-4.315
X5.535Y-4.515
X5.535Y-4.715
X5.535Y-4.915
X5.535Y-5.115
X5.575Y-4.485
X5.575Y-4.66
X5.58Y-5.16
X5.585Y-4.155
X5.585Y-5.015
X5.6Y-4.07
X5.635Y-4.815
X5.68Y-3.62
X5.725Y-3.99
X5.735Y-4.915
X5.78Y-5.16
X5.785Y-4.125
X5.82Y-3.99
X5.83Y-3.47
X5.875Y-4.7
X5.875Y-4.85
X5.88Y-5.06
X5.92Y-4.09
X5.92Y-4.185
X5.93Y-4.4
X5.955Y-4.885
X5.975Y-3.325
X5.975Y-4.35
X5.975Y-4.45
X5.98Y-5.16
X6.015Y-3.82
X6.025Y-4.65
X6.025Y-4.7
X6.025Y-4.85
X6.04Y-4.35
X6.04Y-4.45
X6.09Y-3.895
X6.115Y-3.185
X6.15Y-4.35
X6.15Y-4.45
X6.17Y-3.665
X6.18Y-5.16
X6.215Y-4.35
X6.215Y-4.45
X6.245Y-3.185
X6.245Y-3.74
X6.25Y-4.6
X6.25Y-4.85
X6.26Y-4.4
X6.325Y-4.35
X6.325Y-4.465
X6.325Y-4.885
X6.34Y-3.375
X6.34Y-3.47
X6.345Y-3.285
X6.38Y-5.16
X6.39Y-4.35
X6.39Y-4.45
X6.39Y-4.85
X6.4Y-4.5
X6.435Y-4.4
X6.44Y-3.57
X6.445Y-3.185
X6.455Y-4.885
X6.475Y-3.435
X6.48Y-5.06
X6.515Y-4.85
X6.535Y-3.57
X6.545Y-3.285
X6.58Y-5.16
X6.59Y-3.37
X6.605Y-4.465
X6.64Y-3.3
X6.645Y-3.185
X6.65Y-4.415
X6.65Y-4.515
X6.68Y-5.06
X6.71Y-4.55
X6.715Y-4.415
X6.745Y-3.285
X6.76Y-4.465
X6.78Y-5.16
X6.845Y-3.185
X6.865Y-5.05
X6.91Y-5.0
X6.91Y-5.1
X6.945Y-3.285
X6.975Y-5.1
X7.02Y-4.025
X7.045Y-3.185
X7.0669Y-3.4252
X7.0709Y-3.5354
X7.1Y-4.825
X7.1024Y-3.8661
X7.1063Y-3.9764
X7.13Y-4.075
X7.145Y-3.285
X7.17Y-3.325
X7.175Y-4.025
X7.2Y-4.175
X7.215Y-3.375
X7.245Y-3.185
X7.345Y-3.285
X7.445Y-3.185
X7.445Y-3.385
X7.505Y-3.415
X7.505Y-3.535
X7.545Y-3.285
X7.55Y-4.2
X7.55Y-4.265
X7.575Y-3.365
X7.575Y-3.585
X7.6Y-4.155
X7.6Y-4.31
X7.645Y-3.185
X7.645Y-3.415
X7.645Y-3.535
X7.65Y-4.2
X7.65Y-4.265
X7.745Y-3.285
X7.745Y-3.485
X7.775Y-3.85
X7.775Y-4.2
X7.775Y-4.5
X7.835Y-3.25
X7.835Y-3.35
X7.845Y-3.185
X7.865Y-3.535
X7.9Y-3.25
X7.9Y-3.35
X7.9Y-3.475
X7.9Y-3.85
X7.9Y-4.5
X7.945Y-3.3
X8.045Y-3.185
X8.045Y-3.385
X8.05Y-4.725
X8.145Y-3.285
X8.2Y-3.475
X8.2Y-3.6
X8.245Y-3.185
X8.245Y-3.385
X8.25Y-4.6
X8.25Y-4.725
X8.355Y-3.3
X8.4Y-3.25
X8.4Y-3.35
X8.4Y-3.475
X8.4Y-3.6
X8.445Y-3.185
X8.45Y-3.475
X8.45Y-3.6
X8.465Y-3.25
X8.465Y-3.35
X8.49Y-5.05
X8.5Y-4.6
X8.5Y-4.725
X8.51Y-3.3
X8.535Y-5.0
X8.535Y-5.1
X8.6Y-5.1
X8.605Y-3.3
X8.645Y-3.185
X8.65Y-3.25
X8.65Y-3.35
X8.65Y-3.475
X8.65Y-3.6
X8.7Y-4.6
X8.7Y-4.725
X8.7Y-5.1
X8.715Y-3.25
X8.715Y-3.35
X8.72Y-4.995
X8.76Y-3.3
X8.765Y-5.1
X8.77Y-4.925
X8.81Y-5.05
X8.845Y-3.185
X8.845Y-3.385
X8.895Y-4.9
X8.9Y-4.25
X8.94Y-4.85
X8.945Y-3.285
X8.965Y-3.565
X9.01Y-4.85
X9.025Y-3.6
X9.025Y-3.9
X9.025Y-4.25
X9.025Y-4.55
X9.045Y-3.185
X9.045Y-3.385
X9.055Y-4.9
X9.09Y-3.515
X9.09Y-3.715
X9.145Y-3.285
X9.15Y-3.835
X9.15Y-3.9
X9.155Y-3.415
X9.155Y-3.535
X9.2Y-3.79
X9.2Y-3.945
X9.225Y-3.365
X9.225Y-3.585
X9.245Y-3.185
X9.25Y-3.835
X9.25Y-3.9
X9.29Y-3.715
X9.29Y-4.715
X9.29Y-4.915
X9.29Y-5.05
X9.295Y-3.415
X9.295Y-3.535
X9.335Y-5.0
X9.335Y-5.1
X9.345Y-3.285
X9.39Y-3.615
X9.39Y-3.815
X9.39Y-4.015
X9.39Y-4.615
X9.39Y-4.815
X9.395Y-3.415
X9.4Y-5.0
X9.4Y-5.1
X9.415Y-4.925
X9.445Y-3.185
X9.445Y-5.05
X9.465Y-4.855
X9.465Y-4.995
X9.49Y-3.315
X9.49Y-3.715
X9.49Y-3.915
X9.49Y-4.715
X9.585Y-4.855
X9.585Y-4.995
X9.59Y-3.415
X9.59Y-3.815
X9.59Y-4.015
X9.59Y-4.615
X9.635Y-4.925
X9.645Y-3.185
X9.645Y-5.16
X9.69Y-3.23
X9.69Y-3.315
X9.69Y-3.515
X9.69Y-3.715
X9.69Y-4.915
X9.69Y-5.115
X9.695Y-3.915
X9.695Y-4.115
X9.695Y-4.315
X9.695Y-4.515
X9.695Y-4.715
T3
X6.825Y-3.375
T4
X6.235Y-3.245
X5.595Y-3.885
X5.695Y-5.1
X9.53Y-3.245
X9.53Y-5.1
T0
M30
