G04 #@! TF.GenerationSoftware,KiCad,Pcbnew,7.0.10*
G04 #@! TF.CreationDate,2024-03-10T21:42:59-04:00*
G04 #@! TF.ProjectId,TimeDisk,54696d65-4469-4736-9b2e-6b696361645f,rev?*
G04 #@! TF.SameCoordinates,Original*
G04 #@! TF.FileFunction,Paste,Top*
G04 #@! TF.FilePolarity,Positive*
%FSLAX46Y46*%
G04 Gerber Fmt 4.6, Leading zero omitted, Abs format (unit mm)*
G04 Created by KiCad (PCBNEW 7.0.10) date 2024-03-10 21:42:59*
%MOMM*%
%LPD*%
G01*
G04 APERTURE LIST*
G04 Aperture macros list*
%AMRoundRect*
0 Rectangle with rounded corners*
0 $1 Rounding radius*
0 $2 $3 $4 $5 $6 $7 $8 $9 X,Y pos of 4 corners*
0 Add a 4 corners polygon primitive as box body*
4,1,4,$2,$3,$4,$5,$6,$7,$8,$9,$2,$3,0*
0 Add four circle primitives for the rounded corners*
1,1,$1+$1,$2,$3*
1,1,$1+$1,$4,$5*
1,1,$1+$1,$6,$7*
1,1,$1+$1,$8,$9*
0 Add four rect primitives between the rounded corners*
20,1,$1+$1,$2,$3,$4,$5,0*
20,1,$1+$1,$4,$5,$6,$7,0*
20,1,$1+$1,$6,$7,$8,$9,0*
20,1,$1+$1,$8,$9,$2,$3,0*%
G04 Aperture macros list end*
%ADD10RoundRect,0.250000X0.250000X0.425000X-0.250000X0.425000X-0.250000X-0.425000X0.250000X-0.425000X0*%
%ADD11RoundRect,0.250000X-0.425000X0.250000X-0.425000X-0.250000X0.425000X-0.250000X0.425000X0.250000X0*%
%ADD12RoundRect,0.200000X-0.200000X-0.475000X0.200000X-0.475000X0.200000X0.475000X-0.200000X0.475000X0*%
%ADD13RoundRect,0.250000X-0.250000X-0.425000X0.250000X-0.425000X0.250000X0.425000X-0.250000X0.425000X0*%
%ADD14RoundRect,0.137500X-0.137500X-0.575000X0.137500X-0.575000X0.137500X0.575000X-0.137500X0.575000X0*%
%ADD15RoundRect,0.137500X-0.575000X-0.137500X0.575000X-0.137500X0.575000X0.137500X-0.575000X0.137500X0*%
%ADD16RoundRect,0.137500X-0.862500X-0.137500X0.862500X-0.137500X0.862500X0.137500X-0.862500X0.137500X0*%
%ADD17RoundRect,0.112500X0.112500X-0.625000X0.112500X0.625000X-0.112500X0.625000X-0.112500X-0.625000X0*%
%ADD18RoundRect,0.330200X-1.481742X1.948716X-1.948716X1.481742X1.481742X-1.948716X1.948716X-1.481742X0*%
%ADD19RoundRect,0.633570X0.000000X2.090674X-2.090674X0.000000X0.000000X-2.090674X2.090674X0.000000X0*%
%ADD20RoundRect,0.137500X-0.812500X-0.137500X0.812500X-0.137500X0.812500X0.137500X-0.812500X0.137500X0*%
%ADD21RoundRect,0.137500X0.137500X0.687500X-0.137500X0.687500X-0.137500X-0.687500X0.137500X-0.687500X0*%
%ADD22RoundRect,0.137500X0.687500X0.137500X-0.687500X0.137500X-0.687500X-0.137500X0.687500X-0.137500X0*%
%ADD23RoundRect,0.200000X-0.475000X0.200000X-0.475000X-0.200000X0.475000X-0.200000X0.475000X0.200000X0*%
%ADD24RoundRect,0.200000X0.475000X-0.200000X0.475000X0.200000X-0.475000X0.200000X-0.475000X-0.200000X0*%
%ADD25RoundRect,0.250000X0.425000X-0.250000X0.425000X0.250000X-0.425000X0.250000X-0.425000X-0.250000X0*%
%ADD26RoundRect,0.200000X0.200000X0.475000X-0.200000X0.475000X-0.200000X-0.475000X0.200000X-0.475000X0*%
%ADD27RoundRect,0.192500X-0.242500X0.192500X-0.242500X-0.192500X0.242500X-0.192500X0.242500X0.192500X0*%
%ADD28RoundRect,0.175000X0.175000X-0.450000X0.175000X0.450000X-0.175000X0.450000X-0.175000X-0.450000X0*%
%ADD29RoundRect,0.080000X0.080000X0.555000X-0.080000X0.555000X-0.080000X-0.555000X0.080000X-0.555000X0*%
%ADD30RoundRect,0.075000X0.075000X0.550000X-0.075000X0.550000X-0.075000X-0.550000X0.075000X-0.550000X0*%
%ADD31RoundRect,0.437500X0.437500X0.487500X-0.437500X0.487500X-0.437500X-0.487500X0.437500X-0.487500X0*%
%ADD32RoundRect,0.387500X0.637500X0.387500X-0.637500X0.387500X-0.637500X-0.387500X0.637500X-0.387500X0*%
%ADD33RoundRect,0.462500X0.462500X0.462500X-0.462500X0.462500X-0.462500X-0.462500X0.462500X-0.462500X0*%
%ADD34RoundRect,0.287500X0.337500X0.287500X-0.337500X0.287500X-0.337500X-0.287500X0.337500X-0.287500X0*%
%ADD35RoundRect,0.080000X-0.080000X0.380000X-0.080000X-0.380000X0.080000X-0.380000X0.080000X0.380000X0*%
%ADD36RoundRect,0.075000X0.375000X0.075000X-0.375000X0.075000X-0.375000X-0.075000X0.375000X-0.075000X0*%
%ADD37RoundRect,0.050000X0.400000X0.050000X-0.400000X0.050000X-0.400000X-0.050000X0.400000X-0.050000X0*%
%ADD38RoundRect,0.075000X0.375000X-0.075000X0.375000X0.075000X-0.375000X0.075000X-0.375000X-0.075000X0*%
%ADD39RoundRect,0.192500X0.192500X0.242500X-0.192500X0.242500X-0.192500X-0.242500X0.192500X-0.242500X0*%
%ADD40RoundRect,0.287500X-0.337500X-0.287500X0.337500X-0.287500X0.337500X0.287500X-0.337500X0.287500X0*%
%ADD41RoundRect,0.187500X0.387500X0.187500X-0.387500X0.187500X-0.387500X-0.187500X0.387500X-0.187500X0*%
%ADD42RoundRect,0.177500X0.177500X-0.559500X0.177500X0.559500X-0.177500X0.559500X-0.177500X-0.559500X0*%
%ADD43RoundRect,0.192500X-0.192500X-0.242500X0.192500X-0.242500X0.192500X0.242500X-0.192500X0.242500X0*%
%ADD44RoundRect,0.137500X0.812500X0.137500X-0.812500X0.137500X-0.812500X-0.137500X0.812500X-0.137500X0*%
%ADD45RoundRect,0.275000X0.275000X-0.375000X0.275000X0.375000X-0.275000X0.375000X-0.275000X-0.375000X0*%
G04 APERTURE END LIST*
D10*
X171958000Y-85725000D03*
X170258000Y-85725000D03*
X238760000Y-128270000D03*
X237060000Y-128270000D03*
X222680000Y-128270000D03*
X220980000Y-128270000D03*
X200660000Y-83820000D03*
X198960000Y-83820000D03*
D11*
X193040000Y-106680000D03*
X193040000Y-108380000D03*
D12*
X209296000Y-83820000D03*
X211196000Y-83820000D03*
D13*
X168846500Y-113792000D03*
X170546500Y-113792000D03*
X227115000Y-124460000D03*
X228815000Y-124460000D03*
D11*
X233680000Y-102425500D03*
X233680000Y-104125500D03*
D13*
X219710000Y-83820000D03*
X221410000Y-83820000D03*
X213360000Y-83820000D03*
X215060000Y-83820000D03*
X216740000Y-128270000D03*
X218440000Y-128270000D03*
D14*
X181610000Y-107462500D03*
X180340000Y-107462500D03*
X179070000Y-107462500D03*
X177800000Y-107462500D03*
D15*
X176047500Y-109220000D03*
X176047500Y-110490000D03*
X176047500Y-111760000D03*
X176047500Y-113030000D03*
X176047500Y-114300000D03*
X176047500Y-115570000D03*
X176047500Y-116840000D03*
X176047500Y-118110000D03*
X176047500Y-119380000D03*
D14*
X177800000Y-121137500D03*
X179070000Y-121137500D03*
X180340000Y-121137500D03*
X181610000Y-121137500D03*
X182880000Y-121137500D03*
X184150000Y-121137500D03*
X185420000Y-121137500D03*
D15*
X187172500Y-119380000D03*
X187172500Y-118110000D03*
X187172500Y-116840000D03*
X187172500Y-115570000D03*
X187172500Y-114300000D03*
X187172500Y-113030000D03*
X187172500Y-111760000D03*
X187172500Y-110490000D03*
X187172500Y-109220000D03*
D14*
X185420000Y-107462500D03*
X184150000Y-107462500D03*
X182880000Y-107462500D03*
D13*
X179451000Y-102235000D03*
X181151000Y-102235000D03*
D10*
X176403000Y-129159000D03*
X174703000Y-129159000D03*
D13*
X156210000Y-111760000D03*
X157910000Y-111760000D03*
X160655000Y-111760000D03*
X162355000Y-111760000D03*
X180467000Y-85725000D03*
X182167000Y-85725000D03*
D16*
X151306000Y-114300000D03*
X151306000Y-115570000D03*
X151306000Y-116840000D03*
X151306000Y-118110000D03*
X151306000Y-119380000D03*
X151306000Y-120650000D03*
X151306000Y-121920000D03*
X151306000Y-123190000D03*
X160606000Y-123190000D03*
X160606000Y-121920000D03*
X160606000Y-120650000D03*
X160606000Y-119380000D03*
X160606000Y-118110000D03*
X160606000Y-116840000D03*
X160606000Y-115570000D03*
X160606000Y-114300000D03*
D13*
X151765000Y-111760000D03*
X153465000Y-111760000D03*
D17*
X171600000Y-99587500D03*
X172400000Y-99587500D03*
X173200000Y-99587500D03*
X174000000Y-99587500D03*
X174800000Y-99587500D03*
X175600000Y-99587500D03*
X176400000Y-99587500D03*
X177200000Y-99587500D03*
X178000000Y-99587500D03*
X178800000Y-99587500D03*
X179600000Y-99587500D03*
X180400000Y-99587500D03*
X181200000Y-99587500D03*
X182000000Y-99587500D03*
X182800000Y-99587500D03*
X183600000Y-99587500D03*
X184400000Y-99587500D03*
X185200000Y-99587500D03*
X186000000Y-99587500D03*
X186800000Y-99587500D03*
X187600000Y-99587500D03*
X188400000Y-99587500D03*
X188400000Y-88412500D03*
X187600000Y-88412500D03*
X186800000Y-88412500D03*
X186000000Y-88412500D03*
X185200000Y-88412500D03*
X184400000Y-88412500D03*
X183600000Y-88412500D03*
X182800000Y-88412500D03*
X182000000Y-88412500D03*
X181200000Y-88412500D03*
X180400000Y-88412500D03*
X179600000Y-88412500D03*
X178800000Y-88412500D03*
X178000000Y-88412500D03*
X177200000Y-88412500D03*
X176400000Y-88412500D03*
X175600000Y-88412500D03*
X174800000Y-88412500D03*
X174000000Y-88412500D03*
X173200000Y-88412500D03*
X172400000Y-88412500D03*
X171600000Y-88412500D03*
D18*
X163514823Y-88199177D03*
X147889177Y-103824823D03*
D19*
X155702000Y-96012000D03*
D13*
X170766000Y-129159000D03*
X172466000Y-129159000D03*
D10*
X149542500Y-111760000D03*
X147842500Y-111760000D03*
D20*
X163895000Y-115570000D03*
X163895000Y-116840000D03*
X163895000Y-118110000D03*
X163895000Y-119380000D03*
X163895000Y-120650000D03*
X163895000Y-121920000D03*
X163895000Y-123190000D03*
X168845000Y-123190000D03*
X168845000Y-121920000D03*
X168845000Y-120650000D03*
X168845000Y-119380000D03*
X168845000Y-118110000D03*
X168845000Y-116840000D03*
X168845000Y-115570000D03*
D21*
X213360000Y-118490000D03*
X214630000Y-118490000D03*
X215900000Y-118490000D03*
X217170000Y-118490000D03*
X218440000Y-118490000D03*
X219710000Y-118490000D03*
X220980000Y-118490000D03*
X222250000Y-118490000D03*
X223520000Y-118490000D03*
X224790000Y-118490000D03*
X226060000Y-118490000D03*
D22*
X227710000Y-116840000D03*
X227710000Y-115570000D03*
X227710000Y-114300000D03*
X227710000Y-113030000D03*
X227710000Y-111760000D03*
X227710000Y-110490000D03*
X227710000Y-109220000D03*
X227710000Y-107950000D03*
X227710000Y-106680000D03*
X227710000Y-105410000D03*
X227710000Y-104140000D03*
X227710000Y-102870000D03*
X227710000Y-101600000D03*
X227710000Y-100330000D03*
X227710000Y-99060000D03*
X227710000Y-97790000D03*
X227710000Y-96520000D03*
X227710000Y-95250000D03*
X227710000Y-93980000D03*
X227710000Y-92710000D03*
X227710000Y-91440000D03*
D21*
X226060000Y-89790000D03*
X224790000Y-89790000D03*
X223520000Y-89790000D03*
X222250000Y-89790000D03*
X220980000Y-89790000D03*
X219710000Y-89790000D03*
X218440000Y-89790000D03*
X217170000Y-89790000D03*
X215900000Y-89790000D03*
X214630000Y-89790000D03*
X213360000Y-89790000D03*
X212090000Y-89790000D03*
X210820000Y-89790000D03*
X209550000Y-89790000D03*
X208280000Y-89790000D03*
X207010000Y-89790000D03*
X205740000Y-89790000D03*
X204470000Y-89790000D03*
X203200000Y-89790000D03*
X201930000Y-89790000D03*
X200660000Y-89790000D03*
D22*
X199010000Y-91440000D03*
X199010000Y-92710000D03*
X199010000Y-93980000D03*
X199010000Y-95250000D03*
X199010000Y-96520000D03*
X199010000Y-97790000D03*
X199010000Y-99060000D03*
X199010000Y-100330000D03*
X199010000Y-101600000D03*
X199010000Y-102870000D03*
X199010000Y-104140000D03*
X199010000Y-105410000D03*
X199010000Y-106680000D03*
X199010000Y-107950000D03*
X199010000Y-109220000D03*
X199010000Y-110490000D03*
X199010000Y-111760000D03*
X199010000Y-113030000D03*
X199010000Y-114300000D03*
X199010000Y-115570000D03*
X199010000Y-116840000D03*
D21*
X200660000Y-118490000D03*
X201930000Y-118490000D03*
X203200000Y-118490000D03*
X204470000Y-118490000D03*
X205740000Y-118490000D03*
X207010000Y-118490000D03*
X208280000Y-118490000D03*
X209550000Y-118490000D03*
X210820000Y-118490000D03*
X212090000Y-118490000D03*
D12*
X203840000Y-83820000D03*
X205740000Y-83820000D03*
D23*
X233807000Y-125732500D03*
X233807000Y-127632500D03*
D24*
X166941500Y-114046000D03*
X166941500Y-112146000D03*
X241808000Y-120015000D03*
X241808000Y-118115000D03*
D12*
X223522500Y-83820000D03*
X225422500Y-83820000D03*
D13*
X207259000Y-124460000D03*
X208959000Y-124460000D03*
X237950000Y-86350000D03*
X239650000Y-86350000D03*
D24*
X142700000Y-102450000D03*
X142700000Y-100550000D03*
D25*
X169500000Y-100200000D03*
X169500000Y-98500000D03*
D26*
X193164500Y-83820000D03*
X191264500Y-83820000D03*
D25*
X241250000Y-125000000D03*
X241250000Y-123300000D03*
D27*
X241173000Y-114300000D03*
X241173000Y-115800000D03*
D12*
X234193000Y-122745500D03*
X236093000Y-122745500D03*
D28*
X168850000Y-104550000D03*
X170750000Y-104550000D03*
X169800000Y-102450000D03*
D29*
X236100000Y-83975000D03*
X235450000Y-83975000D03*
X234800000Y-83975000D03*
X234150000Y-83975000D03*
D30*
X233500000Y-83975000D03*
D31*
X238600000Y-81300000D03*
D32*
X237900000Y-83850000D03*
D33*
X236000000Y-81300000D03*
X233600000Y-81300000D03*
D32*
X231700000Y-83850000D03*
D31*
X231000000Y-81300000D03*
D34*
X145700000Y-112350000D03*
X142600000Y-112350000D03*
D13*
X234251500Y-120078500D03*
X235951500Y-120078500D03*
D26*
X239710000Y-120078500D03*
X237810000Y-120078500D03*
D35*
X239400000Y-123300000D03*
X238750000Y-123300000D03*
X238100000Y-123300000D03*
X238100000Y-125000000D03*
X239400000Y-125000000D03*
D25*
X184550000Y-85400000D03*
X184550000Y-83700000D03*
D36*
X189400000Y-85400000D03*
D37*
X189400000Y-84850000D03*
X189400000Y-84350000D03*
D36*
X189400000Y-83800000D03*
D38*
X186700000Y-83800000D03*
D37*
X186700000Y-84350000D03*
X186700000Y-84850000D03*
D36*
X186700000Y-85400000D03*
D39*
X243900000Y-111750000D03*
X242400000Y-111750000D03*
D40*
X145700000Y-108200000D03*
X148800000Y-108200000D03*
D26*
X143500000Y-110200000D03*
X141600000Y-110200000D03*
D12*
X168846500Y-109220000D03*
X170746500Y-109220000D03*
D41*
X143800000Y-108200000D03*
X141600000Y-108200000D03*
D42*
X233680000Y-97917000D03*
X234950000Y-97917000D03*
X234950000Y-90297000D03*
X233680000Y-90297000D03*
D13*
X219050500Y-124460000D03*
X220750500Y-124460000D03*
D26*
X197101500Y-83820000D03*
X195201500Y-83820000D03*
X235011000Y-106362500D03*
X233111000Y-106362500D03*
X192910500Y-97599500D03*
X191010500Y-97599500D03*
D10*
X170650000Y-106999999D03*
X168950000Y-106999999D03*
D43*
X242200000Y-105900000D03*
X243700000Y-105900000D03*
D44*
X239201500Y-118110000D03*
X239201500Y-116840000D03*
X239201500Y-115570000D03*
X239201500Y-114300000D03*
X239201500Y-113030000D03*
X239201500Y-111760000D03*
X239201500Y-110490000D03*
X239201500Y-109220000D03*
X234251500Y-109220000D03*
X234251500Y-110490000D03*
X234251500Y-111760000D03*
X234251500Y-113030000D03*
X234251500Y-114300000D03*
X234251500Y-115570000D03*
X234251500Y-116840000D03*
X234251500Y-118110000D03*
D23*
X243903500Y-118115000D03*
X243903500Y-120015000D03*
D45*
X243899400Y-109849400D03*
X243899400Y-107649400D03*
X242199400Y-107649400D03*
X242199400Y-109849400D03*
D28*
X141750000Y-106250000D03*
X143650000Y-106250000D03*
X142700000Y-104150000D03*
D12*
X168846500Y-111252000D03*
X170746500Y-111252000D03*
M02*
