G04 #@! TF.GenerationSoftware,KiCad,Pcbnew,(6.0.2-0)*
G04 #@! TF.CreationDate,2022-08-15T13:28:30-04:00*
G04 #@! TF.ProjectId,TimeMachine,54696d65-4d61-4636-9869-6e652e6b6963,rev?*
G04 #@! TF.SameCoordinates,Original*
G04 #@! TF.FileFunction,Legend,Top*
G04 #@! TF.FilePolarity,Positive*
%FSLAX46Y46*%
G04 Gerber Fmt 4.6, Leading zero omitted, Abs format (unit mm)*
G04 Created by KiCad (PCBNEW (6.0.2-0)) date 2022-08-15 13:28:30*
%MOMM*%
%LPD*%
G01*
G04 APERTURE LIST*
G04 Aperture macros list*
%AMRoundRect*
0 Rectangle with rounded corners*
0 $1 Rounding radius*
0 $2 $3 $4 $5 $6 $7 $8 $9 X,Y pos of 4 corners*
0 Add a 4 corners polygon primitive as box body*
4,1,4,$2,$3,$4,$5,$6,$7,$8,$9,$2,$3,0*
0 Add four circle primitives for the rounded corners*
1,1,$1+$1,$2,$3*
1,1,$1+$1,$4,$5*
1,1,$1+$1,$6,$7*
1,1,$1+$1,$8,$9*
0 Add four rect primitives between the rounded corners*
20,1,$1+$1,$2,$3,$4,$5,0*
20,1,$1+$1,$4,$5,$6,$7,0*
20,1,$1+$1,$6,$7,$8,$9,0*
20,1,$1+$1,$8,$9,$2,$3,0*%
G04 Aperture macros list end*
%ADD10C,0.203200*%
%ADD11C,0.152400*%
%ADD12C,0.120000*%
%ADD13C,0.100000*%
%ADD14C,0.000000*%
%ADD15RoundRect,0.300000X0.412500X0.925000X-0.412500X0.925000X-0.412500X-0.925000X0.412500X-0.925000X0*%
%ADD16RoundRect,0.312500X0.262500X0.437500X-0.262500X0.437500X-0.262500X-0.437500X0.262500X-0.437500X0*%
%ADD17C,2.152400*%
%ADD18C,2.000000*%
%ADD19RoundRect,0.457200X0.381000X3.289000X-0.381000X3.289000X-0.381000X-3.289000X0.381000X-3.289000X0*%
%ADD20RoundRect,0.312500X-0.437500X0.262500X-0.437500X-0.262500X0.437500X-0.262500X0.437500X0.262500X0*%
%ADD21RoundRect,0.262500X-0.487500X0.212500X-0.487500X-0.212500X0.487500X-0.212500X0.487500X0.212500X0*%
%ADD22RoundRect,0.312500X-0.262500X-0.437500X0.262500X-0.437500X0.262500X0.437500X-0.262500X0.437500X0*%
%ADD23RoundRect,0.312500X0.437500X-0.262500X0.437500X0.262500X-0.437500X0.262500X-0.437500X-0.262500X0*%
%ADD24RoundRect,0.200000X-0.150000X-0.587500X0.150000X-0.587500X0.150000X0.587500X-0.150000X0.587500X0*%
%ADD25RoundRect,0.200000X-0.587500X-0.150000X0.587500X-0.150000X0.587500X0.150000X-0.587500X0.150000X0*%
%ADD26RoundRect,0.200000X-0.875000X-0.150000X0.875000X-0.150000X0.875000X0.150000X-0.875000X0.150000X0*%
%ADD27RoundRect,0.300000X0.945755X0.362392X0.362392X0.945755X-0.945755X-0.362392X-0.362392X-0.945755X0*%
%ADD28RoundRect,0.300000X-0.925000X0.412500X-0.925000X-0.412500X0.925000X-0.412500X0.925000X0.412500X0*%
%ADD29RoundRect,0.175000X0.125000X-0.637500X0.125000X0.637500X-0.125000X0.637500X-0.125000X-0.637500X0*%
%ADD30RoundRect,0.425450X-1.481742X1.975656X-1.975656X1.481742X1.481742X-1.975656X1.975656X-1.481742X0*%
%ADD31RoundRect,0.721200X0.000000X2.128391X-2.128391X0.000000X0.000000X-2.128391X2.128391X0.000000X0*%
%ADD32RoundRect,0.326200X-1.005000X-0.250000X1.005000X-0.250000X1.005000X0.250000X-1.005000X0.250000X0*%
%ADD33RoundRect,0.300000X-0.412500X-0.925000X0.412500X-0.925000X0.412500X0.925000X-0.412500X0.925000X0*%
%ADD34RoundRect,0.200000X-0.825000X-0.150000X0.825000X-0.150000X0.825000X0.150000X-0.825000X0.150000X0*%
%ADD35RoundRect,0.200000X0.150000X0.700000X-0.150000X0.700000X-0.150000X-0.700000X0.150000X-0.700000X0*%
%ADD36RoundRect,0.200000X0.700000X0.150000X-0.700000X0.150000X-0.700000X-0.150000X0.700000X-0.150000X0*%
%ADD37RoundRect,0.262500X-0.212500X-0.487500X0.212500X-0.487500X0.212500X0.487500X-0.212500X0.487500X0*%
%ADD38RoundRect,0.262500X0.487500X-0.212500X0.487500X0.212500X-0.487500X0.212500X-0.487500X-0.212500X0*%
%ADD39RoundRect,0.300000X-1.274000X-0.250000X1.274000X-0.250000X1.274000X0.250000X-1.274000X0.250000X0*%
%ADD40C,1.152400*%
G04 APERTURE END LIST*
D10*
X209605638Y-111187895D02*
X209605638Y-111768466D01*
X209566933Y-111884580D01*
X209489523Y-111961990D01*
X209373409Y-112000695D01*
X209296000Y-112000695D01*
X210379733Y-112000695D02*
X209992685Y-112000695D01*
X209992685Y-111187895D01*
X211115123Y-111923285D02*
X211076419Y-111961990D01*
X210960304Y-112000695D01*
X210882895Y-112000695D01*
X210766780Y-111961990D01*
X210689371Y-111884580D01*
X210650666Y-111807171D01*
X210611961Y-111652352D01*
X210611961Y-111536238D01*
X210650666Y-111381419D01*
X210689371Y-111304009D01*
X210766780Y-111226600D01*
X210882895Y-111187895D01*
X210960304Y-111187895D01*
X211076419Y-111226600D01*
X211115123Y-111265304D01*
X211695695Y-111187895D02*
X211695695Y-111768466D01*
X211656990Y-111884580D01*
X211579580Y-111961990D01*
X211463466Y-112000695D01*
X211386057Y-112000695D01*
X212469790Y-112000695D02*
X212082742Y-112000695D01*
X212082742Y-111187895D01*
X213205180Y-111923285D02*
X213166476Y-111961990D01*
X213050361Y-112000695D01*
X212972952Y-112000695D01*
X212856838Y-111961990D01*
X212779428Y-111884580D01*
X212740723Y-111807171D01*
X212702019Y-111652352D01*
X212702019Y-111536238D01*
X212740723Y-111381419D01*
X212779428Y-111304009D01*
X212856838Y-111226600D01*
X212972952Y-111187895D01*
X213050361Y-111187895D01*
X213166476Y-111226600D01*
X213205180Y-111265304D01*
X213785752Y-111187895D02*
X213785752Y-111768466D01*
X213747047Y-111884580D01*
X213669638Y-111961990D01*
X213553523Y-112000695D01*
X213476114Y-112000695D01*
X214559847Y-112000695D02*
X214172800Y-112000695D01*
X214172800Y-111187895D01*
X215295238Y-111923285D02*
X215256533Y-111961990D01*
X215140419Y-112000695D01*
X215063009Y-112000695D01*
X214946895Y-111961990D01*
X214869485Y-111884580D01*
X214830780Y-111807171D01*
X214792076Y-111652352D01*
X214792076Y-111536238D01*
X214830780Y-111381419D01*
X214869485Y-111304009D01*
X214946895Y-111226600D01*
X215063009Y-111187895D01*
X215140419Y-111187895D01*
X215256533Y-111226600D01*
X215295238Y-111265304D01*
X215875809Y-111187895D02*
X215875809Y-111768466D01*
X215837104Y-111884580D01*
X215759695Y-111961990D01*
X215643580Y-112000695D01*
X215566171Y-112000695D01*
X216649904Y-112000695D02*
X216262857Y-112000695D01*
X216262857Y-111187895D01*
X217385295Y-111923285D02*
X217346590Y-111961990D01*
X217230476Y-112000695D01*
X217153066Y-112000695D01*
X217036952Y-111961990D01*
X216959542Y-111884580D01*
X216920838Y-111807171D01*
X216882133Y-111652352D01*
X216882133Y-111536238D01*
X216920838Y-111381419D01*
X216959542Y-111304009D01*
X217036952Y-111226600D01*
X217153066Y-111187895D01*
X217230476Y-111187895D01*
X217346590Y-111226600D01*
X217385295Y-111265304D01*
X180990723Y-113854895D02*
X180990723Y-114512876D01*
X181029428Y-114590285D01*
X181068133Y-114628990D01*
X181145542Y-114667695D01*
X181300361Y-114667695D01*
X181377771Y-114628990D01*
X181416476Y-114590285D01*
X181455180Y-114512876D01*
X181455180Y-113854895D01*
X182229276Y-113854895D02*
X181842228Y-113854895D01*
X181803523Y-114241942D01*
X181842228Y-114203238D01*
X181919638Y-114164533D01*
X182113161Y-114164533D01*
X182190571Y-114203238D01*
X182229276Y-114241942D01*
X182267980Y-114319352D01*
X182267980Y-114512876D01*
X182229276Y-114590285D01*
X182190571Y-114628990D01*
X182113161Y-114667695D01*
X181919638Y-114667695D01*
X181842228Y-114628990D01*
X181803523Y-114590285D01*
X155510895Y-119364276D02*
X156168876Y-119364276D01*
X156246285Y-119325571D01*
X156284990Y-119286866D01*
X156323695Y-119209457D01*
X156323695Y-119054638D01*
X156284990Y-118977228D01*
X156246285Y-118938523D01*
X156168876Y-118899819D01*
X155510895Y-118899819D01*
X155588304Y-118551476D02*
X155549600Y-118512771D01*
X155510895Y-118435361D01*
X155510895Y-118241838D01*
X155549600Y-118164428D01*
X155588304Y-118125723D01*
X155665714Y-118087019D01*
X155743123Y-118087019D01*
X155859238Y-118125723D01*
X156323695Y-118590180D01*
X156323695Y-118087019D01*
X179554895Y-94619276D02*
X180212876Y-94619276D01*
X180290285Y-94580571D01*
X180328990Y-94541866D01*
X180367695Y-94464457D01*
X180367695Y-94309638D01*
X180328990Y-94232228D01*
X180290285Y-94193523D01*
X180212876Y-94154819D01*
X179554895Y-94154819D01*
X179825828Y-93419428D02*
X180367695Y-93419428D01*
X179516190Y-93612952D02*
X180096761Y-93806476D01*
X180096761Y-93303314D01*
X152986868Y-94200025D02*
X153096342Y-94145289D01*
X153151079Y-94145289D01*
X153233184Y-94172657D01*
X153315289Y-94254762D01*
X153342658Y-94336867D01*
X153342658Y-94391604D01*
X153315289Y-94473709D01*
X153096342Y-94692657D01*
X152521606Y-94117920D01*
X152713184Y-93926341D01*
X152795290Y-93898973D01*
X152850026Y-93898973D01*
X152932132Y-93926341D01*
X152986868Y-93981078D01*
X153014237Y-94063183D01*
X153014237Y-94117920D01*
X152986868Y-94200025D01*
X152795290Y-94391604D01*
X153014237Y-93625289D02*
X153342658Y-93296868D01*
X153753183Y-94035815D02*
X153178447Y-93461079D01*
X154410025Y-93378974D02*
X154081604Y-93707394D01*
X154245815Y-93543184D02*
X153671078Y-92968448D01*
X153698447Y-93105290D01*
X153698447Y-93214763D01*
X153671078Y-93296868D01*
X239606666Y-88089619D02*
X239606666Y-87073619D01*
X239945333Y-87799333D01*
X240284000Y-87073619D01*
X240284000Y-88089619D01*
X240912952Y-88089619D02*
X240816190Y-88041238D01*
X240767809Y-87992857D01*
X240719428Y-87896095D01*
X240719428Y-87605809D01*
X240767809Y-87509047D01*
X240816190Y-87460666D01*
X240912952Y-87412285D01*
X241058095Y-87412285D01*
X241154857Y-87460666D01*
X241203238Y-87509047D01*
X241251619Y-87605809D01*
X241251619Y-87896095D01*
X241203238Y-87992857D01*
X241154857Y-88041238D01*
X241058095Y-88089619D01*
X240912952Y-88089619D01*
X242122476Y-88089619D02*
X242122476Y-87073619D01*
X242122476Y-88041238D02*
X242025714Y-88089619D01*
X241832190Y-88089619D01*
X241735428Y-88041238D01*
X241687047Y-87992857D01*
X241638666Y-87896095D01*
X241638666Y-87605809D01*
X241687047Y-87509047D01*
X241735428Y-87460666D01*
X241832190Y-87412285D01*
X242025714Y-87412285D01*
X242122476Y-87460666D01*
X242993333Y-88041238D02*
X242896571Y-88089619D01*
X242703047Y-88089619D01*
X242606285Y-88041238D01*
X242557904Y-87944476D01*
X242557904Y-87557428D01*
X242606285Y-87460666D01*
X242703047Y-87412285D01*
X242896571Y-87412285D01*
X242993333Y-87460666D01*
X243041714Y-87557428D01*
X243041714Y-87654190D01*
X242557904Y-87750952D01*
X165924895Y-119999276D02*
X166582876Y-119999276D01*
X166660285Y-119960571D01*
X166698990Y-119921866D01*
X166737695Y-119844457D01*
X166737695Y-119689638D01*
X166698990Y-119612228D01*
X166660285Y-119573523D01*
X166582876Y-119534819D01*
X165924895Y-119534819D01*
X165924895Y-119225180D02*
X165924895Y-118722019D01*
X166234533Y-118992952D01*
X166234533Y-118876838D01*
X166273238Y-118799428D01*
X166311942Y-118760723D01*
X166389352Y-118722019D01*
X166582876Y-118722019D01*
X166660285Y-118760723D01*
X166698990Y-118799428D01*
X166737695Y-118876838D01*
X166737695Y-119109066D01*
X166698990Y-119186476D01*
X166660285Y-119225180D01*
X212740723Y-103694895D02*
X212740723Y-104352876D01*
X212779428Y-104430285D01*
X212818133Y-104468990D01*
X212895542Y-104507695D01*
X213050361Y-104507695D01*
X213127771Y-104468990D01*
X213166476Y-104430285D01*
X213205180Y-104352876D01*
X213205180Y-103694895D01*
X214017980Y-104507695D02*
X213553523Y-104507695D01*
X213785752Y-104507695D02*
X213785752Y-103694895D01*
X213708342Y-103811009D01*
X213630933Y-103888419D01*
X213553523Y-103927123D01*
X240854895Y-109490933D02*
X241435466Y-109490933D01*
X241551580Y-109529638D01*
X241628990Y-109607047D01*
X241667695Y-109723161D01*
X241667695Y-109800571D01*
X240932304Y-109142590D02*
X240893600Y-109103885D01*
X240854895Y-109026476D01*
X240854895Y-108832952D01*
X240893600Y-108755542D01*
X240932304Y-108716838D01*
X241009714Y-108678133D01*
X241087123Y-108678133D01*
X241203238Y-108716838D01*
X241667695Y-109181295D01*
X241667695Y-108678133D01*
X167017095Y-104502857D02*
X166968714Y-104551238D01*
X166823571Y-104599619D01*
X166726809Y-104599619D01*
X166581666Y-104551238D01*
X166484904Y-104454476D01*
X166436523Y-104357714D01*
X166388142Y-104164190D01*
X166388142Y-104019047D01*
X166436523Y-103825523D01*
X166484904Y-103728761D01*
X166581666Y-103632000D01*
X166726809Y-103583619D01*
X166823571Y-103583619D01*
X166968714Y-103632000D01*
X167017095Y-103680380D01*
X167597666Y-104599619D02*
X167500904Y-104551238D01*
X167452523Y-104454476D01*
X167452523Y-103583619D01*
X168129857Y-104599619D02*
X168033095Y-104551238D01*
X167984714Y-104502857D01*
X167936333Y-104406095D01*
X167936333Y-104115809D01*
X167984714Y-104019047D01*
X168033095Y-103970666D01*
X168129857Y-103922285D01*
X168275000Y-103922285D01*
X168371761Y-103970666D01*
X168420142Y-104019047D01*
X168468523Y-104115809D01*
X168468523Y-104406095D01*
X168420142Y-104502857D01*
X168371761Y-104551238D01*
X168275000Y-104599619D01*
X168129857Y-104599619D01*
X169339380Y-104551238D02*
X169242619Y-104599619D01*
X169049095Y-104599619D01*
X168952333Y-104551238D01*
X168903952Y-104502857D01*
X168855571Y-104406095D01*
X168855571Y-104115809D01*
X168903952Y-104019047D01*
X168952333Y-103970666D01*
X169049095Y-103922285D01*
X169242619Y-103922285D01*
X169339380Y-103970666D01*
X169774809Y-104599619D02*
X169774809Y-103583619D01*
X169871571Y-104212571D02*
X170161857Y-104599619D01*
X170161857Y-103922285D02*
X169774809Y-104309333D01*
X145853452Y-118408147D02*
X145853452Y-118795195D01*
X145582519Y-117982395D02*
X145853452Y-118408147D01*
X146124385Y-117982395D01*
X146821071Y-118795195D02*
X146356614Y-118795195D01*
X146588842Y-118795195D02*
X146588842Y-117982395D01*
X146511433Y-118098509D01*
X146434023Y-118175919D01*
X146356614Y-118214623D01*
D11*
X172640000Y-84088000D02*
X168430000Y-84088000D01*
X168430000Y-87108000D02*
X172640000Y-87108000D01*
X172640000Y-87108000D02*
X172640000Y-84088000D01*
X238316400Y-129070000D02*
X237503600Y-129070000D01*
X238316400Y-127470000D02*
X237503600Y-127470000D01*
X222236400Y-129070000D02*
X221423600Y-129070000D01*
X222236400Y-127470000D02*
X221423600Y-127470000D01*
X200216400Y-84620000D02*
X199403600Y-84620000D01*
X200216400Y-83020000D02*
X199403600Y-83020000D01*
X192240000Y-107123600D02*
X192240000Y-107936400D01*
X193840000Y-107123600D02*
X193840000Y-107936400D01*
X163995000Y-107228600D02*
X163995000Y-108041400D01*
X162395000Y-107228600D02*
X162395000Y-108041400D01*
X169353600Y-112611000D02*
X170166400Y-112611000D01*
X169353600Y-114211000D02*
X170166400Y-114211000D01*
X227558600Y-125260000D02*
X228371400Y-125260000D01*
X227558600Y-123660000D02*
X228371400Y-123660000D01*
X232880000Y-98616400D02*
X232880000Y-97803600D01*
X234480000Y-98616400D02*
X234480000Y-97803600D01*
X220153600Y-84620000D02*
X220966400Y-84620000D01*
X220153600Y-83020000D02*
X220966400Y-83020000D01*
X213803600Y-84620000D02*
X214616400Y-84620000D01*
X213803600Y-83020000D02*
X214616400Y-83020000D01*
X210350000Y-127863600D02*
X210350000Y-128676400D01*
X208750000Y-127863600D02*
X208750000Y-128676400D01*
X211290000Y-127863600D02*
X211290000Y-128676400D01*
X212890000Y-127863600D02*
X212890000Y-128676400D01*
X217183600Y-129070000D02*
X217996400Y-129070000D01*
X217183600Y-127470000D02*
X217996400Y-127470000D01*
X177240000Y-107205000D02*
X176957218Y-107205000D01*
D12*
X172370000Y-104790000D02*
X172370000Y-124810000D01*
D11*
X185980000Y-121395000D02*
X187435000Y-121395000D01*
X185980000Y-107205000D02*
X187435000Y-107205000D01*
X175785000Y-108377218D02*
X175785000Y-108660000D01*
X187435000Y-107205000D02*
X187435000Y-108660000D01*
X187435000Y-121395000D02*
X187435000Y-119940000D01*
D12*
X190850000Y-124810000D02*
X190850000Y-103790000D01*
D11*
X176957218Y-107205000D02*
X175785000Y-108377218D01*
D12*
X172370000Y-124810000D02*
X190850000Y-124810000D01*
X173370000Y-103790000D02*
X172370000Y-104790000D01*
D11*
X175785000Y-121395000D02*
X175785000Y-119940000D01*
D12*
X180610000Y-103790000D02*
X173370000Y-103790000D01*
D11*
X177240000Y-121395000D02*
X175785000Y-121395000D01*
D12*
X190850000Y-103790000D02*
X182610000Y-103790000D01*
D11*
X179894600Y-103035000D02*
X180707400Y-103035000D01*
X179894600Y-101435000D02*
X180707400Y-101435000D01*
X175959400Y-128359000D02*
X175146600Y-128359000D01*
X175959400Y-129959000D02*
X175146600Y-129959000D01*
X156653600Y-112560000D02*
X157466400Y-112560000D01*
X156653600Y-110960000D02*
X157466400Y-110960000D01*
X161098600Y-110960000D02*
X161911400Y-110960000D01*
X161098600Y-112560000D02*
X161911400Y-112560000D01*
X180910600Y-84925000D02*
X181723400Y-84925000D01*
X180910600Y-86525000D02*
X181723400Y-86525000D01*
D12*
X155956000Y-113485000D02*
X159816000Y-113485000D01*
X152096000Y-124005000D02*
X152096000Y-123750000D01*
X152096000Y-113740000D02*
X150281000Y-113740000D01*
X155956000Y-124005000D02*
X152096000Y-124005000D01*
X155956000Y-113485000D02*
X152096000Y-113485000D01*
X159816000Y-113485000D02*
X159816000Y-113740000D01*
X155956000Y-124005000D02*
X159816000Y-124005000D01*
X152096000Y-113485000D02*
X152096000Y-113740000D01*
X159816000Y-124005000D02*
X159816000Y-123750000D01*
D11*
X141895655Y-105169117D02*
X144872574Y-108146037D01*
X147008037Y-106010574D02*
X144031117Y-103033655D01*
X144872574Y-108146037D02*
X147008037Y-106010574D01*
X193915000Y-90015000D02*
X193915000Y-85805000D01*
X193915000Y-85805000D02*
X190895000Y-85805000D01*
X190895000Y-85805000D02*
X190895000Y-90015000D01*
X152208600Y-110960000D02*
X153021400Y-110960000D01*
X152208600Y-112560000D02*
X153021400Y-112560000D01*
D12*
X189315000Y-94000000D02*
X189315000Y-88810000D01*
X189315000Y-88810000D02*
X188935000Y-88810000D01*
X189315000Y-94000000D02*
X189315000Y-99190000D01*
X171065000Y-99190000D02*
X171065000Y-100350000D01*
X170685000Y-94000000D02*
X170685000Y-99190000D01*
X170685000Y-99190000D02*
X171065000Y-99190000D01*
X189315000Y-99190000D02*
X188935000Y-99190000D01*
X170685000Y-88810000D02*
X171065000Y-88810000D01*
X170685000Y-94000000D02*
X170685000Y-88810000D01*
D13*
X160757813Y-85822591D02*
X156946508Y-84047753D01*
X167185414Y-92250192D02*
X165445931Y-90510709D01*
X145512591Y-101067813D02*
X143737753Y-97256508D01*
X167185414Y-95191756D02*
X167185414Y-92250192D01*
X151940192Y-107495414D02*
X150200709Y-105755931D01*
X145958069Y-101513291D02*
X145512591Y-101067813D01*
X161203291Y-86268069D02*
X160757813Y-85822591D01*
X154881756Y-107495414D02*
X151940192Y-107495414D01*
X154881756Y-107495414D02*
X167185414Y-95191756D01*
X145413596Y-94208877D02*
G75*
G03*
X143742412Y-97240297I275771J-2128391D01*
G01*
X156946508Y-84047754D02*
G75*
G03*
X153889561Y-85709536I-919238J-1951615D01*
G01*
X145413596Y-94208878D02*
G75*
G03*
X153899630Y-85717843I-1279864J9765146D01*
G01*
D11*
X217183600Y-127038000D02*
X217996400Y-127038000D01*
X217183600Y-125438000D02*
X217996400Y-125438000D01*
X221423600Y-127038000D02*
X222236400Y-127038000D01*
X221423600Y-125438000D02*
X222236400Y-125438000D01*
D12*
X242630000Y-88840000D02*
X242630000Y-91950000D01*
X239970000Y-88840000D02*
X242630000Y-88840000D01*
X239970000Y-88840000D02*
X239970000Y-89410000D01*
X239970000Y-94040000D02*
X242630000Y-94040000D01*
X242630000Y-93470000D02*
X242630000Y-94040000D01*
X239970000Y-89410000D02*
X238450000Y-89410000D01*
X239970000Y-90930000D02*
X239970000Y-94040000D01*
D11*
X175959400Y-125819000D02*
X175146600Y-125819000D01*
X175959400Y-127419000D02*
X175146600Y-127419000D01*
X171209600Y-128359000D02*
X172022400Y-128359000D01*
X171209600Y-129959000D02*
X172022400Y-129959000D01*
X243685000Y-123585000D02*
X239475000Y-123585000D01*
X239475000Y-126605000D02*
X243685000Y-126605000D01*
X239475000Y-123585000D02*
X239475000Y-126605000D01*
D12*
X166370000Y-123805000D02*
X164420000Y-123805000D01*
X166370000Y-123805000D02*
X168320000Y-123805000D01*
X166370000Y-114955000D02*
X162920000Y-114955000D01*
X166370000Y-114955000D02*
X168320000Y-114955000D01*
D11*
X198594200Y-89374200D02*
X198594200Y-90880000D01*
D12*
X230510000Y-122290000D02*
X231510000Y-121290000D01*
X214360000Y-122290000D02*
X230510000Y-122290000D01*
D11*
X198594200Y-118905800D02*
X198594200Y-117400000D01*
X200100000Y-118905800D02*
X198594200Y-118905800D01*
X228125800Y-117730582D02*
X228125800Y-117400000D01*
D12*
X195210000Y-85990000D02*
X195210000Y-122290000D01*
D11*
X226950582Y-118905800D02*
X228125800Y-117730582D01*
X200100000Y-89374200D02*
X198594200Y-89374200D01*
D12*
X231510000Y-85990000D02*
X195210000Y-85990000D01*
X195210000Y-122290000D02*
X212360000Y-122290000D01*
X231510000Y-121290000D02*
X231510000Y-85990000D01*
D11*
X226620000Y-118905800D02*
X226950582Y-118905800D01*
X226620000Y-89374200D02*
X228125800Y-89374200D01*
X228125800Y-89374200D02*
X228125800Y-90880000D01*
X204383600Y-84620000D02*
X205196400Y-84620000D01*
X204383600Y-83020000D02*
X205196400Y-83020000D01*
X237020000Y-89626400D02*
X237020000Y-88813600D01*
X235420000Y-89626400D02*
X235420000Y-88813600D01*
X234480000Y-125958600D02*
X234480000Y-126771400D01*
X232880000Y-125958600D02*
X232880000Y-126771400D01*
D12*
X243900000Y-112520000D02*
X243900000Y-113540000D01*
X238700000Y-109980000D02*
X238700000Y-111000000D01*
X238700000Y-107440000D02*
X238700000Y-108460000D01*
X245975000Y-119650000D02*
X236625000Y-119650000D01*
X243900000Y-104900000D02*
X243900000Y-105920000D01*
X236375000Y-98540000D02*
X236375000Y-101080000D01*
X243900000Y-107440000D02*
X243900000Y-108460000D01*
X236625000Y-98790000D02*
X245975000Y-98790000D01*
X236375000Y-98540000D02*
X238915000Y-98540000D01*
X238700000Y-104900000D02*
X238700000Y-105920000D01*
X243900000Y-109980000D02*
X243900000Y-111000000D01*
X245975000Y-98790000D02*
X245975000Y-119650000D01*
X238700000Y-112520000D02*
X238700000Y-113540000D01*
X236625000Y-119650000D02*
X236625000Y-98790000D01*
X169605000Y-105350000D02*
X169605000Y-108460000D01*
X166945000Y-105350000D02*
X169605000Y-105350000D01*
X166945000Y-105920000D02*
X165425000Y-105920000D01*
X166945000Y-107440000D02*
X166945000Y-110550000D01*
X166945000Y-105350000D02*
X166945000Y-105920000D01*
X169605000Y-109980000D02*
X169605000Y-110550000D01*
X166945000Y-110550000D02*
X169605000Y-110550000D01*
X145008000Y-117370000D02*
X145008000Y-124270000D01*
X147468000Y-124270000D02*
X147468000Y-117370000D01*
X147468000Y-117370000D02*
X145008000Y-117370000D01*
X145888000Y-117370000D02*
X145288000Y-116470000D01*
X145008000Y-124270000D02*
X147468000Y-124270000D01*
X145288000Y-116470000D02*
X145288000Y-116270000D01*
X146588000Y-117370000D02*
X147188000Y-116470000D01*
X147188000Y-116470000D02*
X147188000Y-116270000D01*
G36*
X151296448Y-129859207D02*
G01*
X151457394Y-129859246D01*
X151628245Y-129859312D01*
X151809171Y-129859404D01*
X152000344Y-129859520D01*
X152095661Y-129859585D01*
X154277488Y-129861117D01*
X154300249Y-129877097D01*
X154316808Y-129891663D01*
X154331734Y-129909545D01*
X154336132Y-129916465D01*
X154340457Y-129924501D01*
X154343710Y-129932154D01*
X154346043Y-129941013D01*
X154347608Y-129952662D01*
X154348559Y-129968691D01*
X154349048Y-129990686D01*
X154349229Y-130020233D01*
X154349254Y-130052706D01*
X154349072Y-130086956D01*
X154348561Y-130118395D01*
X154347779Y-130145240D01*
X154346781Y-130165707D01*
X154345625Y-130178014D01*
X154345242Y-130179898D01*
X154336481Y-130197604D01*
X154321180Y-130216437D01*
X154302334Y-130233132D01*
X154288284Y-130241980D01*
X154286506Y-130242821D01*
X154284364Y-130243614D01*
X154281557Y-130244361D01*
X154277787Y-130245063D01*
X154272753Y-130245722D01*
X154266155Y-130246339D01*
X154257694Y-130246915D01*
X154247071Y-130247452D01*
X154233985Y-130247951D01*
X154218137Y-130248413D01*
X154199228Y-130248841D01*
X154176956Y-130249234D01*
X154151024Y-130249596D01*
X154121130Y-130249926D01*
X154086976Y-130250227D01*
X154048261Y-130250500D01*
X154004686Y-130250746D01*
X153955952Y-130250966D01*
X153901758Y-130251163D01*
X153841805Y-130251337D01*
X153775793Y-130251489D01*
X153703422Y-130251622D01*
X153624393Y-130251736D01*
X153538406Y-130251833D01*
X153445162Y-130251915D01*
X153344360Y-130251982D01*
X153235701Y-130252036D01*
X153118885Y-130252078D01*
X152993612Y-130252111D01*
X152859584Y-130252134D01*
X152716499Y-130252150D01*
X152564059Y-130252161D01*
X152401963Y-130252166D01*
X152229913Y-130252168D01*
X152082713Y-130252169D01*
X149897113Y-130252169D01*
X149873979Y-130239951D01*
X149849721Y-130221360D01*
X149835098Y-130202327D01*
X149819351Y-130176922D01*
X149817741Y-130063861D01*
X149817307Y-130024696D01*
X149817317Y-129994476D01*
X149817848Y-129971656D01*
X149818978Y-129954689D01*
X149820787Y-129942030D01*
X149823353Y-129932133D01*
X149824609Y-129928601D01*
X149837678Y-129905872D01*
X149857323Y-129885076D01*
X149880123Y-129869413D01*
X149893824Y-129863831D01*
X149898947Y-129863314D01*
X149910739Y-129862829D01*
X149929368Y-129862376D01*
X149955006Y-129861955D01*
X149987822Y-129861565D01*
X150027988Y-129861206D01*
X150075673Y-129860878D01*
X150131048Y-129860580D01*
X150194284Y-129860312D01*
X150265550Y-129860074D01*
X150345018Y-129859864D01*
X150432857Y-129859684D01*
X150529238Y-129859533D01*
X150634331Y-129859410D01*
X150748308Y-129859314D01*
X150871337Y-129859247D01*
X151003590Y-129859206D01*
X151145237Y-129859193D01*
X151296448Y-129859207D01*
G37*
G36*
X161243840Y-126332589D02*
G01*
X161278633Y-126329796D01*
X161288647Y-126329019D01*
X161297257Y-126327968D01*
X161305198Y-126325925D01*
X161313207Y-126322172D01*
X161322020Y-126315992D01*
X161332374Y-126306667D01*
X161345005Y-126293479D01*
X161360649Y-126275710D01*
X161380042Y-126252641D01*
X161403921Y-126223556D01*
X161433022Y-126187737D01*
X161465664Y-126147448D01*
X161493522Y-126113351D01*
X161520019Y-126081451D01*
X161544264Y-126052780D01*
X161565366Y-126028371D01*
X161582434Y-126009257D01*
X161594577Y-125996470D01*
X161600237Y-125991430D01*
X161606406Y-125987561D01*
X161612834Y-125984631D01*
X161621000Y-125982509D01*
X161632385Y-125981065D01*
X161648466Y-125980169D01*
X161670725Y-125979691D01*
X161700641Y-125979501D01*
X161736213Y-125979468D01*
X161774274Y-125979508D01*
X161803016Y-125979693D01*
X161823620Y-125980121D01*
X161837265Y-125980892D01*
X161845131Y-125982103D01*
X161848397Y-125983852D01*
X161848244Y-125986238D01*
X161846466Y-125988653D01*
X161841511Y-125994543D01*
X161830577Y-126007617D01*
X161814400Y-126026993D01*
X161793717Y-126051786D01*
X161769265Y-126081114D01*
X161741782Y-126114092D01*
X161712003Y-126149837D01*
X161694330Y-126171057D01*
X161662968Y-126208559D01*
X161632896Y-126244221D01*
X161604943Y-126277080D01*
X161579939Y-126306174D01*
X161558712Y-126330540D01*
X161542093Y-126349216D01*
X161530911Y-126361241D01*
X161527613Y-126364462D01*
X161505145Y-126384650D01*
X161523752Y-126403830D01*
X161530228Y-126411732D01*
X161542026Y-126427418D01*
X161558523Y-126450016D01*
X161579100Y-126478655D01*
X161603135Y-126512463D01*
X161630008Y-126550569D01*
X161659097Y-126592102D01*
X161689782Y-126636190D01*
X161705733Y-126659216D01*
X161869108Y-126895421D01*
X161752784Y-126896836D01*
X161714634Y-126897242D01*
X161685493Y-126897343D01*
X161663873Y-126897039D01*
X161648286Y-126896228D01*
X161637245Y-126894809D01*
X161629263Y-126892679D01*
X161622851Y-126889739D01*
X161619481Y-126887756D01*
X161612166Y-126881007D01*
X161600396Y-126866950D01*
X161583974Y-126845315D01*
X161562706Y-126815830D01*
X161536395Y-126778226D01*
X161504847Y-126732234D01*
X161474647Y-126687648D01*
X161447413Y-126647502D01*
X161421561Y-126609861D01*
X161397763Y-126575667D01*
X161376687Y-126545861D01*
X161359005Y-126521388D01*
X161345387Y-126503188D01*
X161336504Y-126492206D01*
X161333681Y-126489443D01*
X161319383Y-126483903D01*
X161297218Y-126480098D01*
X161282204Y-126478914D01*
X161243840Y-126476977D01*
X161243840Y-126898046D01*
X161018132Y-126898046D01*
X161018132Y-125564795D01*
X161243840Y-125564795D01*
X161243840Y-126332589D01*
G37*
G36*
X155469920Y-125989966D02*
G01*
X155711374Y-125989966D01*
X155711374Y-126147436D01*
X155469465Y-126147436D01*
X155471005Y-126411199D01*
X155471367Y-126470709D01*
X155471726Y-126520635D01*
X155472120Y-126561892D01*
X155472590Y-126595394D01*
X155473173Y-126622054D01*
X155473909Y-126642788D01*
X155474837Y-126658510D01*
X155475996Y-126670133D01*
X155477425Y-126678573D01*
X155479164Y-126684742D01*
X155481250Y-126689557D01*
X155483042Y-126692786D01*
X155501612Y-126715468D01*
X155524851Y-126728926D01*
X155552218Y-126733048D01*
X155583175Y-126727726D01*
X155607190Y-126718080D01*
X155624086Y-126710104D01*
X155637442Y-126705441D01*
X155648585Y-126704935D01*
X155658844Y-126709433D01*
X155669547Y-126719779D01*
X155682024Y-126736819D01*
X155697602Y-126761399D01*
X155711698Y-126784593D01*
X155739913Y-126831236D01*
X155722745Y-126845568D01*
X155702897Y-126859331D01*
X155676387Y-126873868D01*
X155646749Y-126887464D01*
X155617521Y-126898404D01*
X155607650Y-126901398D01*
X155584546Y-126906063D01*
X155554867Y-126909459D01*
X155521539Y-126911516D01*
X155487492Y-126912166D01*
X155455654Y-126911339D01*
X155428953Y-126908966D01*
X155413496Y-126905976D01*
X155375571Y-126892378D01*
X155343696Y-126873692D01*
X155315147Y-126848918D01*
X155287953Y-126815206D01*
X155266781Y-126775724D01*
X155255028Y-126739989D01*
X155253846Y-126729491D01*
X155252784Y-126709186D01*
X155251852Y-126679766D01*
X155251064Y-126641922D01*
X155250431Y-126596345D01*
X155249966Y-126543726D01*
X155249680Y-126484755D01*
X155249589Y-126432196D01*
X155249461Y-126147436D01*
X155191722Y-126147436D01*
X155165627Y-126147213D01*
X155147867Y-126146326D01*
X155136282Y-126144452D01*
X155128716Y-126141266D01*
X155123777Y-126137231D01*
X155115577Y-126125335D01*
X155110552Y-126108280D01*
X155108395Y-126084352D01*
X155108753Y-126052979D01*
X155110362Y-126013636D01*
X155147105Y-126007409D01*
X155173102Y-126003063D01*
X155201994Y-125998320D01*
X155221031Y-125995247D01*
X155258214Y-125989312D01*
X155280425Y-125864974D01*
X155286920Y-125829307D01*
X155293146Y-125796389D01*
X155298774Y-125767864D01*
X155303475Y-125745376D01*
X155306919Y-125730566D01*
X155308282Y-125725955D01*
X155314567Y-125714425D01*
X155324227Y-125706160D01*
X155338839Y-125700680D01*
X155359977Y-125697506D01*
X155389219Y-125696159D01*
X155406671Y-125696021D01*
X155469920Y-125696021D01*
X155469920Y-125989966D01*
G37*
G36*
X159104940Y-125601281D02*
G01*
X159130205Y-125602139D01*
X159150560Y-125603502D01*
X159164220Y-125605377D01*
X159169399Y-125607771D01*
X159169363Y-125608100D01*
X159167558Y-125613837D01*
X159162829Y-125629000D01*
X159155364Y-125652987D01*
X159145349Y-125685197D01*
X159132971Y-125725028D01*
X159118417Y-125771878D01*
X159101873Y-125825148D01*
X159083526Y-125884234D01*
X159063563Y-125948536D01*
X159042171Y-126017452D01*
X159019537Y-126090381D01*
X158995847Y-126166722D01*
X158971288Y-126245873D01*
X158968036Y-126256353D01*
X158768946Y-126898046D01*
X158546294Y-126898046D01*
X158516885Y-126807500D01*
X158511557Y-126791087D01*
X158503528Y-126766333D01*
X158493105Y-126734189D01*
X158480595Y-126695603D01*
X158466305Y-126651524D01*
X158450544Y-126602899D01*
X158433619Y-126550679D01*
X158415836Y-126495811D01*
X158397504Y-126439245D01*
X158378929Y-126381929D01*
X158360420Y-126324812D01*
X158342284Y-126268843D01*
X158324828Y-126214970D01*
X158308359Y-126164141D01*
X158293186Y-126117307D01*
X158279615Y-126075415D01*
X158267954Y-126039414D01*
X158258511Y-126010253D01*
X158251592Y-125988881D01*
X158247506Y-125976246D01*
X158246852Y-125974219D01*
X158243181Y-125966156D01*
X158240279Y-125968058D01*
X158239943Y-125968970D01*
X158237788Y-125975512D01*
X158232735Y-125990953D01*
X158225140Y-126014213D01*
X158215353Y-126044207D01*
X158203729Y-126079854D01*
X158190621Y-126120072D01*
X158176382Y-126163777D01*
X158168881Y-126186804D01*
X158152188Y-126238015D01*
X158132985Y-126296841D01*
X158112044Y-126360927D01*
X158090136Y-126427915D01*
X158068033Y-126495448D01*
X158046503Y-126561170D01*
X158026320Y-126622724D01*
X158018220Y-126647405D01*
X157935940Y-126898046D01*
X157713384Y-126898046D01*
X157514728Y-126258978D01*
X157490063Y-126179623D01*
X157466242Y-126102964D01*
X157443452Y-126029607D01*
X157421881Y-125960157D01*
X157401718Y-125895220D01*
X157383150Y-125835402D01*
X157366366Y-125781309D01*
X157351553Y-125733546D01*
X157338899Y-125692719D01*
X157328591Y-125659434D01*
X157320819Y-125634297D01*
X157315770Y-125617913D01*
X157313632Y-125610887D01*
X157313586Y-125610724D01*
X157313413Y-125607747D01*
X157315545Y-125605491D01*
X157321222Y-125603858D01*
X157331683Y-125602748D01*
X157348167Y-125602062D01*
X157371915Y-125601703D01*
X157404166Y-125601570D01*
X157428504Y-125601558D01*
X157467028Y-125601633D01*
X157496531Y-125601917D01*
X157518485Y-125602523D01*
X157534366Y-125603564D01*
X157545649Y-125605153D01*
X157553808Y-125607401D01*
X157560318Y-125610423D01*
X157562681Y-125611805D01*
X157576351Y-125622132D01*
X157586874Y-125633385D01*
X157587396Y-125634153D01*
X157590188Y-125641254D01*
X157595516Y-125657558D01*
X157603119Y-125682148D01*
X157612738Y-125714110D01*
X157624112Y-125752526D01*
X157636982Y-125796482D01*
X157651087Y-125845060D01*
X157666168Y-125897345D01*
X157681964Y-125952420D01*
X157698216Y-126009371D01*
X157714663Y-126067280D01*
X157731046Y-126125232D01*
X157747104Y-126182310D01*
X157762577Y-126237600D01*
X157777206Y-126290184D01*
X157790729Y-126339146D01*
X157802889Y-126383572D01*
X157813423Y-126422543D01*
X157822072Y-126455146D01*
X157828577Y-126480463D01*
X157832677Y-126497578D01*
X157833261Y-126500297D01*
X157844894Y-126556589D01*
X157856138Y-126510795D01*
X157859816Y-126497473D01*
X157866354Y-126475616D01*
X157875456Y-126446130D01*
X157886826Y-126409920D01*
X157900166Y-126367894D01*
X157915180Y-126320955D01*
X157931573Y-126270012D01*
X157949046Y-126215968D01*
X157967305Y-126159731D01*
X157986052Y-126102205D01*
X158004990Y-126044298D01*
X158023824Y-125986914D01*
X158042257Y-125930960D01*
X158059992Y-125877341D01*
X158076732Y-125826964D01*
X158092182Y-125780734D01*
X158106045Y-125739557D01*
X158118024Y-125704338D01*
X158127823Y-125675985D01*
X158135145Y-125655402D01*
X158139694Y-125643496D01*
X158140770Y-125641189D01*
X158151672Y-125627308D01*
X158165943Y-125614570D01*
X158167663Y-125613367D01*
X158176225Y-125608264D01*
X158185437Y-125604872D01*
X158197612Y-125602849D01*
X158215066Y-125601855D01*
X158240112Y-125601548D01*
X158247946Y-125601538D01*
X158282605Y-125602281D01*
X158308618Y-125604871D01*
X158327755Y-125609855D01*
X158341785Y-125617777D01*
X158352480Y-125629184D01*
X158356256Y-125634904D01*
X158359270Y-125642162D01*
X158365186Y-125658524D01*
X158373714Y-125683097D01*
X158384562Y-125714983D01*
X158397439Y-125753288D01*
X158412051Y-125797116D01*
X158428109Y-125845573D01*
X158445320Y-125897762D01*
X158463392Y-125952789D01*
X158482035Y-126009758D01*
X158500956Y-126067774D01*
X158519863Y-126125941D01*
X158538465Y-126183364D01*
X158556471Y-126239148D01*
X158573588Y-126292398D01*
X158589525Y-126342217D01*
X158603991Y-126387711D01*
X158616693Y-126427985D01*
X158627341Y-126462143D01*
X158635642Y-126489289D01*
X158641304Y-126508529D01*
X158643554Y-126516865D01*
X158652445Y-126552980D01*
X158664443Y-126495868D01*
X158667793Y-126481697D01*
X158673781Y-126458346D01*
X158682156Y-126426726D01*
X158692666Y-126387752D01*
X158705062Y-126342334D01*
X158719094Y-126291387D01*
X158734510Y-126235823D01*
X158751060Y-126176554D01*
X158768494Y-126114493D01*
X158786561Y-126050553D01*
X158789460Y-126040328D01*
X158810522Y-125966096D01*
X158828951Y-125901291D01*
X158844980Y-125845243D01*
X158858846Y-125797280D01*
X158870783Y-125756731D01*
X158881027Y-125722927D01*
X158889812Y-125695195D01*
X158897373Y-125672864D01*
X158903945Y-125655264D01*
X158909764Y-125641724D01*
X158915064Y-125631573D01*
X158920080Y-125624139D01*
X158925048Y-125618752D01*
X158930202Y-125614741D01*
X158935778Y-125611435D01*
X158940572Y-125608913D01*
X158950218Y-125606407D01*
X158967451Y-125604362D01*
X158990486Y-125602785D01*
X159017537Y-125601682D01*
X159046821Y-125601060D01*
X159076550Y-125600924D01*
X159104940Y-125601281D01*
G37*
G36*
X159200352Y-126394913D02*
G01*
X159203437Y-126352782D01*
X159208634Y-126317272D01*
X159209018Y-126315405D01*
X159226858Y-126252414D01*
X159252857Y-126193005D01*
X159286054Y-126139038D01*
X159322699Y-126095204D01*
X159370092Y-126053154D01*
X159422151Y-126019756D01*
X159479410Y-125994807D01*
X159542401Y-125978104D01*
X159611659Y-125969442D01*
X159656012Y-125968021D01*
X159727822Y-125971714D01*
X159793002Y-125983162D01*
X159852313Y-126002663D01*
X159906516Y-126030518D01*
X159956373Y-126067025D01*
X159990834Y-126099700D01*
X160012941Y-126124272D01*
X160030383Y-126147601D01*
X160046078Y-126173898D01*
X160057139Y-126195417D01*
X160075502Y-126235478D01*
X160089015Y-126272406D01*
X160098433Y-126309355D01*
X160104509Y-126349480D01*
X160108000Y-126395935D01*
X160108619Y-126410586D01*
X160109328Y-126464412D01*
X160106921Y-126511234D01*
X160101027Y-126554181D01*
X160091274Y-126596381D01*
X160083471Y-126622472D01*
X160058267Y-126685052D01*
X160025131Y-126740813D01*
X159984311Y-126789512D01*
X159936059Y-126830905D01*
X159880625Y-126864750D01*
X159818261Y-126890803D01*
X159801974Y-126895963D01*
X159782167Y-126901478D01*
X159763912Y-126905424D01*
X159744565Y-126908118D01*
X159721485Y-126909874D01*
X159692030Y-126911007D01*
X159671759Y-126911487D01*
X159640718Y-126911787D01*
X159611168Y-126911460D01*
X159585694Y-126910579D01*
X159566882Y-126909214D01*
X159560966Y-126908407D01*
X159493811Y-126891405D01*
X159432368Y-126865752D01*
X159377060Y-126831863D01*
X159328311Y-126790156D01*
X159286543Y-126741047D01*
X159252180Y-126684952D01*
X159225646Y-126622289D01*
X159209104Y-126562026D01*
X159203754Y-126527222D01*
X159200512Y-126485514D01*
X159199406Y-126441381D01*
X159431208Y-126441381D01*
X159434035Y-126507277D01*
X159442608Y-126564572D01*
X159457070Y-126613539D01*
X159477562Y-126654454D01*
X159504224Y-126687590D01*
X159537199Y-126713223D01*
X159576626Y-126731626D01*
X159581402Y-126733233D01*
X159603227Y-126737576D01*
X159631897Y-126739470D01*
X159664090Y-126739065D01*
X159696482Y-126736514D01*
X159725748Y-126731967D01*
X159748405Y-126725638D01*
X159778005Y-126709492D01*
X159806126Y-126685865D01*
X159829664Y-126657647D01*
X159840007Y-126640293D01*
X159853170Y-126611516D01*
X159862941Y-126582876D01*
X159869731Y-126552129D01*
X159873950Y-126517030D01*
X159876008Y-126475335D01*
X159876383Y-126441381D01*
X159876217Y-126406137D01*
X159875585Y-126379116D01*
X159874284Y-126358045D01*
X159872111Y-126340652D01*
X159868864Y-126324665D01*
X159864527Y-126308459D01*
X159848996Y-126262973D01*
X159830926Y-126226561D01*
X159809398Y-126197926D01*
X159783494Y-126175770D01*
X159761701Y-126163141D01*
X159720120Y-126147512D01*
X159676408Y-126139742D01*
X159632432Y-126139587D01*
X159590060Y-126146804D01*
X159551159Y-126161149D01*
X159517598Y-126182381D01*
X159502057Y-126196944D01*
X159476541Y-126230517D01*
X159456951Y-126269836D01*
X159443040Y-126315750D01*
X159434562Y-126369110D01*
X159431270Y-126430769D01*
X159431208Y-126441381D01*
X159199406Y-126441381D01*
X159199378Y-126440284D01*
X159200352Y-126394913D01*
G37*
G36*
X164902666Y-125974219D02*
G01*
X164938708Y-125974519D01*
X164965779Y-125975780D01*
X164985401Y-125978543D01*
X164999094Y-125983351D01*
X165008377Y-125990742D01*
X165014770Y-126001260D01*
X165019795Y-126015446D01*
X165019955Y-126015983D01*
X165025481Y-126037130D01*
X165030119Y-126059115D01*
X165031242Y-126065813D01*
X165033793Y-126079949D01*
X165036172Y-126088517D01*
X165037033Y-126089697D01*
X165041715Y-126086515D01*
X165052502Y-126077959D01*
X165067552Y-126065513D01*
X165077750Y-126056891D01*
X165120360Y-126023248D01*
X165160353Y-125997858D01*
X165200113Y-125979743D01*
X165242024Y-125967927D01*
X165288470Y-125961432D01*
X165314454Y-125959862D01*
X165367603Y-125960347D01*
X165413707Y-125966820D01*
X165454840Y-125980068D01*
X165493076Y-126000878D01*
X165530487Y-126030037D01*
X165551261Y-126049716D01*
X165572921Y-126072319D01*
X165589070Y-126091966D01*
X165602346Y-126112317D01*
X165615387Y-126137035D01*
X165617892Y-126142187D01*
X165640206Y-126195377D01*
X165656542Y-126250705D01*
X165667208Y-126309941D01*
X165672515Y-126374854D01*
X165672771Y-126447212D01*
X165672545Y-126454504D01*
X165668950Y-126512878D01*
X165662025Y-126563821D01*
X165651200Y-126610035D01*
X165635902Y-126654219D01*
X165624745Y-126679997D01*
X165593355Y-126736717D01*
X165554991Y-126786822D01*
X165510505Y-126829566D01*
X165460749Y-126864204D01*
X165406574Y-126889992D01*
X165372193Y-126900935D01*
X165346500Y-126905553D01*
X165314028Y-126908325D01*
X165278178Y-126909255D01*
X165242349Y-126908345D01*
X165209941Y-126905595D01*
X165184356Y-126901009D01*
X165183656Y-126900824D01*
X165146646Y-126887671D01*
X165109387Y-126868865D01*
X165076719Y-126846927D01*
X165070614Y-126841919D01*
X165049378Y-126823742D01*
X165049378Y-127197240D01*
X164823670Y-127197240D01*
X164823670Y-126658391D01*
X165049378Y-126658391D01*
X165072958Y-126680984D01*
X165089897Y-126695535D01*
X165108083Y-126708646D01*
X165118303Y-126714681D01*
X165158157Y-126729668D01*
X165202308Y-126737130D01*
X165247561Y-126736898D01*
X165290723Y-126728801D01*
X165303570Y-126724522D01*
X165339614Y-126705490D01*
X165370938Y-126677289D01*
X165397276Y-126640260D01*
X165418361Y-126594741D01*
X165427306Y-126567320D01*
X165434032Y-126535934D01*
X165438864Y-126497246D01*
X165441697Y-126454300D01*
X165442425Y-126410140D01*
X165440941Y-126367809D01*
X165437139Y-126330350D01*
X165435851Y-126322314D01*
X165424382Y-126271153D01*
X165409179Y-126229240D01*
X165389677Y-126195814D01*
X165365309Y-126170114D01*
X165335511Y-126151380D01*
X165299717Y-126138850D01*
X165299375Y-126138765D01*
X165278065Y-126134192D01*
X165260288Y-126132582D01*
X165240966Y-126133759D01*
X165223714Y-126136162D01*
X165187361Y-126143923D01*
X165156112Y-126155850D01*
X165126869Y-126173536D01*
X165096536Y-126198575D01*
X165089367Y-126205268D01*
X165049378Y-126243253D01*
X165049378Y-126658391D01*
X164823670Y-126658391D01*
X164823670Y-125974219D01*
X164902666Y-125974219D01*
G37*
G36*
X159082854Y-128845432D02*
G01*
X159086029Y-128744514D01*
X159091750Y-128652176D01*
X159100258Y-128566754D01*
X159111794Y-128486584D01*
X159126599Y-128410005D01*
X159144915Y-128335353D01*
X159166982Y-128260964D01*
X159168084Y-128257545D01*
X159206386Y-128152603D01*
X159250651Y-128056282D01*
X159300873Y-127968587D01*
X159357045Y-127889527D01*
X159419159Y-127819108D01*
X159487208Y-127757336D01*
X159561186Y-127704220D01*
X159641085Y-127659765D01*
X159726898Y-127623978D01*
X159818618Y-127596868D01*
X159844976Y-127590913D01*
X159878797Y-127585313D01*
X159920188Y-127580888D01*
X159966279Y-127577743D01*
X160014195Y-127575986D01*
X160061066Y-127575721D01*
X160104018Y-127577056D01*
X160139606Y-127580025D01*
X160235573Y-127596599D01*
X160326329Y-127622255D01*
X160411764Y-127656898D01*
X160491770Y-127700436D01*
X160566235Y-127752774D01*
X160635051Y-127813820D01*
X160698109Y-127883479D01*
X160755299Y-127961659D01*
X160806511Y-128048265D01*
X160851636Y-128143203D01*
X160878391Y-128211376D01*
X160903905Y-128287909D01*
X160925506Y-128366360D01*
X160943692Y-128448937D01*
X160958961Y-128537851D01*
X160969344Y-128614475D01*
X160972482Y-128647560D01*
X160975033Y-128689285D01*
X160977000Y-128737879D01*
X160978381Y-128791572D01*
X160979178Y-128848590D01*
X160979391Y-128907163D01*
X160979022Y-128965519D01*
X160978069Y-129021887D01*
X160976535Y-129074495D01*
X160974419Y-129121572D01*
X160971722Y-129161346D01*
X160969166Y-129186566D01*
X160952820Y-129298901D01*
X160932636Y-129402497D01*
X160908266Y-129498513D01*
X160879364Y-129588110D01*
X160845580Y-129672448D01*
X160806568Y-129752689D01*
X160791136Y-129780867D01*
X160738348Y-129864641D01*
X160679269Y-129940138D01*
X160614119Y-130007206D01*
X160543113Y-130065695D01*
X160466469Y-130115453D01*
X160384404Y-130156331D01*
X160297135Y-130188177D01*
X160204880Y-130210840D01*
X160161354Y-130218065D01*
X160131598Y-130221188D01*
X160094495Y-130223407D01*
X160053042Y-130224698D01*
X160010239Y-130225034D01*
X159969084Y-130224389D01*
X159932577Y-130222738D01*
X159905340Y-130220266D01*
X159812277Y-130203457D01*
X159723879Y-130177310D01*
X159640338Y-130141986D01*
X159561847Y-130097646D01*
X159488598Y-130044450D01*
X159420784Y-129982557D01*
X159358597Y-129912130D01*
X159302230Y-129833327D01*
X159251876Y-129746310D01*
X159207726Y-129651238D01*
X159200256Y-129632785D01*
X159167373Y-129541331D01*
X159140078Y-129446757D01*
X159118223Y-129348074D01*
X159101662Y-129244291D01*
X159090247Y-129134420D01*
X159083829Y-129017471D01*
X159082347Y-128899197D01*
X159540705Y-128899197D01*
X159541139Y-128961044D01*
X159542739Y-129018045D01*
X159542999Y-129024119D01*
X159547169Y-129102547D01*
X159552443Y-129172351D01*
X159559068Y-129235370D01*
X159567294Y-129293443D01*
X159577367Y-129348410D01*
X159589537Y-129402108D01*
X159598824Y-129437695D01*
X159624703Y-129520448D01*
X159654488Y-129593596D01*
X159688331Y-129657338D01*
X159726381Y-129711872D01*
X159768788Y-129757396D01*
X159815704Y-129794108D01*
X159867278Y-129822207D01*
X159899989Y-129834838D01*
X159954663Y-129849766D01*
X160006296Y-129856617D01*
X160058140Y-129855719D01*
X160081182Y-129853049D01*
X160144908Y-129839152D01*
X160203366Y-129816320D01*
X160256672Y-129784465D01*
X160304942Y-129743497D01*
X160348291Y-129693328D01*
X160386834Y-129633870D01*
X160401398Y-129606539D01*
X160414729Y-129577021D01*
X160429177Y-129539823D01*
X160443891Y-129497577D01*
X160458016Y-129452914D01*
X160470700Y-129408465D01*
X160481090Y-129366863D01*
X160485055Y-129348462D01*
X160499565Y-129263859D01*
X160510755Y-129171318D01*
X160518499Y-129072904D01*
X160522669Y-128970680D01*
X160523137Y-128866710D01*
X160520381Y-128775294D01*
X160515635Y-128692194D01*
X160509491Y-128617798D01*
X160501675Y-128550371D01*
X160491910Y-128488179D01*
X160479921Y-128429488D01*
X160465433Y-128372563D01*
X160448171Y-128315671D01*
X160446608Y-128310907D01*
X160425392Y-128251159D01*
X160403693Y-128200030D01*
X160380449Y-128155655D01*
X160354597Y-128116172D01*
X160325075Y-128079716D01*
X160299472Y-128052829D01*
X160252819Y-128013896D01*
X160200770Y-127983384D01*
X160144524Y-127961544D01*
X160085276Y-127948627D01*
X160024225Y-127944885D01*
X159962566Y-127950568D01*
X159901499Y-127965928D01*
X159895339Y-127968052D01*
X159848889Y-127987386D01*
X159808976Y-128010907D01*
X159771791Y-128041026D01*
X159756131Y-128056164D01*
X159715441Y-128103959D01*
X159678626Y-128161199D01*
X159645822Y-128227521D01*
X159617161Y-128302560D01*
X159592776Y-128385954D01*
X159572803Y-128477337D01*
X159557374Y-128576348D01*
X159553750Y-128606601D01*
X159549332Y-128654392D01*
X159545753Y-128710100D01*
X159543078Y-128771172D01*
X159541374Y-128835055D01*
X159540705Y-128899197D01*
X159082347Y-128899197D01*
X159082262Y-128892454D01*
X159082854Y-128845432D01*
G37*
G36*
X153306877Y-125960271D02*
G01*
X153344100Y-125967050D01*
X153373228Y-125979942D01*
X153382170Y-125986489D01*
X153395670Y-125997839D01*
X153381191Y-126076575D01*
X153375857Y-126104995D01*
X153370867Y-126130529D01*
X153366657Y-126151023D01*
X153363660Y-126164323D01*
X153362814Y-126167421D01*
X153356785Y-126178033D01*
X153346071Y-126184172D01*
X153329248Y-126186081D01*
X153304891Y-126184002D01*
X153284783Y-126180708D01*
X153258713Y-126176441D01*
X153238649Y-126174698D01*
X153220437Y-126175348D01*
X153200997Y-126178076D01*
X153158008Y-126189992D01*
X153119926Y-126210410D01*
X153086075Y-126239833D01*
X153055775Y-126278763D01*
X153047811Y-126291476D01*
X153029126Y-126322661D01*
X153029126Y-126898046D01*
X152803418Y-126898046D01*
X152803418Y-125979468D01*
X152885123Y-125979468D01*
X152915005Y-125979808D01*
X152941132Y-125980754D01*
X152961543Y-125982188D01*
X152974275Y-125983995D01*
X152976927Y-125984872D01*
X152986974Y-125993233D01*
X152994915Y-126007190D01*
X153001239Y-126028143D01*
X153006437Y-126057489D01*
X153008762Y-126075708D01*
X153011667Y-126098468D01*
X153014499Y-126116773D01*
X153016895Y-126128487D01*
X153018261Y-126131680D01*
X153022448Y-126127600D01*
X153030124Y-126117080D01*
X153036869Y-126106747D01*
X153058720Y-126077142D01*
X153086753Y-126046905D01*
X153118067Y-126018706D01*
X153149764Y-125995213D01*
X153172127Y-125982246D01*
X153193321Y-125972324D01*
X153210714Y-125966068D01*
X153228520Y-125962420D01*
X153250954Y-125960321D01*
X153261938Y-125959690D01*
X153306877Y-125960271D01*
G37*
G36*
X150849781Y-127566048D02*
G01*
X150896294Y-127567481D01*
X150940311Y-127569709D01*
X150979408Y-127572675D01*
X151011162Y-127576320D01*
X151018752Y-127577512D01*
X151118206Y-127599216D01*
X151212039Y-127629552D01*
X151301001Y-127668810D01*
X151385842Y-127717276D01*
X151391251Y-127720764D01*
X151416441Y-127737785D01*
X151441059Y-127755591D01*
X151463651Y-127772999D01*
X151482765Y-127788826D01*
X151496949Y-127801886D01*
X151504750Y-127810996D01*
X151505757Y-127814096D01*
X151501480Y-127823304D01*
X151492178Y-127839274D01*
X151479015Y-127860291D01*
X151463156Y-127884639D01*
X151445767Y-127910601D01*
X151428011Y-127936463D01*
X151411055Y-127960508D01*
X151396063Y-127981021D01*
X151384199Y-127996285D01*
X151376629Y-128004584D01*
X151376203Y-128004927D01*
X151364123Y-128012794D01*
X151351562Y-128016991D01*
X151334497Y-128018572D01*
X151323604Y-128018711D01*
X151309950Y-128018499D01*
X151298600Y-128017325D01*
X151287497Y-128014388D01*
X151274583Y-128008883D01*
X151257801Y-128000009D01*
X151235091Y-127986960D01*
X151220839Y-127978602D01*
X151154891Y-127942521D01*
X151092413Y-127914375D01*
X151030888Y-127893475D01*
X150967801Y-127879132D01*
X150900634Y-127870657D01*
X150826870Y-127867362D01*
X150814040Y-127867268D01*
X150758800Y-127868233D01*
X150710997Y-127871727D01*
X150667781Y-127878170D01*
X150626306Y-127887985D01*
X150585216Y-127901061D01*
X150523685Y-127926056D01*
X150469672Y-127955493D01*
X150420574Y-127991036D01*
X150373785Y-128034348D01*
X150369432Y-128038858D01*
X150322292Y-128094353D01*
X150282848Y-128154606D01*
X150250547Y-128220710D01*
X150224832Y-128293761D01*
X150209342Y-128354649D01*
X150204507Y-128383587D01*
X150200588Y-128420421D01*
X150197667Y-128462579D01*
X150195827Y-128507492D01*
X150195148Y-128552590D01*
X150195715Y-128595302D01*
X150197609Y-128633058D01*
X150199740Y-128654947D01*
X150215290Y-128742803D01*
X150238928Y-128824164D01*
X150270325Y-128898761D01*
X150309149Y-128966324D01*
X150355069Y-129026587D01*
X150407754Y-129079281D01*
X150466872Y-129124138D01*
X150532092Y-129160888D01*
X150603084Y-129189264D01*
X150679515Y-129208999D01*
X150761056Y-129219822D01*
X150847373Y-129221466D01*
X150895400Y-129218484D01*
X150957675Y-129211181D01*
X151014954Y-129200447D01*
X151071309Y-129185318D01*
X151130811Y-129164826D01*
X151146041Y-129158991D01*
X151186721Y-129143142D01*
X151186721Y-128798191D01*
X151054993Y-128798191D01*
X151007096Y-128798228D01*
X150968654Y-128797732D01*
X150938628Y-128795786D01*
X150915982Y-128791476D01*
X150899678Y-128783887D01*
X150888680Y-128772105D01*
X150881949Y-128755214D01*
X150878449Y-128732300D01*
X150877143Y-128702448D01*
X150876994Y-128664742D01*
X150877029Y-128641222D01*
X150877029Y-128530491D01*
X151506911Y-128530491D01*
X151506911Y-129305805D01*
X151469344Y-129330785D01*
X151390939Y-129377886D01*
X151308796Y-129417161D01*
X151221674Y-129449068D01*
X151128335Y-129474067D01*
X151036126Y-129491327D01*
X151006498Y-129494973D01*
X150969323Y-129498160D01*
X150926665Y-129500835D01*
X150880584Y-129502943D01*
X150833144Y-129504430D01*
X150786407Y-129505241D01*
X150742434Y-129505323D01*
X150703289Y-129504622D01*
X150671033Y-129503082D01*
X150653028Y-129501398D01*
X150555010Y-129484142D01*
X150460726Y-129457652D01*
X150370794Y-129422299D01*
X150285828Y-129378452D01*
X150206447Y-129326482D01*
X150133266Y-129266760D01*
X150066901Y-129199655D01*
X150007970Y-129125539D01*
X149994319Y-129105730D01*
X149943268Y-129020000D01*
X149901385Y-128929174D01*
X149868693Y-128833315D01*
X149845216Y-128732485D01*
X149839544Y-128698459D01*
X149834908Y-128657882D01*
X149831841Y-128609941D01*
X149830343Y-128557635D01*
X149830413Y-128503964D01*
X149832051Y-128451929D01*
X149835258Y-128404529D01*
X149839566Y-128367771D01*
X149859905Y-128265114D01*
X149888788Y-128168418D01*
X149925954Y-128077930D01*
X149971143Y-127993895D01*
X150024091Y-127916559D01*
X150084539Y-127846170D01*
X150152224Y-127782973D01*
X150226885Y-127727215D01*
X150308261Y-127679141D01*
X150396090Y-127638998D01*
X150490111Y-127607031D01*
X150590062Y-127583489D01*
X150687253Y-127569457D01*
X150719509Y-127567116D01*
X150758965Y-127565807D01*
X150803197Y-127565471D01*
X150849781Y-127566048D01*
G37*
G36*
X154777049Y-125989966D02*
G01*
X155018504Y-125989966D01*
X155018504Y-126147436D01*
X154776595Y-126147436D01*
X154778134Y-126411199D01*
X154778496Y-126470709D01*
X154778855Y-126520635D01*
X154779250Y-126561892D01*
X154779719Y-126595394D01*
X154780302Y-126622054D01*
X154781038Y-126642788D01*
X154781966Y-126658510D01*
X154783125Y-126670133D01*
X154784555Y-126678573D01*
X154786293Y-126684742D01*
X154788380Y-126689557D01*
X154790172Y-126692786D01*
X154808742Y-126715468D01*
X154831980Y-126728926D01*
X154859348Y-126733048D01*
X154890305Y-126727726D01*
X154914319Y-126718080D01*
X154931216Y-126710104D01*
X154944571Y-126705441D01*
X154955714Y-126704935D01*
X154965973Y-126709433D01*
X154976677Y-126719779D01*
X154989153Y-126736819D01*
X155004731Y-126761399D01*
X155018827Y-126784593D01*
X155047043Y-126831236D01*
X155029874Y-126845568D01*
X155010027Y-126859331D01*
X154983517Y-126873868D01*
X154953879Y-126887464D01*
X154924650Y-126898404D01*
X154914779Y-126901398D01*
X154891676Y-126906063D01*
X154861996Y-126909459D01*
X154828669Y-126911516D01*
X154794622Y-126912166D01*
X154762784Y-126911339D01*
X154736083Y-126908966D01*
X154720626Y-126905976D01*
X154682700Y-126892378D01*
X154650825Y-126873692D01*
X154622276Y-126848918D01*
X154595082Y-126815206D01*
X154573911Y-126775724D01*
X154562157Y-126739989D01*
X154560976Y-126729491D01*
X154559913Y-126709186D01*
X154558982Y-126679766D01*
X154558193Y-126641922D01*
X154557561Y-126596345D01*
X154557095Y-126543726D01*
X154556810Y-126484755D01*
X154556719Y-126432196D01*
X154556590Y-126147436D01*
X154498851Y-126147436D01*
X154472757Y-126147213D01*
X154454996Y-126146326D01*
X154443412Y-126144452D01*
X154435845Y-126141266D01*
X154430907Y-126137231D01*
X154422707Y-126125335D01*
X154417682Y-126108280D01*
X154415525Y-126084352D01*
X154415883Y-126052979D01*
X154417491Y-126013636D01*
X154454235Y-126007409D01*
X154480232Y-126003063D01*
X154509123Y-125998320D01*
X154528161Y-125995247D01*
X154565344Y-125989312D01*
X154587555Y-125864974D01*
X154594050Y-125829307D01*
X154600276Y-125796389D01*
X154605904Y-125767864D01*
X154610605Y-125745376D01*
X154614049Y-125730566D01*
X154615412Y-125725955D01*
X154621697Y-125714425D01*
X154631357Y-125706160D01*
X154645968Y-125700680D01*
X154667107Y-125697506D01*
X154696348Y-125696159D01*
X154713800Y-125696021D01*
X154777049Y-125696021D01*
X154777049Y-125989966D01*
G37*
G36*
X158105020Y-127586484D02*
G01*
X158176900Y-127595413D01*
X158243642Y-127609274D01*
X158307563Y-127628614D01*
X158370981Y-127653979D01*
X158410792Y-127672835D01*
X158484241Y-127715282D01*
X158551300Y-127765827D01*
X158611418Y-127823844D01*
X158664044Y-127888709D01*
X158708626Y-127959793D01*
X158744614Y-128036472D01*
X158754661Y-128063328D01*
X158774957Y-128134823D01*
X158788076Y-128211854D01*
X158794015Y-128292294D01*
X158792773Y-128374016D01*
X158784347Y-128454894D01*
X158768736Y-128532801D01*
X158755096Y-128579747D01*
X158742292Y-128614188D01*
X158724919Y-128654638D01*
X158704309Y-128698421D01*
X158681795Y-128742865D01*
X158658710Y-128785295D01*
X158636385Y-128823036D01*
X158625344Y-128840183D01*
X158608306Y-128865194D01*
X158590760Y-128889864D01*
X158572181Y-128914775D01*
X158552043Y-128940515D01*
X158529824Y-128967667D01*
X158504997Y-128996818D01*
X158477038Y-129028551D01*
X158445423Y-129063453D01*
X158409626Y-129102108D01*
X158369122Y-129145101D01*
X158323388Y-129193018D01*
X158271899Y-129246443D01*
X158214128Y-129305963D01*
X158149553Y-129372161D01*
X158133851Y-129388221D01*
X158090758Y-129432281D01*
X158046275Y-129477764D01*
X158001606Y-129523439D01*
X157957954Y-129568075D01*
X157916525Y-129610440D01*
X157878521Y-129649304D01*
X157845147Y-129683434D01*
X157817607Y-129711600D01*
X157811745Y-129717596D01*
X157784149Y-129745997D01*
X157759369Y-129771837D01*
X157738245Y-129794213D01*
X157721615Y-129812224D01*
X157710319Y-129824967D01*
X157705195Y-129831541D01*
X157705110Y-129832247D01*
X157713687Y-129830507D01*
X157724804Y-129826834D01*
X157734913Y-129823817D01*
X157753047Y-129819192D01*
X157776958Y-129813504D01*
X157804396Y-129807298D01*
X157815691Y-129804828D01*
X157892342Y-129788236D01*
X158302845Y-129786356D01*
X158390770Y-129786021D01*
X158468347Y-129785870D01*
X158535724Y-129785903D01*
X158593050Y-129786124D01*
X158640472Y-129786531D01*
X158678140Y-129787128D01*
X158706202Y-129787915D01*
X158724806Y-129788893D01*
X158734090Y-129790061D01*
X158768102Y-129804468D01*
X158797178Y-129827301D01*
X158819266Y-129856896D01*
X158821300Y-129860726D01*
X158837165Y-129891830D01*
X158840501Y-130199678D01*
X157055123Y-130199678D01*
X157055163Y-130124880D01*
X157055858Y-130079152D01*
X157058112Y-130041680D01*
X157062256Y-130010293D01*
X157068622Y-129982820D01*
X157077542Y-129957090D01*
X157082658Y-129945101D01*
X157085330Y-129939405D01*
X157088414Y-129933610D01*
X157092313Y-129927295D01*
X157097429Y-129920036D01*
X157104167Y-129911413D01*
X157112928Y-129901002D01*
X157124115Y-129888381D01*
X157138132Y-129873129D01*
X157155381Y-129854821D01*
X157176266Y-129833038D01*
X157201189Y-129807355D01*
X157230553Y-129777351D01*
X157264761Y-129742604D01*
X157304217Y-129702690D01*
X157349322Y-129657189D01*
X157400480Y-129605678D01*
X157458094Y-129547733D01*
X157522567Y-129482934D01*
X157548433Y-129456942D01*
X157622363Y-129382614D01*
X157689284Y-129315228D01*
X157749633Y-129254327D01*
X157803850Y-129199454D01*
X157852371Y-129150152D01*
X157895635Y-129105963D01*
X157934080Y-129066432D01*
X157968144Y-129031100D01*
X157998266Y-128999511D01*
X158024883Y-128971208D01*
X158048433Y-128945734D01*
X158069355Y-128922631D01*
X158088087Y-128901443D01*
X158105066Y-128881713D01*
X158120730Y-128862984D01*
X158135519Y-128844798D01*
X158137114Y-128842807D01*
X158191196Y-128769270D01*
X158237664Y-128693654D01*
X158275939Y-128617153D01*
X158305440Y-128540957D01*
X158325586Y-128466257D01*
X158328886Y-128449131D01*
X158333721Y-128412459D01*
X158336460Y-128370914D01*
X158337111Y-128327688D01*
X158335686Y-128285970D01*
X158332193Y-128248949D01*
X158328192Y-128226048D01*
X158311412Y-128171677D01*
X158287115Y-128121255D01*
X158256335Y-128076344D01*
X158220104Y-128038506D01*
X158188613Y-128014837D01*
X158137650Y-127988279D01*
X158081679Y-127969467D01*
X158022329Y-127958314D01*
X157961231Y-127954730D01*
X157900014Y-127958627D01*
X157840308Y-127969919D01*
X157783744Y-127988517D01*
X157731950Y-128014332D01*
X157693235Y-128041603D01*
X157652810Y-128079670D01*
X157618634Y-128122558D01*
X157589619Y-128171912D01*
X157564681Y-128229373D01*
X157559317Y-128244165D01*
X157547727Y-128275248D01*
X157537065Y-128298664D01*
X157525843Y-128316963D01*
X157512573Y-128332694D01*
X157501392Y-128343434D01*
X157485933Y-128355728D01*
X157469230Y-128365164D01*
X157450183Y-128371777D01*
X157427691Y-128375605D01*
X157400652Y-128376685D01*
X157367964Y-128375054D01*
X157328526Y-128370749D01*
X157281237Y-128363808D01*
X157224996Y-128354267D01*
X157217843Y-128352994D01*
X157104989Y-128332827D01*
X157106468Y-128309619D01*
X157109243Y-128287536D01*
X157114873Y-128258292D01*
X157122678Y-128224610D01*
X157131978Y-128189214D01*
X157142095Y-128154827D01*
X157152350Y-128124174D01*
X157153487Y-128121067D01*
X157186999Y-128041258D01*
X157226035Y-127969091D01*
X157271824Y-127902629D01*
X157325594Y-127839935D01*
X157343492Y-127821546D01*
X157410228Y-127761603D01*
X157481913Y-127710400D01*
X157558786Y-127667855D01*
X157641084Y-127633882D01*
X157729046Y-127608399D01*
X157822908Y-127591323D01*
X157922910Y-127582568D01*
X158025686Y-127581940D01*
X158105020Y-127586484D01*
G37*
G36*
X160781479Y-125960271D02*
G01*
X160818702Y-125967050D01*
X160847830Y-125979942D01*
X160856772Y-125986489D01*
X160870272Y-125997839D01*
X160855793Y-126076575D01*
X160850460Y-126104995D01*
X160845470Y-126130529D01*
X160841259Y-126151023D01*
X160838263Y-126164323D01*
X160837416Y-126167421D01*
X160831387Y-126178033D01*
X160820673Y-126184172D01*
X160803850Y-126186081D01*
X160779494Y-126184002D01*
X160759385Y-126180708D01*
X160733316Y-126176441D01*
X160713251Y-126174698D01*
X160695039Y-126175348D01*
X160675599Y-126178076D01*
X160632610Y-126189992D01*
X160594528Y-126210410D01*
X160560677Y-126239833D01*
X160530377Y-126278763D01*
X160522413Y-126291476D01*
X160503728Y-126322661D01*
X160503728Y-126898046D01*
X160278020Y-126898046D01*
X160278020Y-125979468D01*
X160359725Y-125979468D01*
X160389607Y-125979808D01*
X160415734Y-125980754D01*
X160436145Y-125982188D01*
X160448877Y-125983995D01*
X160451529Y-125984872D01*
X160461576Y-125993233D01*
X160469517Y-126007190D01*
X160475841Y-126028143D01*
X160481039Y-126057489D01*
X160483364Y-126075708D01*
X160486270Y-126098468D01*
X160489102Y-126116773D01*
X160491497Y-126128487D01*
X160492863Y-126131680D01*
X160497050Y-126127600D01*
X160504726Y-126117080D01*
X160511471Y-126106747D01*
X160533322Y-126077142D01*
X160561355Y-126046905D01*
X160592670Y-126018706D01*
X160624366Y-125995213D01*
X160646729Y-125982246D01*
X160667923Y-125972324D01*
X160685316Y-125966068D01*
X160703122Y-125962420D01*
X160725556Y-125960321D01*
X160736540Y-125959690D01*
X160781479Y-125960271D01*
G37*
G36*
X163746002Y-126394913D02*
G01*
X163749087Y-126352782D01*
X163754284Y-126317272D01*
X163754667Y-126315405D01*
X163772508Y-126252414D01*
X163798507Y-126193005D01*
X163831704Y-126139038D01*
X163868349Y-126095204D01*
X163915742Y-126053154D01*
X163967801Y-126019756D01*
X164025060Y-125994807D01*
X164088051Y-125978104D01*
X164157309Y-125969442D01*
X164201662Y-125968021D01*
X164273472Y-125971714D01*
X164338652Y-125983162D01*
X164397963Y-126002663D01*
X164452166Y-126030518D01*
X164502023Y-126067025D01*
X164536484Y-126099700D01*
X164558591Y-126124272D01*
X164576033Y-126147601D01*
X164591728Y-126173898D01*
X164602789Y-126195417D01*
X164621152Y-126235478D01*
X164634665Y-126272406D01*
X164644083Y-126309355D01*
X164650159Y-126349480D01*
X164653649Y-126395935D01*
X164654269Y-126410586D01*
X164654978Y-126464412D01*
X164652571Y-126511234D01*
X164646676Y-126554181D01*
X164636924Y-126596381D01*
X164629121Y-126622472D01*
X164603917Y-126685052D01*
X164570780Y-126740813D01*
X164529961Y-126789512D01*
X164481709Y-126830905D01*
X164426275Y-126864750D01*
X164363911Y-126890803D01*
X164347624Y-126895963D01*
X164327817Y-126901478D01*
X164309562Y-126905424D01*
X164290215Y-126908118D01*
X164267135Y-126909874D01*
X164237680Y-126911007D01*
X164217409Y-126911487D01*
X164186368Y-126911787D01*
X164156818Y-126911460D01*
X164131344Y-126910579D01*
X164112532Y-126909214D01*
X164106616Y-126908407D01*
X164039461Y-126891405D01*
X163978018Y-126865752D01*
X163922710Y-126831863D01*
X163873960Y-126790156D01*
X163832193Y-126741047D01*
X163797830Y-126684952D01*
X163771296Y-126622289D01*
X163754753Y-126562026D01*
X163749404Y-126527222D01*
X163746162Y-126485514D01*
X163745055Y-126441381D01*
X163976858Y-126441381D01*
X163979685Y-126507277D01*
X163988258Y-126564572D01*
X164002720Y-126613539D01*
X164023212Y-126654454D01*
X164049874Y-126687590D01*
X164082849Y-126713223D01*
X164122276Y-126731626D01*
X164127052Y-126733233D01*
X164148876Y-126737576D01*
X164177547Y-126739470D01*
X164209740Y-126739065D01*
X164242132Y-126736514D01*
X164271398Y-126731967D01*
X164294055Y-126725638D01*
X164323655Y-126709492D01*
X164351776Y-126685865D01*
X164375314Y-126657647D01*
X164385657Y-126640293D01*
X164398820Y-126611516D01*
X164408591Y-126582876D01*
X164415381Y-126552129D01*
X164419600Y-126517030D01*
X164421658Y-126475335D01*
X164422033Y-126441381D01*
X164421867Y-126406137D01*
X164421235Y-126379116D01*
X164419934Y-126358045D01*
X164417761Y-126340652D01*
X164414514Y-126324665D01*
X164410177Y-126308459D01*
X164394646Y-126262973D01*
X164376576Y-126226561D01*
X164355048Y-126197926D01*
X164329144Y-126175770D01*
X164307351Y-126163141D01*
X164265770Y-126147512D01*
X164222058Y-126139742D01*
X164178082Y-126139587D01*
X164135710Y-126146804D01*
X164096809Y-126161149D01*
X164063248Y-126182381D01*
X164047706Y-126196944D01*
X164022191Y-126230517D01*
X164002601Y-126269836D01*
X163988690Y-126315750D01*
X163980212Y-126369110D01*
X163976920Y-126430769D01*
X163976858Y-126441381D01*
X163745055Y-126441381D01*
X163745027Y-126440284D01*
X163746002Y-126394913D01*
G37*
G36*
X151872014Y-127585743D02*
G01*
X151910611Y-127586002D01*
X151941021Y-127586497D01*
X151964401Y-127587278D01*
X151981906Y-127588396D01*
X151994691Y-127589900D01*
X152003913Y-127591844D01*
X152009673Y-127593819D01*
X152034017Y-127608084D01*
X152055073Y-127627876D01*
X152066243Y-127644156D01*
X152069106Y-127651968D01*
X152074541Y-127669141D01*
X152082335Y-127694911D01*
X152092275Y-127728517D01*
X152104146Y-127769198D01*
X152117735Y-127816191D01*
X152132829Y-127868736D01*
X152149213Y-127926069D01*
X152166673Y-127987430D01*
X152184996Y-128052056D01*
X152203968Y-128119186D01*
X152223375Y-128188058D01*
X152243004Y-128257911D01*
X152262640Y-128327982D01*
X152282071Y-128397509D01*
X152301081Y-128465732D01*
X152319458Y-128531889D01*
X152336987Y-128595216D01*
X152353455Y-128654954D01*
X152368649Y-128710340D01*
X152382353Y-128760612D01*
X152394355Y-128805008D01*
X152404440Y-128842767D01*
X152412396Y-128873127D01*
X152418007Y-128895327D01*
X152420979Y-128908194D01*
X152426485Y-128934946D01*
X152431302Y-128957743D01*
X152435033Y-128974748D01*
X152437280Y-128984126D01*
X152437702Y-128985371D01*
X152439299Y-128981085D01*
X152442729Y-128968451D01*
X152447505Y-128949359D01*
X152453139Y-128925699D01*
X152453784Y-128922927D01*
X152457751Y-128907871D01*
X152464633Y-128884130D01*
X152474187Y-128852446D01*
X152486170Y-128813561D01*
X152500341Y-128768218D01*
X152516456Y-128717158D01*
X152534272Y-128661125D01*
X152553547Y-128600860D01*
X152574039Y-128537105D01*
X152595505Y-128470603D01*
X152617702Y-128402095D01*
X152640387Y-128332325D01*
X152663319Y-128262035D01*
X152686254Y-128191965D01*
X152708950Y-128122860D01*
X152731164Y-128055460D01*
X152752653Y-127990509D01*
X152773175Y-127928748D01*
X152792488Y-127870920D01*
X152810349Y-127817767D01*
X152826514Y-127770031D01*
X152840742Y-127728454D01*
X152852790Y-127693778D01*
X152862416Y-127666747D01*
X152869376Y-127648101D01*
X152873428Y-127638584D01*
X152873821Y-127637910D01*
X152887142Y-127621853D01*
X152903920Y-127606684D01*
X152909349Y-127602771D01*
X152917689Y-127597481D01*
X152925521Y-127593631D01*
X152934689Y-127590952D01*
X152947037Y-127589178D01*
X152964406Y-127588040D01*
X152988641Y-127587271D01*
X153020466Y-127586622D01*
X153060130Y-127586248D01*
X153091036Y-127587073D01*
X153114895Y-127589521D01*
X153133418Y-127594015D01*
X153148315Y-127600975D01*
X153161299Y-127610826D01*
X153174078Y-127623988D01*
X153174696Y-127624688D01*
X153177750Y-127628409D01*
X153180870Y-127632927D01*
X153184239Y-127638776D01*
X153188040Y-127646492D01*
X153192457Y-127656609D01*
X153197673Y-127669662D01*
X153203872Y-127686186D01*
X153211235Y-127706716D01*
X153219948Y-127731786D01*
X153230192Y-127761932D01*
X153242151Y-127797689D01*
X153256009Y-127839590D01*
X153271948Y-127888172D01*
X153290152Y-127943969D01*
X153310804Y-128007516D01*
X153334088Y-128079347D01*
X153360186Y-128159998D01*
X153389282Y-128250004D01*
X153395293Y-128268607D01*
X153420742Y-128347459D01*
X153445420Y-128424117D01*
X153469119Y-128497924D01*
X153491633Y-128568223D01*
X153512751Y-128634357D01*
X153532265Y-128695670D01*
X153549968Y-128751505D01*
X153565652Y-128801204D01*
X153579106Y-128844111D01*
X153590124Y-128879569D01*
X153598497Y-128906921D01*
X153604017Y-128925510D01*
X153606324Y-128933991D01*
X153611177Y-128954096D01*
X153615328Y-128969906D01*
X153618108Y-128978927D01*
X153618671Y-128980062D01*
X153620540Y-128976710D01*
X153622909Y-128965793D01*
X153624138Y-128957830D01*
X153625997Y-128945711D01*
X153628566Y-128931637D01*
X153631991Y-128915061D01*
X153636419Y-128895438D01*
X153641996Y-128872225D01*
X153648868Y-128844875D01*
X153657180Y-128812844D01*
X153667080Y-128775587D01*
X153678712Y-128732558D01*
X153692223Y-128683214D01*
X153707760Y-128627009D01*
X153725467Y-128563398D01*
X153745492Y-128491836D01*
X153767980Y-128411779D01*
X153793077Y-128322680D01*
X153818867Y-128231301D01*
X153844929Y-128139110D01*
X153868332Y-128056530D01*
X153889225Y-127983059D01*
X153907758Y-127918191D01*
X153924081Y-127861424D01*
X153938343Y-127812255D01*
X153950694Y-127770178D01*
X153961285Y-127734691D01*
X153970264Y-127705290D01*
X153977782Y-127681472D01*
X153983988Y-127662733D01*
X153989032Y-127648568D01*
X153993063Y-127638476D01*
X153996233Y-127631951D01*
X153997821Y-127629489D01*
X154011257Y-127616172D01*
X154029346Y-127603413D01*
X154038948Y-127598276D01*
X154046966Y-127594677D01*
X154054668Y-127591844D01*
X154063375Y-127589685D01*
X154074411Y-127588107D01*
X154089097Y-127587019D01*
X154108758Y-127586328D01*
X154134714Y-127585943D01*
X154168290Y-127585772D01*
X154210808Y-127585722D01*
X154219341Y-127585719D01*
X154258286Y-127585835D01*
X154293611Y-127586188D01*
X154324015Y-127586745D01*
X154348195Y-127587474D01*
X154364850Y-127588341D01*
X154372678Y-127589314D01*
X154373110Y-127589604D01*
X154371606Y-127594943D01*
X154367146Y-127609818D01*
X154359881Y-127633739D01*
X154349963Y-127666212D01*
X154337543Y-127706748D01*
X154322772Y-127754855D01*
X154305802Y-127810041D01*
X154286783Y-127871816D01*
X154265869Y-127939687D01*
X154243208Y-128013163D01*
X154218954Y-128091754D01*
X154193258Y-128174967D01*
X154166270Y-128262311D01*
X154138142Y-128353295D01*
X154109026Y-128447428D01*
X154080477Y-128539679D01*
X153787609Y-129485816D01*
X153625320Y-129484502D01*
X153463031Y-129483187D01*
X153246121Y-128814208D01*
X153219805Y-128732991D01*
X153194355Y-128654343D01*
X153169963Y-128578861D01*
X153146820Y-128507143D01*
X153125119Y-128439785D01*
X153105051Y-128377386D01*
X153086808Y-128320543D01*
X153070581Y-128269854D01*
X153056562Y-128225915D01*
X153044942Y-128189325D01*
X153035914Y-128160680D01*
X153029668Y-128140578D01*
X153026397Y-128129616D01*
X153025960Y-128127899D01*
X153022068Y-128114496D01*
X153017737Y-128111524D01*
X153013505Y-128118991D01*
X153011402Y-128127628D01*
X153009396Y-128134613D01*
X153004314Y-128150978D01*
X152996350Y-128176128D01*
X152985696Y-128209467D01*
X152972545Y-128250400D01*
X152957089Y-128298331D01*
X152939521Y-128352663D01*
X152920035Y-128412803D01*
X152898822Y-128478153D01*
X152876075Y-128548118D01*
X152851987Y-128622102D01*
X152826751Y-128699510D01*
X152800559Y-128779745D01*
X152788974Y-128815201D01*
X152569837Y-129485715D01*
X152408265Y-129485763D01*
X152360370Y-129485681D01*
X152322094Y-129485379D01*
X152292563Y-129484822D01*
X152270898Y-129483977D01*
X152256223Y-129482806D01*
X152247663Y-129481277D01*
X152244340Y-129479355D01*
X152244297Y-129479251D01*
X152242403Y-129473317D01*
X152237592Y-129457958D01*
X152230049Y-129433777D01*
X152219963Y-129401377D01*
X152207520Y-129361362D01*
X152192906Y-129314335D01*
X152176310Y-129260898D01*
X152157917Y-129201655D01*
X152137916Y-129137209D01*
X152116492Y-129068164D01*
X152093833Y-128995123D01*
X152070125Y-128918689D01*
X152045557Y-128839464D01*
X152020314Y-128758053D01*
X151994583Y-128675058D01*
X151968552Y-128591084D01*
X151942408Y-128506732D01*
X151916337Y-128422606D01*
X151890527Y-128339309D01*
X151865164Y-128257445D01*
X151840435Y-128177617D01*
X151816527Y-128100428D01*
X151793628Y-128026481D01*
X151771924Y-127956379D01*
X151751603Y-127890726D01*
X151732850Y-127830124D01*
X151715853Y-127775178D01*
X151700800Y-127726490D01*
X151687876Y-127684663D01*
X151677270Y-127650301D01*
X151669167Y-127624007D01*
X151663756Y-127606383D01*
X151661222Y-127598034D01*
X151661063Y-127597478D01*
X151657994Y-127585667D01*
X151824076Y-127585667D01*
X151872014Y-127585743D01*
G37*
G36*
X150553665Y-125595387D02*
G01*
X150610397Y-125603045D01*
X150663701Y-125615413D01*
X150715735Y-125632898D01*
X150768655Y-125655905D01*
X150775292Y-125659117D01*
X150800099Y-125672048D01*
X150826319Y-125687081D01*
X150852352Y-125703133D01*
X150876594Y-125719124D01*
X150897442Y-125733974D01*
X150913295Y-125746601D01*
X150922549Y-125755925D01*
X150924270Y-125759586D01*
X150921423Y-125766724D01*
X150913761Y-125780381D01*
X150902604Y-125798559D01*
X150889271Y-125819257D01*
X150875080Y-125840475D01*
X150861351Y-125860214D01*
X150849403Y-125876473D01*
X150840556Y-125887253D01*
X150839034Y-125888809D01*
X150825066Y-125899212D01*
X150809763Y-125903816D01*
X150791597Y-125902408D01*
X150769034Y-125894777D01*
X150740544Y-125880712D01*
X150727432Y-125873401D01*
X150673803Y-125845401D01*
X150622873Y-125824756D01*
X150571103Y-125810375D01*
X150514958Y-125801167D01*
X150483352Y-125798099D01*
X150427044Y-125797510D01*
X150369148Y-125803911D01*
X150312548Y-125816683D01*
X150260130Y-125835206D01*
X150222378Y-125854198D01*
X150198489Y-125870876D01*
X150171777Y-125893627D01*
X150144904Y-125919796D01*
X150120530Y-125946729D01*
X150101313Y-125971772D01*
X150095688Y-125980629D01*
X150068197Y-126035899D01*
X150045674Y-126099634D01*
X150041408Y-126114671D01*
X150035807Y-126142946D01*
X150031854Y-126178812D01*
X150029575Y-126219487D01*
X150028994Y-126262190D01*
X150030136Y-126304142D01*
X150033025Y-126342560D01*
X150037687Y-126374664D01*
X150039048Y-126381018D01*
X150059541Y-126450291D01*
X150087081Y-126511838D01*
X150121621Y-126565608D01*
X150163111Y-126611551D01*
X150211505Y-126649615D01*
X150266753Y-126679751D01*
X150328808Y-126701907D01*
X150349502Y-126707166D01*
X150375477Y-126712072D01*
X150403916Y-126715018D01*
X150437873Y-126716250D01*
X150462356Y-126716268D01*
X150514771Y-126714283D01*
X150561094Y-126708866D01*
X150605371Y-126699314D01*
X150651649Y-126684925D01*
X150659923Y-126681977D01*
X150703811Y-126666096D01*
X150703811Y-126430883D01*
X150611715Y-126430883D01*
X150578563Y-126430839D01*
X150554255Y-126430569D01*
X150537137Y-126429873D01*
X150525555Y-126428545D01*
X150517856Y-126426384D01*
X150512384Y-126423187D01*
X150507487Y-126418750D01*
X150506734Y-126417999D01*
X150501710Y-126412540D01*
X150498197Y-126406657D01*
X150495925Y-126398479D01*
X150494624Y-126386137D01*
X150494025Y-126367762D01*
X150493857Y-126341483D01*
X150493850Y-126328766D01*
X150493850Y-126252417D01*
X150929519Y-126252417D01*
X150929519Y-126774852D01*
X150885050Y-126802859D01*
X150821191Y-126838419D01*
X150753327Y-126866859D01*
X150679573Y-126888884D01*
X150622451Y-126901041D01*
X150595407Y-126904785D01*
X150560888Y-126907793D01*
X150521195Y-126910027D01*
X150478630Y-126911452D01*
X150435494Y-126912032D01*
X150394088Y-126911732D01*
X150356714Y-126910515D01*
X150325674Y-126908346D01*
X150307180Y-126905943D01*
X150226348Y-126886666D01*
X150150618Y-126858440D01*
X150080456Y-126821734D01*
X150016328Y-126777018D01*
X149958700Y-126724761D01*
X149908038Y-126665434D01*
X149864809Y-126599505D01*
X149829479Y-126527446D01*
X149802514Y-126449724D01*
X149786904Y-126381730D01*
X149782285Y-126346463D01*
X149779434Y-126304081D01*
X149778344Y-126257813D01*
X149779010Y-126210893D01*
X149781425Y-126166550D01*
X149785584Y-126128016D01*
X149787410Y-126116722D01*
X149806786Y-126035942D01*
X149834741Y-125960251D01*
X149870878Y-125890197D01*
X149914802Y-125826326D01*
X149966114Y-125769184D01*
X150024420Y-125719318D01*
X150089322Y-125677273D01*
X150116585Y-125662992D01*
X150166751Y-125640199D01*
X150214777Y-125622600D01*
X150263258Y-125609595D01*
X150314792Y-125600584D01*
X150371973Y-125594967D01*
X150421289Y-125592585D01*
X150491348Y-125592036D01*
X150553665Y-125595387D01*
G37*
G36*
X163628272Y-128998891D02*
G01*
X163667918Y-128897922D01*
X164176030Y-127604039D01*
X164673251Y-127604039D01*
X165181402Y-128897922D01*
X165225307Y-129009730D01*
X165268202Y-129118993D01*
X165309927Y-129225309D01*
X165350326Y-129328273D01*
X165389240Y-129427482D01*
X165426512Y-129522531D01*
X165461982Y-129613019D01*
X165495494Y-129698540D01*
X165526889Y-129778691D01*
X165556009Y-129853068D01*
X165582696Y-129921269D01*
X165606792Y-129982888D01*
X165628138Y-130037523D01*
X165646578Y-130084770D01*
X165661953Y-130124226D01*
X165674104Y-130155485D01*
X165682874Y-130178146D01*
X165688105Y-130191803D01*
X165689656Y-130196065D01*
X165684615Y-130196952D01*
X165670183Y-130197697D01*
X165647468Y-130198287D01*
X165617576Y-130198706D01*
X165581614Y-130198943D01*
X165540689Y-130198982D01*
X165495908Y-130198810D01*
X165478485Y-130198690D01*
X165425713Y-130198262D01*
X165382366Y-130197836D01*
X165347374Y-130197352D01*
X165319665Y-130196750D01*
X165298167Y-130195972D01*
X165281810Y-130194959D01*
X165269520Y-130193651D01*
X165260227Y-130191989D01*
X165252858Y-130189914D01*
X165246343Y-130187367D01*
X165242561Y-130185663D01*
X165215742Y-130169063D01*
X165190233Y-130145893D01*
X165169540Y-130119635D01*
X165161509Y-130105196D01*
X165157586Y-130095718D01*
X165150459Y-130077413D01*
X165140516Y-130051316D01*
X165128145Y-130018464D01*
X165113735Y-129979893D01*
X165097673Y-129936640D01*
X165080349Y-129889742D01*
X165062150Y-129840234D01*
X165057324Y-129827066D01*
X165039261Y-129777753D01*
X165022254Y-129731335D01*
X165006652Y-129688764D01*
X164992804Y-129650990D01*
X164981058Y-129618962D01*
X164971763Y-129593633D01*
X164965266Y-129575951D01*
X164961918Y-129566869D01*
X164961565Y-129565927D01*
X164959246Y-129564813D01*
X164952848Y-129563823D01*
X164941855Y-129562951D01*
X164925752Y-129562190D01*
X164904023Y-129561534D01*
X164876150Y-129560977D01*
X164841620Y-129560512D01*
X164799915Y-129560133D01*
X164750520Y-129559833D01*
X164692918Y-129559607D01*
X164626594Y-129559447D01*
X164551032Y-129559348D01*
X164465715Y-129559303D01*
X164424820Y-129559298D01*
X163890619Y-129559298D01*
X163884859Y-129573733D01*
X163881958Y-129581396D01*
X163875814Y-129597915D01*
X163866796Y-129622290D01*
X163855274Y-129653521D01*
X163841615Y-129690606D01*
X163826189Y-129732545D01*
X163809365Y-129778337D01*
X163791511Y-129826982D01*
X163787654Y-129837496D01*
X163769628Y-129886625D01*
X163752553Y-129933123D01*
X163736800Y-129975986D01*
X163722737Y-130014214D01*
X163710732Y-130046803D01*
X163701155Y-130072752D01*
X163694375Y-130091058D01*
X163690760Y-130100719D01*
X163690438Y-130101555D01*
X163680527Y-130118456D01*
X163664169Y-130137875D01*
X163644076Y-130157195D01*
X163622957Y-130173797D01*
X163604333Y-130184706D01*
X163597268Y-130187801D01*
X163590361Y-130190340D01*
X163582523Y-130192385D01*
X163572664Y-130194003D01*
X163559696Y-130195257D01*
X163542527Y-130196211D01*
X163520070Y-130196930D01*
X163491234Y-130197478D01*
X163454930Y-130197920D01*
X163410069Y-130198319D01*
X163368380Y-130198644D01*
X163322739Y-130198889D01*
X163280547Y-130198919D01*
X163242918Y-130198747D01*
X163210967Y-130198387D01*
X163185806Y-130197854D01*
X163168552Y-130197161D01*
X163160317Y-130196322D01*
X163159769Y-130196019D01*
X163161665Y-130190833D01*
X163167244Y-130176280D01*
X163176346Y-130152764D01*
X163188814Y-130120688D01*
X163204489Y-130080456D01*
X163223214Y-130032471D01*
X163244831Y-129977138D01*
X163269181Y-129914860D01*
X163296107Y-129846039D01*
X163325450Y-129771082D01*
X163357054Y-129690389D01*
X163390758Y-129604367D01*
X163426407Y-129513417D01*
X163463841Y-129417944D01*
X163502902Y-129318351D01*
X163543433Y-129215042D01*
X163544956Y-129211161D01*
X164016866Y-129211161D01*
X164017883Y-129212466D01*
X164022415Y-129213604D01*
X164031075Y-129214586D01*
X164044479Y-129215421D01*
X164063243Y-129216122D01*
X164087981Y-129216697D01*
X164119308Y-129217157D01*
X164157840Y-129217514D01*
X164204192Y-129217777D01*
X164258979Y-129217957D01*
X164322815Y-129218064D01*
X164396317Y-129218109D01*
X164424745Y-129218112D01*
X164500118Y-129218103D01*
X164565668Y-129218064D01*
X164622071Y-129217981D01*
X164670003Y-129217838D01*
X164710138Y-129217621D01*
X164743153Y-129217314D01*
X164769722Y-129216901D01*
X164790521Y-129216367D01*
X164806226Y-129215698D01*
X164817512Y-129214878D01*
X164825054Y-129213891D01*
X164829528Y-129212723D01*
X164831610Y-129211358D01*
X164831974Y-129209781D01*
X164831731Y-129208926D01*
X164829445Y-129202755D01*
X164823812Y-129187429D01*
X164815090Y-129163651D01*
X164803537Y-129132127D01*
X164789411Y-129093560D01*
X164772969Y-129048654D01*
X164754469Y-128998115D01*
X164734170Y-128942645D01*
X164712329Y-128882950D01*
X164689204Y-128819734D01*
X164665053Y-128753701D01*
X164661168Y-128743076D01*
X164624125Y-128641603D01*
X164590698Y-128549647D01*
X164560780Y-128466907D01*
X164534268Y-128393083D01*
X164511055Y-128327875D01*
X164491037Y-128270981D01*
X164474108Y-128222103D01*
X164460164Y-128180939D01*
X164449099Y-128147190D01*
X164440807Y-128120554D01*
X164435185Y-128100732D01*
X164432822Y-128090946D01*
X164429266Y-128078614D01*
X164425564Y-128071732D01*
X164425336Y-128071567D01*
X164422676Y-128075509D01*
X164417816Y-128087937D01*
X164411323Y-128107211D01*
X164403759Y-128131690D01*
X164398732Y-128148930D01*
X164388671Y-128183169D01*
X164377283Y-128220296D01*
X164365847Y-128256226D01*
X164355645Y-128286872D01*
X164353987Y-128291660D01*
X164350002Y-128302820D01*
X164342725Y-128322930D01*
X164332489Y-128351084D01*
X164319624Y-128386380D01*
X164304463Y-128427913D01*
X164287335Y-128474780D01*
X164268573Y-128526075D01*
X164248509Y-128580896D01*
X164227473Y-128638339D01*
X164205797Y-128697499D01*
X164183813Y-128757473D01*
X164161851Y-128817356D01*
X164140244Y-128876245D01*
X164119323Y-128933235D01*
X164099418Y-128987423D01*
X164080863Y-129037905D01*
X164063987Y-129083777D01*
X164049123Y-129124134D01*
X164036601Y-129158073D01*
X164026754Y-129184690D01*
X164019913Y-129203082D01*
X164016866Y-129211161D01*
X163544956Y-129211161D01*
X163585276Y-129108421D01*
X163628272Y-128998891D01*
G37*
G36*
X156048195Y-125525974D02*
G01*
X156054234Y-125533330D01*
X156062601Y-125548246D01*
X156072208Y-125568354D01*
X156081964Y-125591290D01*
X156090780Y-125614686D01*
X156095168Y-125627968D01*
X156104316Y-125670617D01*
X156107766Y-125718166D01*
X156105563Y-125766730D01*
X156097752Y-125812421D01*
X156092794Y-125829871D01*
X156071737Y-125880249D01*
X156041776Y-125930685D01*
X156004276Y-125979054D01*
X155980953Y-126003984D01*
X155963528Y-126021086D01*
X155948686Y-126035047D01*
X155938031Y-126044399D01*
X155933220Y-126047676D01*
X155927093Y-126045133D01*
X155914520Y-126038430D01*
X155897997Y-126028909D01*
X155894576Y-126026867D01*
X155876907Y-126015737D01*
X155862294Y-126005573D01*
X155853578Y-125998368D01*
X155853021Y-125997747D01*
X155846658Y-125984598D01*
X155847917Y-125968648D01*
X155857110Y-125948740D01*
X155872047Y-125926978D01*
X155900916Y-125882490D01*
X155919420Y-125838434D01*
X155927635Y-125794128D01*
X155925636Y-125748891D01*
X155913498Y-125702043D01*
X155900292Y-125670584D01*
X155887836Y-125642268D01*
X155881266Y-125621010D01*
X155880381Y-125605314D01*
X155884982Y-125593684D01*
X155889343Y-125588867D01*
X155897672Y-125583712D01*
X155913103Y-125576202D01*
X155933586Y-125567147D01*
X155957070Y-125557359D01*
X155981507Y-125547651D01*
X156004848Y-125538832D01*
X156025041Y-125531715D01*
X156040039Y-125527111D01*
X156047790Y-125525832D01*
X156048195Y-125525974D01*
G37*
G36*
X153488124Y-126316789D02*
G01*
X153507114Y-126249717D01*
X153534363Y-126188535D01*
X153569371Y-126133748D01*
X153611636Y-126085861D01*
X153660658Y-126045379D01*
X153715935Y-126012805D01*
X153776966Y-125988644D01*
X153826126Y-125976365D01*
X153861265Y-125971683D01*
X153902327Y-125969463D01*
X153945261Y-125969684D01*
X153986016Y-125972328D01*
X154020100Y-125977285D01*
X154080945Y-125994732D01*
X154135809Y-126020529D01*
X154184298Y-126054141D01*
X154226018Y-126095031D01*
X154260577Y-126142663D01*
X154287580Y-126196501D01*
X154306635Y-126256008D01*
X154317348Y-126320647D01*
X154319465Y-126385430D01*
X154318595Y-126412090D01*
X154317447Y-126430320D01*
X154315619Y-126442185D01*
X154312705Y-126449752D01*
X154308304Y-126455087D01*
X154305368Y-126457604D01*
X154302344Y-126459745D01*
X154298433Y-126461558D01*
X154292798Y-126463070D01*
X154284596Y-126464308D01*
X154272988Y-126465300D01*
X154257134Y-126466072D01*
X154236193Y-126466652D01*
X154209325Y-126467067D01*
X154175690Y-126467344D01*
X154134447Y-126467512D01*
X154084757Y-126467596D01*
X154025779Y-126467624D01*
X153996667Y-126467626D01*
X153700357Y-126467626D01*
X153703799Y-126492559D01*
X153714586Y-126550080D01*
X153729984Y-126598765D01*
X153750300Y-126639357D01*
X153775842Y-126672597D01*
X153780606Y-126677452D01*
X153812101Y-126703624D01*
X153846551Y-126722313D01*
X153885717Y-126734151D01*
X153931359Y-126739772D01*
X153955787Y-126740447D01*
X153988913Y-126739371D01*
X154018779Y-126735444D01*
X154048147Y-126727910D01*
X154079781Y-126716011D01*
X154116442Y-126698989D01*
X154127805Y-126693293D01*
X154159382Y-126677841D01*
X154183665Y-126667682D01*
X154202329Y-126662656D01*
X154217049Y-126662603D01*
X154229500Y-126667360D01*
X154241358Y-126676767D01*
X154246399Y-126681889D01*
X154259447Y-126696518D01*
X154275315Y-126715381D01*
X154290131Y-126733844D01*
X154314992Y-126765751D01*
X154281151Y-126797408D01*
X154234002Y-126834583D01*
X154179414Y-126865233D01*
X154118582Y-126888809D01*
X154052696Y-126904761D01*
X154045538Y-126905971D01*
X154002043Y-126911009D01*
X153953921Y-126913194D01*
X153904876Y-126912573D01*
X153858609Y-126909192D01*
X153819103Y-126903156D01*
X153766461Y-126887714D01*
X153718722Y-126866904D01*
X153662854Y-126833508D01*
X153613790Y-126792261D01*
X153571793Y-126743525D01*
X153537129Y-126687662D01*
X153510060Y-126625034D01*
X153490850Y-126556001D01*
X153490481Y-126554235D01*
X153485560Y-126522430D01*
X153482266Y-126484233D01*
X153480628Y-126442715D01*
X153480678Y-126400948D01*
X153482445Y-126361999D01*
X153485505Y-126333222D01*
X153706249Y-126333222D01*
X153711312Y-126333919D01*
X153725755Y-126334564D01*
X153748459Y-126335139D01*
X153778306Y-126335626D01*
X153814180Y-126336009D01*
X153854960Y-126336271D01*
X153899530Y-126336394D01*
X153913586Y-126336401D01*
X153965770Y-126336377D01*
X154008413Y-126336276D01*
X154042471Y-126336056D01*
X154068899Y-126335674D01*
X154088656Y-126335089D01*
X154102696Y-126334257D01*
X154111977Y-126333136D01*
X154117454Y-126331685D01*
X154120084Y-126329860D01*
X154120824Y-126327619D01*
X154120831Y-126327215D01*
X154119006Y-126310533D01*
X154114454Y-126287979D01*
X154108185Y-126263489D01*
X154101210Y-126241001D01*
X154094541Y-126224452D01*
X154094331Y-126224039D01*
X154071164Y-126189988D01*
X154040859Y-126162789D01*
X154004695Y-126143023D01*
X153963951Y-126131267D01*
X153919907Y-126128102D01*
X153889048Y-126131098D01*
X153842400Y-126142969D01*
X153803095Y-126162186D01*
X153770680Y-126189065D01*
X153744698Y-126223926D01*
X153737642Y-126236872D01*
X153730213Y-126253611D01*
X153722337Y-126274526D01*
X153715057Y-126296415D01*
X153709416Y-126316074D01*
X153706459Y-126330300D01*
X153706249Y-126333222D01*
X153485505Y-126333222D01*
X153485960Y-126328941D01*
X153488124Y-126316789D01*
G37*
G36*
X154920305Y-129178319D02*
G01*
X154945718Y-129143714D01*
X154975909Y-129102757D01*
X155010573Y-129055855D01*
X155049409Y-129003418D01*
X155092112Y-128945856D01*
X155138379Y-128883578D01*
X155187905Y-128816994D01*
X155240388Y-128746513D01*
X155295525Y-128672544D01*
X155353010Y-128595498D01*
X155412542Y-128515782D01*
X155473816Y-128433808D01*
X155485273Y-128418488D01*
X156096390Y-127601414D01*
X156519723Y-127601414D01*
X156519723Y-129218112D01*
X156845630Y-129218112D01*
X156844084Y-129364711D01*
X156843592Y-129407923D01*
X156843070Y-129441906D01*
X156842417Y-129467925D01*
X156841537Y-129487251D01*
X156840330Y-129501149D01*
X156838698Y-129510888D01*
X156836544Y-129517735D01*
X156833768Y-129522958D01*
X156831557Y-129526118D01*
X156819447Y-129539344D01*
X156804631Y-129551756D01*
X156803224Y-129552737D01*
X156797544Y-129556359D01*
X156791560Y-129559154D01*
X156783906Y-129561228D01*
X156773213Y-129562688D01*
X156758117Y-129563643D01*
X156737248Y-129564198D01*
X156709242Y-129564462D01*
X156672730Y-129564543D01*
X156652797Y-129564547D01*
X156519723Y-129564547D01*
X156519723Y-130199678D01*
X156131296Y-130199678D01*
X156131296Y-129564547D01*
X155568339Y-129564432D01*
X155479136Y-129564407D01*
X155399825Y-129564366D01*
X155329799Y-129564296D01*
X155268451Y-129564189D01*
X155215175Y-129564034D01*
X155169364Y-129563821D01*
X155130411Y-129563540D01*
X155097711Y-129563179D01*
X155070657Y-129562730D01*
X155048641Y-129562182D01*
X155031058Y-129561524D01*
X155017301Y-129560747D01*
X155006763Y-129559840D01*
X154998837Y-129558792D01*
X154992918Y-129557595D01*
X154988399Y-129556236D01*
X154984672Y-129554707D01*
X154984385Y-129554575D01*
X154959566Y-129538653D01*
X154937813Y-129516671D01*
X154922704Y-129492280D01*
X154922186Y-129491061D01*
X154918750Y-129480133D01*
X154913977Y-129461338D01*
X154908243Y-129436534D01*
X154901922Y-129407575D01*
X154895389Y-129376317D01*
X154889020Y-129344617D01*
X154883187Y-129314331D01*
X154878267Y-129287314D01*
X154874635Y-129265423D01*
X154872664Y-129250513D01*
X154872505Y-129245011D01*
X154875770Y-129239916D01*
X154885028Y-129226829D01*
X154891331Y-129218112D01*
X155344532Y-129218112D01*
X156131296Y-129218112D01*
X156131296Y-128745986D01*
X156131364Y-128657489D01*
X156131566Y-128575310D01*
X156131897Y-128499935D01*
X156132351Y-128431847D01*
X156132923Y-128371530D01*
X156133608Y-128319469D01*
X156134402Y-128276149D01*
X156135298Y-128242053D01*
X156136292Y-128217665D01*
X156136966Y-128207508D01*
X156138975Y-128182390D01*
X156140393Y-128161403D01*
X156141102Y-128146566D01*
X156140985Y-128139901D01*
X156140903Y-128139740D01*
X156137639Y-128143709D01*
X156128529Y-128155638D01*
X156113943Y-128175028D01*
X156094251Y-128201379D01*
X156069824Y-128234192D01*
X156041032Y-128272967D01*
X156008245Y-128317205D01*
X155971833Y-128366407D01*
X155932166Y-128420072D01*
X155889615Y-128477701D01*
X155844549Y-128538795D01*
X155797339Y-128602855D01*
X155748355Y-128669380D01*
X155741851Y-128678218D01*
X155344532Y-129218112D01*
X154891331Y-129218112D01*
X154899974Y-129206160D01*
X154920305Y-129178319D01*
G37*
G36*
X163008772Y-125816769D02*
G01*
X163010135Y-126068742D01*
X163046878Y-126041164D01*
X163094586Y-126009277D01*
X163141531Y-125986503D01*
X163190244Y-125971988D01*
X163243259Y-125964878D01*
X163276264Y-125963812D01*
X163316295Y-125964950D01*
X163349745Y-125969032D01*
X163380302Y-125976818D01*
X163411654Y-125989069D01*
X163422183Y-125993927D01*
X163465142Y-126020058D01*
X163502787Y-126054851D01*
X163534594Y-126097625D01*
X163560041Y-126147701D01*
X163575616Y-126193100D01*
X163577933Y-126201705D01*
X163579920Y-126210215D01*
X163581609Y-126219489D01*
X163583029Y-126230388D01*
X163584210Y-126243770D01*
X163585185Y-126260497D01*
X163585983Y-126281428D01*
X163586636Y-126307423D01*
X163587173Y-126339342D01*
X163587625Y-126378045D01*
X163588023Y-126424391D01*
X163588399Y-126479242D01*
X163588781Y-126543456D01*
X163588910Y-126566046D01*
X163590788Y-126898046D01*
X163364825Y-126898046D01*
X163363137Y-126576544D01*
X163362777Y-126508460D01*
X163362421Y-126450029D01*
X163361999Y-126400403D01*
X163361441Y-126358738D01*
X163360679Y-126324186D01*
X163359642Y-126295902D01*
X163358261Y-126273040D01*
X163356466Y-126254754D01*
X163354189Y-126240197D01*
X163351359Y-126228525D01*
X163347907Y-126218891D01*
X163343764Y-126210448D01*
X163338860Y-126202352D01*
X163333126Y-126193755D01*
X163331496Y-126191342D01*
X163311785Y-126168251D01*
X163287752Y-126152168D01*
X163257725Y-126142307D01*
X163220032Y-126137882D01*
X163217566Y-126137775D01*
X163175821Y-126139199D01*
X163137252Y-126147492D01*
X163099887Y-126163422D01*
X163061752Y-126187759D01*
X163035067Y-126208916D01*
X163007510Y-126232232D01*
X163007510Y-126898046D01*
X162781802Y-126898046D01*
X162781802Y-125564795D01*
X163007409Y-125564795D01*
X163008772Y-125816769D01*
G37*
G36*
X151096676Y-126615046D02*
G01*
X151100158Y-126600333D01*
X151114420Y-126566650D01*
X151136311Y-126532878D01*
X151163502Y-126502246D01*
X151183059Y-126485438D01*
X151235652Y-126451774D01*
X151296697Y-126424011D01*
X151365906Y-126402231D01*
X151442992Y-126386517D01*
X151527668Y-126376953D01*
X151565962Y-126374767D01*
X151643385Y-126371550D01*
X151643281Y-126342165D01*
X151642398Y-126320635D01*
X151640220Y-126295156D01*
X151637948Y-126276604D01*
X151628425Y-126233433D01*
X151613314Y-126199006D01*
X151592125Y-126172889D01*
X151564365Y-126154650D01*
X151529543Y-126143853D01*
X151487169Y-126140065D01*
X151483290Y-126140052D01*
X151457261Y-126140863D01*
X151434001Y-126143622D01*
X151411228Y-126149028D01*
X151386662Y-126157780D01*
X151358021Y-126170578D01*
X151323024Y-126188120D01*
X151318086Y-126190683D01*
X151292457Y-126203787D01*
X151273860Y-126212515D01*
X151260158Y-126217604D01*
X151249215Y-126219792D01*
X151238894Y-126219816D01*
X151234815Y-126219426D01*
X151216656Y-126215682D01*
X151201289Y-126207968D01*
X151186950Y-126194747D01*
X151171877Y-126174484D01*
X151158637Y-126153079D01*
X151133178Y-126109866D01*
X151145514Y-126096664D01*
X151159112Y-126084586D01*
X151179568Y-126069400D01*
X151204372Y-126052730D01*
X151231011Y-126036200D01*
X151256973Y-126021433D01*
X151279100Y-126010344D01*
X151326836Y-125992186D01*
X151379195Y-125978359D01*
X151434071Y-125968999D01*
X151489356Y-125964240D01*
X151542946Y-125964219D01*
X151592731Y-125969070D01*
X151636606Y-125978930D01*
X151656365Y-125986072D01*
X151708682Y-126012887D01*
X151752875Y-126045980D01*
X151789505Y-126085956D01*
X151819130Y-126133421D01*
X151841569Y-126186804D01*
X151855937Y-126228796D01*
X151857483Y-126566046D01*
X151859029Y-126903295D01*
X151807634Y-126903066D01*
X151769395Y-126902030D01*
X151740249Y-126899146D01*
X151718915Y-126894174D01*
X151704110Y-126886874D01*
X151699247Y-126882776D01*
X151692099Y-126872374D01*
X151683687Y-126855364D01*
X151675704Y-126835212D01*
X151674879Y-126832819D01*
X151661757Y-126794085D01*
X151617982Y-126827087D01*
X151571118Y-126858530D01*
X151523022Y-126883565D01*
X151476159Y-126900986D01*
X151456626Y-126905916D01*
X151433058Y-126909418D01*
X151402972Y-126911762D01*
X151369725Y-126912898D01*
X151336673Y-126912779D01*
X151307171Y-126911354D01*
X151284575Y-126908575D01*
X151283827Y-126908428D01*
X151235312Y-126893912D01*
X151192434Y-126871350D01*
X151156054Y-126841486D01*
X151127035Y-126805063D01*
X151106236Y-126762823D01*
X151102618Y-126752079D01*
X151095890Y-126720960D01*
X151092612Y-126684970D01*
X151092794Y-126657018D01*
X151306065Y-126657018D01*
X151310275Y-126689865D01*
X151322464Y-126716171D01*
X151342959Y-126736322D01*
X151372088Y-126750702D01*
X151390039Y-126755860D01*
X151411599Y-126759776D01*
X151432956Y-126760694D01*
X151458121Y-126758631D01*
X151475417Y-126756172D01*
X151513777Y-126746164D01*
X151553585Y-126728682D01*
X151591289Y-126705482D01*
X151613203Y-126687976D01*
X151643385Y-126661000D01*
X151643385Y-126587769D01*
X151643205Y-126557832D01*
X151642556Y-126536829D01*
X151641276Y-126523200D01*
X151639202Y-126515386D01*
X151636174Y-126511827D01*
X151635453Y-126511494D01*
X151625869Y-126510446D01*
X151608111Y-126510810D01*
X151584376Y-126512361D01*
X151556860Y-126514874D01*
X151527759Y-126518123D01*
X151499269Y-126521884D01*
X151473588Y-126525933D01*
X151452910Y-126530043D01*
X151451773Y-126530311D01*
X151411673Y-126541381D01*
X151380086Y-126553645D01*
X151355033Y-126567966D01*
X151342071Y-126578118D01*
X151321672Y-126599983D01*
X151310168Y-126623216D01*
X151306113Y-126650986D01*
X151306065Y-126657018D01*
X151092794Y-126657018D01*
X151092851Y-126648276D01*
X151096676Y-126615046D01*
G37*
G36*
X152577264Y-125960271D02*
G01*
X152614486Y-125967050D01*
X152643614Y-125979942D01*
X152652556Y-125986489D01*
X152666056Y-125997839D01*
X152651577Y-126076575D01*
X152646244Y-126104995D01*
X152641254Y-126130529D01*
X152637043Y-126151023D01*
X152634047Y-126164323D01*
X152633200Y-126167421D01*
X152627171Y-126178033D01*
X152616457Y-126184172D01*
X152599634Y-126186081D01*
X152575278Y-126184002D01*
X152555169Y-126180708D01*
X152529100Y-126176441D01*
X152509035Y-126174698D01*
X152490823Y-126175348D01*
X152471383Y-126178076D01*
X152428394Y-126189992D01*
X152390313Y-126210410D01*
X152356461Y-126239833D01*
X152326161Y-126278763D01*
X152318197Y-126291476D01*
X152299513Y-126322661D01*
X152299513Y-126898046D01*
X152073805Y-126898046D01*
X152073805Y-125979468D01*
X152155510Y-125979468D01*
X152185391Y-125979808D01*
X152211518Y-125980754D01*
X152231929Y-125982188D01*
X152244662Y-125983995D01*
X152247313Y-125984872D01*
X152257360Y-125993233D01*
X152265301Y-126007190D01*
X152271625Y-126028143D01*
X152276823Y-126057489D01*
X152279148Y-126075708D01*
X152282054Y-126098468D01*
X152284886Y-126116773D01*
X152287282Y-126128487D01*
X152288647Y-126131680D01*
X152292835Y-126127600D01*
X152300510Y-126117080D01*
X152307255Y-126106747D01*
X152329106Y-126077142D01*
X152357139Y-126046905D01*
X152388454Y-126018706D01*
X152420150Y-125995213D01*
X152442513Y-125982246D01*
X152463708Y-125972324D01*
X152481100Y-125966068D01*
X152498906Y-125962420D01*
X152521341Y-125960321D01*
X152532325Y-125959690D01*
X152577264Y-125960271D01*
G37*
G36*
X162341157Y-125966866D02*
G01*
X162376227Y-125969225D01*
X162405452Y-125972982D01*
X162419620Y-125976062D01*
X162448806Y-125985712D01*
X162480071Y-125998845D01*
X162511354Y-126014301D01*
X162540592Y-126030923D01*
X162565723Y-126047549D01*
X162584685Y-126063021D01*
X162594356Y-126074308D01*
X162595483Y-126081329D01*
X162591710Y-126092640D01*
X162582387Y-126109900D01*
X162576907Y-126118925D01*
X162560136Y-126145095D01*
X162546743Y-126163323D01*
X162535235Y-126174968D01*
X162524116Y-126181385D01*
X162511894Y-126183932D01*
X162505072Y-126184179D01*
X162480886Y-126180450D01*
X162454876Y-126170301D01*
X162402071Y-126147448D01*
X162351441Y-126133333D01*
X162303862Y-126128111D01*
X162260209Y-126131939D01*
X162251629Y-126133905D01*
X162216499Y-126145922D01*
X162190708Y-126161860D01*
X162173649Y-126182291D01*
X162164713Y-126207783D01*
X162163533Y-126216411D01*
X162163029Y-126236347D01*
X162166214Y-126253697D01*
X162173953Y-126269111D01*
X162187111Y-126283241D01*
X162206550Y-126296738D01*
X162233137Y-126310255D01*
X162267735Y-126324442D01*
X162311209Y-126339951D01*
X162340294Y-126349633D01*
X162398192Y-126369676D01*
X162446695Y-126389093D01*
X162486828Y-126408540D01*
X162519616Y-126428673D01*
X162546084Y-126450148D01*
X162567257Y-126473620D01*
X162584158Y-126499745D01*
X162588774Y-126508654D01*
X162595691Y-126523095D01*
X162600440Y-126534992D01*
X162603420Y-126546837D01*
X162605028Y-126561121D01*
X162605664Y-126580337D01*
X162605726Y-126606977D01*
X162605700Y-126614536D01*
X162605353Y-126645074D01*
X162604369Y-126667656D01*
X162602441Y-126684817D01*
X162599265Y-126699092D01*
X162594535Y-126713018D01*
X162593541Y-126715567D01*
X162568596Y-126765218D01*
X162535882Y-126807977D01*
X162495683Y-126843683D01*
X162448284Y-126872176D01*
X162393971Y-126893298D01*
X162333029Y-126906888D01*
X162265742Y-126912787D01*
X162241153Y-126913009D01*
X162214741Y-126912580D01*
X162191126Y-126911886D01*
X162172862Y-126911022D01*
X162162503Y-126910085D01*
X162162418Y-126910070D01*
X162121578Y-126900914D01*
X162078775Y-126887780D01*
X162036531Y-126871715D01*
X161997366Y-126853764D01*
X161963804Y-126834972D01*
X161940127Y-126817912D01*
X161919923Y-126800711D01*
X161950260Y-126750219D01*
X161964088Y-126728564D01*
X161977505Y-126709920D01*
X161988813Y-126696530D01*
X161994895Y-126691282D01*
X162014882Y-126683572D01*
X162037094Y-126683456D01*
X162062965Y-126691155D01*
X162092989Y-126706340D01*
X162128478Y-126725609D01*
X162159265Y-126738956D01*
X162188576Y-126747341D01*
X162219634Y-126751727D01*
X162249555Y-126753025D01*
X162274216Y-126753136D01*
X162291715Y-126752282D01*
X162305387Y-126749799D01*
X162318564Y-126745024D01*
X162334578Y-126737292D01*
X162338427Y-126735326D01*
X162366589Y-126717697D01*
X162385223Y-126697851D01*
X162395273Y-126674250D01*
X162397689Y-126645352D01*
X162397386Y-126639473D01*
X162394699Y-126621120D01*
X162388690Y-126605133D01*
X162378388Y-126590851D01*
X162362823Y-126577610D01*
X162341026Y-126564745D01*
X162312025Y-126551594D01*
X162274851Y-126537494D01*
X162228534Y-126521781D01*
X162222307Y-126519752D01*
X162190246Y-126508935D01*
X162157860Y-126497290D01*
X162128146Y-126485944D01*
X162104100Y-126476021D01*
X162095778Y-126472250D01*
X162049002Y-126445079D01*
X162010685Y-126412129D01*
X161981114Y-126373834D01*
X161960577Y-126330627D01*
X161949363Y-126282939D01*
X161947208Y-126248948D01*
X161952065Y-126195421D01*
X161966360Y-126146022D01*
X161989682Y-126101249D01*
X162021620Y-126061600D01*
X162061760Y-126027572D01*
X162109692Y-125999664D01*
X162165004Y-125978372D01*
X162172916Y-125976060D01*
X162196589Y-125971423D01*
X162227958Y-125968185D01*
X162264314Y-125966346D01*
X162302950Y-125965906D01*
X162341157Y-125966866D01*
G37*
G36*
X161230559Y-129230817D02*
G01*
X161241673Y-129142087D01*
X161260749Y-129055056D01*
X161288227Y-128967877D01*
X161324546Y-128878702D01*
X161341287Y-128842807D01*
X161351792Y-128821172D01*
X161361903Y-128800819D01*
X161371995Y-128781210D01*
X161382437Y-128761805D01*
X161393604Y-128742063D01*
X161405866Y-128721447D01*
X161419595Y-128699416D01*
X161435165Y-128675432D01*
X161452946Y-128648954D01*
X161473311Y-128619443D01*
X161496632Y-128586361D01*
X161523281Y-128549167D01*
X161553630Y-128507322D01*
X161588052Y-128460286D01*
X161626917Y-128407521D01*
X161670599Y-128348486D01*
X161719469Y-128282643D01*
X161773900Y-128209452D01*
X161831730Y-128131775D01*
X161885228Y-128059967D01*
X161932860Y-127996103D01*
X161975008Y-127939692D01*
X162012056Y-127890242D01*
X162044384Y-127847260D01*
X162072375Y-127810256D01*
X162096411Y-127778737D01*
X162116874Y-127752212D01*
X162134146Y-127730188D01*
X162148611Y-127712173D01*
X162160648Y-127697677D01*
X162170642Y-127686206D01*
X162178974Y-127677269D01*
X162186026Y-127670375D01*
X162192180Y-127665031D01*
X162197546Y-127660940D01*
X162216739Y-127647743D01*
X162235129Y-127636608D01*
X162253785Y-127627374D01*
X162273775Y-127619875D01*
X162296168Y-127613949D01*
X162322032Y-127609432D01*
X162352435Y-127606159D01*
X162388446Y-127603968D01*
X162431133Y-127602695D01*
X162481564Y-127602176D01*
X162540808Y-127602248D01*
X162579113Y-127602491D01*
X162783223Y-127604039D01*
X162374834Y-128105320D01*
X162323007Y-128168929D01*
X162272804Y-128230531D01*
X162224648Y-128289609D01*
X162178962Y-128345644D01*
X162136168Y-128398118D01*
X162096690Y-128446512D01*
X162060951Y-128490309D01*
X162029373Y-128528990D01*
X162002380Y-128562037D01*
X161980393Y-128588931D01*
X161963837Y-128609155D01*
X161953134Y-128622189D01*
X161948985Y-128627192D01*
X161939448Y-128639123D01*
X161933920Y-128647393D01*
X161933311Y-128649569D01*
X161938649Y-128648581D01*
X161950678Y-128644200D01*
X161963461Y-128638821D01*
X162033061Y-128612255D01*
X162104471Y-128593584D01*
X162179503Y-128582482D01*
X162259971Y-128578624D01*
X162296145Y-128579095D01*
X162361504Y-128582623D01*
X162419960Y-128589468D01*
X162474737Y-128600184D01*
X162529059Y-128615323D01*
X162552239Y-128623038D01*
X162633321Y-128656326D01*
X162707477Y-128697495D01*
X162774742Y-128746578D01*
X162835152Y-128803607D01*
X162888743Y-128868614D01*
X162935550Y-128941630D01*
X162958002Y-128984366D01*
X162984016Y-129042409D01*
X163004156Y-129099019D01*
X163019056Y-129156829D01*
X163029350Y-129218470D01*
X163035672Y-129286577D01*
X163037071Y-129312594D01*
X163036933Y-129407755D01*
X163027535Y-129498733D01*
X163008628Y-129586738D01*
X162979960Y-129672975D01*
X162947007Y-129747258D01*
X162914100Y-129808419D01*
X162878713Y-129862836D01*
X162838394Y-129913920D01*
X162790695Y-129965077D01*
X162789676Y-129966097D01*
X162741377Y-130011462D01*
X162693360Y-130050054D01*
X162642262Y-130084303D01*
X162584717Y-130116639D01*
X162572715Y-130122798D01*
X162503124Y-130155308D01*
X162436162Y-130180519D01*
X162368192Y-130199559D01*
X162295577Y-130213552D01*
X162265817Y-130217806D01*
X162231744Y-130221162D01*
X162190268Y-130223520D01*
X162144442Y-130224855D01*
X162097316Y-130225142D01*
X162051942Y-130224357D01*
X162011371Y-130222473D01*
X161983951Y-130220106D01*
X161891345Y-130204818D01*
X161802165Y-130180535D01*
X161717152Y-130147690D01*
X161637048Y-130106715D01*
X161562594Y-130058044D01*
X161494531Y-130002109D01*
X161433601Y-129939343D01*
X161380544Y-129870177D01*
X161377982Y-129866366D01*
X161330741Y-129786549D01*
X161292425Y-129701911D01*
X161262965Y-129612203D01*
X161242291Y-129517174D01*
X161230334Y-129416575D01*
X161229290Y-129387591D01*
X161654324Y-129387591D01*
X161654910Y-129412326D01*
X161662229Y-129488792D01*
X161677582Y-129558835D01*
X161700777Y-129622233D01*
X161731624Y-129678765D01*
X161769929Y-129728209D01*
X161815501Y-129770343D01*
X161868149Y-129804947D01*
X161927681Y-129831799D01*
X161993905Y-129850676D01*
X162041195Y-129858661D01*
X162075145Y-129861104D01*
X162115248Y-129861085D01*
X162157506Y-129858827D01*
X162197924Y-129854551D01*
X162232506Y-129848481D01*
X162235157Y-129847863D01*
X162300415Y-129827762D01*
X162359196Y-129799883D01*
X162412837Y-129763463D01*
X162462670Y-129717737D01*
X162462673Y-129717734D01*
X162507103Y-129663894D01*
X162542294Y-129605158D01*
X162568156Y-129541776D01*
X162584601Y-129473997D01*
X162591540Y-129402070D01*
X162591112Y-129357211D01*
X162583176Y-129282580D01*
X162566843Y-129213795D01*
X162542367Y-129151169D01*
X162510002Y-129095015D01*
X162470003Y-129045645D01*
X162422624Y-129003371D01*
X162368120Y-128968507D01*
X162306744Y-128941364D01*
X162238752Y-128922257D01*
X162236945Y-128921880D01*
X162164632Y-128911775D01*
X162092502Y-128911123D01*
X162021906Y-128919734D01*
X161954196Y-128937417D01*
X161890721Y-128963982D01*
X161873906Y-128972977D01*
X161842730Y-128993679D01*
X161809550Y-129021056D01*
X161777113Y-129052422D01*
X161748162Y-129085090D01*
X161725442Y-129116372D01*
X161722428Y-129121307D01*
X161691970Y-129181964D01*
X161670603Y-129245977D01*
X161658122Y-129314226D01*
X161654324Y-129387591D01*
X161229290Y-129387591D01*
X161226967Y-129323092D01*
X161230559Y-129230817D01*
G37*
G36*
X156630225Y-125966866D02*
G01*
X156665295Y-125969225D01*
X156694520Y-125972982D01*
X156708688Y-125976062D01*
X156737874Y-125985712D01*
X156769139Y-125998845D01*
X156800422Y-126014301D01*
X156829660Y-126030923D01*
X156854791Y-126047549D01*
X156873753Y-126063021D01*
X156883424Y-126074308D01*
X156884551Y-126081329D01*
X156880778Y-126092640D01*
X156871455Y-126109900D01*
X156865975Y-126118925D01*
X156849204Y-126145095D01*
X156835811Y-126163323D01*
X156824303Y-126174968D01*
X156813184Y-126181385D01*
X156800962Y-126183932D01*
X156794140Y-126184179D01*
X156769954Y-126180450D01*
X156743944Y-126170301D01*
X156691139Y-126147448D01*
X156640509Y-126133333D01*
X156592930Y-126128111D01*
X156549277Y-126131939D01*
X156540697Y-126133905D01*
X156505567Y-126145922D01*
X156479776Y-126161860D01*
X156462717Y-126182291D01*
X156453781Y-126207783D01*
X156452601Y-126216411D01*
X156452097Y-126236347D01*
X156455282Y-126253697D01*
X156463021Y-126269111D01*
X156476179Y-126283241D01*
X156495618Y-126296738D01*
X156522205Y-126310255D01*
X156556803Y-126324442D01*
X156600277Y-126339951D01*
X156629362Y-126349633D01*
X156687260Y-126369676D01*
X156735763Y-126389093D01*
X156775896Y-126408540D01*
X156808684Y-126428673D01*
X156835152Y-126450148D01*
X156856325Y-126473620D01*
X156873226Y-126499745D01*
X156877842Y-126508654D01*
X156884759Y-126523095D01*
X156889508Y-126534992D01*
X156892488Y-126546837D01*
X156894096Y-126561121D01*
X156894732Y-126580337D01*
X156894794Y-126606977D01*
X156894768Y-126614536D01*
X156894421Y-126645074D01*
X156893437Y-126667656D01*
X156891509Y-126684817D01*
X156888333Y-126699092D01*
X156883603Y-126713018D01*
X156882609Y-126715567D01*
X156857664Y-126765218D01*
X156824950Y-126807977D01*
X156784751Y-126843683D01*
X156737352Y-126872176D01*
X156683039Y-126893298D01*
X156622097Y-126906888D01*
X156554810Y-126912787D01*
X156530221Y-126913009D01*
X156503809Y-126912580D01*
X156480194Y-126911886D01*
X156461930Y-126911022D01*
X156451571Y-126910085D01*
X156451486Y-126910070D01*
X156410646Y-126900914D01*
X156367843Y-126887780D01*
X156325599Y-126871715D01*
X156286434Y-126853764D01*
X156252872Y-126834972D01*
X156229195Y-126817912D01*
X156208991Y-126800711D01*
X156239328Y-126750219D01*
X156253156Y-126728564D01*
X156266573Y-126709920D01*
X156277881Y-126696530D01*
X156283963Y-126691282D01*
X156303950Y-126683572D01*
X156326162Y-126683456D01*
X156352033Y-126691155D01*
X156382057Y-126706340D01*
X156417546Y-126725609D01*
X156448333Y-126738956D01*
X156477644Y-126747341D01*
X156508702Y-126751727D01*
X156538623Y-126753025D01*
X156563284Y-126753136D01*
X156580783Y-126752282D01*
X156594455Y-126749799D01*
X156607632Y-126745024D01*
X156623646Y-126737292D01*
X156627495Y-126735326D01*
X156655657Y-126717697D01*
X156674291Y-126697851D01*
X156684341Y-126674250D01*
X156686757Y-126645352D01*
X156686454Y-126639473D01*
X156683767Y-126621120D01*
X156677758Y-126605133D01*
X156667456Y-126590851D01*
X156651891Y-126577610D01*
X156630094Y-126564745D01*
X156601093Y-126551594D01*
X156563919Y-126537494D01*
X156517602Y-126521781D01*
X156511375Y-126519752D01*
X156479314Y-126508935D01*
X156446928Y-126497290D01*
X156417214Y-126485944D01*
X156393168Y-126476021D01*
X156384846Y-126472250D01*
X156338070Y-126445079D01*
X156299753Y-126412129D01*
X156270182Y-126373834D01*
X156249645Y-126330627D01*
X156238431Y-126282939D01*
X156236276Y-126248948D01*
X156241133Y-126195421D01*
X156255428Y-126146022D01*
X156278750Y-126101249D01*
X156310688Y-126061600D01*
X156350828Y-126027572D01*
X156398760Y-125999664D01*
X156454072Y-125978372D01*
X156461984Y-125976060D01*
X156485657Y-125971423D01*
X156517026Y-125968185D01*
X156553382Y-125966346D01*
X156592018Y-125965906D01*
X156630225Y-125966866D01*
G37*
%LPC*%
D14*
G36*
X241300000Y-139446000D02*
G01*
X240792000Y-139954000D01*
X175768000Y-139954000D01*
X175260000Y-139446000D01*
X175260000Y-132080000D01*
X241300000Y-132080000D01*
X241300000Y-139446000D01*
G37*
D15*
X171717500Y-85598000D03*
X168642500Y-85598000D03*
D16*
X238760000Y-128270000D03*
X237060000Y-128270000D03*
D17*
X144653000Y-129540000D03*
X242062000Y-129540000D03*
D16*
X222680000Y-128270000D03*
X220980000Y-128270000D03*
D18*
X244602000Y-129540000D03*
X142113000Y-129540000D03*
D19*
X177800000Y-135282000D03*
X180340000Y-135282000D03*
X182880000Y-135282000D03*
X185420000Y-135282000D03*
X187960000Y-135282000D03*
X190500000Y-135282000D03*
X193040000Y-135282000D03*
X195580000Y-135282000D03*
X198120000Y-135282000D03*
X200660000Y-135282000D03*
X203200000Y-135282000D03*
X205740000Y-135282000D03*
X208280000Y-135282000D03*
X210820000Y-135282000D03*
X213360000Y-135282000D03*
X215900000Y-135282000D03*
X218440000Y-135282000D03*
X220980000Y-135282000D03*
X223520000Y-135282000D03*
X226060000Y-135282000D03*
X228600000Y-135282000D03*
X231140000Y-135282000D03*
X233680000Y-135282000D03*
X236220000Y-135282000D03*
X238760000Y-135282000D03*
D17*
X242062000Y-82423000D03*
D18*
X244602000Y-82423000D03*
D17*
X158369000Y-82423000D03*
D18*
X155829000Y-82423000D03*
D17*
X142113000Y-98679000D03*
D16*
X200660000Y-83820000D03*
X198960000Y-83820000D03*
D20*
X193040000Y-106680000D03*
X193040000Y-108380000D03*
D21*
X163195000Y-106685000D03*
X163195000Y-108585000D03*
D18*
X142113000Y-96139000D03*
D22*
X168910000Y-113411000D03*
X170610000Y-113411000D03*
X227115000Y-124460000D03*
X228815000Y-124460000D03*
D23*
X233680000Y-99060000D03*
X233680000Y-97360000D03*
D22*
X219710000Y-83820000D03*
X221410000Y-83820000D03*
X213360000Y-83820000D03*
X215060000Y-83820000D03*
D21*
X209550000Y-127320000D03*
X209550000Y-129220000D03*
X212090000Y-127320000D03*
X212090000Y-129220000D03*
D22*
X216740000Y-128270000D03*
X218440000Y-128270000D03*
D24*
X181610000Y-107462500D03*
X180340000Y-107462500D03*
X179070000Y-107462500D03*
X177800000Y-107462500D03*
D25*
X176047500Y-109220000D03*
X176047500Y-110490000D03*
X176047500Y-111760000D03*
X176047500Y-113030000D03*
X176047500Y-114300000D03*
X176047500Y-115570000D03*
X176047500Y-116840000D03*
X176047500Y-118110000D03*
X176047500Y-119380000D03*
D24*
X177800000Y-121137500D03*
X179070000Y-121137500D03*
X180340000Y-121137500D03*
X181610000Y-121137500D03*
X182880000Y-121137500D03*
X184150000Y-121137500D03*
X185420000Y-121137500D03*
D25*
X187172500Y-119380000D03*
X187172500Y-118110000D03*
X187172500Y-116840000D03*
X187172500Y-115570000D03*
X187172500Y-114300000D03*
X187172500Y-113030000D03*
X187172500Y-111760000D03*
X187172500Y-110490000D03*
X187172500Y-109220000D03*
D24*
X185420000Y-107462500D03*
X184150000Y-107462500D03*
X182880000Y-107462500D03*
D22*
X179451000Y-102235000D03*
X181151000Y-102235000D03*
D16*
X176403000Y-129159000D03*
X174703000Y-129159000D03*
D22*
X156210000Y-111760000D03*
X157910000Y-111760000D03*
X160655000Y-111760000D03*
X162355000Y-111760000D03*
X180467000Y-85725000D03*
X182167000Y-85725000D03*
D26*
X151306000Y-114300000D03*
X151306000Y-115570000D03*
X151306000Y-116840000D03*
X151306000Y-118110000D03*
X151306000Y-119380000D03*
X151306000Y-120650000D03*
X151306000Y-121920000D03*
X151306000Y-123190000D03*
X160606000Y-123190000D03*
X160606000Y-121920000D03*
X160606000Y-120650000D03*
X160606000Y-119380000D03*
X160606000Y-118110000D03*
X160606000Y-116840000D03*
X160606000Y-115570000D03*
X160606000Y-114300000D03*
D27*
X145288000Y-106426000D03*
X143113646Y-104251646D03*
D28*
X192405000Y-86727500D03*
X192405000Y-89802500D03*
D22*
X151765000Y-111760000D03*
X153465000Y-111760000D03*
D29*
X171600000Y-99587500D03*
X172400000Y-99587500D03*
X173200000Y-99587500D03*
X174000000Y-99587500D03*
X174800000Y-99587500D03*
X175600000Y-99587500D03*
X176400000Y-99587500D03*
X177200000Y-99587500D03*
X178000000Y-99587500D03*
X178800000Y-99587500D03*
X179600000Y-99587500D03*
X180400000Y-99587500D03*
X181200000Y-99587500D03*
X182000000Y-99587500D03*
X182800000Y-99587500D03*
X183600000Y-99587500D03*
X184400000Y-99587500D03*
X185200000Y-99587500D03*
X186000000Y-99587500D03*
X186800000Y-99587500D03*
X187600000Y-99587500D03*
X188400000Y-99587500D03*
X188400000Y-88412500D03*
X187600000Y-88412500D03*
X186800000Y-88412500D03*
X186000000Y-88412500D03*
X185200000Y-88412500D03*
X184400000Y-88412500D03*
X183600000Y-88412500D03*
X182800000Y-88412500D03*
X182000000Y-88412500D03*
X181200000Y-88412500D03*
X180400000Y-88412500D03*
X179600000Y-88412500D03*
X178800000Y-88412500D03*
X178000000Y-88412500D03*
X177200000Y-88412500D03*
X176400000Y-88412500D03*
X175600000Y-88412500D03*
X174800000Y-88412500D03*
X174000000Y-88412500D03*
X173200000Y-88412500D03*
X172400000Y-88412500D03*
X171600000Y-88412500D03*
D30*
X163514823Y-88199177D03*
X147889177Y-103824823D03*
D31*
X155702000Y-96012000D03*
D22*
X216740000Y-126238000D03*
X218440000Y-126238000D03*
X220980000Y-126238000D03*
X222680000Y-126238000D03*
D32*
X239645000Y-90170000D03*
X242955000Y-92710000D03*
D16*
X176403000Y-126619000D03*
X174703000Y-126619000D03*
D22*
X170766000Y-129159000D03*
X172466000Y-129159000D03*
D33*
X240397500Y-125095000D03*
X243472500Y-125095000D03*
D34*
X163895000Y-115570000D03*
X163895000Y-116840000D03*
X163895000Y-118110000D03*
X163895000Y-119380000D03*
X163895000Y-120650000D03*
X163895000Y-121920000D03*
X163895000Y-123190000D03*
X168845000Y-123190000D03*
X168845000Y-121920000D03*
X168845000Y-120650000D03*
X168845000Y-119380000D03*
X168845000Y-118110000D03*
X168845000Y-116840000D03*
X168845000Y-115570000D03*
D35*
X213360000Y-118490000D03*
X214630000Y-118490000D03*
X215900000Y-118490000D03*
X217170000Y-118490000D03*
X218440000Y-118490000D03*
X219710000Y-118490000D03*
X220980000Y-118490000D03*
X222250000Y-118490000D03*
X223520000Y-118490000D03*
X224790000Y-118490000D03*
X226060000Y-118490000D03*
D36*
X227710000Y-116840000D03*
X227710000Y-115570000D03*
X227710000Y-114300000D03*
X227710000Y-113030000D03*
X227710000Y-111760000D03*
X227710000Y-110490000D03*
X227710000Y-109220000D03*
X227710000Y-107950000D03*
X227710000Y-106680000D03*
X227710000Y-105410000D03*
X227710000Y-104140000D03*
X227710000Y-102870000D03*
X227710000Y-101600000D03*
X227710000Y-100330000D03*
X227710000Y-99060000D03*
X227710000Y-97790000D03*
X227710000Y-96520000D03*
X227710000Y-95250000D03*
X227710000Y-93980000D03*
X227710000Y-92710000D03*
X227710000Y-91440000D03*
D35*
X226060000Y-89790000D03*
X224790000Y-89790000D03*
X223520000Y-89790000D03*
X222250000Y-89790000D03*
X220980000Y-89790000D03*
X219710000Y-89790000D03*
X218440000Y-89790000D03*
X217170000Y-89790000D03*
X215900000Y-89790000D03*
X214630000Y-89790000D03*
X213360000Y-89790000D03*
X212090000Y-89790000D03*
X210820000Y-89790000D03*
X209550000Y-89790000D03*
X208280000Y-89790000D03*
X207010000Y-89790000D03*
X205740000Y-89790000D03*
X204470000Y-89790000D03*
X203200000Y-89790000D03*
X201930000Y-89790000D03*
X200660000Y-89790000D03*
D36*
X199010000Y-91440000D03*
X199010000Y-92710000D03*
X199010000Y-93980000D03*
X199010000Y-95250000D03*
X199010000Y-96520000D03*
X199010000Y-97790000D03*
X199010000Y-99060000D03*
X199010000Y-100330000D03*
X199010000Y-101600000D03*
X199010000Y-102870000D03*
X199010000Y-104140000D03*
X199010000Y-105410000D03*
X199010000Y-106680000D03*
X199010000Y-107950000D03*
X199010000Y-109220000D03*
X199010000Y-110490000D03*
X199010000Y-111760000D03*
X199010000Y-113030000D03*
X199010000Y-114300000D03*
X199010000Y-115570000D03*
X199010000Y-116840000D03*
D35*
X200660000Y-118490000D03*
X201930000Y-118490000D03*
X203200000Y-118490000D03*
X204470000Y-118490000D03*
X205740000Y-118490000D03*
X207010000Y-118490000D03*
X208280000Y-118490000D03*
X209550000Y-118490000D03*
X210820000Y-118490000D03*
X212090000Y-118490000D03*
D37*
X203840000Y-83820000D03*
X205740000Y-83820000D03*
D38*
X236220000Y-90170000D03*
X236220000Y-88270000D03*
D21*
X233680000Y-125415000D03*
X233680000Y-127315000D03*
D39*
X238760000Y-104140000D03*
X243840000Y-104140000D03*
X238760000Y-106680000D03*
X243840000Y-106680000D03*
X238760000Y-109220000D03*
X243840000Y-109220000D03*
X238760000Y-111760000D03*
X243840000Y-111760000D03*
X238760000Y-114300000D03*
X243840000Y-114300000D03*
D32*
X166620000Y-106680000D03*
X169930000Y-109220000D03*
D40*
X145288000Y-115570000D03*
X147188000Y-115570000D03*
M02*
