M48
; DRILL file {KiCad (5.1.2-1)-1} date Friday, July 26, 2019 at 02:24:02 PM
; FORMAT={-:-/ absolute / inch / decimal}
; #@! TF.CreationDate,2019-07-26T14:24:02-04:00
; #@! TF.GenerationSoftware,Kicad,Pcbnew,(5.1.2-1)-1
FMAT,2
INCH
T1C0.0118
T2C0.0157
T3C0.0300
T4C0.0433
%
G90
G05
T1
X5.625Y-4.57
X5.635Y-4.355
X5.655Y-4.29
X5.67Y-4.485
X5.67Y-4.66
X5.75Y-4.29
X5.845Y-4.29
X5.88Y-4.325
X5.885Y-4.425
X5.885Y-4.525
X5.885Y-4.625
X6.025Y-4.75
X6.025Y-4.8
X6.04Y-4.25
X6.05Y-4.575
X6.065Y-4.775
X6.1Y-4.315
X6.1Y-4.56
X6.13Y-4.855
X6.135Y-4.625
X6.145Y-4.55
X6.15Y-4.21
X6.155Y-4.78
X6.18Y-4.525
X6.185Y-4.915
X6.25Y-4.19
X6.25Y-4.65
X6.25Y-4.7
X6.25Y-4.75
X6.29Y-4.225
X6.345Y-4.15
X6.425Y-4.09
X6.425Y-4.31
X6.45Y-4.47
X6.475Y-4.2
X6.5Y-3.995
X6.51Y-4.335
X6.515Y-4.49
X6.525Y-4.675
X6.525Y-4.775
X6.53Y-4.125
X6.54Y-3.9
X6.56Y-3.8
X6.565Y-3.675
X6.575Y-4.39
X6.575Y-4.725
X6.58Y-4.025
X6.6Y-3.71
X6.615Y-3.49
X6.625Y-4.95
X6.7Y-3.57
X6.7Y-3.72
X6.7Y-3.865
X6.7Y-4.125
X6.715Y-4.515
X6.72Y-4.025
X6.72Y-4.895
X6.725Y-4.85
X6.735Y-4.665
X6.735Y-4.725
X6.75Y-3.8504
X6.755Y-4.205
X6.775Y-4.335
X6.775Y-4.9
X6.78Y-4.95
X6.79Y-3.63
X6.79Y-4.825
X6.795Y-3.715
X6.795Y-3.795
X6.815Y-4.125
X6.82Y-4.28
X6.82Y-4.885
X6.825Y-4.415
X6.825Y-4.575
X6.825Y-4.675
X6.825Y-4.725
X6.825Y-4.78
X6.84Y-4.015
X6.86Y-3.425
X6.8625Y-4.875
X6.875Y-3.55
X6.875Y-3.99
X6.875Y-4.3
X6.875Y-4.35
X6.875Y-4.4
X6.875Y-4.45
X6.875Y-4.5
X6.875Y-4.55
X6.875Y-4.6
X6.875Y-4.65
X6.88Y-4.935
X6.885Y-4.125
X6.89Y-3.595
X6.895Y-4.84
X6.9Y-3.71
X6.9134Y-3.8504
X6.931Y-4.819
X6.935Y-3.78
X6.94Y-3.625
X6.95Y-5.17
X6.96Y-4.01
X6.96Y-4.175
X6.985Y-3.59
X6.985Y-4.99
X7.0Y-4.825
X7.0Y-4.87
X7.0079Y-3.5354
X7.0079Y-3.8504
X7.0394Y-3.5669
X7.0394Y-3.811
X7.045Y-4.31
X7.05Y-4.825
X7.05Y-4.87
X7.05Y-5.17
X7.055Y-5.07
X7.065Y-3.66
X7.07Y-3.97
X7.0709Y-3.5354
X7.115Y-3.78
X7.1339Y-3.5748
X7.1339Y-3.8189
X7.15Y-4.825
X7.15Y-4.87
X7.15Y-5.17
X7.1654Y-3.5354
X7.1654Y-3.8583
X7.17Y-3.66
X7.175Y-4.575
X7.2Y-4.825
X7.2Y-4.87
X7.205Y-3.78
X7.21Y-5.03
X7.21Y-5.1
X7.24Y-3.575
X7.25Y-4.15
X7.25Y-4.825
X7.25Y-5.17
X7.2598Y-3.9764
X7.26Y-4.87
X7.265Y-3.795
X7.265Y-4.075
X7.265Y-4.475
X7.27Y-3.66
X7.28Y-4.31
X7.285Y-4.525
X7.3Y-4.825
X7.315Y-4.125
X7.315Y-5.1
X7.325Y-4.075
X7.35Y-5.17
X7.355Y-3.66
X7.36Y-4.025
X7.365Y-4.8
X7.37Y-3.835
X7.4Y-4.125
X7.4Y-4.225
X7.405Y-4.075
X7.405Y-5.105
X7.425Y-4.475
X7.425Y-4.55
X7.43Y-4.64
X7.43Y-5.03
X7.435Y-4.8
X7.44Y-3.59
X7.45Y-5.17
X7.47Y-4.475
X7.475Y-3.89
X7.485Y-4.075
X7.485Y-4.18
X7.49Y-4.68
X7.495Y-4.025
X7.5Y-5.115
X7.53Y-5.03
X7.535Y-4.31
X7.55Y-5.17
X7.56Y-4.525
X7.57Y-3.89
X7.57Y-4.585
X7.58Y-4.665
X7.585Y-3.795
X7.585Y-3.9488
X7.615Y-4.075
X7.625Y-4.8
X7.635Y-4.535
X7.645Y-5.03
X7.65Y-5.17
X7.67Y-4.125
X7.68Y-3.89
X7.689Y-3.7953
X7.705Y-4.235
X7.715Y-4.8
X7.72Y-4.53
X7.735Y-4.025
X7.74Y-4.665
X7.745Y-5.03
X7.75Y-4.075
X7.75Y-5.17
X7.752Y-3.5866
X7.76Y-3.4
X7.805Y-4.99
X7.81Y-4.785
X7.85Y-5.17
X7.855Y-4.94
X7.86Y-4.805
X7.865Y-3.4
X7.865Y-3.45
X7.875Y-4.89
X7.9Y-4.325
X7.9Y-4.75
X7.9Y-5.1
X7.915Y-3.6
X7.92Y-3.65
X7.925Y-3.8
X7.925Y-4.87
X7.935Y-3.4
X7.935Y-3.45
X7.95Y-4.065
X7.95Y-4.725
X7.95Y-5.035
X7.95Y-5.17
X7.96Y-4.02
X7.975Y-4.855
X7.995Y-3.795
X8.0Y-4.41
X8.0Y-4.725
X8.01Y-4.215
X8.01Y-4.26
X8.01Y-4.305
X8.02Y-4.965
X8.0236Y-3.6024
X8.025Y-3.415
X8.0252Y-3.2498
X8.045Y-4.06
X8.05Y-5.17
X8.055Y-4.21
X8.055Y-4.795
X8.06Y-3.45
X8.06Y-3.9
X8.065Y-3.795
X8.0748Y-3.6024
X8.075Y-3.365
X8.075Y-3.96
X8.075Y-5.065
X8.085Y-4.515
X8.095Y-4.315
X8.1Y-4.725
X8.105Y-3.825
X8.125Y-4.865
X8.135Y-3.655
X8.135Y-3.985
X8.15Y-3.3
X8.15Y-4.725
X8.15Y-5.1675
X8.155Y-4.075
X8.165Y-4.435
X8.185Y-4.8
X8.2Y-4.085
X8.2Y-4.725
X8.205Y-3.675
X8.245Y-4.095
X8.245Y-4.355
X8.245Y-4.515
X8.25Y-3.635
X8.25Y-3.685
X8.25Y-5.125
X8.25Y-5.17
X8.26Y-3.375
X8.275Y-4.21
X8.285Y-3.875
X8.285Y-4.11
X8.295Y-3.695
X8.3Y-3.6
X8.315Y-4.935
X8.325Y-4.8
X8.33Y-4.005
X8.33Y-4.12
X8.335Y-3.65
X8.335Y-3.71
X8.345Y-4.435
X8.35Y-3.6
X8.35Y-5.125
X8.35Y-5.17
X8.37Y-4.135
X8.375Y-4.74
X8.375Y-4.86
X8.38Y-3.72
X8.385Y-4.935
X8.4Y-4.6
X8.405Y-5.05
X8.4075Y-4.895
X8.415Y-4.145
X8.42Y-3.735
X8.435Y-4.8
X8.445Y-4.355
X8.445Y-4.515
X8.45Y-5.17
X8.455Y-4.565
X8.46Y-4.155
X8.46Y-5.115
X8.465Y-3.745
X8.48Y-4.875
X8.49Y-4.97
X8.5Y-3.6
X8.5Y-4.21
X8.505Y-4.165
X8.51Y-3.755
X8.52Y-3.825
X8.52Y-3.925
X8.52Y-4.03
X8.545Y-4.435
X8.55Y-3.6
X8.55Y-4.725
X8.55Y-5.17
X8.585Y-4.315
X8.595Y-4.825
X8.6Y-3.6
X8.6Y-4.725
X8.605Y-3.665
X8.645Y-4.515
X8.65Y-4.945
X8.65Y-5.045
X8.65Y-5.17
X8.655Y-3.875
X8.655Y-4.03
X8.655Y-4.175
X8.7Y-3.6
X8.72Y-3.8
X8.72Y-3.85
X8.73Y-3.755
X8.745Y-4.435
X8.75Y-3.6
X8.75Y-5.17
X8.775Y-3.875
X8.775Y-4.825
X8.775Y-4.885
X8.78Y-3.755
X8.78Y-3.825
X8.795Y-3.925
X8.795Y-4.125
X8.8Y-3.6
X8.81Y-4.315
X8.825Y-4.075
X8.825Y-4.89
X8.825Y-4.96
X8.83Y-4.565
X8.845Y-4.515
X8.85Y-3.6
X8.85Y-5.17
X8.855Y-4.21
X8.855Y-4.29
X8.855Y-5.1
X8.875Y-4.025
X8.875Y-4.94
X8.89Y-3.425
X8.9Y-3.9
X8.9Y-4.55
X8.9Y-5.05
X8.925Y-4.99
X8.95Y-5.17
X8.96Y-5.075
X8.975Y-4.765
X8.975Y-5.025
X9.015Y-4.95
X9.025Y-4.5
X9.03Y-5.075
X9.05Y-5.17
X9.06Y-4.325
X9.06Y-4.375
X9.06Y-4.475
X9.075Y-3.625
X9.08Y-5.025
X9.09Y-4.025
X9.09Y-4.14
X9.095Y-3.865
X9.1Y-4.64
X9.125Y-4.465
X9.135Y-4.31
X9.14Y-3.975
X9.15Y-5.17
X9.165Y-3.7
X9.165Y-4.235
X9.2Y-4.39
X9.2Y-4.9
X9.2Y-5.05
X9.2Y-5.16
X9.23Y-4.075
X9.23Y-4.165
X9.24Y-4.315
X9.25Y-5.17
X9.265Y-4.015
X9.265Y-4.465
X9.265Y-4.54
X9.3Y-4.5
X9.3Y-5.16
X9.305Y-4.1
X9.305Y-4.2
X9.35Y-5.17
X9.45Y-5.17
X9.475Y-4.01
X9.475Y-4.59
X9.525Y-4.2
T2
X5.535Y-3.765
X5.535Y-3.915
X5.535Y-4.115
X5.535Y-4.315
X5.535Y-4.515
X5.535Y-4.715
X5.535Y-4.915
X5.535Y-5.115
X5.575Y-4.485
X5.575Y-4.66
X5.58Y-5.16
X5.585Y-4.155
X5.585Y-5.015
X5.6Y-4.07
X5.635Y-4.815
X5.68Y-3.62
X5.725Y-3.99
X5.735Y-4.915
X5.78Y-5.16
X5.785Y-4.125
X5.82Y-3.99
X5.83Y-3.47
X5.875Y-4.7
X5.875Y-4.85
X5.88Y-5.06
X5.92Y-4.09
X5.92Y-4.185
X5.93Y-4.4
X5.955Y-4.885
X5.975Y-3.325
X5.975Y-4.35
X5.975Y-4.45
X5.98Y-5.16
X6.015Y-3.82
X6.025Y-4.65
X6.025Y-4.7
X6.025Y-4.85
X6.04Y-4.35
X6.04Y-4.45
X6.09Y-3.895
X6.115Y-3.185
X6.15Y-4.35
X6.15Y-4.45
X6.17Y-3.665
X6.18Y-5.16
X6.215Y-4.35
X6.215Y-4.45
X6.245Y-3.185
X6.245Y-3.74
X6.25Y-4.6
X6.25Y-4.85
X6.26Y-4.4
X6.325Y-4.35
X6.325Y-4.465
X6.325Y-4.885
X6.34Y-3.375
X6.34Y-3.47
X6.345Y-3.285
X6.38Y-5.16
X6.39Y-4.35
X6.39Y-4.45
X6.39Y-4.85
X6.4Y-4.5
X6.435Y-4.4
X6.44Y-3.57
X6.445Y-3.185
X6.455Y-4.885
X6.475Y-3.435
X6.48Y-5.06
X6.515Y-4.85
X6.535Y-3.57
X6.545Y-3.285
X6.58Y-5.16
X6.59Y-3.37
X6.605Y-4.465
X6.64Y-3.3
X6.645Y-3.185
X6.65Y-4.415
X6.65Y-4.515
X6.71Y-4.55
X6.715Y-4.415
X6.725Y-5.035
X6.725Y-5.135
X6.745Y-3.285
X6.76Y-4.465
X6.78Y-5.16
X6.79Y-5.035
X6.835Y-4.985
X6.835Y-5.085
X6.845Y-3.185
X6.88Y-5.035
X6.88Y-5.135
X6.945Y-3.285
X6.945Y-5.035
X6.945Y-5.135
X6.99Y-5.085
X7.02Y-4.025
X7.045Y-3.185
X7.0669Y-3.4252
X7.1Y-4.825
X7.1024Y-3.8661
X7.1063Y-3.9764
X7.13Y-4.075
X7.145Y-3.285
X7.17Y-3.325
X7.175Y-4.025
X7.2Y-4.175
X7.215Y-3.375
X7.245Y-3.185
X7.345Y-3.285
X7.445Y-3.185
X7.445Y-3.385
X7.505Y-3.415
X7.505Y-3.535
X7.545Y-3.285
X7.55Y-4.2
X7.55Y-4.265
X7.575Y-3.365
X7.575Y-3.585
X7.6Y-4.155
X7.6Y-4.31
X7.645Y-3.185
X7.645Y-3.415
X7.645Y-3.535
X7.65Y-4.2
X7.65Y-4.265
X7.745Y-3.285
X7.745Y-3.485
X7.775Y-3.85
X7.775Y-4.195
X7.775Y-4.5
X7.835Y-3.25
X7.835Y-3.35
X7.845Y-3.185
X7.865Y-3.535
X7.9Y-3.25
X7.9Y-3.35
X7.9Y-3.475
X7.9Y-3.85
X7.9Y-4.5
X7.945Y-3.3
X8.045Y-3.185
X8.05Y-4.6
X8.05Y-4.725
X8.2Y-3.475
X8.2Y-3.6
X8.245Y-3.185
X8.25Y-4.6
X8.25Y-4.725
X8.355Y-3.3
X8.4Y-3.25
X8.4Y-3.35
X8.4Y-3.475
X8.4Y-3.6
X8.445Y-3.185
X8.45Y-3.475
X8.45Y-3.6
X8.465Y-3.25
X8.465Y-3.35
X8.49Y-5.05
X8.5Y-4.6
X8.5Y-4.725
X8.51Y-3.3
X8.535Y-4.92
X8.535Y-5.1
X8.6Y-5.1
X8.605Y-3.3
X8.645Y-3.185
X8.65Y-3.25
X8.65Y-3.35
X8.65Y-3.475
X8.65Y-3.6
X8.7Y-4.6
X8.7Y-4.725
X8.7Y-5.1
X8.715Y-3.25
X8.715Y-3.35
X8.76Y-3.3
X8.765Y-5.1
X8.81Y-5.05
X8.845Y-3.185
X8.845Y-3.375
X8.895Y-4.9
X8.9Y-4.25
X8.94Y-4.85
X8.945Y-3.285
X8.965Y-3.565
X9.01Y-4.85
X9.025Y-3.6
X9.025Y-3.9
X9.025Y-4.25
X9.025Y-4.55
X9.045Y-3.185
X9.045Y-3.385
X9.055Y-4.9
X9.09Y-3.715
X9.145Y-3.285
X9.145Y-3.485
X9.15Y-3.835
X9.15Y-3.9
X9.2Y-3.79
X9.2Y-3.945
X9.245Y-3.185
X9.245Y-3.385
X9.245Y-3.585
X9.25Y-3.835
X9.25Y-3.9
X9.29Y-3.715
X9.29Y-4.715
X9.29Y-4.915
X9.29Y-5.05
X9.335Y-5.0
X9.335Y-5.1
X9.345Y-3.285
X9.35Y-3.475
X9.39Y-3.615
X9.39Y-3.815
X9.39Y-4.015
X9.39Y-4.615
X9.39Y-4.815
X9.4Y-5.0
X9.4Y-5.1
X9.415Y-4.925
X9.42Y-3.39
X9.445Y-3.185
X9.445Y-5.05
X9.465Y-4.855
X9.465Y-4.995
X9.49Y-3.315
X9.49Y-3.715
X9.49Y-3.915
X9.49Y-4.715
X9.585Y-4.855
X9.585Y-4.995
X9.59Y-3.415
X9.59Y-3.815
X9.59Y-4.015
X9.59Y-4.615
X9.635Y-4.925
X9.645Y-3.185
X9.645Y-5.16
X9.69Y-3.23
X9.69Y-3.315
X9.69Y-3.515
X9.69Y-3.715
X9.69Y-4.915
X9.69Y-5.115
X9.695Y-3.915
X9.695Y-4.115
X9.695Y-4.315
X9.695Y-4.515
X9.695Y-4.715
T3
X6.825Y-3.375
T4
X9.53Y-3.245
X5.695Y-5.1
X6.235Y-3.245
X9.53Y-5.1
X5.595Y-3.885
T0
M30
