G04 #@! TF.GenerationSoftware,KiCad,Pcbnew,7.0.10*
G04 #@! TF.CreationDate,2024-02-16T16:10:32-05:00*
G04 #@! TF.ProjectId,TimeDisk,54696d65-4469-4736-9b2e-6b696361645f,rev?*
G04 #@! TF.SameCoordinates,Original*
G04 #@! TF.FileFunction,Legend,Top*
G04 #@! TF.FilePolarity,Positive*
%FSLAX46Y46*%
G04 Gerber Fmt 4.6, Leading zero omitted, Abs format (unit mm)*
G04 Created by KiCad (PCBNEW 7.0.10) date 2024-02-16 16:10:32*
%MOMM*%
%LPD*%
G01*
G04 APERTURE LIST*
G04 Aperture macros list*
%AMRoundRect*
0 Rectangle with rounded corners*
0 $1 Rounding radius*
0 $2 $3 $4 $5 $6 $7 $8 $9 X,Y pos of 4 corners*
0 Add a 4 corners polygon primitive as box body*
4,1,4,$2,$3,$4,$5,$6,$7,$8,$9,$2,$3,0*
0 Add four circle primitives for the rounded corners*
1,1,$1+$1,$2,$3*
1,1,$1+$1,$4,$5*
1,1,$1+$1,$6,$7*
1,1,$1+$1,$8,$9*
0 Add four rect primitives between the rounded corners*
20,1,$1+$1,$2,$3,$4,$5,0*
20,1,$1+$1,$4,$5,$6,$7,0*
20,1,$1+$1,$6,$7,$8,$9,0*
20,1,$1+$1,$8,$9,$2,$3,0*%
G04 Aperture macros list end*
%ADD10C,0.203200*%
%ADD11C,0.152400*%
%ADD12C,0.120000*%
%ADD13C,0.100000*%
%ADD14C,0.000000*%
%ADD15RoundRect,0.287500X0.287500X0.462500X-0.287500X0.462500X-0.287500X-0.462500X0.287500X-0.462500X0*%
%ADD16C,1.448000*%
%ADD17C,2.152400*%
%ADD18C,2.000000*%
%ADD19RoundRect,0.419100X0.419100X3.327100X-0.419100X3.327100X-0.419100X-3.327100X0.419100X-3.327100X0*%
%ADD20RoundRect,0.287500X-0.462500X0.287500X-0.462500X-0.287500X0.462500X-0.287500X0.462500X0.287500X0*%
%ADD21RoundRect,0.237500X-0.237500X-0.512500X0.237500X-0.512500X0.237500X0.512500X-0.237500X0.512500X0*%
%ADD22RoundRect,0.287500X-0.287500X-0.462500X0.287500X-0.462500X0.287500X0.462500X-0.287500X0.462500X0*%
%ADD23RoundRect,0.175000X-0.175000X-0.612500X0.175000X-0.612500X0.175000X0.612500X-0.175000X0.612500X0*%
%ADD24RoundRect,0.175000X-0.612500X-0.175000X0.612500X-0.175000X0.612500X0.175000X-0.612500X0.175000X0*%
%ADD25RoundRect,0.175000X-0.900000X-0.175000X0.900000X-0.175000X0.900000X0.175000X-0.900000X0.175000X0*%
%ADD26RoundRect,0.150000X0.150000X-0.662500X0.150000X0.662500X-0.150000X0.662500X-0.150000X-0.662500X0*%
%ADD27RoundRect,0.387350X-1.481742X2.029538X-2.029538X1.481742X1.481742X-2.029538X2.029538X-1.481742X0*%
%ADD28RoundRect,0.667860X0.000000X2.203826X-2.203826X0.000000X0.000000X-2.203826X2.203826X0.000000X0*%
%ADD29RoundRect,0.287500X0.530330X0.123744X0.123744X0.530330X-0.530330X-0.123744X-0.123744X-0.530330X0*%
%ADD30RoundRect,0.175000X-0.850000X-0.175000X0.850000X-0.175000X0.850000X0.175000X-0.850000X0.175000X0*%
%ADD31RoundRect,0.175000X0.175000X0.725000X-0.175000X0.725000X-0.175000X-0.725000X0.175000X-0.725000X0*%
%ADD32RoundRect,0.175000X0.725000X0.175000X-0.725000X0.175000X-0.725000X-0.175000X0.725000X-0.175000X0*%
%ADD33RoundRect,0.237500X-0.512500X0.237500X-0.512500X-0.237500X0.512500X-0.237500X0.512500X0.237500X0*%
%ADD34C,1.152400*%
%ADD35RoundRect,0.237500X0.512500X-0.237500X0.512500X0.237500X-0.512500X0.237500X-0.512500X-0.237500X0*%
%ADD36RoundRect,0.287500X0.462500X-0.287500X0.462500X0.287500X-0.462500X0.287500X-0.462500X-0.287500X0*%
%ADD37RoundRect,0.237500X0.237500X0.512500X-0.237500X0.512500X-0.237500X-0.512500X0.237500X-0.512500X0*%
%ADD38RoundRect,0.237500X-0.287500X0.237500X-0.287500X-0.237500X0.287500X-0.237500X0.287500X0.237500X0*%
%ADD39RoundRect,0.225000X0.225000X-0.500000X0.225000X0.500000X-0.225000X0.500000X-0.225000X-0.500000X0*%
%ADD40RoundRect,0.120000X0.120000X0.595000X-0.120000X0.595000X-0.120000X-0.595000X0.120000X-0.595000X0*%
%ADD41RoundRect,0.475000X0.475000X0.525000X-0.475000X0.525000X-0.475000X-0.525000X0.475000X-0.525000X0*%
%ADD42RoundRect,0.425000X0.675000X0.425000X-0.675000X0.425000X-0.675000X-0.425000X0.675000X-0.425000X0*%
%ADD43RoundRect,0.500000X0.500000X0.500000X-0.500000X0.500000X-0.500000X-0.500000X0.500000X-0.500000X0*%
%ADD44RoundRect,0.120000X-0.120000X0.420000X-0.120000X-0.420000X0.120000X-0.420000X0.120000X0.420000X0*%
%ADD45RoundRect,0.112500X0.412500X0.112500X-0.412500X0.112500X-0.412500X-0.112500X0.412500X-0.112500X0*%
%ADD46RoundRect,0.087500X0.437500X0.087500X-0.437500X0.087500X-0.437500X-0.087500X0.437500X-0.087500X0*%
%ADD47RoundRect,0.112500X0.412500X-0.112500X0.412500X0.112500X-0.412500X0.112500X-0.412500X-0.112500X0*%
%ADD48RoundRect,0.237500X0.237500X0.287500X-0.237500X0.287500X-0.237500X-0.287500X0.237500X-0.287500X0*%
%ADD49RoundRect,0.215000X0.215000X-0.597000X0.215000X0.597000X-0.215000X0.597000X-0.215000X-0.597000X0*%
%ADD50RoundRect,0.237500X-0.237500X-0.287500X0.237500X-0.287500X0.237500X0.287500X-0.237500X0.287500X0*%
%ADD51RoundRect,0.175000X0.850000X0.175000X-0.850000X0.175000X-0.850000X-0.175000X0.850000X-0.175000X0*%
%ADD52RoundRect,0.325000X0.325000X-0.425000X0.325000X0.425000X-0.325000X0.425000X-0.325000X-0.425000X0*%
G04 APERTURE END LIST*
D10*
X209605638Y-111185649D02*
X209605638Y-111766221D01*
X209605638Y-111766221D02*
X209566933Y-111882335D01*
X209566933Y-111882335D02*
X209489524Y-111959745D01*
X209489524Y-111959745D02*
X209373409Y-111998449D01*
X209373409Y-111998449D02*
X209296000Y-111998449D01*
X210379733Y-111998449D02*
X209992685Y-111998449D01*
X209992685Y-111998449D02*
X209992685Y-111185649D01*
X211115123Y-111921040D02*
X211076419Y-111959745D01*
X211076419Y-111959745D02*
X210960304Y-111998449D01*
X210960304Y-111998449D02*
X210882895Y-111998449D01*
X210882895Y-111998449D02*
X210766781Y-111959745D01*
X210766781Y-111959745D02*
X210689371Y-111882335D01*
X210689371Y-111882335D02*
X210650666Y-111804925D01*
X210650666Y-111804925D02*
X210611962Y-111650106D01*
X210611962Y-111650106D02*
X210611962Y-111533992D01*
X210611962Y-111533992D02*
X210650666Y-111379173D01*
X210650666Y-111379173D02*
X210689371Y-111301764D01*
X210689371Y-111301764D02*
X210766781Y-111224354D01*
X210766781Y-111224354D02*
X210882895Y-111185649D01*
X210882895Y-111185649D02*
X210960304Y-111185649D01*
X210960304Y-111185649D02*
X211076419Y-111224354D01*
X211076419Y-111224354D02*
X211115123Y-111263059D01*
X211695695Y-111185649D02*
X211695695Y-111766221D01*
X211695695Y-111766221D02*
X211656990Y-111882335D01*
X211656990Y-111882335D02*
X211579581Y-111959745D01*
X211579581Y-111959745D02*
X211463466Y-111998449D01*
X211463466Y-111998449D02*
X211386057Y-111998449D01*
X212469790Y-111998449D02*
X212082742Y-111998449D01*
X212082742Y-111998449D02*
X212082742Y-111185649D01*
X213205180Y-111921040D02*
X213166476Y-111959745D01*
X213166476Y-111959745D02*
X213050361Y-111998449D01*
X213050361Y-111998449D02*
X212972952Y-111998449D01*
X212972952Y-111998449D02*
X212856838Y-111959745D01*
X212856838Y-111959745D02*
X212779428Y-111882335D01*
X212779428Y-111882335D02*
X212740723Y-111804925D01*
X212740723Y-111804925D02*
X212702019Y-111650106D01*
X212702019Y-111650106D02*
X212702019Y-111533992D01*
X212702019Y-111533992D02*
X212740723Y-111379173D01*
X212740723Y-111379173D02*
X212779428Y-111301764D01*
X212779428Y-111301764D02*
X212856838Y-111224354D01*
X212856838Y-111224354D02*
X212972952Y-111185649D01*
X212972952Y-111185649D02*
X213050361Y-111185649D01*
X213050361Y-111185649D02*
X213166476Y-111224354D01*
X213166476Y-111224354D02*
X213205180Y-111263059D01*
X213785752Y-111185649D02*
X213785752Y-111766221D01*
X213785752Y-111766221D02*
X213747047Y-111882335D01*
X213747047Y-111882335D02*
X213669638Y-111959745D01*
X213669638Y-111959745D02*
X213553523Y-111998449D01*
X213553523Y-111998449D02*
X213476114Y-111998449D01*
X214559847Y-111998449D02*
X214172799Y-111998449D01*
X214172799Y-111998449D02*
X214172799Y-111185649D01*
X215295237Y-111921040D02*
X215256533Y-111959745D01*
X215256533Y-111959745D02*
X215140418Y-111998449D01*
X215140418Y-111998449D02*
X215063009Y-111998449D01*
X215063009Y-111998449D02*
X214946895Y-111959745D01*
X214946895Y-111959745D02*
X214869485Y-111882335D01*
X214869485Y-111882335D02*
X214830780Y-111804925D01*
X214830780Y-111804925D02*
X214792076Y-111650106D01*
X214792076Y-111650106D02*
X214792076Y-111533992D01*
X214792076Y-111533992D02*
X214830780Y-111379173D01*
X214830780Y-111379173D02*
X214869485Y-111301764D01*
X214869485Y-111301764D02*
X214946895Y-111224354D01*
X214946895Y-111224354D02*
X215063009Y-111185649D01*
X215063009Y-111185649D02*
X215140418Y-111185649D01*
X215140418Y-111185649D02*
X215256533Y-111224354D01*
X215256533Y-111224354D02*
X215295237Y-111263059D01*
X215875809Y-111185649D02*
X215875809Y-111766221D01*
X215875809Y-111766221D02*
X215837104Y-111882335D01*
X215837104Y-111882335D02*
X215759695Y-111959745D01*
X215759695Y-111959745D02*
X215643580Y-111998449D01*
X215643580Y-111998449D02*
X215566171Y-111998449D01*
X216649904Y-111998449D02*
X216262856Y-111998449D01*
X216262856Y-111998449D02*
X216262856Y-111185649D01*
X217385294Y-111921040D02*
X217346590Y-111959745D01*
X217346590Y-111959745D02*
X217230475Y-111998449D01*
X217230475Y-111998449D02*
X217153066Y-111998449D01*
X217153066Y-111998449D02*
X217036952Y-111959745D01*
X217036952Y-111959745D02*
X216959542Y-111882335D01*
X216959542Y-111882335D02*
X216920837Y-111804925D01*
X216920837Y-111804925D02*
X216882133Y-111650106D01*
X216882133Y-111650106D02*
X216882133Y-111533992D01*
X216882133Y-111533992D02*
X216920837Y-111379173D01*
X216920837Y-111379173D02*
X216959542Y-111301764D01*
X216959542Y-111301764D02*
X217036952Y-111224354D01*
X217036952Y-111224354D02*
X217153066Y-111185649D01*
X217153066Y-111185649D02*
X217230475Y-111185649D01*
X217230475Y-111185649D02*
X217346590Y-111224354D01*
X217346590Y-111224354D02*
X217385294Y-111263059D01*
X237668112Y-94968504D02*
X237710969Y-94925647D01*
X237710969Y-94925647D02*
X237796684Y-94882790D01*
X237796684Y-94882790D02*
X238010969Y-94882790D01*
X238010969Y-94882790D02*
X238096684Y-94925647D01*
X238096684Y-94925647D02*
X238139541Y-94968504D01*
X238139541Y-94968504D02*
X238182398Y-95054218D01*
X238182398Y-95054218D02*
X238182398Y-95139933D01*
X238182398Y-95139933D02*
X238139541Y-95268504D01*
X238139541Y-95268504D02*
X237625255Y-95782790D01*
X237625255Y-95782790D02*
X238182398Y-95782790D01*
X238568112Y-95697075D02*
X238610969Y-95739933D01*
X238610969Y-95739933D02*
X238568112Y-95782790D01*
X238568112Y-95782790D02*
X238525255Y-95739933D01*
X238525255Y-95739933D02*
X238568112Y-95697075D01*
X238568112Y-95697075D02*
X238568112Y-95782790D01*
X238568112Y-95225647D02*
X238610969Y-95268504D01*
X238610969Y-95268504D02*
X238568112Y-95311361D01*
X238568112Y-95311361D02*
X238525255Y-95268504D01*
X238525255Y-95268504D02*
X238568112Y-95225647D01*
X238568112Y-95225647D02*
X238568112Y-95311361D01*
X239682397Y-95782790D02*
X239682397Y-95182790D01*
X239682397Y-95354218D02*
X239725254Y-95268504D01*
X239725254Y-95268504D02*
X239768112Y-95225647D01*
X239768112Y-95225647D02*
X239853826Y-95182790D01*
X239853826Y-95182790D02*
X239939540Y-95182790D01*
X240582397Y-95739933D02*
X240496683Y-95782790D01*
X240496683Y-95782790D02*
X240325255Y-95782790D01*
X240325255Y-95782790D02*
X240239540Y-95739933D01*
X240239540Y-95739933D02*
X240196683Y-95654218D01*
X240196683Y-95654218D02*
X240196683Y-95311361D01*
X240196683Y-95311361D02*
X240239540Y-95225647D01*
X240239540Y-95225647D02*
X240325255Y-95182790D01*
X240325255Y-95182790D02*
X240496683Y-95182790D01*
X240496683Y-95182790D02*
X240582397Y-95225647D01*
X240582397Y-95225647D02*
X240625255Y-95311361D01*
X240625255Y-95311361D02*
X240625255Y-95397075D01*
X240625255Y-95397075D02*
X240196683Y-95482790D01*
X240968112Y-95739933D02*
X241053826Y-95782790D01*
X241053826Y-95782790D02*
X241225255Y-95782790D01*
X241225255Y-95782790D02*
X241310969Y-95739933D01*
X241310969Y-95739933D02*
X241353826Y-95654218D01*
X241353826Y-95654218D02*
X241353826Y-95611361D01*
X241353826Y-95611361D02*
X241310969Y-95525647D01*
X241310969Y-95525647D02*
X241225255Y-95482790D01*
X241225255Y-95482790D02*
X241096684Y-95482790D01*
X241096684Y-95482790D02*
X241010969Y-95439933D01*
X241010969Y-95439933D02*
X240968112Y-95354218D01*
X240968112Y-95354218D02*
X240968112Y-95311361D01*
X240968112Y-95311361D02*
X241010969Y-95225647D01*
X241010969Y-95225647D02*
X241096684Y-95182790D01*
X241096684Y-95182790D02*
X241225255Y-95182790D01*
X241225255Y-95182790D02*
X241310969Y-95225647D01*
X241610969Y-95182790D02*
X241953826Y-95182790D01*
X241739540Y-94882790D02*
X241739540Y-95654218D01*
X241739540Y-95654218D02*
X241782397Y-95739933D01*
X241782397Y-95739933D02*
X241868112Y-95782790D01*
X241868112Y-95782790D02*
X241953826Y-95782790D01*
X242382398Y-95782790D02*
X242296683Y-95739933D01*
X242296683Y-95739933D02*
X242253826Y-95697075D01*
X242253826Y-95697075D02*
X242210969Y-95611361D01*
X242210969Y-95611361D02*
X242210969Y-95354218D01*
X242210969Y-95354218D02*
X242253826Y-95268504D01*
X242253826Y-95268504D02*
X242296683Y-95225647D01*
X242296683Y-95225647D02*
X242382398Y-95182790D01*
X242382398Y-95182790D02*
X242510969Y-95182790D01*
X242510969Y-95182790D02*
X242596683Y-95225647D01*
X242596683Y-95225647D02*
X242639541Y-95268504D01*
X242639541Y-95268504D02*
X242682398Y-95354218D01*
X242682398Y-95354218D02*
X242682398Y-95611361D01*
X242682398Y-95611361D02*
X242639541Y-95697075D01*
X242639541Y-95697075D02*
X242596683Y-95739933D01*
X242596683Y-95739933D02*
X242510969Y-95782790D01*
X242510969Y-95782790D02*
X242382398Y-95782790D01*
X243068112Y-95782790D02*
X243068112Y-95182790D01*
X243068112Y-95354218D02*
X243110969Y-95268504D01*
X243110969Y-95268504D02*
X243153827Y-95225647D01*
X243153827Y-95225647D02*
X243239541Y-95182790D01*
X243239541Y-95182790D02*
X243325255Y-95182790D01*
X243968112Y-95739933D02*
X243882398Y-95782790D01*
X243882398Y-95782790D02*
X243710970Y-95782790D01*
X243710970Y-95782790D02*
X243625255Y-95739933D01*
X243625255Y-95739933D02*
X243582398Y-95654218D01*
X243582398Y-95654218D02*
X243582398Y-95311361D01*
X243582398Y-95311361D02*
X243625255Y-95225647D01*
X243625255Y-95225647D02*
X243710970Y-95182790D01*
X243710970Y-95182790D02*
X243882398Y-95182790D01*
X243882398Y-95182790D02*
X243968112Y-95225647D01*
X243968112Y-95225647D02*
X244010970Y-95311361D01*
X244010970Y-95311361D02*
X244010970Y-95397075D01*
X244010970Y-95397075D02*
X243582398Y-95482790D01*
X233848729Y-99996949D02*
X233384272Y-99996949D01*
X233616500Y-99996949D02*
X233616500Y-99184149D01*
X233616500Y-99184149D02*
X233539091Y-99300264D01*
X233539091Y-99300264D02*
X233461681Y-99377673D01*
X233461681Y-99377673D02*
X233384272Y-99416378D01*
X234654272Y-99261559D02*
X234692976Y-99222854D01*
X234692976Y-99222854D02*
X234770386Y-99184149D01*
X234770386Y-99184149D02*
X234963910Y-99184149D01*
X234963910Y-99184149D02*
X235041319Y-99222854D01*
X235041319Y-99222854D02*
X235080024Y-99261559D01*
X235080024Y-99261559D02*
X235118729Y-99338968D01*
X235118729Y-99338968D02*
X235118729Y-99416378D01*
X235118729Y-99416378D02*
X235080024Y-99532492D01*
X235080024Y-99532492D02*
X234615567Y-99996949D01*
X234615567Y-99996949D02*
X235118729Y-99996949D01*
X238182398Y-93242790D02*
X237668112Y-93242790D01*
X237925255Y-93242790D02*
X237925255Y-92342790D01*
X237925255Y-92342790D02*
X237839541Y-92471361D01*
X237839541Y-92471361D02*
X237753826Y-92557075D01*
X237753826Y-92557075D02*
X237668112Y-92599933D01*
X238568112Y-93157075D02*
X238610969Y-93199933D01*
X238610969Y-93199933D02*
X238568112Y-93242790D01*
X238568112Y-93242790D02*
X238525255Y-93199933D01*
X238525255Y-93199933D02*
X238568112Y-93157075D01*
X238568112Y-93157075D02*
X238568112Y-93242790D01*
X238568112Y-92685647D02*
X238610969Y-92728504D01*
X238610969Y-92728504D02*
X238568112Y-92771361D01*
X238568112Y-92771361D02*
X238525255Y-92728504D01*
X238525255Y-92728504D02*
X238568112Y-92685647D01*
X238568112Y-92685647D02*
X238568112Y-92771361D01*
X240068112Y-93199933D02*
X239982397Y-93242790D01*
X239982397Y-93242790D02*
X239810969Y-93242790D01*
X239810969Y-93242790D02*
X239725254Y-93199933D01*
X239725254Y-93199933D02*
X239682397Y-93157075D01*
X239682397Y-93157075D02*
X239639540Y-93071361D01*
X239639540Y-93071361D02*
X239639540Y-92814218D01*
X239639540Y-92814218D02*
X239682397Y-92728504D01*
X239682397Y-92728504D02*
X239725254Y-92685647D01*
X239725254Y-92685647D02*
X239810969Y-92642790D01*
X239810969Y-92642790D02*
X239982397Y-92642790D01*
X239982397Y-92642790D02*
X240068112Y-92685647D01*
X240582398Y-93242790D02*
X240496683Y-93199933D01*
X240496683Y-93199933D02*
X240453826Y-93114218D01*
X240453826Y-93114218D02*
X240453826Y-92342790D01*
X241053827Y-93242790D02*
X240968112Y-93199933D01*
X240968112Y-93199933D02*
X240925255Y-93157075D01*
X240925255Y-93157075D02*
X240882398Y-93071361D01*
X240882398Y-93071361D02*
X240882398Y-92814218D01*
X240882398Y-92814218D02*
X240925255Y-92728504D01*
X240925255Y-92728504D02*
X240968112Y-92685647D01*
X240968112Y-92685647D02*
X241053827Y-92642790D01*
X241053827Y-92642790D02*
X241182398Y-92642790D01*
X241182398Y-92642790D02*
X241268112Y-92685647D01*
X241268112Y-92685647D02*
X241310970Y-92728504D01*
X241310970Y-92728504D02*
X241353827Y-92814218D01*
X241353827Y-92814218D02*
X241353827Y-93071361D01*
X241353827Y-93071361D02*
X241310970Y-93157075D01*
X241310970Y-93157075D02*
X241268112Y-93199933D01*
X241268112Y-93199933D02*
X241182398Y-93242790D01*
X241182398Y-93242790D02*
X241053827Y-93242790D01*
X242125256Y-93199933D02*
X242039541Y-93242790D01*
X242039541Y-93242790D02*
X241868113Y-93242790D01*
X241868113Y-93242790D02*
X241782398Y-93199933D01*
X241782398Y-93199933D02*
X241739541Y-93157075D01*
X241739541Y-93157075D02*
X241696684Y-93071361D01*
X241696684Y-93071361D02*
X241696684Y-92814218D01*
X241696684Y-92814218D02*
X241739541Y-92728504D01*
X241739541Y-92728504D02*
X241782398Y-92685647D01*
X241782398Y-92685647D02*
X241868113Y-92642790D01*
X241868113Y-92642790D02*
X242039541Y-92642790D01*
X242039541Y-92642790D02*
X242125256Y-92685647D01*
X242510970Y-93242790D02*
X242510970Y-92342790D01*
X242596685Y-92899933D02*
X242853827Y-93242790D01*
X242853827Y-92642790D02*
X242510970Y-92985647D01*
X232718429Y-88691192D02*
X232670048Y-88739573D01*
X232670048Y-88739573D02*
X232524905Y-88787953D01*
X232524905Y-88787953D02*
X232428143Y-88787953D01*
X232428143Y-88787953D02*
X232283000Y-88739573D01*
X232283000Y-88739573D02*
X232186238Y-88642811D01*
X232186238Y-88642811D02*
X232137857Y-88546049D01*
X232137857Y-88546049D02*
X232089476Y-88352525D01*
X232089476Y-88352525D02*
X232089476Y-88207382D01*
X232089476Y-88207382D02*
X232137857Y-88013858D01*
X232137857Y-88013858D02*
X232186238Y-87917096D01*
X232186238Y-87917096D02*
X232283000Y-87820334D01*
X232283000Y-87820334D02*
X232428143Y-87771953D01*
X232428143Y-87771953D02*
X232524905Y-87771953D01*
X232524905Y-87771953D02*
X232670048Y-87820334D01*
X232670048Y-87820334D02*
X232718429Y-87868715D01*
X233299000Y-88787953D02*
X233202238Y-88739573D01*
X233202238Y-88739573D02*
X233153857Y-88691192D01*
X233153857Y-88691192D02*
X233105476Y-88594430D01*
X233105476Y-88594430D02*
X233105476Y-88304144D01*
X233105476Y-88304144D02*
X233153857Y-88207382D01*
X233153857Y-88207382D02*
X233202238Y-88159001D01*
X233202238Y-88159001D02*
X233299000Y-88110620D01*
X233299000Y-88110620D02*
X233444143Y-88110620D01*
X233444143Y-88110620D02*
X233540905Y-88159001D01*
X233540905Y-88159001D02*
X233589286Y-88207382D01*
X233589286Y-88207382D02*
X233637667Y-88304144D01*
X233637667Y-88304144D02*
X233637667Y-88594430D01*
X233637667Y-88594430D02*
X233589286Y-88691192D01*
X233589286Y-88691192D02*
X233540905Y-88739573D01*
X233540905Y-88739573D02*
X233444143Y-88787953D01*
X233444143Y-88787953D02*
X233299000Y-88787953D01*
X234073095Y-88110620D02*
X234073095Y-88787953D01*
X234073095Y-88207382D02*
X234121476Y-88159001D01*
X234121476Y-88159001D02*
X234218238Y-88110620D01*
X234218238Y-88110620D02*
X234363381Y-88110620D01*
X234363381Y-88110620D02*
X234460143Y-88159001D01*
X234460143Y-88159001D02*
X234508524Y-88255763D01*
X234508524Y-88255763D02*
X234508524Y-88787953D01*
X234847190Y-88110620D02*
X235234238Y-88110620D01*
X234992333Y-88787953D02*
X234992333Y-87917096D01*
X234992333Y-87917096D02*
X235040714Y-87820334D01*
X235040714Y-87820334D02*
X235137476Y-87771953D01*
X235137476Y-87771953D02*
X235234238Y-87771953D01*
X235572904Y-88787953D02*
X235572904Y-88110620D01*
X235572904Y-87771953D02*
X235524523Y-87820334D01*
X235524523Y-87820334D02*
X235572904Y-87868715D01*
X235572904Y-87868715D02*
X235621285Y-87820334D01*
X235621285Y-87820334D02*
X235572904Y-87771953D01*
X235572904Y-87771953D02*
X235572904Y-87868715D01*
X236492143Y-88110620D02*
X236492143Y-88933096D01*
X236492143Y-88933096D02*
X236443762Y-89029858D01*
X236443762Y-89029858D02*
X236395381Y-89078239D01*
X236395381Y-89078239D02*
X236298619Y-89126620D01*
X236298619Y-89126620D02*
X236153476Y-89126620D01*
X236153476Y-89126620D02*
X236056714Y-89078239D01*
X236492143Y-88739573D02*
X236395381Y-88787953D01*
X236395381Y-88787953D02*
X236201857Y-88787953D01*
X236201857Y-88787953D02*
X236105095Y-88739573D01*
X236105095Y-88739573D02*
X236056714Y-88691192D01*
X236056714Y-88691192D02*
X236008333Y-88594430D01*
X236008333Y-88594430D02*
X236008333Y-88304144D01*
X236008333Y-88304144D02*
X236056714Y-88207382D01*
X236056714Y-88207382D02*
X236105095Y-88159001D01*
X236105095Y-88159001D02*
X236201857Y-88110620D01*
X236201857Y-88110620D02*
X236395381Y-88110620D01*
X236395381Y-88110620D02*
X236492143Y-88159001D01*
X180990723Y-113852649D02*
X180990723Y-114510630D01*
X180990723Y-114510630D02*
X181029428Y-114588040D01*
X181029428Y-114588040D02*
X181068133Y-114626745D01*
X181068133Y-114626745D02*
X181145542Y-114665449D01*
X181145542Y-114665449D02*
X181300361Y-114665449D01*
X181300361Y-114665449D02*
X181377771Y-114626745D01*
X181377771Y-114626745D02*
X181416476Y-114588040D01*
X181416476Y-114588040D02*
X181455180Y-114510630D01*
X181455180Y-114510630D02*
X181455180Y-113852649D01*
X182229276Y-113852649D02*
X181842228Y-113852649D01*
X181842228Y-113852649D02*
X181803524Y-114239697D01*
X181803524Y-114239697D02*
X181842228Y-114200992D01*
X181842228Y-114200992D02*
X181919638Y-114162287D01*
X181919638Y-114162287D02*
X182113162Y-114162287D01*
X182113162Y-114162287D02*
X182190571Y-114200992D01*
X182190571Y-114200992D02*
X182229276Y-114239697D01*
X182229276Y-114239697D02*
X182267981Y-114317106D01*
X182267981Y-114317106D02*
X182267981Y-114510630D01*
X182267981Y-114510630D02*
X182229276Y-114588040D01*
X182229276Y-114588040D02*
X182190571Y-114626745D01*
X182190571Y-114626745D02*
X182113162Y-114665449D01*
X182113162Y-114665449D02*
X181919638Y-114665449D01*
X181919638Y-114665449D02*
X181842228Y-114626745D01*
X181842228Y-114626745D02*
X181803524Y-114588040D01*
X155508649Y-119364276D02*
X156166630Y-119364276D01*
X156166630Y-119364276D02*
X156244040Y-119325571D01*
X156244040Y-119325571D02*
X156282745Y-119286866D01*
X156282745Y-119286866D02*
X156321449Y-119209457D01*
X156321449Y-119209457D02*
X156321449Y-119054638D01*
X156321449Y-119054638D02*
X156282745Y-118977228D01*
X156282745Y-118977228D02*
X156244040Y-118938523D01*
X156244040Y-118938523D02*
X156166630Y-118899819D01*
X156166630Y-118899819D02*
X155508649Y-118899819D01*
X155586059Y-118551475D02*
X155547354Y-118512771D01*
X155547354Y-118512771D02*
X155508649Y-118435361D01*
X155508649Y-118435361D02*
X155508649Y-118241837D01*
X155508649Y-118241837D02*
X155547354Y-118164428D01*
X155547354Y-118164428D02*
X155586059Y-118125723D01*
X155586059Y-118125723D02*
X155663468Y-118087018D01*
X155663468Y-118087018D02*
X155740878Y-118087018D01*
X155740878Y-118087018D02*
X155856992Y-118125723D01*
X155856992Y-118125723D02*
X156321449Y-118590180D01*
X156321449Y-118590180D02*
X156321449Y-118087018D01*
X179552649Y-94619276D02*
X180210630Y-94619276D01*
X180210630Y-94619276D02*
X180288040Y-94580571D01*
X180288040Y-94580571D02*
X180326745Y-94541866D01*
X180326745Y-94541866D02*
X180365449Y-94464457D01*
X180365449Y-94464457D02*
X180365449Y-94309638D01*
X180365449Y-94309638D02*
X180326745Y-94232228D01*
X180326745Y-94232228D02*
X180288040Y-94193523D01*
X180288040Y-94193523D02*
X180210630Y-94154819D01*
X180210630Y-94154819D02*
X179552649Y-94154819D01*
X179823583Y-93419428D02*
X180365449Y-93419428D01*
X179513945Y-93612952D02*
X180094516Y-93806475D01*
X180094516Y-93806475D02*
X180094516Y-93303314D01*
X159697909Y-100911065D02*
X159807383Y-100856328D01*
X159807383Y-100856328D02*
X159862119Y-100856328D01*
X159862119Y-100856328D02*
X159944225Y-100883697D01*
X159944225Y-100883697D02*
X160026330Y-100965802D01*
X160026330Y-100965802D02*
X160053698Y-101047907D01*
X160053698Y-101047907D02*
X160053698Y-101102644D01*
X160053698Y-101102644D02*
X160026330Y-101184749D01*
X160026330Y-101184749D02*
X159807383Y-101403696D01*
X159807383Y-101403696D02*
X159232646Y-100828960D01*
X159232646Y-100828960D02*
X159424225Y-100637381D01*
X159424225Y-100637381D02*
X159506330Y-100610013D01*
X159506330Y-100610013D02*
X159561067Y-100610013D01*
X159561067Y-100610013D02*
X159643172Y-100637381D01*
X159643172Y-100637381D02*
X159697909Y-100692118D01*
X159697909Y-100692118D02*
X159725277Y-100774223D01*
X159725277Y-100774223D02*
X159725277Y-100828960D01*
X159725277Y-100828960D02*
X159697909Y-100911065D01*
X159697909Y-100911065D02*
X159506330Y-101102644D01*
X159725277Y-100336329D02*
X160053698Y-100007908D01*
X160464224Y-100746855D02*
X159889488Y-100172118D01*
X161121066Y-100090013D02*
X160792645Y-100418434D01*
X160956855Y-100254224D02*
X160382119Y-99679487D01*
X160382119Y-99679487D02*
X160409487Y-99816329D01*
X160409487Y-99816329D02*
X160409487Y-99925803D01*
X160409487Y-99925803D02*
X160382119Y-100007908D01*
X165922649Y-119999276D02*
X166580630Y-119999276D01*
X166580630Y-119999276D02*
X166658040Y-119960571D01*
X166658040Y-119960571D02*
X166696745Y-119921866D01*
X166696745Y-119921866D02*
X166735449Y-119844457D01*
X166735449Y-119844457D02*
X166735449Y-119689638D01*
X166735449Y-119689638D02*
X166696745Y-119612228D01*
X166696745Y-119612228D02*
X166658040Y-119573523D01*
X166658040Y-119573523D02*
X166580630Y-119534819D01*
X166580630Y-119534819D02*
X165922649Y-119534819D01*
X165922649Y-119225180D02*
X165922649Y-118722018D01*
X165922649Y-118722018D02*
X166232287Y-118992952D01*
X166232287Y-118992952D02*
X166232287Y-118876837D01*
X166232287Y-118876837D02*
X166270992Y-118799428D01*
X166270992Y-118799428D02*
X166309697Y-118760723D01*
X166309697Y-118760723D02*
X166387106Y-118722018D01*
X166387106Y-118722018D02*
X166580630Y-118722018D01*
X166580630Y-118722018D02*
X166658040Y-118760723D01*
X166658040Y-118760723D02*
X166696745Y-118799428D01*
X166696745Y-118799428D02*
X166735449Y-118876837D01*
X166735449Y-118876837D02*
X166735449Y-119109066D01*
X166735449Y-119109066D02*
X166696745Y-119186475D01*
X166696745Y-119186475D02*
X166658040Y-119225180D01*
X212740723Y-103692649D02*
X212740723Y-104350630D01*
X212740723Y-104350630D02*
X212779428Y-104428040D01*
X212779428Y-104428040D02*
X212818133Y-104466745D01*
X212818133Y-104466745D02*
X212895542Y-104505449D01*
X212895542Y-104505449D02*
X213050361Y-104505449D01*
X213050361Y-104505449D02*
X213127771Y-104466745D01*
X213127771Y-104466745D02*
X213166476Y-104428040D01*
X213166476Y-104428040D02*
X213205180Y-104350630D01*
X213205180Y-104350630D02*
X213205180Y-103692649D01*
X214017981Y-104505449D02*
X213553524Y-104505449D01*
X213785752Y-104505449D02*
X213785752Y-103692649D01*
X213785752Y-103692649D02*
X213708343Y-103808764D01*
X213708343Y-103808764D02*
X213630933Y-103886173D01*
X213630933Y-103886173D02*
X213553524Y-103924878D01*
X146282402Y-121672047D02*
X146669449Y-121672047D01*
X145856649Y-121942980D02*
X146282402Y-121672047D01*
X146282402Y-121672047D02*
X145856649Y-121401113D01*
X146669449Y-120704427D02*
X146669449Y-121168884D01*
X146669449Y-120936656D02*
X145856649Y-120936656D01*
X145856649Y-120936656D02*
X145972764Y-121014065D01*
X145972764Y-121014065D02*
X146050173Y-121091475D01*
X146050173Y-121091475D02*
X146088878Y-121168884D01*
X233231267Y-94433745D02*
X233347381Y-94472449D01*
X233347381Y-94472449D02*
X233540905Y-94472449D01*
X233540905Y-94472449D02*
X233618314Y-94433745D01*
X233618314Y-94433745D02*
X233657019Y-94395040D01*
X233657019Y-94395040D02*
X233695724Y-94317630D01*
X233695724Y-94317630D02*
X233695724Y-94240221D01*
X233695724Y-94240221D02*
X233657019Y-94162811D01*
X233657019Y-94162811D02*
X233618314Y-94124106D01*
X233618314Y-94124106D02*
X233540905Y-94085402D01*
X233540905Y-94085402D02*
X233386086Y-94046697D01*
X233386086Y-94046697D02*
X233308676Y-94007992D01*
X233308676Y-94007992D02*
X233269971Y-93969287D01*
X233269971Y-93969287D02*
X233231267Y-93891878D01*
X233231267Y-93891878D02*
X233231267Y-93814468D01*
X233231267Y-93814468D02*
X233269971Y-93737059D01*
X233269971Y-93737059D02*
X233308676Y-93698354D01*
X233308676Y-93698354D02*
X233386086Y-93659649D01*
X233386086Y-93659649D02*
X233579609Y-93659649D01*
X233579609Y-93659649D02*
X233695724Y-93698354D01*
X233966657Y-93659649D02*
X234160181Y-94472449D01*
X234160181Y-94472449D02*
X234315000Y-93891878D01*
X234315000Y-93891878D02*
X234469819Y-94472449D01*
X234469819Y-94472449D02*
X234663343Y-93659649D01*
X235398733Y-94472449D02*
X234934276Y-94472449D01*
X235166504Y-94472449D02*
X235166504Y-93659649D01*
X235166504Y-93659649D02*
X235089095Y-93775764D01*
X235089095Y-93775764D02*
X235011685Y-93853173D01*
X235011685Y-93853173D02*
X234934276Y-93891878D01*
X236279149Y-114284276D02*
X236937130Y-114284276D01*
X236937130Y-114284276D02*
X237014540Y-114245571D01*
X237014540Y-114245571D02*
X237053245Y-114206866D01*
X237053245Y-114206866D02*
X237091949Y-114129457D01*
X237091949Y-114129457D02*
X237091949Y-113974638D01*
X237091949Y-113974638D02*
X237053245Y-113897228D01*
X237053245Y-113897228D02*
X237014540Y-113858523D01*
X237014540Y-113858523D02*
X236937130Y-113819819D01*
X236937130Y-113819819D02*
X236279149Y-113819819D01*
X236279149Y-113510180D02*
X236279149Y-112968314D01*
X236279149Y-112968314D02*
X237091949Y-113316656D01*
D11*
X171514400Y-86525000D02*
X170701600Y-86525000D01*
X171514400Y-84925000D02*
X170701600Y-84925000D01*
X238316400Y-129070000D02*
X237503600Y-129070000D01*
X238316400Y-127470000D02*
X237503600Y-127470000D01*
X222236400Y-129070000D02*
X221423600Y-129070000D01*
X222236400Y-127470000D02*
X221423600Y-127470000D01*
X200216400Y-84620000D02*
X199403600Y-84620000D01*
X200216400Y-83020000D02*
X199403600Y-83020000D01*
X193840000Y-107123600D02*
X193840000Y-107936400D01*
X192240000Y-107123600D02*
X192240000Y-107936400D01*
X209839600Y-83020000D02*
X210652400Y-83020000D01*
X209839600Y-84620000D02*
X210652400Y-84620000D01*
X169290100Y-112992000D02*
X170102900Y-112992000D01*
X169290100Y-114592000D02*
X170102900Y-114592000D01*
X227558600Y-123660000D02*
X228371400Y-123660000D01*
X227558600Y-125260000D02*
X228371400Y-125260000D01*
X234480000Y-102869100D02*
X234480000Y-103681900D01*
X232880000Y-102869100D02*
X232880000Y-103681900D01*
X220153600Y-83020000D02*
X220966400Y-83020000D01*
X220153600Y-84620000D02*
X220966400Y-84620000D01*
X213803600Y-83020000D02*
X214616400Y-83020000D01*
X213803600Y-84620000D02*
X214616400Y-84620000D01*
X217183600Y-127470000D02*
X217996400Y-127470000D01*
X217183600Y-129070000D02*
X217996400Y-129070000D01*
D12*
X190850000Y-103790000D02*
X182610000Y-103790000D01*
X180610000Y-103790000D02*
X173370000Y-103790000D01*
X173370000Y-103790000D02*
X172370000Y-104790000D01*
X172370000Y-104790000D02*
X172370000Y-124810000D01*
D11*
X187435000Y-107205000D02*
X187435000Y-108660000D01*
X185980000Y-107205000D02*
X187435000Y-107205000D01*
X177240000Y-107205000D02*
X176957218Y-107205000D01*
X176957218Y-107205000D02*
X175785000Y-108377218D01*
X175785000Y-108377218D02*
X175785000Y-108660000D01*
X187435000Y-121395000D02*
X187435000Y-119940000D01*
X185980000Y-121395000D02*
X187435000Y-121395000D01*
X177240000Y-121395000D02*
X175785000Y-121395000D01*
X175785000Y-121395000D02*
X175785000Y-119940000D01*
D12*
X190850000Y-124810000D02*
X190850000Y-103790000D01*
X172370000Y-124810000D02*
X190850000Y-124810000D01*
D11*
X179894600Y-101435000D02*
X180707400Y-101435000D01*
X179894600Y-103035000D02*
X180707400Y-103035000D01*
X175959400Y-129959000D02*
X175146600Y-129959000D01*
X175959400Y-128359000D02*
X175146600Y-128359000D01*
X156653600Y-110960000D02*
X157466400Y-110960000D01*
X156653600Y-112560000D02*
X157466400Y-112560000D01*
X161098600Y-110960000D02*
X161911400Y-110960000D01*
X161098600Y-112560000D02*
X161911400Y-112560000D01*
X180910600Y-84925000D02*
X181723400Y-84925000D01*
X180910600Y-86525000D02*
X181723400Y-86525000D01*
D12*
X159816000Y-113485000D02*
X159816000Y-113740000D01*
X155956000Y-113485000D02*
X159816000Y-113485000D01*
X155956000Y-113485000D02*
X152096000Y-113485000D01*
X152096000Y-113485000D02*
X152096000Y-113740000D01*
X152096000Y-113740000D02*
X150281000Y-113740000D01*
X159816000Y-124005000D02*
X159816000Y-123750000D01*
X155956000Y-124005000D02*
X159816000Y-124005000D01*
X155956000Y-124005000D02*
X152096000Y-124005000D01*
X152096000Y-124005000D02*
X152096000Y-123750000D01*
D11*
X152208600Y-110960000D02*
X153021400Y-110960000D01*
X152208600Y-112560000D02*
X153021400Y-112560000D01*
D12*
X170685000Y-88810000D02*
X171065000Y-88810000D01*
X170685000Y-94000000D02*
X170685000Y-88810000D01*
X170685000Y-94000000D02*
X170685000Y-99190000D01*
X170685000Y-99190000D02*
X171065000Y-99190000D01*
X171065000Y-99190000D02*
X171065000Y-100350000D01*
X189315000Y-88810000D02*
X188935000Y-88810000D01*
X189315000Y-94000000D02*
X189315000Y-88810000D01*
X189315000Y-94000000D02*
X189315000Y-99190000D01*
X189315000Y-99190000D02*
X188935000Y-99190000D01*
D13*
X167185414Y-92250192D02*
X165445931Y-90510709D01*
X161203291Y-86268069D02*
X160757813Y-85822591D01*
X160757813Y-85822591D02*
X156946508Y-84047753D01*
X167185414Y-95191756D02*
X167185414Y-92250192D01*
X154881756Y-107495414D02*
X167185414Y-95191756D01*
X154881756Y-107495414D02*
X151940192Y-107495414D01*
X151940192Y-107495414D02*
X150200709Y-105755931D01*
X145958069Y-101513291D02*
X145512591Y-101067813D01*
X145512591Y-101067813D02*
X143737753Y-97256508D01*
X145413596Y-94208877D02*
G75*
G03*
X153899629Y-85717843I-1279864J9765145D01*
G01*
X156946508Y-84047754D02*
G75*
G03*
X153889561Y-85709536I-919238J-1951615D01*
G01*
X145413596Y-94208878D02*
G75*
G03*
X143742412Y-97240297I275772J-2128391D01*
G01*
D11*
X171209600Y-128359000D02*
X172022400Y-128359000D01*
X171209600Y-129959000D02*
X172022400Y-129959000D01*
X144472142Y-106614513D02*
X143897405Y-106039776D01*
X145603513Y-105483142D02*
X145028776Y-104908405D01*
D12*
X166370000Y-114955000D02*
X168320000Y-114955000D01*
X166370000Y-114955000D02*
X162920000Y-114955000D01*
X166370000Y-123805000D02*
X168320000Y-123805000D01*
X166370000Y-123805000D02*
X164420000Y-123805000D01*
D11*
X228125800Y-117730582D02*
X228125800Y-117400000D01*
X228125800Y-89374200D02*
X228125800Y-90880000D01*
X226950582Y-118905800D02*
X228125800Y-117730582D01*
X226620000Y-118905800D02*
X226950582Y-118905800D01*
X226620000Y-89374200D02*
X228125800Y-89374200D01*
X200100000Y-118905800D02*
X198594200Y-118905800D01*
X200100000Y-89374200D02*
X198594200Y-89374200D01*
X198594200Y-118905800D02*
X198594200Y-117400000D01*
X198594200Y-89374200D02*
X198594200Y-90880000D01*
X204383600Y-83020000D02*
X205196400Y-83020000D01*
X204383600Y-84620000D02*
X205196400Y-84620000D01*
X234607000Y-126276100D02*
X234607000Y-127088900D01*
X233007000Y-126276100D02*
X233007000Y-127088900D01*
D12*
X145008000Y-117370000D02*
X145008000Y-124270000D01*
X145008000Y-124270000D02*
X147468000Y-124270000D01*
X145288000Y-116470000D02*
X145288000Y-116270000D01*
X145888000Y-117370000D02*
X145288000Y-116470000D01*
X146588000Y-117370000D02*
X147188000Y-116470000D01*
X147188000Y-116470000D02*
X147188000Y-116270000D01*
X147468000Y-117370000D02*
X145008000Y-117370000D01*
X147468000Y-124270000D02*
X147468000Y-117370000D01*
D11*
X166141500Y-113502400D02*
X166141500Y-112689600D01*
X167741500Y-113502400D02*
X167741500Y-112689600D01*
X241008000Y-119471400D02*
X241008000Y-118658600D01*
X242608000Y-119471400D02*
X242608000Y-118658600D01*
X224066100Y-83020000D02*
X224878900Y-83020000D01*
X224066100Y-84620000D02*
X224878900Y-84620000D01*
X207702600Y-123660000D02*
X208515400Y-123660000D01*
X207702600Y-125260000D02*
X208515400Y-125260000D01*
X238393600Y-85550000D02*
X239206400Y-85550000D01*
X238393600Y-87150000D02*
X239206400Y-87150000D01*
X168700000Y-99756400D02*
X168700000Y-98943600D01*
X170300000Y-99756400D02*
X170300000Y-98943600D01*
X192620900Y-84620000D02*
X191808100Y-84620000D01*
X192620900Y-83020000D02*
X191808100Y-83020000D01*
X240450000Y-124556400D02*
X240450000Y-123743600D01*
X242050000Y-124556400D02*
X242050000Y-123743600D01*
D12*
X241683000Y-114887221D02*
X241683000Y-115212779D01*
X240663000Y-114887221D02*
X240663000Y-115212779D01*
D11*
X234736600Y-121945500D02*
X235549400Y-121945500D01*
X234736600Y-123545500D02*
X235549400Y-123545500D01*
G36*
X156060136Y-125251310D02*
G01*
X156065273Y-125257941D01*
X156072849Y-125272019D01*
X156081801Y-125291092D01*
X156091065Y-125312711D01*
X156099578Y-125334424D01*
X156106277Y-125353783D01*
X156109323Y-125364642D01*
X156113795Y-125392047D01*
X156116361Y-125425714D01*
X156116968Y-125461642D01*
X156115563Y-125495832D01*
X156112094Y-125524284D01*
X156111461Y-125527484D01*
X156102486Y-125558037D01*
X156088116Y-125592826D01*
X156070011Y-125628314D01*
X156049833Y-125660962D01*
X156046613Y-125665561D01*
X156035775Y-125679517D01*
X156021177Y-125696655D01*
X156004411Y-125715298D01*
X155987070Y-125733775D01*
X155970747Y-125750410D01*
X155957034Y-125763530D01*
X155947526Y-125771461D01*
X155944335Y-125773041D01*
X155938936Y-125770346D01*
X155926863Y-125763201D01*
X155910238Y-125752882D01*
X155900780Y-125746865D01*
X155881440Y-125734143D01*
X155869410Y-125724987D01*
X155862986Y-125717583D01*
X155860461Y-125710118D01*
X155860100Y-125703628D01*
X155862373Y-125691207D01*
X155869855Y-125675776D01*
X155883541Y-125655411D01*
X155888477Y-125648753D01*
X155912512Y-125613149D01*
X155928517Y-125579949D01*
X155937551Y-125546298D01*
X155940671Y-125509346D01*
X155940685Y-125508059D01*
X155937981Y-125466862D01*
X155928425Y-125428330D01*
X155911034Y-125388778D01*
X155906766Y-125380849D01*
X155895745Y-125357317D01*
X155892181Y-125339104D01*
X155895897Y-125324321D01*
X155900780Y-125317205D01*
X155907949Y-125312293D01*
X155922474Y-125304809D01*
X155942319Y-125295595D01*
X155965447Y-125285492D01*
X155989824Y-125275343D01*
X156013413Y-125265990D01*
X156034178Y-125258274D01*
X156050085Y-125253037D01*
X156059097Y-125251120D01*
X156060136Y-125251310D01*
G37*
G36*
X163019761Y-125544780D02*
G01*
X163019761Y-125799336D01*
X163051952Y-125773397D01*
X163100305Y-125739277D01*
X163149513Y-125714747D01*
X163201709Y-125698976D01*
X163259024Y-125691132D01*
X163263840Y-125690825D01*
X163325543Y-125691504D01*
X163381708Y-125701041D01*
X163432160Y-125719320D01*
X163476724Y-125746224D01*
X163515224Y-125781638D01*
X163547484Y-125825444D01*
X163573329Y-125877527D01*
X163582194Y-125901735D01*
X163584630Y-125909189D01*
X163586723Y-125916349D01*
X163588502Y-125924046D01*
X163589997Y-125933109D01*
X163591239Y-125944371D01*
X163592257Y-125958662D01*
X163593083Y-125976812D01*
X163593746Y-125999654D01*
X163594276Y-126028016D01*
X163594704Y-126062731D01*
X163595060Y-126104629D01*
X163595374Y-126154540D01*
X163595677Y-126213297D01*
X163595995Y-126280976D01*
X163597582Y-126623475D01*
X163487138Y-126623475D01*
X163376694Y-126623475D01*
X163376694Y-126309087D01*
X163376680Y-126243511D01*
X163376620Y-126187562D01*
X163376488Y-126140371D01*
X163376258Y-126101065D01*
X163375905Y-126068774D01*
X163375402Y-126042629D01*
X163374723Y-126021757D01*
X163373843Y-126005288D01*
X163372736Y-125992352D01*
X163371375Y-125982078D01*
X163369734Y-125973595D01*
X163367788Y-125966033D01*
X163366323Y-125961120D01*
X163350604Y-125925044D01*
X163328068Y-125896857D01*
X163298513Y-125876397D01*
X163261737Y-125863503D01*
X163240220Y-125859797D01*
X163201020Y-125859855D01*
X163159378Y-125868678D01*
X163117287Y-125885519D01*
X163076743Y-125909629D01*
X163049196Y-125931454D01*
X163019761Y-125957689D01*
X163019761Y-126290582D01*
X163019761Y-126623475D01*
X162909532Y-126623475D01*
X162799302Y-126623475D01*
X162799302Y-125956850D01*
X162799302Y-125290224D01*
X162909532Y-125290224D01*
X163019761Y-125290224D01*
X163019761Y-125544780D01*
G37*
G36*
X152584260Y-125686944D02*
G01*
X152602680Y-125687978D01*
X152616847Y-125690461D01*
X152629879Y-125694926D01*
X152643764Y-125701346D01*
X152660558Y-125710236D01*
X152669696Y-125717321D01*
X152673288Y-125724640D01*
X152673656Y-125730216D01*
X152672398Y-125744972D01*
X152669376Y-125765838D01*
X152665036Y-125790697D01*
X152659825Y-125817432D01*
X152654189Y-125843924D01*
X152648573Y-125868057D01*
X152643425Y-125887713D01*
X152639190Y-125900775D01*
X152636814Y-125905021D01*
X152627805Y-125907286D01*
X152612192Y-125907951D01*
X152597835Y-125907218D01*
X152562024Y-125904014D01*
X152534905Y-125901769D01*
X152514715Y-125900477D01*
X152499694Y-125900130D01*
X152488079Y-125900722D01*
X152478108Y-125902245D01*
X152468019Y-125904693D01*
X152460944Y-125906669D01*
X152420727Y-125923408D01*
X152383862Y-125949347D01*
X152351570Y-125983406D01*
X152325071Y-126024505D01*
X152322860Y-126028814D01*
X152320454Y-126033846D01*
X152318423Y-126039153D01*
X152316736Y-126045624D01*
X152315361Y-126054142D01*
X152314266Y-126065594D01*
X152313419Y-126080865D01*
X152312788Y-126100841D01*
X152312342Y-126126406D01*
X152312049Y-126158448D01*
X152311876Y-126197851D01*
X152311792Y-126245501D01*
X152311766Y-126302283D01*
X152311764Y-126337194D01*
X152311764Y-126623475D01*
X152201534Y-126623475D01*
X152091305Y-126623475D01*
X152091305Y-126164186D01*
X152091305Y-125704897D01*
X152167676Y-125704897D01*
X152204186Y-125705385D01*
X152231623Y-125707058D01*
X152251376Y-125710228D01*
X152264835Y-125715209D01*
X152273388Y-125722312D01*
X152277593Y-125729635D01*
X152279789Y-125738332D01*
X152282905Y-125755020D01*
X152286523Y-125777277D01*
X152290128Y-125802004D01*
X152298818Y-125864992D01*
X152316635Y-125838747D01*
X152356329Y-125787188D01*
X152398570Y-125745747D01*
X152443462Y-125714328D01*
X152474593Y-125699038D01*
X152490893Y-125693187D01*
X152507642Y-125689520D01*
X152528081Y-125687565D01*
X152555450Y-125686850D01*
X152558467Y-125686830D01*
X152584260Y-125686944D01*
G37*
G36*
X153313873Y-125686944D02*
G01*
X153332294Y-125687978D01*
X153346461Y-125690461D01*
X153359492Y-125694926D01*
X153373378Y-125701346D01*
X153390172Y-125710236D01*
X153399309Y-125717321D01*
X153402901Y-125724640D01*
X153403269Y-125730216D01*
X153402011Y-125744972D01*
X153398989Y-125765838D01*
X153394650Y-125790697D01*
X153389439Y-125817432D01*
X153383802Y-125843924D01*
X153378187Y-125868057D01*
X153373039Y-125887713D01*
X153368804Y-125900775D01*
X153366427Y-125905021D01*
X153357419Y-125907286D01*
X153341805Y-125907951D01*
X153327449Y-125907218D01*
X153291638Y-125904014D01*
X153264518Y-125901769D01*
X153244329Y-125900477D01*
X153229308Y-125900130D01*
X153217692Y-125900722D01*
X153207721Y-125902245D01*
X153197633Y-125904693D01*
X153190557Y-125906669D01*
X153150340Y-125923408D01*
X153113476Y-125949347D01*
X153081184Y-125983406D01*
X153054685Y-126024505D01*
X153052474Y-126028814D01*
X153050067Y-126033846D01*
X153048036Y-126039153D01*
X153046349Y-126045624D01*
X153044974Y-126054142D01*
X153043879Y-126065594D01*
X153043032Y-126080865D01*
X153042402Y-126100841D01*
X153041956Y-126126406D01*
X153041662Y-126158448D01*
X153041490Y-126197851D01*
X153041406Y-126245501D01*
X153041379Y-126302283D01*
X153041377Y-126337194D01*
X153041377Y-126623475D01*
X152931148Y-126623475D01*
X152820918Y-126623475D01*
X152820918Y-126164186D01*
X152820918Y-125704897D01*
X152897290Y-125704897D01*
X152933799Y-125705385D01*
X152961236Y-125707058D01*
X152980990Y-125710228D01*
X152994448Y-125715209D01*
X153003002Y-125722312D01*
X153007206Y-125729635D01*
X153009403Y-125738332D01*
X153012519Y-125755020D01*
X153016136Y-125777277D01*
X153019741Y-125802004D01*
X153028431Y-125864992D01*
X153046248Y-125838747D01*
X153085943Y-125787188D01*
X153128183Y-125745747D01*
X153173075Y-125714328D01*
X153204206Y-125699038D01*
X153220506Y-125693187D01*
X153237255Y-125689520D01*
X153257694Y-125687565D01*
X153285064Y-125686850D01*
X153288081Y-125686830D01*
X153313873Y-125686944D01*
G37*
G36*
X160788476Y-125686944D02*
G01*
X160806896Y-125687978D01*
X160821063Y-125690461D01*
X160834095Y-125694926D01*
X160847980Y-125701346D01*
X160864774Y-125710236D01*
X160873911Y-125717321D01*
X160877503Y-125724640D01*
X160877871Y-125730216D01*
X160876614Y-125744972D01*
X160873592Y-125765838D01*
X160869252Y-125790697D01*
X160864041Y-125817432D01*
X160858404Y-125843924D01*
X160852789Y-125868057D01*
X160847641Y-125887713D01*
X160843406Y-125900775D01*
X160841030Y-125905021D01*
X160832021Y-125907286D01*
X160816408Y-125907951D01*
X160802051Y-125907218D01*
X160766240Y-125904014D01*
X160739121Y-125901769D01*
X160718931Y-125900477D01*
X160703910Y-125900130D01*
X160692294Y-125900722D01*
X160682323Y-125902245D01*
X160672235Y-125904693D01*
X160665160Y-125906669D01*
X160624943Y-125923408D01*
X160588078Y-125949347D01*
X160555786Y-125983406D01*
X160529287Y-126024505D01*
X160527076Y-126028814D01*
X160524669Y-126033846D01*
X160522639Y-126039153D01*
X160520952Y-126045624D01*
X160519577Y-126054142D01*
X160518481Y-126065594D01*
X160517635Y-126080865D01*
X160517004Y-126100841D01*
X160516558Y-126126406D01*
X160516265Y-126158448D01*
X160516092Y-126197851D01*
X160516008Y-126245501D01*
X160515981Y-126302283D01*
X160515979Y-126337194D01*
X160515979Y-126623475D01*
X160405750Y-126623475D01*
X160295521Y-126623475D01*
X160295521Y-126164186D01*
X160295521Y-125704897D01*
X160371892Y-125704897D01*
X160408401Y-125705385D01*
X160435838Y-125707058D01*
X160455592Y-125710228D01*
X160469051Y-125715209D01*
X160477604Y-125722312D01*
X160481809Y-125729635D01*
X160484005Y-125738332D01*
X160487121Y-125755020D01*
X160490738Y-125777277D01*
X160494343Y-125802004D01*
X160503034Y-125864992D01*
X160520851Y-125838747D01*
X160560545Y-125787188D01*
X160602785Y-125745747D01*
X160647677Y-125714328D01*
X160678808Y-125699038D01*
X160695108Y-125693187D01*
X160711858Y-125689520D01*
X160732296Y-125687565D01*
X160759666Y-125686850D01*
X160762683Y-125686830D01*
X160788476Y-125686944D01*
G37*
G36*
X161250842Y-125673403D02*
G01*
X161250842Y-126056581D01*
X161281024Y-126056344D01*
X161300761Y-126055068D01*
X161318558Y-126052055D01*
X161326383Y-126049628D01*
X161334245Y-126043458D01*
X161348233Y-126029143D01*
X161368147Y-126006915D01*
X161393784Y-125977005D01*
X161424945Y-125939645D01*
X161461426Y-125895066D01*
X161470731Y-125883591D01*
X161508447Y-125837279D01*
X161540162Y-125798953D01*
X161566212Y-125768229D01*
X161586933Y-125744724D01*
X161602660Y-125728054D01*
X161613729Y-125717835D01*
X161618795Y-125714361D01*
X161626040Y-125711139D01*
X161634448Y-125708756D01*
X161645554Y-125707116D01*
X161660897Y-125706123D01*
X161682012Y-125705681D01*
X161710436Y-125705694D01*
X161747705Y-125706066D01*
X161750831Y-125706104D01*
X161863974Y-125707521D01*
X161714973Y-125885988D01*
X161683021Y-125924108D01*
X161652313Y-125960459D01*
X161623674Y-125994085D01*
X161597927Y-126024031D01*
X161575898Y-126049342D01*
X161558410Y-126069060D01*
X161546287Y-126082232D01*
X161541870Y-126086653D01*
X161517770Y-126108851D01*
X161539260Y-126133894D01*
X161546352Y-126142997D01*
X161558741Y-126159843D01*
X161575782Y-126183521D01*
X161596831Y-126213118D01*
X161621242Y-126247723D01*
X161648372Y-126286424D01*
X161677575Y-126328309D01*
X161708208Y-126372466D01*
X161720255Y-126389894D01*
X161879760Y-126620850D01*
X161767326Y-126622265D01*
X161726920Y-126622676D01*
X161695494Y-126622536D01*
X161671533Y-126621498D01*
X161653520Y-126619217D01*
X161639941Y-126615345D01*
X161629279Y-126609536D01*
X161620018Y-126601445D01*
X161610643Y-126590724D01*
X161606425Y-126585501D01*
X161599407Y-126576031D01*
X161587355Y-126558965D01*
X161571050Y-126535447D01*
X161551277Y-126506617D01*
X161528820Y-126473619D01*
X161504461Y-126437594D01*
X161479457Y-126400392D01*
X161454166Y-126362834D01*
X161430125Y-126327487D01*
X161408091Y-126295436D01*
X161388823Y-126267771D01*
X161373078Y-126245578D01*
X161361613Y-126229946D01*
X161355187Y-126221963D01*
X161355150Y-126221925D01*
X161346850Y-126214151D01*
X161338499Y-126209310D01*
X161327209Y-126206551D01*
X161310092Y-126205024D01*
X161295359Y-126204327D01*
X161250842Y-126202476D01*
X161250842Y-126412976D01*
X161250842Y-126623475D01*
X161140612Y-126623475D01*
X161030383Y-126623475D01*
X161030383Y-125956850D01*
X161030383Y-125290224D01*
X161140612Y-125290224D01*
X161250842Y-125290224D01*
X161250842Y-125673403D01*
G37*
G36*
X154789300Y-125571047D02*
G01*
X154789300Y-125715395D01*
X154910028Y-125715395D01*
X155030755Y-125715395D01*
X155030755Y-125794130D01*
X155030755Y-125872865D01*
X154909845Y-125872865D01*
X154788934Y-125872865D01*
X154790430Y-126139253D01*
X154790787Y-126199266D01*
X154791152Y-126249680D01*
X154791560Y-126291394D01*
X154792046Y-126325307D01*
X154792646Y-126352318D01*
X154793395Y-126373326D01*
X154794330Y-126389230D01*
X154795484Y-126400928D01*
X154796894Y-126409321D01*
X154798595Y-126415306D01*
X154800622Y-126419784D01*
X154801554Y-126421388D01*
X154820353Y-126443742D01*
X154843563Y-126456586D01*
X154871128Y-126459908D01*
X154902991Y-126453697D01*
X154924771Y-126445106D01*
X154948672Y-126435364D01*
X154965647Y-126431247D01*
X154972302Y-126431659D01*
X154979494Y-126437541D01*
X154990729Y-126451196D01*
X155004946Y-126471220D01*
X155020966Y-126496017D01*
X155058758Y-126556924D01*
X155043444Y-126569379D01*
X155025126Y-126581791D01*
X155000140Y-126595427D01*
X154971921Y-126608657D01*
X154943901Y-126619854D01*
X154923150Y-126626462D01*
X154901566Y-126630641D01*
X154873335Y-126633907D01*
X154841567Y-126636130D01*
X154809373Y-126637177D01*
X154779864Y-126636917D01*
X154756149Y-126635218D01*
X154747877Y-126633882D01*
X154706203Y-126620543D01*
X154667476Y-126599463D01*
X154633795Y-126572176D01*
X154607259Y-126540218D01*
X154597995Y-126524303D01*
X154591956Y-126512035D01*
X154586818Y-126500316D01*
X154582508Y-126488214D01*
X154578954Y-126474795D01*
X154576082Y-126459126D01*
X154573819Y-126440275D01*
X154572093Y-126417307D01*
X154570831Y-126389290D01*
X154569959Y-126355290D01*
X154569404Y-126314374D01*
X154569094Y-126265609D01*
X154568956Y-126208061D01*
X154568919Y-126152376D01*
X154568841Y-125872865D01*
X154514435Y-125872865D01*
X154488984Y-125872604D01*
X154471596Y-125871559D01*
X154459841Y-125869338D01*
X154451291Y-125865553D01*
X154446025Y-125861851D01*
X154439826Y-125856575D01*
X154435857Y-125850984D01*
X154433697Y-125842842D01*
X154432928Y-125829913D01*
X154433131Y-125809962D01*
X154433507Y-125795097D01*
X154434991Y-125739358D01*
X154505119Y-125727673D01*
X154530906Y-125723278D01*
X154552684Y-125719378D01*
X154568504Y-125716337D01*
X154576421Y-125714518D01*
X154576947Y-125714288D01*
X154578328Y-125708878D01*
X154581328Y-125694537D01*
X154585673Y-125672660D01*
X154591091Y-125644644D01*
X154597307Y-125611884D01*
X154602995Y-125581453D01*
X154611022Y-125538963D01*
X154617660Y-125505680D01*
X154623197Y-125480451D01*
X154627918Y-125462121D01*
X154632110Y-125449533D01*
X154636057Y-125441532D01*
X154638375Y-125438509D01*
X154643494Y-125433713D01*
X154649600Y-125430425D01*
X154658633Y-125428362D01*
X154672534Y-125427243D01*
X154693242Y-125426783D01*
X154719353Y-125426699D01*
X154789300Y-125426699D01*
X154789300Y-125571047D01*
G37*
G36*
X155482171Y-125571047D02*
G01*
X155482171Y-125715395D01*
X155602898Y-125715395D01*
X155723625Y-125715395D01*
X155723625Y-125794130D01*
X155723625Y-125872865D01*
X155602715Y-125872865D01*
X155481805Y-125872865D01*
X155483300Y-126139253D01*
X155483657Y-126199266D01*
X155484022Y-126249680D01*
X155484430Y-126291394D01*
X155484916Y-126325307D01*
X155485516Y-126352318D01*
X155486266Y-126373326D01*
X155487200Y-126389230D01*
X155488354Y-126400928D01*
X155489764Y-126409321D01*
X155491465Y-126415306D01*
X155493493Y-126419784D01*
X155494424Y-126421388D01*
X155513223Y-126443742D01*
X155536433Y-126456586D01*
X155563998Y-126459908D01*
X155595862Y-126453697D01*
X155617642Y-126445106D01*
X155641543Y-126435364D01*
X155658517Y-126431247D01*
X155665173Y-126431659D01*
X155672364Y-126437541D01*
X155683599Y-126451196D01*
X155697817Y-126471220D01*
X155713837Y-126496017D01*
X155751628Y-126556924D01*
X155736315Y-126569379D01*
X155717997Y-126581791D01*
X155693011Y-126595427D01*
X155664791Y-126608657D01*
X155636772Y-126619854D01*
X155616021Y-126626462D01*
X155594437Y-126630641D01*
X155566206Y-126633907D01*
X155534438Y-126636130D01*
X155502244Y-126637177D01*
X155472734Y-126636917D01*
X155449020Y-126635218D01*
X155440747Y-126633882D01*
X155399073Y-126620543D01*
X155360346Y-126599463D01*
X155326665Y-126572176D01*
X155300129Y-126540218D01*
X155290865Y-126524303D01*
X155284826Y-126512035D01*
X155279688Y-126500316D01*
X155275379Y-126488214D01*
X155271824Y-126474795D01*
X155268952Y-126459126D01*
X155266690Y-126440275D01*
X155264964Y-126417307D01*
X155263701Y-126389290D01*
X155262829Y-126355290D01*
X155262274Y-126314374D01*
X155261965Y-126265609D01*
X155261826Y-126208061D01*
X155261789Y-126152376D01*
X155261712Y-125872865D01*
X155207305Y-125872865D01*
X155181855Y-125872604D01*
X155164466Y-125871559D01*
X155152711Y-125869338D01*
X155144161Y-125865553D01*
X155138895Y-125861851D01*
X155132697Y-125856575D01*
X155128727Y-125850984D01*
X155126567Y-125842842D01*
X155125798Y-125829913D01*
X155126001Y-125809962D01*
X155126377Y-125795097D01*
X155127862Y-125739358D01*
X155197989Y-125727673D01*
X155223777Y-125723278D01*
X155245554Y-125719378D01*
X155261375Y-125716337D01*
X155269292Y-125714518D01*
X155269817Y-125714288D01*
X155271198Y-125708878D01*
X155274198Y-125694537D01*
X155278544Y-125672660D01*
X155283962Y-125644644D01*
X155290178Y-125611884D01*
X155295866Y-125581453D01*
X155303892Y-125538963D01*
X155310531Y-125505680D01*
X155316068Y-125480451D01*
X155320789Y-125462121D01*
X155324980Y-125449533D01*
X155328927Y-125441532D01*
X155331245Y-125438509D01*
X155336365Y-125433713D01*
X155342471Y-125430425D01*
X155351504Y-125428362D01*
X155365404Y-125427243D01*
X155386112Y-125426783D01*
X155412224Y-125426699D01*
X155482171Y-125426699D01*
X155482171Y-125571047D01*
G37*
G36*
X165400086Y-125688787D02*
G01*
X165426135Y-125694322D01*
X165468101Y-125708142D01*
X165505333Y-125727576D01*
X165540727Y-125754337D01*
X165563022Y-125775365D01*
X165597652Y-125817216D01*
X165627067Y-125867096D01*
X165650966Y-125923754D01*
X165669050Y-125985942D01*
X165681019Y-126052410D01*
X165686570Y-126121910D01*
X165685405Y-126193193D01*
X165678639Y-126256044D01*
X165663927Y-126325329D01*
X165641892Y-126389233D01*
X165613044Y-126447133D01*
X165577890Y-126498408D01*
X165536938Y-126542436D01*
X165490698Y-126578595D01*
X165439677Y-126606263D01*
X165384384Y-126624819D01*
X165375566Y-126626817D01*
X165344460Y-126631315D01*
X165308031Y-126633251D01*
X165269460Y-126632757D01*
X165231928Y-126629960D01*
X165198616Y-126624992D01*
X165174483Y-126618632D01*
X165147216Y-126606786D01*
X165117719Y-126590554D01*
X165090419Y-126572551D01*
X165073439Y-126558910D01*
X165061629Y-126548159D01*
X165061629Y-126735414D01*
X165061629Y-126922669D01*
X164951400Y-126922669D01*
X164841170Y-126922669D01*
X164841170Y-126385932D01*
X165061629Y-126385932D01*
X165084728Y-126407224D01*
X165122414Y-126435429D01*
X165164039Y-126454045D01*
X165210006Y-126463212D01*
X165247969Y-126463952D01*
X165271759Y-126461737D01*
X165294889Y-126457824D01*
X165312614Y-126453029D01*
X165313582Y-126452662D01*
X165351390Y-126432862D01*
X165383238Y-126405248D01*
X165409371Y-126369473D01*
X165430030Y-126325190D01*
X165445460Y-126272054D01*
X165447664Y-126261707D01*
X165451476Y-126234765D01*
X165453798Y-126200904D01*
X165454682Y-126162812D01*
X165454185Y-126123177D01*
X165452360Y-126084688D01*
X165449263Y-126050032D01*
X165444947Y-126021899D01*
X165442589Y-126011964D01*
X165427608Y-125967380D01*
X165409682Y-125931849D01*
X165387940Y-125904134D01*
X165361516Y-125882997D01*
X165346029Y-125874388D01*
X165329625Y-125867032D01*
X165314824Y-125862618D01*
X165297868Y-125860432D01*
X165274998Y-125859759D01*
X165268965Y-125859743D01*
X165228973Y-125861794D01*
X165197146Y-125868077D01*
X165192855Y-125869439D01*
X165164548Y-125882092D01*
X165134166Y-125900817D01*
X165105484Y-125922970D01*
X165082278Y-125945906D01*
X165080324Y-125948239D01*
X165061629Y-125971053D01*
X165061629Y-126178493D01*
X165061629Y-126385932D01*
X164841170Y-126385932D01*
X164841170Y-126311158D01*
X164841170Y-125699648D01*
X164919503Y-125699648D01*
X164949842Y-125699724D01*
X164971577Y-125700126D01*
X164986603Y-125701118D01*
X164996813Y-125702959D01*
X165004104Y-125705913D01*
X165010367Y-125710241D01*
X165013237Y-125712608D01*
X165021184Y-125720663D01*
X165027126Y-125730896D01*
X165032139Y-125745903D01*
X165037299Y-125768279D01*
X165038263Y-125772971D01*
X165042779Y-125793652D01*
X165046902Y-125809762D01*
X165050018Y-125819022D01*
X165051040Y-125820375D01*
X165056047Y-125816892D01*
X165066006Y-125807802D01*
X165077596Y-125796256D01*
X165122564Y-125757027D01*
X165172933Y-125725772D01*
X165227286Y-125702907D01*
X165284207Y-125688845D01*
X165342279Y-125684000D01*
X165400086Y-125688787D01*
G37*
G36*
X159706041Y-125697623D02*
G01*
X159732887Y-125698155D01*
X159753614Y-125699229D01*
X159770413Y-125701068D01*
X159785473Y-125703892D01*
X159800983Y-125707921D01*
X159814225Y-125711865D01*
X159879084Y-125736607D01*
X159936556Y-125768779D01*
X159986528Y-125808242D01*
X160028887Y-125854857D01*
X160063521Y-125908487D01*
X160090317Y-125968993D01*
X160109163Y-126036236D01*
X160117287Y-126085002D01*
X160120820Y-126129880D01*
X160121153Y-126179156D01*
X160118470Y-126229000D01*
X160112956Y-126275582D01*
X160106537Y-126308305D01*
X160089024Y-126363740D01*
X160064530Y-126417297D01*
X160034364Y-126466784D01*
X159999836Y-126510008D01*
X159968091Y-126540141D01*
X159939484Y-126560470D01*
X159904139Y-126580964D01*
X159865642Y-126599872D01*
X159827575Y-126615442D01*
X159793523Y-126625924D01*
X159791615Y-126626369D01*
X159772209Y-126629667D01*
X159745955Y-126632592D01*
X159715503Y-126635009D01*
X159683503Y-126636788D01*
X159652608Y-126637796D01*
X159625467Y-126637901D01*
X159604731Y-126636972D01*
X159597401Y-126636043D01*
X159544909Y-126625215D01*
X159500545Y-126613015D01*
X159461955Y-126598614D01*
X159426782Y-126581182D01*
X159405660Y-126568490D01*
X159356632Y-126531006D01*
X159314139Y-126485859D01*
X159278517Y-126433854D01*
X159250102Y-126375798D01*
X159229228Y-126312499D01*
X159216230Y-126244763D01*
X159211445Y-126173396D01*
X159212071Y-126159133D01*
X159440304Y-126159133D01*
X159442235Y-126215469D01*
X159449450Y-126269914D01*
X159461950Y-126320276D01*
X159479735Y-126364361D01*
X159485501Y-126375005D01*
X159510583Y-126408190D01*
X159543254Y-126435241D01*
X159581901Y-126455069D01*
X159620516Y-126465852D01*
X159651379Y-126468692D01*
X159686332Y-126467721D01*
X159720761Y-126463315D01*
X159750049Y-126455854D01*
X159752207Y-126455070D01*
X159788434Y-126437590D01*
X159818442Y-126414155D01*
X159842865Y-126383879D01*
X159862338Y-126345880D01*
X159877494Y-126299273D01*
X159883835Y-126271560D01*
X159887726Y-126243843D01*
X159889965Y-126209363D01*
X159890617Y-126170948D01*
X159889749Y-126131429D01*
X159887426Y-126093633D01*
X159883716Y-126060390D01*
X159878683Y-126034529D01*
X159878253Y-126032960D01*
X159860308Y-125983543D01*
X159836756Y-125942250D01*
X159807895Y-125909466D01*
X159774026Y-125885574D01*
X159757333Y-125877866D01*
X159726658Y-125869457D01*
X159690091Y-125865118D01*
X159651404Y-125864849D01*
X159614368Y-125868652D01*
X159582754Y-125876527D01*
X159579295Y-125877828D01*
X159548032Y-125894574D01*
X159518253Y-125918409D01*
X159493644Y-125946156D01*
X159485441Y-125958719D01*
X159466227Y-126000698D01*
X159452300Y-126049555D01*
X159443660Y-126103098D01*
X159440304Y-126159133D01*
X159212071Y-126159133D01*
X159214318Y-126107967D01*
X159225580Y-126034002D01*
X159244681Y-125966966D01*
X159271601Y-125906890D01*
X159306320Y-125853806D01*
X159348817Y-125807746D01*
X159399072Y-125768740D01*
X159453053Y-125738682D01*
X159483828Y-125724839D01*
X159510940Y-125714401D01*
X159536778Y-125706915D01*
X159563735Y-125701927D01*
X159594202Y-125698986D01*
X159630571Y-125697638D01*
X159670887Y-125697414D01*
X159706041Y-125697623D01*
G37*
G36*
X164251691Y-125697623D02*
G01*
X164278536Y-125698155D01*
X164299264Y-125699229D01*
X164316063Y-125701068D01*
X164331123Y-125703892D01*
X164346633Y-125707921D01*
X164359875Y-125711865D01*
X164424734Y-125736607D01*
X164482206Y-125768779D01*
X164532178Y-125808242D01*
X164574537Y-125854857D01*
X164609171Y-125908487D01*
X164635967Y-125968993D01*
X164654813Y-126036236D01*
X164662937Y-126085002D01*
X164666470Y-126129880D01*
X164666803Y-126179156D01*
X164664120Y-126229000D01*
X164658605Y-126275582D01*
X164652187Y-126308305D01*
X164634674Y-126363740D01*
X164610180Y-126417297D01*
X164580014Y-126466784D01*
X164545486Y-126510008D01*
X164513741Y-126540141D01*
X164485134Y-126560470D01*
X164449789Y-126580964D01*
X164411291Y-126599872D01*
X164373225Y-126615442D01*
X164339173Y-126625924D01*
X164337265Y-126626369D01*
X164317859Y-126629667D01*
X164291605Y-126632592D01*
X164261153Y-126635009D01*
X164229153Y-126636788D01*
X164198258Y-126637796D01*
X164171117Y-126637901D01*
X164150381Y-126636972D01*
X164143051Y-126636043D01*
X164090559Y-126625215D01*
X164046195Y-126613015D01*
X164007605Y-126598614D01*
X163972432Y-126581182D01*
X163951310Y-126568490D01*
X163902282Y-126531006D01*
X163859789Y-126485859D01*
X163824167Y-126433854D01*
X163795752Y-126375798D01*
X163774878Y-126312499D01*
X163761880Y-126244763D01*
X163757095Y-126173396D01*
X163757721Y-126159133D01*
X163985954Y-126159133D01*
X163987885Y-126215469D01*
X163995100Y-126269914D01*
X164007600Y-126320276D01*
X164025385Y-126364361D01*
X164031151Y-126375005D01*
X164056233Y-126408190D01*
X164088904Y-126435241D01*
X164127550Y-126455069D01*
X164166166Y-126465852D01*
X164197029Y-126468692D01*
X164231982Y-126467721D01*
X164266411Y-126463315D01*
X164295699Y-126455854D01*
X164297857Y-126455070D01*
X164334084Y-126437590D01*
X164364092Y-126414155D01*
X164388515Y-126383879D01*
X164407988Y-126345880D01*
X164423143Y-126299273D01*
X164429485Y-126271560D01*
X164433376Y-126243843D01*
X164435615Y-126209363D01*
X164436267Y-126170948D01*
X164435399Y-126131429D01*
X164433076Y-126093633D01*
X164429366Y-126060390D01*
X164424333Y-126034529D01*
X164423903Y-126032960D01*
X164405958Y-125983543D01*
X164382406Y-125942250D01*
X164353545Y-125909466D01*
X164319676Y-125885574D01*
X164302983Y-125877866D01*
X164272308Y-125869457D01*
X164235741Y-125865118D01*
X164197054Y-125864849D01*
X164160018Y-125868652D01*
X164128404Y-125876527D01*
X164124945Y-125877828D01*
X164093682Y-125894574D01*
X164063903Y-125918409D01*
X164039294Y-125946156D01*
X164031091Y-125958719D01*
X164011877Y-126000698D01*
X163997950Y-126049555D01*
X163989309Y-126103098D01*
X163985954Y-126159133D01*
X163757721Y-126159133D01*
X163759968Y-126107967D01*
X163771230Y-126034002D01*
X163790331Y-125966966D01*
X163817251Y-125906890D01*
X163851970Y-125853806D01*
X163894467Y-125807746D01*
X163944722Y-125768740D01*
X163998703Y-125738682D01*
X164029478Y-125724839D01*
X164056589Y-125714401D01*
X164082428Y-125706915D01*
X164109385Y-125701927D01*
X164139852Y-125698986D01*
X164176221Y-125697638D01*
X164216537Y-125697414D01*
X164251691Y-125697623D01*
G37*
G36*
X156628442Y-125691735D02*
G01*
X156669745Y-125694632D01*
X156705652Y-125699982D01*
X156712185Y-125701414D01*
X156741787Y-125710339D01*
X156775244Y-125723608D01*
X156809447Y-125739700D01*
X156841290Y-125757096D01*
X156867666Y-125774277D01*
X156878186Y-125782617D01*
X156901584Y-125803016D01*
X156878301Y-125841878D01*
X156859892Y-125871148D01*
X156844022Y-125891588D01*
X156828772Y-125903872D01*
X156812224Y-125908672D01*
X156792461Y-125906665D01*
X156767563Y-125898524D01*
X156744569Y-125888887D01*
X156693006Y-125868798D01*
X156647075Y-125856468D01*
X156605543Y-125851718D01*
X156567173Y-125854368D01*
X156544273Y-125859694D01*
X156510103Y-125873729D01*
X156484849Y-125892777D01*
X156468723Y-125916600D01*
X156461937Y-125944963D01*
X156461718Y-125951586D01*
X156463420Y-125969757D01*
X156469121Y-125985890D01*
X156479711Y-126000610D01*
X156496082Y-126014546D01*
X156519125Y-126028324D01*
X156549730Y-126042571D01*
X156588789Y-126057915D01*
X156636955Y-126074901D01*
X156686428Y-126092127D01*
X156727095Y-126107310D01*
X156760297Y-126121102D01*
X156787372Y-126134155D01*
X156809662Y-126147121D01*
X156828507Y-126160652D01*
X156845245Y-126175400D01*
X156847017Y-126177126D01*
X156872854Y-126206132D01*
X156890824Y-126235687D01*
X156902108Y-126268557D01*
X156907886Y-126307505D01*
X156908765Y-126321690D01*
X156907616Y-126376015D01*
X156898524Y-126424415D01*
X156880947Y-126468410D01*
X156854343Y-126509521D01*
X156832926Y-126534388D01*
X156792640Y-126569630D01*
X156744858Y-126598271D01*
X156690739Y-126619653D01*
X156675203Y-126624092D01*
X156644135Y-126630233D01*
X156606215Y-126634589D01*
X156564879Y-126637040D01*
X156523566Y-126637463D01*
X156485711Y-126635735D01*
X156455599Y-126631900D01*
X156403537Y-126620112D01*
X156357951Y-126605560D01*
X156319518Y-126589224D01*
X156299680Y-126578984D01*
X156278880Y-126566915D01*
X156259019Y-126554301D01*
X156241993Y-126542422D01*
X156229702Y-126532561D01*
X156224043Y-126526001D01*
X156223991Y-126524702D01*
X156235447Y-126504245D01*
X156249030Y-126481879D01*
X156263243Y-126459865D01*
X156276586Y-126440462D01*
X156287562Y-126425932D01*
X156294085Y-126418961D01*
X156308243Y-126410807D01*
X156324296Y-126408112D01*
X156343798Y-126411135D01*
X156368301Y-126420133D01*
X156399356Y-126435363D01*
X156402278Y-126436916D01*
X156442198Y-126456696D01*
X156476957Y-126470163D01*
X156509206Y-126478016D01*
X156541599Y-126480952D01*
X156567487Y-126480352D01*
X156610304Y-126474080D01*
X156645341Y-126461146D01*
X156672415Y-126441671D01*
X156691342Y-126415773D01*
X156699661Y-126393830D01*
X156702520Y-126365422D01*
X156695225Y-126339390D01*
X156677679Y-126315412D01*
X156675125Y-126312892D01*
X156664084Y-126303012D01*
X156652336Y-126294385D01*
X156638371Y-126286326D01*
X156620677Y-126278150D01*
X156597746Y-126269173D01*
X156568066Y-126258709D01*
X156530127Y-126246074D01*
X156521636Y-126243298D01*
X156468536Y-126225093D01*
X156424469Y-126207917D01*
X156388107Y-126191106D01*
X156358124Y-126173998D01*
X156333192Y-126155929D01*
X156316413Y-126140756D01*
X156286835Y-126104193D01*
X156265736Y-126062538D01*
X156253290Y-126017119D01*
X156249674Y-125969267D01*
X156255062Y-125920313D01*
X156269630Y-125871587D01*
X156278353Y-125851869D01*
X156305080Y-125808822D01*
X156340335Y-125771730D01*
X156383876Y-125740777D01*
X156435457Y-125716151D01*
X156471847Y-125704004D01*
X156503447Y-125697425D01*
X156542165Y-125693165D01*
X156584873Y-125691258D01*
X156628442Y-125691735D01*
G37*
G36*
X162339374Y-125691735D02*
G01*
X162380677Y-125694632D01*
X162416584Y-125699982D01*
X162423117Y-125701414D01*
X162452719Y-125710339D01*
X162486176Y-125723608D01*
X162520379Y-125739700D01*
X162552222Y-125757096D01*
X162578598Y-125774277D01*
X162589118Y-125782617D01*
X162612516Y-125803016D01*
X162589233Y-125841878D01*
X162570824Y-125871148D01*
X162554954Y-125891588D01*
X162539704Y-125903872D01*
X162523157Y-125908672D01*
X162503393Y-125906665D01*
X162478495Y-125898524D01*
X162455501Y-125888887D01*
X162403938Y-125868798D01*
X162358007Y-125856468D01*
X162316475Y-125851718D01*
X162278105Y-125854368D01*
X162255205Y-125859694D01*
X162221035Y-125873729D01*
X162195781Y-125892777D01*
X162179655Y-125916600D01*
X162172869Y-125944963D01*
X162172650Y-125951586D01*
X162174352Y-125969757D01*
X162180053Y-125985890D01*
X162190643Y-126000610D01*
X162207014Y-126014546D01*
X162230057Y-126028324D01*
X162260662Y-126042571D01*
X162299721Y-126057915D01*
X162347887Y-126074901D01*
X162397360Y-126092127D01*
X162438027Y-126107310D01*
X162471229Y-126121102D01*
X162498304Y-126134155D01*
X162520594Y-126147121D01*
X162539439Y-126160652D01*
X162556177Y-126175400D01*
X162557949Y-126177126D01*
X162583786Y-126206132D01*
X162601756Y-126235687D01*
X162613040Y-126268557D01*
X162618818Y-126307505D01*
X162619697Y-126321690D01*
X162618548Y-126376015D01*
X162609456Y-126424415D01*
X162591879Y-126468410D01*
X162565275Y-126509521D01*
X162543858Y-126534388D01*
X162503572Y-126569630D01*
X162455790Y-126598271D01*
X162401671Y-126619653D01*
X162386135Y-126624092D01*
X162355067Y-126630233D01*
X162317147Y-126634589D01*
X162275811Y-126637040D01*
X162234498Y-126637463D01*
X162196643Y-126635735D01*
X162166531Y-126631900D01*
X162114469Y-126620112D01*
X162068883Y-126605560D01*
X162030450Y-126589224D01*
X162010612Y-126578984D01*
X161989812Y-126566915D01*
X161969951Y-126554301D01*
X161952925Y-126542422D01*
X161940634Y-126532561D01*
X161934975Y-126526001D01*
X161934923Y-126524702D01*
X161946379Y-126504245D01*
X161959962Y-126481879D01*
X161974175Y-126459865D01*
X161987518Y-126440462D01*
X161998494Y-126425932D01*
X162005017Y-126418961D01*
X162019175Y-126410807D01*
X162035228Y-126408112D01*
X162054730Y-126411135D01*
X162079233Y-126420133D01*
X162110288Y-126435363D01*
X162113210Y-126436916D01*
X162153130Y-126456696D01*
X162187889Y-126470163D01*
X162220138Y-126478016D01*
X162252531Y-126480952D01*
X162278419Y-126480352D01*
X162321236Y-126474080D01*
X162356273Y-126461146D01*
X162383347Y-126441671D01*
X162402274Y-126415773D01*
X162410593Y-126393830D01*
X162413452Y-126365422D01*
X162406157Y-126339390D01*
X162388611Y-126315412D01*
X162386057Y-126312892D01*
X162375016Y-126303012D01*
X162363268Y-126294385D01*
X162349303Y-126286326D01*
X162331609Y-126278150D01*
X162308678Y-126269173D01*
X162278998Y-126258709D01*
X162241059Y-126246074D01*
X162232568Y-126243298D01*
X162179468Y-126225093D01*
X162135401Y-126207917D01*
X162099039Y-126191106D01*
X162069057Y-126173998D01*
X162044125Y-126155929D01*
X162027345Y-126140756D01*
X161997767Y-126104193D01*
X161976668Y-126062538D01*
X161964222Y-126017119D01*
X161960606Y-125969267D01*
X161965994Y-125920313D01*
X161980562Y-125871587D01*
X161989285Y-125851869D01*
X162016012Y-125808822D01*
X162051267Y-125771730D01*
X162094808Y-125740777D01*
X162146389Y-125716151D01*
X162182779Y-125704004D01*
X162214379Y-125697425D01*
X162253097Y-125693165D01*
X162295805Y-125691258D01*
X162339374Y-125691735D01*
G37*
G36*
X153983845Y-125697463D02*
G01*
X154040881Y-125706169D01*
X154093354Y-125721167D01*
X154124452Y-125734541D01*
X154176612Y-125765609D01*
X154220538Y-125802641D01*
X154257261Y-125846662D01*
X154286250Y-125895563D01*
X154307051Y-125944369D01*
X154321173Y-125995708D01*
X154329318Y-126052402D01*
X154330959Y-126075358D01*
X154332269Y-126111802D01*
X154331532Y-126139417D01*
X154328548Y-126159706D01*
X154323116Y-126174175D01*
X154316596Y-126182850D01*
X154314099Y-126185026D01*
X154310757Y-126186869D01*
X154305737Y-126188406D01*
X154298206Y-126189666D01*
X154287331Y-126190675D01*
X154272277Y-126191461D01*
X154252213Y-126192052D01*
X154226305Y-126192476D01*
X154193720Y-126192761D01*
X154153624Y-126192933D01*
X154105185Y-126193021D01*
X154047569Y-126193052D01*
X154009216Y-126193055D01*
X153712042Y-126193055D01*
X153715732Y-126222592D01*
X153727003Y-126281630D01*
X153745031Y-126332861D01*
X153769720Y-126376169D01*
X153800971Y-126411439D01*
X153838688Y-126438555D01*
X153882772Y-126457400D01*
X153920588Y-126466137D01*
X153961915Y-126469915D01*
X154002720Y-126467593D01*
X154044824Y-126458768D01*
X154090050Y-126443038D01*
X154140217Y-126419999D01*
X154148758Y-126415642D01*
X154178894Y-126400634D01*
X154202080Y-126391296D01*
X154220430Y-126388000D01*
X154236058Y-126391122D01*
X154251079Y-126401034D01*
X154267606Y-126418110D01*
X154285424Y-126439796D01*
X154300151Y-126458712D01*
X154312061Y-126474862D01*
X154319815Y-126486374D01*
X154322138Y-126491140D01*
X154318175Y-126498116D01*
X154307597Y-126509448D01*
X154292370Y-126523440D01*
X154274459Y-126538400D01*
X154255829Y-126552633D01*
X154238448Y-126564447D01*
X154233804Y-126567246D01*
X154174322Y-126596990D01*
X154112019Y-126618491D01*
X154045435Y-126632105D01*
X153973110Y-126638188D01*
X153941584Y-126638589D01*
X153913034Y-126637626D01*
X153882696Y-126635331D01*
X153855811Y-126632136D01*
X153848329Y-126630910D01*
X153783500Y-126614133D01*
X153723841Y-126588431D01*
X153669836Y-126554273D01*
X153621967Y-126512128D01*
X153580716Y-126462465D01*
X153546568Y-126405753D01*
X153520003Y-126342459D01*
X153507528Y-126300015D01*
X153502030Y-126270687D01*
X153498041Y-126234478D01*
X153495585Y-126193966D01*
X153494682Y-126151729D01*
X153495356Y-126110348D01*
X153497629Y-126072400D01*
X153499844Y-126054227D01*
X153718500Y-126054227D01*
X153719711Y-126056163D01*
X153723951Y-126057748D01*
X153732130Y-126059016D01*
X153745158Y-126060000D01*
X153763946Y-126060734D01*
X153789404Y-126061250D01*
X153822443Y-126061582D01*
X153863973Y-126061764D01*
X153914903Y-126061828D01*
X153926559Y-126061830D01*
X154134618Y-126061830D01*
X154131379Y-126034273D01*
X154121735Y-125985618D01*
X154105091Y-125944678D01*
X154081337Y-125911242D01*
X154052994Y-125886854D01*
X154013744Y-125865938D01*
X153971683Y-125854825D01*
X153925755Y-125853243D01*
X153923473Y-125853400D01*
X153874310Y-125860948D01*
X153832274Y-125876101D01*
X153796971Y-125899172D01*
X153768009Y-125930471D01*
X153744994Y-125970310D01*
X153731497Y-126005674D01*
X153725419Y-126025712D01*
X153720862Y-126042431D01*
X153718611Y-126052890D01*
X153718500Y-126054227D01*
X153499844Y-126054227D01*
X153501522Y-126040465D01*
X153505155Y-126023322D01*
X153528302Y-125955493D01*
X153558922Y-125894985D01*
X153596963Y-125841859D01*
X153642371Y-125796178D01*
X153695095Y-125758003D01*
X153755082Y-125727396D01*
X153757034Y-125726578D01*
X153808841Y-125709606D01*
X153865477Y-125699131D01*
X153924594Y-125695100D01*
X153983845Y-125697463D01*
G37*
G36*
X151206483Y-129584655D02*
G01*
X151350880Y-129584685D01*
X151504679Y-129584736D01*
X151668127Y-129584809D01*
X151841472Y-129584902D01*
X152024961Y-129585015D01*
X152107052Y-129585069D01*
X154282770Y-129586546D01*
X154307563Y-129601120D01*
X154330182Y-129618768D01*
X154345619Y-129638324D01*
X154349883Y-129645867D01*
X154353119Y-129653038D01*
X154355468Y-129661354D01*
X154357072Y-129672333D01*
X154358073Y-129687493D01*
X154358614Y-129708353D01*
X154358836Y-129736429D01*
X154358880Y-129773240D01*
X154358881Y-129780118D01*
X154358804Y-129819201D01*
X154358502Y-129849279D01*
X154357868Y-129871845D01*
X154356793Y-129888390D01*
X154355171Y-129900407D01*
X154352894Y-129909389D01*
X154349854Y-129916828D01*
X154348893Y-129918755D01*
X154330371Y-129945458D01*
X154305676Y-129964236D01*
X154294677Y-129969474D01*
X154292331Y-129970150D01*
X154288425Y-129970788D01*
X154282666Y-129971388D01*
X154274760Y-129971953D01*
X154264414Y-129972483D01*
X154251333Y-129972979D01*
X154235225Y-129973442D01*
X154215796Y-129973873D01*
X154192752Y-129974273D01*
X154165800Y-129974644D01*
X154134645Y-129974987D01*
X154098995Y-129975302D01*
X154058555Y-129975590D01*
X154013032Y-129975853D01*
X153962133Y-129976092D01*
X153905563Y-129976308D01*
X153843030Y-129976502D01*
X153774239Y-129976674D01*
X153698897Y-129976827D01*
X153616710Y-129976960D01*
X153527385Y-129977076D01*
X153430628Y-129977175D01*
X153326146Y-129977258D01*
X153213644Y-129977327D01*
X153092829Y-129977382D01*
X152963408Y-129977424D01*
X152825087Y-129977455D01*
X152677573Y-129977476D01*
X152520571Y-129977487D01*
X152353788Y-129977490D01*
X152176930Y-129977486D01*
X152095410Y-129977482D01*
X151915156Y-129977472D01*
X151745100Y-129977458D01*
X151584942Y-129977441D01*
X151434384Y-129977418D01*
X151293124Y-129977389D01*
X151160864Y-129977352D01*
X151037304Y-129977306D01*
X150922143Y-129977249D01*
X150815083Y-129977180D01*
X150715823Y-129977098D01*
X150624064Y-129977001D01*
X150539505Y-129976889D01*
X150461848Y-129976760D01*
X150390793Y-129976612D01*
X150326039Y-129976444D01*
X150267287Y-129976255D01*
X150214238Y-129976044D01*
X150166591Y-129975809D01*
X150124047Y-129975549D01*
X150086306Y-129975262D01*
X150053069Y-129974948D01*
X150024035Y-129974605D01*
X149998905Y-129974232D01*
X149977379Y-129973827D01*
X149959158Y-129973389D01*
X149943941Y-129972916D01*
X149931429Y-129972409D01*
X149921323Y-129971864D01*
X149913322Y-129971281D01*
X149907127Y-129970658D01*
X149902438Y-129969995D01*
X149898955Y-129969289D01*
X149896379Y-129968540D01*
X149894546Y-129967808D01*
X149871356Y-129952878D01*
X149851275Y-129931938D01*
X149837364Y-129908432D01*
X149834542Y-129900318D01*
X149832345Y-129886555D01*
X149830708Y-129864593D01*
X149829622Y-129836631D01*
X149829080Y-129804870D01*
X149829074Y-129771509D01*
X149829594Y-129738750D01*
X149830634Y-129708791D01*
X149832184Y-129683833D01*
X149834237Y-129666076D01*
X149835433Y-129660641D01*
X149847007Y-129637263D01*
X149865785Y-129615461D01*
X149888583Y-129598337D01*
X149907886Y-129590007D01*
X149911988Y-129589454D01*
X149920297Y-129588935D01*
X149933061Y-129588449D01*
X149950525Y-129587994D01*
X149972939Y-129587571D01*
X150000549Y-129587180D01*
X150033602Y-129586819D01*
X150072347Y-129586487D01*
X150117030Y-129586186D01*
X150167899Y-129585913D01*
X150225202Y-129585668D01*
X150289185Y-129585451D01*
X150360096Y-129585261D01*
X150438182Y-129585098D01*
X150523692Y-129584961D01*
X150616872Y-129584849D01*
X150717969Y-129584763D01*
X150827232Y-129584700D01*
X150944906Y-129584662D01*
X151071241Y-129584647D01*
X151206483Y-129584655D01*
G37*
G36*
X150498228Y-125318356D02*
G01*
X150571088Y-125323336D01*
X150636474Y-125332974D01*
X150696550Y-125347768D01*
X150753479Y-125368215D01*
X150792173Y-125385938D01*
X150812980Y-125397136D01*
X150836353Y-125411080D01*
X150860613Y-125426601D01*
X150884082Y-125442528D01*
X150905082Y-125457692D01*
X150921935Y-125470921D01*
X150932963Y-125481046D01*
X150936521Y-125486590D01*
X150933632Y-125493152D01*
X150925850Y-125506237D01*
X150914503Y-125523912D01*
X150900917Y-125544242D01*
X150886421Y-125565293D01*
X150872341Y-125585132D01*
X150860004Y-125601825D01*
X150850738Y-125613438D01*
X150846534Y-125617700D01*
X150826288Y-125625690D01*
X150801537Y-125625328D01*
X150773886Y-125616795D01*
X150755807Y-125607372D01*
X150705050Y-125578900D01*
X150658199Y-125557336D01*
X150612519Y-125541461D01*
X150600950Y-125538234D01*
X150579494Y-125532899D01*
X150560102Y-125529151D01*
X150540014Y-125526706D01*
X150516467Y-125525281D01*
X150486703Y-125524590D01*
X150466734Y-125524421D01*
X150423521Y-125524816D01*
X150387972Y-125526900D01*
X150357310Y-125531239D01*
X150328761Y-125538398D01*
X150299549Y-125548942D01*
X150266901Y-125563437D01*
X150260657Y-125566408D01*
X150208395Y-125597153D01*
X150162451Y-125636085D01*
X150123109Y-125682802D01*
X150090650Y-125736902D01*
X150065358Y-125797983D01*
X150047516Y-125865641D01*
X150046451Y-125871152D01*
X150041485Y-125909332D01*
X150039283Y-125953819D01*
X150039721Y-126001359D01*
X150042675Y-126048691D01*
X150048021Y-126092561D01*
X150055633Y-126129709D01*
X150056447Y-126132692D01*
X150074429Y-126187800D01*
X150095753Y-126234987D01*
X150121813Y-126276649D01*
X150154007Y-126315179D01*
X150174935Y-126335999D01*
X150223696Y-126375382D01*
X150276862Y-126405758D01*
X150334866Y-126427269D01*
X150398142Y-126440058D01*
X150467122Y-126444268D01*
X150500545Y-126443381D01*
X150554418Y-126438037D01*
X150608094Y-126427984D01*
X150657952Y-126414022D01*
X150691129Y-126401259D01*
X150721311Y-126387847D01*
X150721311Y-126272080D01*
X150721311Y-126156312D01*
X150631817Y-126156312D01*
X150593094Y-126155954D01*
X150563542Y-126154709D01*
X150541851Y-126152323D01*
X150526712Y-126148541D01*
X150516816Y-126143107D01*
X150510855Y-126135766D01*
X150509362Y-126132457D01*
X150508172Y-126124295D01*
X150507177Y-126107823D01*
X150506464Y-126085228D01*
X150506120Y-126058695D01*
X150506101Y-126050903D01*
X150506101Y-125977846D01*
X150721311Y-125977846D01*
X150936521Y-125977846D01*
X150936521Y-126240362D01*
X150936521Y-126502878D01*
X150908963Y-126520485D01*
X150834341Y-126561959D01*
X150754434Y-126594497D01*
X150669803Y-126617885D01*
X150639194Y-126623865D01*
X150608887Y-126628129D01*
X150571875Y-126631706D01*
X150530592Y-126634514D01*
X150487472Y-126636468D01*
X150444949Y-126637486D01*
X150405457Y-126637483D01*
X150371430Y-126636376D01*
X150345302Y-126634082D01*
X150344541Y-126633976D01*
X150262303Y-126617379D01*
X150185039Y-126591733D01*
X150113206Y-126557466D01*
X150047260Y-126515006D01*
X149987658Y-126464781D01*
X149934858Y-126407217D01*
X149889315Y-126342744D01*
X149851486Y-126271788D01*
X149821829Y-126194778D01*
X149804003Y-126127762D01*
X149799794Y-126100746D01*
X149796766Y-126065791D01*
X149794912Y-126025387D01*
X149794227Y-125982028D01*
X149794706Y-125938203D01*
X149796342Y-125896405D01*
X149799130Y-125859125D01*
X149803065Y-125828854D01*
X149804712Y-125820375D01*
X149826973Y-125740228D01*
X149857423Y-125665491D01*
X149895689Y-125596846D01*
X149941400Y-125534977D01*
X149985182Y-125488834D01*
X150022948Y-125455894D01*
X150061396Y-125428006D01*
X150104068Y-125402792D01*
X150140611Y-125384378D01*
X150207140Y-125356773D01*
X150275647Y-125336718D01*
X150347773Y-125323909D01*
X150425165Y-125318042D01*
X150498228Y-125318356D01*
G37*
G36*
X151565341Y-125691776D02*
G01*
X151626344Y-125701008D01*
X151681045Y-125718441D01*
X151729311Y-125744010D01*
X151771012Y-125777648D01*
X151806017Y-125819291D01*
X151827156Y-125854494D01*
X151834992Y-125869553D01*
X151841744Y-125882875D01*
X151847496Y-125895338D01*
X151852333Y-125907821D01*
X151856341Y-125921202D01*
X151859605Y-125936362D01*
X151862210Y-125954179D01*
X151864240Y-125975531D01*
X151865781Y-126001298D01*
X151866918Y-126032358D01*
X151867735Y-126069591D01*
X151868319Y-126113875D01*
X151868754Y-126166089D01*
X151869125Y-126227112D01*
X151869483Y-126291876D01*
X151871356Y-126624277D01*
X151797147Y-126622564D01*
X151767845Y-126621820D01*
X151747159Y-126620941D01*
X151733210Y-126619585D01*
X151724119Y-126617410D01*
X151718005Y-126614075D01*
X151712990Y-126609237D01*
X151710937Y-126606882D01*
X151703364Y-126594790D01*
X151695013Y-126576469D01*
X151687682Y-126555868D01*
X151687632Y-126555704D01*
X151681649Y-126537764D01*
X151676229Y-126524567D01*
X151672418Y-126518609D01*
X151672046Y-126518495D01*
X151665659Y-126521996D01*
X151658486Y-126528744D01*
X151645207Y-126540732D01*
X151625173Y-126555636D01*
X151601049Y-126571742D01*
X151575501Y-126587335D01*
X151551195Y-126600700D01*
X151533958Y-126608837D01*
X151483224Y-126625445D01*
X151427068Y-126635562D01*
X151368558Y-126638870D01*
X151310766Y-126635049D01*
X151298703Y-126633261D01*
X151267287Y-126625014D01*
X151233739Y-126611096D01*
X151201943Y-126593449D01*
X151175781Y-126574019D01*
X151170625Y-126569160D01*
X151141873Y-126533081D01*
X151121036Y-126490652D01*
X151108463Y-126442795D01*
X151104489Y-126393212D01*
X151107091Y-126365429D01*
X151316800Y-126365429D01*
X151317756Y-126397963D01*
X151319343Y-126406101D01*
X151326556Y-126428358D01*
X151336597Y-126446907D01*
X151339908Y-126451087D01*
X151360638Y-126467134D01*
X151388779Y-126478552D01*
X151422150Y-126484973D01*
X151458569Y-126486034D01*
X151495853Y-126481368D01*
X151506249Y-126478961D01*
X151554200Y-126461997D01*
X151597493Y-126436536D01*
X151624265Y-126414778D01*
X151655636Y-126386388D01*
X151655636Y-126310718D01*
X151655636Y-126235048D01*
X151626560Y-126235048D01*
X151592841Y-126236399D01*
X151553466Y-126240081D01*
X151512873Y-126245535D01*
X151475498Y-126252201D01*
X151456976Y-126256419D01*
X151409315Y-126271391D01*
X151371557Y-126289681D01*
X151343611Y-126311385D01*
X151325389Y-126336602D01*
X151316800Y-126365429D01*
X151107091Y-126365429D01*
X151108939Y-126345694D01*
X151122432Y-126302512D01*
X151145182Y-126263370D01*
X151177403Y-126227971D01*
X151219310Y-126196020D01*
X151266064Y-126169679D01*
X151316874Y-126148382D01*
X151375566Y-126130284D01*
X151439892Y-126115836D01*
X151507601Y-126105488D01*
X151576446Y-126099691D01*
X151620949Y-126098577D01*
X151657123Y-126098573D01*
X151654167Y-126042146D01*
X151651046Y-126002636D01*
X151645872Y-125971416D01*
X151637956Y-125946368D01*
X151626608Y-125925373D01*
X151611141Y-125906314D01*
X151609406Y-125904500D01*
X151584751Y-125883860D01*
X151556984Y-125870560D01*
X151524237Y-125864016D01*
X151484641Y-125863646D01*
X151479650Y-125863967D01*
X151439490Y-125869656D01*
X151399513Y-125881491D01*
X151357284Y-125900319D01*
X151326882Y-125917054D01*
X151305468Y-125929059D01*
X151289458Y-125936308D01*
X151275560Y-125939929D01*
X151260484Y-125941051D01*
X151256821Y-125941075D01*
X151235512Y-125939592D01*
X151218470Y-125934216D01*
X151203728Y-125923488D01*
X151189319Y-125905948D01*
X151173276Y-125880137D01*
X151172220Y-125878298D01*
X151160903Y-125858442D01*
X151154073Y-125844111D01*
X151152422Y-125833221D01*
X151156642Y-125823687D01*
X151167425Y-125813425D01*
X151185462Y-125800350D01*
X151201843Y-125789052D01*
X151266031Y-125750427D01*
X151333040Y-125721565D01*
X151403766Y-125702169D01*
X151479104Y-125691941D01*
X151498166Y-125690809D01*
X151565341Y-125691776D01*
G37*
G36*
X156531974Y-128135192D02*
G01*
X156531974Y-128943541D01*
X156694694Y-128943541D01*
X156857413Y-128943541D01*
X156857413Y-129081528D01*
X156857378Y-129123322D01*
X156857203Y-129156010D01*
X156856787Y-129180982D01*
X156856028Y-129199629D01*
X156854824Y-129213342D01*
X156853073Y-129223513D01*
X156850673Y-129231532D01*
X156847522Y-129238791D01*
X156845603Y-129242628D01*
X156838901Y-129255372D01*
X156832449Y-129265430D01*
X156824967Y-129273137D01*
X156815175Y-129278827D01*
X156801792Y-129282833D01*
X156783538Y-129285489D01*
X156759134Y-129287128D01*
X156727297Y-129288086D01*
X156686749Y-129288695D01*
X156668076Y-129288913D01*
X156531974Y-129290473D01*
X156531974Y-129605166D01*
X156531974Y-129919858D01*
X156337761Y-129919858D01*
X156143547Y-129919858D01*
X156143547Y-129604917D01*
X156143547Y-129289976D01*
X155583214Y-129289861D01*
X155494390Y-129289839D01*
X155415453Y-129289806D01*
X155345790Y-129289749D01*
X155284790Y-129289657D01*
X155231841Y-129289520D01*
X155186331Y-129289325D01*
X155147650Y-129289061D01*
X155115184Y-129288717D01*
X155088322Y-129288282D01*
X155066453Y-129287745D01*
X155048965Y-129287093D01*
X155035246Y-129286316D01*
X155024684Y-129285402D01*
X155016668Y-129284340D01*
X155010586Y-129283118D01*
X155005826Y-129281726D01*
X155001776Y-129280152D01*
X154999261Y-129279037D01*
X154971180Y-129262822D01*
X154949986Y-129241819D01*
X154941091Y-129228915D01*
X154936845Y-129218620D01*
X154931382Y-129200296D01*
X154925063Y-129175713D01*
X154918247Y-129146638D01*
X154911294Y-129114841D01*
X154904565Y-129082090D01*
X154898419Y-129050155D01*
X154893216Y-129020803D01*
X154889316Y-128995804D01*
X154887080Y-128976927D01*
X154886867Y-128965939D01*
X154887259Y-128964430D01*
X154890802Y-128959369D01*
X154900331Y-128946315D01*
X154908118Y-128935748D01*
X155361484Y-128935748D01*
X155361764Y-128937302D01*
X155363984Y-128938635D01*
X155368830Y-128939764D01*
X155376987Y-128940705D01*
X155389140Y-128941475D01*
X155405976Y-128942092D01*
X155428180Y-128942573D01*
X155456439Y-128942934D01*
X155491436Y-128943192D01*
X155533859Y-128943365D01*
X155584393Y-128943469D01*
X155643723Y-128943522D01*
X155712536Y-128943540D01*
X155749244Y-128943541D01*
X156142890Y-128943541D01*
X156145369Y-128435699D01*
X156145774Y-128362782D01*
X156146259Y-128292297D01*
X156146815Y-128225024D01*
X156147431Y-128161743D01*
X156148095Y-128103233D01*
X156148798Y-128050275D01*
X156149529Y-128003648D01*
X156150277Y-127964133D01*
X156151031Y-127932508D01*
X156151782Y-127909555D01*
X156152517Y-127896052D01*
X156152764Y-127893737D01*
X156155133Y-127876196D01*
X156156557Y-127863429D01*
X156156736Y-127858305D01*
X156153619Y-127862321D01*
X156144725Y-127874178D01*
X156130502Y-127893265D01*
X156111402Y-127918974D01*
X156087876Y-127950694D01*
X156060372Y-127987814D01*
X156029343Y-128029726D01*
X155995237Y-128075819D01*
X155958507Y-128125484D01*
X155919601Y-128178110D01*
X155878970Y-128233087D01*
X155837065Y-128289806D01*
X155794336Y-128347657D01*
X155751234Y-128406029D01*
X155708208Y-128464314D01*
X155665710Y-128521900D01*
X155624189Y-128578178D01*
X155584096Y-128632538D01*
X155545882Y-128684370D01*
X155509996Y-128733065D01*
X155476889Y-128778011D01*
X155447012Y-128818600D01*
X155420815Y-128854222D01*
X155398748Y-128884266D01*
X155381261Y-128908122D01*
X155368805Y-128925182D01*
X155362458Y-128933955D01*
X155361484Y-128935748D01*
X154908118Y-128935748D01*
X154915540Y-128925676D01*
X154936122Y-128897863D01*
X154961773Y-128863286D01*
X154992187Y-128822357D01*
X155027059Y-128775484D01*
X155066081Y-128723078D01*
X155108950Y-128665549D01*
X155155360Y-128603308D01*
X155205004Y-128536765D01*
X155257578Y-128466329D01*
X155312776Y-128392412D01*
X155370291Y-128315422D01*
X155429819Y-128235772D01*
X155491055Y-128153870D01*
X155500542Y-128141183D01*
X156109428Y-127327010D01*
X156320701Y-127326927D01*
X156531974Y-127326843D01*
X156531974Y-128135192D01*
G37*
G36*
X150867056Y-127292760D02*
G01*
X150916100Y-127294018D01*
X150960926Y-127296337D01*
X150999119Y-127299718D01*
X151017215Y-127302156D01*
X151113897Y-127321710D01*
X151204257Y-127348816D01*
X151289831Y-127384063D01*
X151372155Y-127428040D01*
X151414181Y-127454550D01*
X151440098Y-127472428D01*
X151464339Y-127490379D01*
X151485515Y-127507245D01*
X151502234Y-127521864D01*
X151513106Y-127533078D01*
X151516739Y-127539725D01*
X151516677Y-127540022D01*
X151513370Y-127546067D01*
X151505260Y-127559478D01*
X151493249Y-127578808D01*
X151478238Y-127602607D01*
X151461126Y-127629430D01*
X151458820Y-127633022D01*
X151436162Y-127667773D01*
X151417654Y-127694493D01*
X151402146Y-127714213D01*
X151388487Y-127727964D01*
X151375527Y-127736776D01*
X151362115Y-127741682D01*
X151347101Y-127743711D01*
X151335003Y-127743971D01*
X151322558Y-127743465D01*
X151311208Y-127741550D01*
X151298874Y-127737393D01*
X151283476Y-127730162D01*
X151262935Y-127719026D01*
X151240068Y-127705976D01*
X151198801Y-127682721D01*
X151163800Y-127664325D01*
X151132686Y-127649694D01*
X151103081Y-127637733D01*
X151072604Y-127627346D01*
X151062497Y-127624241D01*
X151011576Y-127610577D01*
X150961779Y-127600891D01*
X150909320Y-127594592D01*
X150850412Y-127591089D01*
X150849912Y-127591071D01*
X150763514Y-127592387D01*
X150682324Y-127602704D01*
X150606448Y-127621969D01*
X150535997Y-127650132D01*
X150471078Y-127687140D01*
X150411801Y-127732941D01*
X150358275Y-127787484D01*
X150313423Y-127846496D01*
X150288791Y-127888062D01*
X150266184Y-127936837D01*
X150244870Y-127994415D01*
X150243670Y-127998020D01*
X150222098Y-128077983D01*
X150208663Y-128161594D01*
X150203260Y-128247211D01*
X150205787Y-128333191D01*
X150216140Y-128417891D01*
X150234215Y-128499670D01*
X150259910Y-128576884D01*
X150283427Y-128629441D01*
X150322938Y-128696631D01*
X150370147Y-128756835D01*
X150424562Y-128809635D01*
X150485694Y-128854618D01*
X150553054Y-128891367D01*
X150624951Y-128919092D01*
X150694805Y-128936197D01*
X150769993Y-128945781D01*
X150848650Y-128947961D01*
X150928911Y-128942857D01*
X151008910Y-128930587D01*
X151086782Y-128911270D01*
X151160623Y-128885040D01*
X151198972Y-128869075D01*
X151198972Y-128696347D01*
X151198972Y-128523620D01*
X151070110Y-128523620D01*
X151026810Y-128523524D01*
X150992668Y-128523083D01*
X150966346Y-128522063D01*
X150946504Y-128520234D01*
X150931803Y-128517361D01*
X150920904Y-128513213D01*
X150912468Y-128507558D01*
X150905156Y-128500163D01*
X150900241Y-128494147D01*
X150896605Y-128488966D01*
X150893875Y-128482939D01*
X150891921Y-128474583D01*
X150890615Y-128462415D01*
X150889827Y-128444951D01*
X150889429Y-128420709D01*
X150889291Y-128388205D01*
X150889280Y-128368066D01*
X150889280Y-128255920D01*
X151204221Y-128255920D01*
X151519162Y-128255920D01*
X151519137Y-128643035D01*
X151519112Y-129030150D01*
X151471135Y-129061054D01*
X151399183Y-129103573D01*
X151325605Y-129139140D01*
X151248658Y-129168364D01*
X151166596Y-129191859D01*
X151077675Y-129210235D01*
X151020505Y-129219030D01*
X150993067Y-129221988D01*
X150958114Y-129224559D01*
X150917801Y-129226692D01*
X150874281Y-129228340D01*
X150829710Y-129229453D01*
X150786241Y-129229982D01*
X150746029Y-129229877D01*
X150711227Y-129229090D01*
X150683991Y-129227572D01*
X150676694Y-129226865D01*
X150590173Y-129213467D01*
X150508148Y-129192980D01*
X150427600Y-129164518D01*
X150356504Y-129132638D01*
X150272261Y-129086413D01*
X150196216Y-129034058D01*
X150127615Y-128974929D01*
X150065706Y-128908381D01*
X150013264Y-128838960D01*
X149961237Y-128753855D01*
X149918624Y-128664230D01*
X149885373Y-128569948D01*
X149861433Y-128470874D01*
X149852711Y-128417888D01*
X149849038Y-128383137D01*
X149846420Y-128340870D01*
X149844883Y-128294023D01*
X149844452Y-128245526D01*
X149845153Y-128198313D01*
X149847012Y-128155317D01*
X149850054Y-128119471D01*
X149850110Y-128118991D01*
X149865868Y-128023820D01*
X149890185Y-127931521D01*
X149922586Y-127843030D01*
X149962594Y-127759288D01*
X150009735Y-127681232D01*
X150063532Y-127609799D01*
X150123510Y-127545928D01*
X150154915Y-127517759D01*
X150231391Y-127459421D01*
X150312615Y-127409885D01*
X150399092Y-127368925D01*
X150491331Y-127336318D01*
X150589840Y-127311840D01*
X150643080Y-127302347D01*
X150676992Y-127298317D01*
X150718761Y-127295343D01*
X150765971Y-127293424D01*
X150816207Y-127292563D01*
X150867056Y-127292760D01*
G37*
G36*
X160067259Y-127303525D02*
G01*
X160106354Y-127304358D01*
X160141491Y-127305922D01*
X160170266Y-127308220D01*
X160185291Y-127310256D01*
X160281619Y-127331798D01*
X160371707Y-127361557D01*
X160455630Y-127399606D01*
X160533462Y-127446019D01*
X160605278Y-127500866D01*
X160671153Y-127564222D01*
X160731162Y-127636158D01*
X160785379Y-127716747D01*
X160833879Y-127806062D01*
X160876736Y-127904175D01*
X160914025Y-128011159D01*
X160917375Y-128022099D01*
X160945317Y-128129159D01*
X160966835Y-128244420D01*
X160981916Y-128367770D01*
X160990548Y-128499099D01*
X160992718Y-128638294D01*
X160991947Y-128688964D01*
X160987483Y-128802049D01*
X160979333Y-128906634D01*
X160967275Y-129004129D01*
X160951087Y-129095945D01*
X160930546Y-129183492D01*
X160905431Y-129268179D01*
X160896479Y-129294653D01*
X160856263Y-129397530D01*
X160810267Y-129491651D01*
X160758461Y-129577043D01*
X160700817Y-129653734D01*
X160637305Y-129721750D01*
X160567896Y-129781119D01*
X160492560Y-129831868D01*
X160411269Y-129874023D01*
X160323993Y-129907611D01*
X160230703Y-129932661D01*
X160200271Y-129938750D01*
X160175975Y-129942091D01*
X160143786Y-129944876D01*
X160106301Y-129947034D01*
X160066114Y-129948497D01*
X160025819Y-129949196D01*
X159988013Y-129949061D01*
X159955289Y-129948022D01*
X159930242Y-129946012D01*
X159929865Y-129945965D01*
X159834026Y-129929030D01*
X159743557Y-129903102D01*
X159658545Y-129868258D01*
X159579077Y-129824576D01*
X159505240Y-129772134D01*
X159437123Y-129711011D01*
X159374812Y-129641285D01*
X159318395Y-129563034D01*
X159267958Y-129476336D01*
X159223590Y-129381269D01*
X159186145Y-129280252D01*
X159162367Y-129202208D01*
X159142643Y-129124573D01*
X159126692Y-129045532D01*
X159114234Y-128963272D01*
X159104988Y-128875978D01*
X159098672Y-128781837D01*
X159095375Y-128694213D01*
X159095255Y-128643606D01*
X159553366Y-128643606D01*
X159553702Y-128696316D01*
X159554443Y-128746565D01*
X159555588Y-128792503D01*
X159557138Y-128832279D01*
X159559092Y-128864043D01*
X159559848Y-128872679D01*
X159572907Y-128981453D01*
X159590131Y-129080773D01*
X159611591Y-129170853D01*
X159637359Y-129251905D01*
X159667506Y-129324144D01*
X159702104Y-129387782D01*
X159741225Y-129443033D01*
X159757504Y-129462110D01*
X159799917Y-129501609D01*
X159848888Y-129533894D01*
X159902922Y-129558482D01*
X159960522Y-129574891D01*
X160020192Y-129582639D01*
X160080437Y-129581245D01*
X160112655Y-129576526D01*
X160151565Y-129567000D01*
X160191671Y-129553632D01*
X160228538Y-129538022D01*
X160248224Y-129527685D01*
X160270097Y-129512410D01*
X160295376Y-129490703D01*
X160321711Y-129464910D01*
X160346757Y-129437381D01*
X160368166Y-129410463D01*
X160374624Y-129401235D01*
X160411274Y-129338405D01*
X160443349Y-129266346D01*
X160470798Y-129185305D01*
X160493570Y-129095527D01*
X160511613Y-128997258D01*
X160524876Y-128890743D01*
X160533307Y-128776227D01*
X160536855Y-128653957D01*
X160536975Y-128625975D01*
X160534827Y-128505985D01*
X160528323Y-128394894D01*
X160517373Y-128292011D01*
X160501889Y-128196644D01*
X160481781Y-128108102D01*
X160461117Y-128038085D01*
X160437594Y-127972815D01*
X160412650Y-127916444D01*
X160385376Y-127867389D01*
X160354865Y-127824065D01*
X160320207Y-127784886D01*
X160310429Y-127775206D01*
X160281674Y-127749111D01*
X160255208Y-127729311D01*
X160227362Y-127713454D01*
X160194467Y-127699189D01*
X160187860Y-127696659D01*
X160124155Y-127677715D01*
X160060934Y-127669220D01*
X159997815Y-127671176D01*
X159934418Y-127683585D01*
X159889803Y-127698441D01*
X159836744Y-127724662D01*
X159788121Y-127760396D01*
X159743935Y-127805639D01*
X159704186Y-127860388D01*
X159668878Y-127924640D01*
X159638010Y-127998391D01*
X159611586Y-128081639D01*
X159589607Y-128174380D01*
X159572073Y-128276610D01*
X159559848Y-128379272D01*
X159557756Y-128407895D01*
X159556069Y-128445157D01*
X159554786Y-128489210D01*
X159553909Y-128538203D01*
X159553435Y-128590285D01*
X159553366Y-128643606D01*
X159095255Y-128643606D01*
X159095031Y-128549251D01*
X159101733Y-128411391D01*
X159115451Y-128280726D01*
X159136153Y-128157350D01*
X159163810Y-128041358D01*
X159198391Y-127932843D01*
X159239867Y-127831900D01*
X159288208Y-127738623D01*
X159343382Y-127653105D01*
X159405360Y-127575441D01*
X159474111Y-127505726D01*
X159477939Y-127502258D01*
X159544074Y-127449426D01*
X159616664Y-127404330D01*
X159695993Y-127366839D01*
X159782346Y-127336823D01*
X159876007Y-127314152D01*
X159896595Y-127310318D01*
X159919403Y-127307500D01*
X159950278Y-127305411D01*
X159986816Y-127304052D01*
X160026611Y-127303423D01*
X160067259Y-127303525D01*
G37*
G36*
X162537106Y-127333170D02*
G01*
X162567501Y-127333326D01*
X162789740Y-127334717D01*
X162484088Y-127710022D01*
X162436418Y-127768553D01*
X162388348Y-127827573D01*
X162340604Y-127886191D01*
X162293911Y-127943515D01*
X162248997Y-127998654D01*
X162206588Y-128050715D01*
X162167409Y-128098808D01*
X162132188Y-128142040D01*
X162101650Y-128179521D01*
X162076521Y-128210358D01*
X162062917Y-128227050D01*
X162035686Y-128260466D01*
X162010425Y-128291479D01*
X161987936Y-128319105D01*
X161969020Y-128342358D01*
X161954478Y-128360253D01*
X161945112Y-128371805D01*
X161941857Y-128375854D01*
X161941043Y-128379192D01*
X161948164Y-128377568D01*
X161957074Y-128373950D01*
X161990599Y-128359695D01*
X162017673Y-128348890D01*
X162041313Y-128340451D01*
X162064533Y-128333291D01*
X162086843Y-128327230D01*
X162167554Y-128311320D01*
X162251992Y-128304121D01*
X162338304Y-128305451D01*
X162424639Y-128315128D01*
X162509145Y-128332970D01*
X162589970Y-128358794D01*
X162644456Y-128382043D01*
X162717560Y-128422645D01*
X162784671Y-128471554D01*
X162845301Y-128528136D01*
X162898962Y-128591760D01*
X162945166Y-128661794D01*
X162983426Y-128737605D01*
X163013253Y-128818562D01*
X163029567Y-128881212D01*
X163043033Y-128964214D01*
X163048710Y-129050948D01*
X163046722Y-129138984D01*
X163037196Y-129225890D01*
X163020259Y-129309235D01*
X163004638Y-129362435D01*
X162970010Y-129449945D01*
X162927000Y-129531490D01*
X162876072Y-129606762D01*
X162817691Y-129675450D01*
X162752319Y-129737243D01*
X162680421Y-129791832D01*
X162602461Y-129838906D01*
X162518902Y-129878156D01*
X162430209Y-129909270D01*
X162336846Y-129931940D01*
X162239275Y-129945855D01*
X162137962Y-129950704D01*
X162124836Y-129950655D01*
X162093210Y-129950032D01*
X162060739Y-129948844D01*
X162031145Y-129947259D01*
X162008146Y-129945444D01*
X162007263Y-129945353D01*
X161910793Y-129930405D01*
X161818856Y-129906292D01*
X161731817Y-129873183D01*
X161650043Y-129831245D01*
X161573901Y-129780650D01*
X161503755Y-129721565D01*
X161486720Y-129705008D01*
X161425581Y-129636663D01*
X161373189Y-129562697D01*
X161329521Y-129483048D01*
X161294554Y-129397653D01*
X161268264Y-129306451D01*
X161250629Y-129209380D01*
X161241625Y-129106377D01*
X161241376Y-129094968D01*
X161665906Y-129094968D01*
X161666845Y-129147760D01*
X161671233Y-129199824D01*
X161678959Y-129247653D01*
X161683186Y-129265683D01*
X161705295Y-129332117D01*
X161734966Y-129391324D01*
X161772110Y-129443209D01*
X161816639Y-129487673D01*
X161868465Y-129524623D01*
X161927498Y-129553960D01*
X161959283Y-129565612D01*
X162005175Y-129577288D01*
X162057265Y-129584881D01*
X162111990Y-129588166D01*
X162165785Y-129586919D01*
X162212037Y-129581466D01*
X162283066Y-129564126D01*
X162348222Y-129538182D01*
X162407152Y-129503946D01*
X162459497Y-129461734D01*
X162504904Y-129411858D01*
X162543016Y-129354632D01*
X162573478Y-129290371D01*
X162587393Y-129250350D01*
X162592609Y-129232577D01*
X162596395Y-129217068D01*
X162598983Y-129201563D01*
X162600606Y-129183806D01*
X162601498Y-129161538D01*
X162601892Y-129132501D01*
X162601991Y-129108885D01*
X162601439Y-129061962D01*
X162599149Y-129022812D01*
X162594562Y-128988777D01*
X162587117Y-128957198D01*
X162576253Y-128925417D01*
X162561410Y-128890775D01*
X162551660Y-128870184D01*
X162539524Y-128846020D01*
X162528556Y-128826987D01*
X162516678Y-128810253D01*
X162501814Y-128792985D01*
X162481887Y-128772353D01*
X162474504Y-128764977D01*
X162448339Y-128739916D01*
X162426064Y-128721021D01*
X162405038Y-128706241D01*
X162382615Y-128693526D01*
X162382005Y-128693212D01*
X162318941Y-128666150D01*
X162252338Y-128647344D01*
X162183805Y-128636846D01*
X162114950Y-128634710D01*
X162047382Y-128640989D01*
X161982708Y-128655735D01*
X161924338Y-128678144D01*
X161863981Y-128712246D01*
X161811003Y-128753728D01*
X161765661Y-128802260D01*
X161728210Y-128857510D01*
X161698904Y-128919148D01*
X161677999Y-128986843D01*
X161674818Y-129001228D01*
X161668527Y-129044955D01*
X161665906Y-129094968D01*
X161241376Y-129094968D01*
X161240344Y-129047614D01*
X161244569Y-128952308D01*
X161257401Y-128858358D01*
X161279076Y-128765065D01*
X161309832Y-128671731D01*
X161349905Y-128577657D01*
X161399532Y-128482144D01*
X161458948Y-128384494D01*
X161471068Y-128366084D01*
X161482627Y-128349253D01*
X161499464Y-128325495D01*
X161521078Y-128295477D01*
X161546970Y-128259867D01*
X161576641Y-128219330D01*
X161609593Y-128174534D01*
X161645324Y-128126146D01*
X161683337Y-128074833D01*
X161723131Y-128021261D01*
X161764207Y-127966097D01*
X161806067Y-127910009D01*
X161848210Y-127853663D01*
X161890138Y-127797725D01*
X161931350Y-127742864D01*
X161971349Y-127689745D01*
X162009633Y-127639036D01*
X162045704Y-127591403D01*
X162079063Y-127547514D01*
X162109211Y-127508035D01*
X162135647Y-127473633D01*
X162157873Y-127444975D01*
X162175388Y-127422728D01*
X162187695Y-127407559D01*
X162194294Y-127400134D01*
X162194473Y-127399971D01*
X162220712Y-127380444D01*
X162252887Y-127362094D01*
X162286686Y-127347093D01*
X162317798Y-127337617D01*
X162318389Y-127337493D01*
X162331481Y-127336000D01*
X162354574Y-127334805D01*
X162387176Y-127333916D01*
X162428794Y-127333342D01*
X162478935Y-127333090D01*
X162537106Y-127333170D01*
G37*
G36*
X158056758Y-127308033D02*
G01*
X158152203Y-127316925D01*
X158242967Y-127334046D01*
X158328600Y-127359199D01*
X158408651Y-127392183D01*
X158482668Y-127432799D01*
X158550202Y-127480849D01*
X158610801Y-127536132D01*
X158664014Y-127598450D01*
X158686166Y-127629843D01*
X158726518Y-127697915D01*
X158758059Y-127767535D01*
X158781181Y-127840084D01*
X158796278Y-127916938D01*
X158803742Y-127999479D01*
X158804737Y-128045959D01*
X158801080Y-128130004D01*
X158789834Y-128210788D01*
X158770590Y-128289566D01*
X158742938Y-128367590D01*
X158706468Y-128446113D01*
X158660770Y-128526389D01*
X158633893Y-128568236D01*
X158618091Y-128591560D01*
X158601844Y-128614578D01*
X158584674Y-128637817D01*
X158566103Y-128661807D01*
X158545655Y-128687074D01*
X158522851Y-128714148D01*
X158497214Y-128743555D01*
X158468267Y-128775826D01*
X158435533Y-128811487D01*
X158398533Y-128851067D01*
X158356791Y-128895094D01*
X158309828Y-128944096D01*
X158257168Y-128998601D01*
X158198334Y-129059137D01*
X158132846Y-129126234D01*
X158088301Y-129171760D01*
X158043803Y-129217210D01*
X157999841Y-129262122D01*
X157957232Y-129305662D01*
X157916793Y-129346995D01*
X157879339Y-129385286D01*
X157845686Y-129419702D01*
X157816652Y-129449408D01*
X157793050Y-129473569D01*
X157775699Y-129491352D01*
X157771331Y-129495835D01*
X157706319Y-129562595D01*
X157742468Y-129552151D01*
X157761774Y-129547059D01*
X157788026Y-129540801D01*
X157817854Y-129534150D01*
X157847889Y-129527881D01*
X157849478Y-129527563D01*
X157920340Y-129513419D01*
X158320922Y-129511655D01*
X158399253Y-129511298D01*
X158467804Y-129511007D01*
X158527294Y-129510844D01*
X158578441Y-129510873D01*
X158621965Y-129511159D01*
X158658584Y-129511766D01*
X158689016Y-129512756D01*
X158713980Y-129514195D01*
X158734195Y-129516146D01*
X158750378Y-129518672D01*
X158763250Y-129521838D01*
X158773527Y-129525708D01*
X158781929Y-129530346D01*
X158789175Y-129535815D01*
X158795983Y-129542179D01*
X158803071Y-129549503D01*
X158808348Y-129554991D01*
X158825869Y-129575459D01*
X158837764Y-129594505D01*
X158841125Y-129603093D01*
X158842804Y-129614607D01*
X158844234Y-129635516D01*
X158845379Y-129664718D01*
X158846202Y-129701112D01*
X158846668Y-129743597D01*
X158846762Y-129774198D01*
X158846791Y-129925107D01*
X157959707Y-129925107D01*
X157072623Y-129925107D01*
X157072623Y-129831093D01*
X157073086Y-129788273D01*
X157074732Y-129753863D01*
X157077946Y-129725807D01*
X157083113Y-129702047D01*
X157090618Y-129680526D01*
X157100847Y-129659187D01*
X157106835Y-129648410D01*
X157113059Y-129640394D01*
X157126638Y-129625149D01*
X157147444Y-129602806D01*
X157175348Y-129573498D01*
X157210222Y-129537357D01*
X157251935Y-129494515D01*
X157300360Y-129445104D01*
X157355369Y-129389257D01*
X157416831Y-129327105D01*
X157484619Y-129258781D01*
X157558603Y-129184417D01*
X157571100Y-129171873D01*
X157647408Y-129095252D01*
X157716681Y-129025581D01*
X157779334Y-128962413D01*
X157835781Y-128905302D01*
X157886438Y-128853801D01*
X157931719Y-128807464D01*
X157972039Y-128765843D01*
X158007812Y-128728492D01*
X158039453Y-128694964D01*
X158067377Y-128664813D01*
X158091998Y-128637591D01*
X158113732Y-128612853D01*
X158132992Y-128590151D01*
X158150195Y-128569038D01*
X158165753Y-128549069D01*
X158180083Y-128529796D01*
X158193598Y-128510772D01*
X158206714Y-128491552D01*
X158216774Y-128476378D01*
X158261546Y-128400777D01*
X158298121Y-128323275D01*
X158325806Y-128245509D01*
X158341186Y-128183698D01*
X158346574Y-128147069D01*
X158349668Y-128105075D01*
X158350501Y-128060730D01*
X158349107Y-128017049D01*
X158345519Y-127977044D01*
X158339773Y-127943729D01*
X158338426Y-127938354D01*
X158318255Y-127880286D01*
X158290730Y-127829032D01*
X158256223Y-127785064D01*
X158215101Y-127748856D01*
X158169139Y-127721547D01*
X158136012Y-127706709D01*
X158106229Y-127695910D01*
X158076966Y-127688585D01*
X158045399Y-127684170D01*
X158008705Y-127682100D01*
X157970205Y-127681769D01*
X157937362Y-127682130D01*
X157912351Y-127683013D01*
X157892509Y-127684718D01*
X157875173Y-127687547D01*
X157857679Y-127691800D01*
X157842672Y-127696159D01*
X157784569Y-127717579D01*
X157734176Y-127744787D01*
X157689798Y-127778902D01*
X157649740Y-127821047D01*
X157644858Y-127827052D01*
X157624405Y-127856072D01*
X157604111Y-127890832D01*
X157586111Y-127927267D01*
X157572539Y-127961308D01*
X157569712Y-127970233D01*
X157554652Y-128011468D01*
X157535875Y-128043838D01*
X157512418Y-128068608D01*
X157483320Y-128087043D01*
X157479422Y-128088881D01*
X157461227Y-128095325D01*
X157439573Y-128099245D01*
X157413366Y-128100594D01*
X157381512Y-128099325D01*
X157342916Y-128095392D01*
X157296482Y-128088747D01*
X157241118Y-128079344D01*
X157236184Y-128078456D01*
X157202496Y-128072308D01*
X157172446Y-128066710D01*
X157147514Y-128061947D01*
X157129179Y-128058304D01*
X157118920Y-128056066D01*
X157117267Y-128055548D01*
X157117071Y-128049378D01*
X157118948Y-128035090D01*
X157122490Y-128014766D01*
X157127293Y-127990490D01*
X157132950Y-127964344D01*
X157139056Y-127938412D01*
X157143375Y-127921521D01*
X157172570Y-127831139D01*
X157210490Y-127746440D01*
X157257021Y-127667622D01*
X157312049Y-127594886D01*
X157356014Y-127547246D01*
X157422549Y-127487692D01*
X157494526Y-127436738D01*
X157572145Y-127394303D01*
X157655605Y-127360308D01*
X157745103Y-127334675D01*
X157840841Y-127317323D01*
X157943016Y-127308174D01*
X157957083Y-127307572D01*
X158056758Y-127308033D01*
G37*
G36*
X163963272Y-127333577D02*
G01*
X164052392Y-127333942D01*
X164131674Y-127334309D01*
X164201775Y-127334690D01*
X164263356Y-127335095D01*
X164317074Y-127335539D01*
X164363590Y-127336031D01*
X164403563Y-127336585D01*
X164437651Y-127337211D01*
X164466513Y-127337923D01*
X164490809Y-127338731D01*
X164511197Y-127339648D01*
X164528337Y-127340686D01*
X164542888Y-127341857D01*
X164555509Y-127343172D01*
X164565597Y-127344466D01*
X164624415Y-127353514D01*
X164680253Y-127363744D01*
X164730694Y-127374670D01*
X164773322Y-127385807D01*
X164777410Y-127387018D01*
X164864684Y-127417074D01*
X164942875Y-127452196D01*
X165012218Y-127492619D01*
X165072953Y-127538580D01*
X165125316Y-127590314D01*
X165169545Y-127648058D01*
X165205876Y-127712048D01*
X165234547Y-127782520D01*
X165255796Y-127859709D01*
X165256626Y-127863555D01*
X165262851Y-127901420D01*
X165267020Y-127945243D01*
X165269129Y-127992301D01*
X165269174Y-128039874D01*
X165267150Y-128085240D01*
X165263054Y-128125677D01*
X165257094Y-128157628D01*
X165233777Y-128229107D01*
X165201150Y-128295866D01*
X165159415Y-128357629D01*
X165108773Y-128414117D01*
X165049426Y-128465054D01*
X165016608Y-128488316D01*
X164991298Y-128504221D01*
X164962107Y-128521080D01*
X164931269Y-128537750D01*
X164901017Y-128553088D01*
X164873584Y-128565951D01*
X164851203Y-128575196D01*
X164839482Y-128578968D01*
X164827890Y-128582759D01*
X164824604Y-128586620D01*
X164830150Y-128591004D01*
X164845049Y-128596367D01*
X164866259Y-128602244D01*
X164949952Y-128628139D01*
X165026584Y-128660376D01*
X165095762Y-128698673D01*
X165157093Y-128742749D01*
X165210186Y-128792322D01*
X165254647Y-128847111D01*
X165289312Y-128905285D01*
X165314255Y-128965989D01*
X165331763Y-129032534D01*
X165341871Y-129103384D01*
X165344613Y-129177001D01*
X165340022Y-129251850D01*
X165328134Y-129326393D01*
X165308981Y-129399094D01*
X165282599Y-129468417D01*
X165276512Y-129481627D01*
X165235903Y-129555123D01*
X165186952Y-129622304D01*
X165129743Y-129683118D01*
X165064361Y-129737511D01*
X164990889Y-129785428D01*
X164909412Y-129826818D01*
X164820016Y-129861626D01*
X164722783Y-129889799D01*
X164617799Y-129911284D01*
X164591842Y-129915381D01*
X164580523Y-129916512D01*
X164562126Y-129917551D01*
X164536321Y-129918502D01*
X164502777Y-129919369D01*
X164461164Y-129920158D01*
X164411152Y-129920873D01*
X164352411Y-129921517D01*
X164284609Y-129922097D01*
X164207417Y-129922616D01*
X164120504Y-129923078D01*
X164023540Y-129923489D01*
X163986893Y-129923622D01*
X163423935Y-129925590D01*
X163423935Y-128791320D01*
X163906845Y-128791320D01*
X163906845Y-129169628D01*
X163906845Y-129547937D01*
X164207351Y-129545752D01*
X164272574Y-129545247D01*
X164328199Y-129544734D01*
X164375126Y-129544183D01*
X164414256Y-129543564D01*
X164446489Y-129542847D01*
X164472726Y-129542002D01*
X164493865Y-129540998D01*
X164510809Y-129539807D01*
X164524457Y-129538396D01*
X164535709Y-129536738D01*
X164545466Y-129534801D01*
X164547225Y-129534399D01*
X164602690Y-129519592D01*
X164649763Y-129502587D01*
X164690485Y-129482349D01*
X164726896Y-129457845D01*
X164761038Y-129428039D01*
X164765233Y-129423904D01*
X164791424Y-129396103D01*
X164811255Y-129370407D01*
X164826695Y-129343504D01*
X164839711Y-129312082D01*
X164849543Y-129281988D01*
X164855417Y-129261387D01*
X164859468Y-129243232D01*
X164862043Y-129224616D01*
X164863492Y-129202635D01*
X164864161Y-129174380D01*
X164864302Y-129158751D01*
X164864109Y-129122467D01*
X164862873Y-129094235D01*
X164860402Y-129071646D01*
X164856504Y-129052287D01*
X164855517Y-129048521D01*
X164835648Y-128993799D01*
X164807590Y-128945633D01*
X164771385Y-128904059D01*
X164727071Y-128869115D01*
X164674690Y-128840836D01*
X164614280Y-128819258D01*
X164599230Y-128815241D01*
X164578136Y-128810198D01*
X164557405Y-128805904D01*
X164536011Y-128802301D01*
X164512923Y-128799330D01*
X164487115Y-128796933D01*
X164457558Y-128795052D01*
X164423224Y-128793628D01*
X164383084Y-128792604D01*
X164336110Y-128791920D01*
X164281275Y-128791519D01*
X164217549Y-128791342D01*
X164177376Y-128791320D01*
X163906845Y-128791320D01*
X163423935Y-128791320D01*
X163423935Y-128628529D01*
X163423935Y-127703875D01*
X163906845Y-127703875D01*
X163906845Y-128080063D01*
X163906845Y-128456252D01*
X164160110Y-128453860D01*
X164221404Y-128453226D01*
X164273195Y-128452552D01*
X164316479Y-128451801D01*
X164352252Y-128450936D01*
X164381510Y-128449919D01*
X164405249Y-128448714D01*
X164424464Y-128447283D01*
X164440150Y-128445589D01*
X164453304Y-128443594D01*
X164457992Y-128442721D01*
X164520877Y-128428113D01*
X164574936Y-128410445D01*
X164621554Y-128389098D01*
X164662117Y-128363450D01*
X164693493Y-128337215D01*
X164726497Y-128300752D01*
X164751837Y-128260203D01*
X164770672Y-128213491D01*
X164778683Y-128184398D01*
X164783172Y-128164003D01*
X164786117Y-128145579D01*
X164787708Y-128126307D01*
X164788134Y-128103371D01*
X164787584Y-128073953D01*
X164787112Y-128059081D01*
X164785002Y-128017966D01*
X164781773Y-127983406D01*
X164777594Y-127957024D01*
X164775619Y-127948852D01*
X164757846Y-127898565D01*
X164734237Y-127855121D01*
X164704135Y-127817984D01*
X164666883Y-127786616D01*
X164621822Y-127760480D01*
X164568296Y-127739039D01*
X164505648Y-127721757D01*
X164494735Y-127719342D01*
X164482749Y-127716916D01*
X164470595Y-127714863D01*
X164457255Y-127713144D01*
X164441711Y-127711715D01*
X164422947Y-127710535D01*
X164399945Y-127709562D01*
X164371686Y-127708755D01*
X164337154Y-127708071D01*
X164295331Y-127707469D01*
X164245200Y-127706908D01*
X164185742Y-127706345D01*
X164175857Y-127706257D01*
X163906845Y-127703875D01*
X163423935Y-127703875D01*
X163423935Y-127331468D01*
X163963272Y-127333577D01*
G37*
G36*
X159179548Y-125338778D02*
G01*
X159177529Y-125345181D01*
X159172584Y-125360998D01*
X159164902Y-125385618D01*
X159154674Y-125418429D01*
X159142090Y-125458821D01*
X159127339Y-125506182D01*
X159110613Y-125559902D01*
X159092102Y-125619370D01*
X159071995Y-125683974D01*
X159050484Y-125753104D01*
X159027757Y-125826149D01*
X159004006Y-125902497D01*
X158979421Y-125981537D01*
X158978120Y-125985719D01*
X158780581Y-126620850D01*
X158670313Y-126622264D01*
X158560046Y-126623678D01*
X158439948Y-126254833D01*
X158419440Y-126191823D01*
X158399112Y-126129318D01*
X158379319Y-126068409D01*
X158360413Y-126010189D01*
X158342750Y-125955750D01*
X158326685Y-125906185D01*
X158312570Y-125862586D01*
X158300762Y-125826045D01*
X158291613Y-125797654D01*
X158287114Y-125783632D01*
X158277232Y-125753429D01*
X158268321Y-125727512D01*
X158260878Y-125707220D01*
X158255399Y-125693889D01*
X158252382Y-125688856D01*
X158252035Y-125689150D01*
X158250002Y-125695508D01*
X158245003Y-125710946D01*
X158237331Y-125734566D01*
X158227279Y-125765468D01*
X158215139Y-125802755D01*
X158201206Y-125845527D01*
X158185773Y-125892885D01*
X158169132Y-125943931D01*
X158151576Y-125997765D01*
X158133400Y-126053490D01*
X158114896Y-126110205D01*
X158096357Y-126167013D01*
X158078076Y-126223015D01*
X158060347Y-126277311D01*
X158043463Y-126329003D01*
X158027717Y-126377192D01*
X158013402Y-126420980D01*
X158000811Y-126459468D01*
X157990506Y-126490937D01*
X157947077Y-126623475D01*
X157837784Y-126623475D01*
X157801310Y-126623447D01*
X157773951Y-126623267D01*
X157754324Y-126622792D01*
X157741047Y-126621878D01*
X157732737Y-126620382D01*
X157728010Y-126618160D01*
X157725484Y-126615068D01*
X157724040Y-126611665D01*
X157721951Y-126605254D01*
X157716942Y-126589432D01*
X157709205Y-126564810D01*
X157698930Y-126532004D01*
X157686309Y-126491627D01*
X157671534Y-126444292D01*
X157654795Y-126390614D01*
X157636285Y-126331207D01*
X157616195Y-126266684D01*
X157594716Y-126197659D01*
X157572039Y-126124745D01*
X157548357Y-126048558D01*
X157523941Y-125969972D01*
X157499485Y-125891247D01*
X157475873Y-125815257D01*
X157453294Y-125742609D01*
X157431936Y-125673912D01*
X157411990Y-125609771D01*
X157393643Y-125550794D01*
X157377085Y-125497588D01*
X157362504Y-125450760D01*
X157350090Y-125410917D01*
X157340031Y-125378666D01*
X157332516Y-125354614D01*
X157327735Y-125339369D01*
X157325876Y-125333537D01*
X157325873Y-125333529D01*
X157327255Y-125331287D01*
X157333949Y-125329586D01*
X157346977Y-125328363D01*
X157367362Y-125327559D01*
X157396125Y-125327114D01*
X157434289Y-125326968D01*
X157437387Y-125326967D01*
X157479685Y-125327157D01*
X157512867Y-125327902D01*
X157538312Y-125329469D01*
X157557398Y-125332126D01*
X157571503Y-125336137D01*
X157582005Y-125341770D01*
X157590284Y-125349291D01*
X157596904Y-125357796D01*
X157599873Y-125365014D01*
X157605368Y-125381442D01*
X157613131Y-125406168D01*
X157622903Y-125438282D01*
X157634424Y-125476872D01*
X157647435Y-125521026D01*
X157661678Y-125569832D01*
X157676894Y-125622380D01*
X157692823Y-125677757D01*
X157709207Y-125735052D01*
X157725786Y-125793354D01*
X157742302Y-125851752D01*
X157758495Y-125909332D01*
X157774107Y-125965185D01*
X157788879Y-126018399D01*
X157802551Y-126068062D01*
X157814865Y-126113262D01*
X157825561Y-126153089D01*
X157834381Y-126186630D01*
X157841066Y-126212974D01*
X157845356Y-126231209D01*
X157846125Y-126234899D01*
X157857008Y-126289866D01*
X157866506Y-126248022D01*
X157870116Y-126234331D01*
X157876608Y-126212113D01*
X157885685Y-126182270D01*
X157897053Y-126145699D01*
X157910417Y-126103301D01*
X157925482Y-126055976D01*
X157941953Y-126004624D01*
X157959534Y-125950143D01*
X157977932Y-125893435D01*
X157996850Y-125835398D01*
X158015994Y-125776933D01*
X158035069Y-125718940D01*
X158053779Y-125662317D01*
X158071830Y-125607965D01*
X158088928Y-125556784D01*
X158104776Y-125509672D01*
X158119079Y-125467531D01*
X158131544Y-125431260D01*
X158141874Y-125401758D01*
X158149775Y-125379926D01*
X158154952Y-125366663D01*
X158156610Y-125363219D01*
X158168091Y-125348588D01*
X158181938Y-125338314D01*
X158200086Y-125331731D01*
X158224469Y-125328178D01*
X158257021Y-125326991D01*
X158262319Y-125326976D01*
X158296099Y-125327942D01*
X158321483Y-125331236D01*
X158340428Y-125337470D01*
X158354896Y-125347255D01*
X158365347Y-125359106D01*
X158368418Y-125366024D01*
X158374402Y-125382036D01*
X158382999Y-125406241D01*
X158393915Y-125437736D01*
X158406853Y-125475620D01*
X158421515Y-125518991D01*
X158437604Y-125566948D01*
X158454825Y-125618588D01*
X158472880Y-125673010D01*
X158491473Y-125729313D01*
X158510306Y-125786594D01*
X158529084Y-125843952D01*
X158547508Y-125900486D01*
X158565284Y-125955292D01*
X158582113Y-126007471D01*
X158597699Y-126056119D01*
X158611746Y-126100336D01*
X158623956Y-126139219D01*
X158634033Y-126171867D01*
X158641680Y-126197378D01*
X158644831Y-126208358D01*
X158651788Y-126232902D01*
X158657801Y-126253499D01*
X158662284Y-126268193D01*
X158664655Y-126275030D01*
X158664797Y-126275262D01*
X158666499Y-126271200D01*
X158669774Y-126258858D01*
X158674120Y-126240246D01*
X158678178Y-126221505D01*
X158682082Y-126204706D01*
X158688422Y-126179681D01*
X158696938Y-126147347D01*
X158707368Y-126108617D01*
X158719452Y-126064407D01*
X158732927Y-126015633D01*
X158747533Y-125963210D01*
X158763009Y-125908052D01*
X158779093Y-125851075D01*
X158795523Y-125793194D01*
X158812040Y-125735325D01*
X158828381Y-125678382D01*
X158844285Y-125623281D01*
X158859492Y-125570936D01*
X158873739Y-125522264D01*
X158886766Y-125478179D01*
X158898311Y-125439596D01*
X158908113Y-125407431D01*
X158915911Y-125382598D01*
X158921444Y-125366014D01*
X158924450Y-125358593D01*
X158924519Y-125358492D01*
X158932681Y-125348556D01*
X158941747Y-125340937D01*
X158953174Y-125335333D01*
X158968418Y-125331443D01*
X158988933Y-125328966D01*
X159016176Y-125327600D01*
X159051601Y-125327045D01*
X159076790Y-125326976D01*
X159183436Y-125326967D01*
X159179548Y-125338778D01*
G37*
G36*
X151888450Y-127311322D02*
G01*
X151934774Y-127311999D01*
X151970756Y-127313126D01*
X151996349Y-127314701D01*
X152011508Y-127316722D01*
X152013313Y-127317188D01*
X152033399Y-127326372D01*
X152053540Y-127340697D01*
X152070321Y-127357325D01*
X152079995Y-127372561D01*
X152083250Y-127382231D01*
X152089066Y-127401245D01*
X152097224Y-127428827D01*
X152107508Y-127464198D01*
X152119701Y-127506579D01*
X152133586Y-127555191D01*
X152148946Y-127609257D01*
X152165563Y-127667998D01*
X152183222Y-127730635D01*
X152201704Y-127796390D01*
X152220793Y-127864484D01*
X152240273Y-127934140D01*
X152259925Y-128004578D01*
X152279534Y-128075019D01*
X152298881Y-128144687D01*
X152317750Y-128212801D01*
X152335925Y-128278584D01*
X152353187Y-128341257D01*
X152369321Y-128400041D01*
X152384109Y-128454159D01*
X152397333Y-128502831D01*
X152408778Y-128545280D01*
X152418227Y-128580726D01*
X152425461Y-128608391D01*
X152430264Y-128627497D01*
X152432283Y-128636473D01*
X152439189Y-128672332D01*
X152444753Y-128698371D01*
X152448937Y-128714450D01*
X152451704Y-128720430D01*
X152453018Y-128716174D01*
X152453073Y-128715077D01*
X152454074Y-128705842D01*
X152456594Y-128692541D01*
X152460764Y-128674746D01*
X152466716Y-128652029D01*
X152474580Y-128623964D01*
X152484489Y-128590123D01*
X152496574Y-128550078D01*
X152510967Y-128503401D01*
X152527800Y-128449666D01*
X152547203Y-128388444D01*
X152569308Y-128319308D01*
X152594248Y-128241830D01*
X152622152Y-128155584D01*
X152653155Y-128060140D01*
X152679405Y-127979544D01*
X152704425Y-127902904D01*
X152728646Y-127828908D01*
X152751860Y-127758184D01*
X152773857Y-127691362D01*
X152794429Y-127629070D01*
X152813366Y-127571935D01*
X152830459Y-127520587D01*
X152845500Y-127475654D01*
X152858278Y-127437764D01*
X152868586Y-127407545D01*
X152876214Y-127385628D01*
X152880953Y-127372638D01*
X152882420Y-127369224D01*
X152904416Y-127343802D01*
X152933104Y-127323907D01*
X152939021Y-127320998D01*
X152949263Y-127317076D01*
X152961441Y-127314338D01*
X152977569Y-127312587D01*
X152999658Y-127311628D01*
X153029722Y-127311263D01*
X153038753Y-127311241D01*
X153068215Y-127311576D01*
X153095531Y-127312555D01*
X153118225Y-127314042D01*
X153133820Y-127315901D01*
X153137315Y-127316661D01*
X153158292Y-127326264D01*
X153179322Y-127341942D01*
X153196189Y-127360284D01*
X153201247Y-127368401D01*
X153204166Y-127375918D01*
X153210033Y-127392695D01*
X153218608Y-127417990D01*
X153229652Y-127451061D01*
X153242927Y-127491166D01*
X153258192Y-127537563D01*
X153275208Y-127589509D01*
X153293736Y-127646262D01*
X153313536Y-127707081D01*
X153334370Y-127771223D01*
X153355997Y-127837946D01*
X153378178Y-127906507D01*
X153400674Y-127976165D01*
X153423246Y-128046177D01*
X153445654Y-128115802D01*
X153467658Y-128184296D01*
X153489020Y-128250919D01*
X153509500Y-128314927D01*
X153528859Y-128375579D01*
X153546857Y-128432132D01*
X153563255Y-128483845D01*
X153577813Y-128529975D01*
X153590292Y-128569779D01*
X153600454Y-128602517D01*
X153608057Y-128627445D01*
X153612864Y-128643822D01*
X153614101Y-128648404D01*
X153620208Y-128672169D01*
X153625478Y-128691903D01*
X153629350Y-128705558D01*
X153631262Y-128711080D01*
X153631265Y-128711083D01*
X153632937Y-128707520D01*
X153635186Y-128696453D01*
X153636389Y-128688508D01*
X153638910Y-128673442D01*
X153643176Y-128651335D01*
X153648553Y-128625371D01*
X153653426Y-128603069D01*
X153657278Y-128587217D01*
X153663641Y-128562676D01*
X153672297Y-128530219D01*
X153683029Y-128490615D01*
X153695617Y-128444635D01*
X153709845Y-128393048D01*
X153725493Y-128336627D01*
X153742344Y-128276140D01*
X153760180Y-128212359D01*
X153778782Y-128146053D01*
X153797933Y-128077994D01*
X153817414Y-128008952D01*
X153837008Y-127939697D01*
X153856496Y-127871000D01*
X153875660Y-127803630D01*
X153894282Y-127738359D01*
X153912144Y-127675957D01*
X153929028Y-127617195D01*
X153944716Y-127562842D01*
X153958989Y-127513669D01*
X153971630Y-127470447D01*
X153982421Y-127433947D01*
X153991143Y-127404937D01*
X153997578Y-127384190D01*
X154001509Y-127372475D01*
X154002338Y-127370477D01*
X154019184Y-127347601D01*
X154043015Y-127328624D01*
X154070383Y-127316289D01*
X154070607Y-127316224D01*
X154080024Y-127314934D01*
X154097630Y-127313823D01*
X154121862Y-127312896D01*
X154151158Y-127312160D01*
X154183957Y-127311620D01*
X154218698Y-127311283D01*
X154253817Y-127311153D01*
X154287754Y-127311239D01*
X154318946Y-127311544D01*
X154345833Y-127312075D01*
X154366852Y-127312838D01*
X154380441Y-127313839D01*
X154385047Y-127315033D01*
X154383508Y-127320372D01*
X154379008Y-127335245D01*
X154371700Y-127359160D01*
X154361735Y-127391628D01*
X154349266Y-127432155D01*
X154334443Y-127480250D01*
X154317419Y-127535421D01*
X154298346Y-127597178D01*
X154277376Y-127665027D01*
X154254661Y-127738479D01*
X154230352Y-127817041D01*
X154204601Y-127900221D01*
X154177560Y-127987528D01*
X154149382Y-128078471D01*
X154120217Y-128172557D01*
X154091925Y-128263793D01*
X153798882Y-129208616D01*
X153638424Y-129210004D01*
X153477965Y-129211391D01*
X153456694Y-129147016D01*
X153445308Y-129112434D01*
X153431712Y-129070934D01*
X153416136Y-129023230D01*
X153398811Y-128970037D01*
X153379967Y-128912068D01*
X153359834Y-128850038D01*
X153338642Y-128784660D01*
X153316622Y-128716650D01*
X153294003Y-128646721D01*
X153271017Y-128575587D01*
X153247892Y-128503962D01*
X153224860Y-128432561D01*
X153202150Y-128362097D01*
X153179992Y-128293286D01*
X153158618Y-128226840D01*
X153138257Y-128163474D01*
X153119139Y-128103903D01*
X153101494Y-128048840D01*
X153085553Y-127999000D01*
X153071546Y-127955096D01*
X153059703Y-127917843D01*
X153050254Y-127887955D01*
X153043430Y-127866146D01*
X153039460Y-127853130D01*
X153038512Y-127849685D01*
X153035389Y-127837372D01*
X153032188Y-127831014D01*
X153031607Y-127830776D01*
X153028788Y-127835479D01*
X153024144Y-127848008D01*
X153018506Y-127866032D01*
X153016208Y-127874080D01*
X153013090Y-127884403D01*
X153006906Y-127904059D01*
X152997863Y-127932409D01*
X152986169Y-127968812D01*
X152972032Y-128012628D01*
X152955659Y-128063216D01*
X152937259Y-128119936D01*
X152917038Y-128182148D01*
X152895206Y-128249210D01*
X152871969Y-128320483D01*
X152847536Y-128395326D01*
X152822114Y-128473099D01*
X152795910Y-128553161D01*
X152792692Y-128562987D01*
X152581224Y-129208616D01*
X152420564Y-129210004D01*
X152259904Y-129211392D01*
X152241501Y-129152265D01*
X152237711Y-129140066D01*
X152230978Y-129118376D01*
X152221295Y-129087163D01*
X152208650Y-129046397D01*
X152193036Y-128996049D01*
X152174442Y-128936088D01*
X152152860Y-128866484D01*
X152128279Y-128787206D01*
X152100691Y-128698225D01*
X152070086Y-128599511D01*
X152036455Y-128491032D01*
X151999789Y-128372760D01*
X151960077Y-128244663D01*
X151917312Y-128106711D01*
X151871482Y-127958875D01*
X151822580Y-127801124D01*
X151770595Y-127633428D01*
X151715519Y-127455756D01*
X151673523Y-127320282D01*
X151673277Y-127317695D01*
X151675031Y-127315643D01*
X151679850Y-127314065D01*
X151688798Y-127312900D01*
X151702940Y-127312085D01*
X151723341Y-127311559D01*
X151751065Y-127311260D01*
X151787177Y-127311127D01*
X151831828Y-127311096D01*
X151888450Y-127311322D01*
G37*
D12*
X171380000Y-102740000D02*
X170450000Y-102740000D01*
X171380000Y-102740000D02*
X171380000Y-104200000D01*
X168220000Y-102740000D02*
X169150000Y-102740000D01*
X168220000Y-102740000D02*
X168220000Y-104900000D01*
D11*
X234695100Y-119278500D02*
X235507900Y-119278500D01*
X234695100Y-120878500D02*
X235507900Y-120878500D01*
X239166400Y-120878500D02*
X238353600Y-120878500D01*
X239166400Y-119278500D02*
X238353600Y-119278500D01*
D12*
X239910000Y-124880000D02*
X239910000Y-122850000D01*
X237590000Y-123470000D02*
X237590000Y-124880000D01*
D11*
X183750000Y-84956400D02*
X183750000Y-84143600D01*
X185350000Y-84956400D02*
X185350000Y-84143600D01*
D12*
X186950000Y-85800000D02*
X189850000Y-85800000D01*
X186950000Y-83400000D02*
X189150000Y-83400000D01*
X243312779Y-112260000D02*
X242987221Y-112260000D01*
X243312779Y-111240000D02*
X242987221Y-111240000D01*
D11*
X169390100Y-108420000D02*
X170202900Y-108420000D01*
X169390100Y-110020000D02*
X170202900Y-110020000D01*
D12*
X232184000Y-91347000D02*
X233619000Y-91347000D01*
X232184000Y-96867000D02*
X232184000Y-91347000D01*
X232184000Y-96867000D02*
X233000000Y-96867000D01*
X233000000Y-98553000D02*
X233000000Y-96867000D01*
X235010000Y-91347000D02*
X236445000Y-91347000D01*
X235010000Y-96867000D02*
X236445000Y-96867000D01*
X236445000Y-96867000D02*
X236445000Y-91347000D01*
D11*
X219494100Y-123660000D02*
X220306900Y-123660000D01*
X219494100Y-125260000D02*
X220306900Y-125260000D01*
X196557900Y-84620000D02*
X195745100Y-84620000D01*
X196557900Y-83020000D02*
X195745100Y-83020000D01*
X234467400Y-107162500D02*
X233654600Y-107162500D01*
X234467400Y-105562500D02*
X233654600Y-105562500D01*
X192366900Y-98399500D02*
X191554100Y-98399500D01*
X192366900Y-96799500D02*
X191554100Y-96799500D01*
X170206400Y-107799999D02*
X169393600Y-107799999D01*
X170206400Y-106199999D02*
X169393600Y-106199999D01*
D12*
X242787221Y-105390000D02*
X243112779Y-105390000D01*
X242787221Y-106410000D02*
X243112779Y-106410000D01*
X236726500Y-118725000D02*
X234776500Y-118725000D01*
X236726500Y-118725000D02*
X240176500Y-118725000D01*
X236726500Y-108605000D02*
X234776500Y-108605000D01*
X236726500Y-108605000D02*
X238676500Y-108605000D01*
D11*
X244703500Y-118658600D02*
X244703500Y-119471400D01*
X243103500Y-118658600D02*
X243103500Y-119471400D01*
X242199400Y-110899400D02*
X244799400Y-110899400D01*
X244799400Y-110899400D02*
X244799400Y-107649400D01*
X169390100Y-110452000D02*
X170202900Y-110452000D01*
X169390100Y-112052000D02*
X170202900Y-112052000D01*
%LPC*%
D14*
G36*
X241300000Y-139446000D02*
G01*
X240792000Y-139954000D01*
X175768000Y-139954000D01*
X175260000Y-139446000D01*
X175260000Y-132080000D01*
X241300000Y-132080000D01*
X241300000Y-139446000D01*
G37*
D15*
X171958000Y-85725000D03*
X170258000Y-85725000D03*
X238760000Y-128270000D03*
X237060000Y-128270000D03*
D16*
X144653000Y-129540000D03*
D17*
X242062000Y-129540000D03*
D15*
X222680000Y-128270000D03*
X220980000Y-128270000D03*
D18*
X244602000Y-129540000D03*
X142113000Y-129540000D03*
D19*
X177800000Y-135282000D03*
X180340000Y-135282000D03*
X182880000Y-135282000D03*
X185420000Y-135282000D03*
X187960000Y-135282000D03*
X190500000Y-135282000D03*
X193040000Y-135282000D03*
X195580000Y-135282000D03*
X198120000Y-135282000D03*
X200660000Y-135282000D03*
X203200000Y-135282000D03*
X205740000Y-135282000D03*
X208280000Y-135282000D03*
X210820000Y-135282000D03*
X213360000Y-135282000D03*
X215900000Y-135282000D03*
X218440000Y-135282000D03*
X220980000Y-135282000D03*
X223520000Y-135282000D03*
X226060000Y-135282000D03*
X228600000Y-135282000D03*
X231140000Y-135282000D03*
X233680000Y-135282000D03*
X236220000Y-135282000D03*
X238760000Y-135282000D03*
D16*
X242062000Y-82423000D03*
D18*
X244602000Y-82423000D03*
D16*
X158369000Y-82423000D03*
D18*
X155829000Y-82423000D03*
D16*
X142113000Y-98679000D03*
D15*
X200660000Y-83820000D03*
X198960000Y-83820000D03*
D20*
X193040000Y-106680000D03*
X193040000Y-108380000D03*
D21*
X209296000Y-83820000D03*
X211196000Y-83820000D03*
D18*
X142113000Y-96139000D03*
D22*
X168846500Y-113792000D03*
X170546500Y-113792000D03*
X227115000Y-124460000D03*
X228815000Y-124460000D03*
D20*
X233680000Y-102425500D03*
X233680000Y-104125500D03*
D22*
X219710000Y-83820000D03*
X221410000Y-83820000D03*
X213360000Y-83820000D03*
X215060000Y-83820000D03*
X216740000Y-128270000D03*
X218440000Y-128270000D03*
D23*
X181610000Y-107462500D03*
X180340000Y-107462500D03*
X179070000Y-107462500D03*
X177800000Y-107462500D03*
D24*
X176047500Y-109220000D03*
X176047500Y-110490000D03*
X176047500Y-111760000D03*
X176047500Y-113030000D03*
X176047500Y-114300000D03*
X176047500Y-115570000D03*
X176047500Y-116840000D03*
X176047500Y-118110000D03*
X176047500Y-119380000D03*
D23*
X177800000Y-121137500D03*
X179070000Y-121137500D03*
X180340000Y-121137500D03*
X181610000Y-121137500D03*
X182880000Y-121137500D03*
X184150000Y-121137500D03*
X185420000Y-121137500D03*
D24*
X187172500Y-119380000D03*
X187172500Y-118110000D03*
X187172500Y-116840000D03*
X187172500Y-115570000D03*
X187172500Y-114300000D03*
X187172500Y-113030000D03*
X187172500Y-111760000D03*
X187172500Y-110490000D03*
X187172500Y-109220000D03*
D23*
X185420000Y-107462500D03*
X184150000Y-107462500D03*
X182880000Y-107462500D03*
D22*
X179451000Y-102235000D03*
X181151000Y-102235000D03*
D15*
X176403000Y-129159000D03*
X174703000Y-129159000D03*
D22*
X156210000Y-111760000D03*
X157910000Y-111760000D03*
X160655000Y-111760000D03*
X162355000Y-111760000D03*
X180467000Y-85725000D03*
X182167000Y-85725000D03*
D25*
X151306000Y-114300000D03*
X151306000Y-115570000D03*
X151306000Y-116840000D03*
X151306000Y-118110000D03*
X151306000Y-119380000D03*
X151306000Y-120650000D03*
X151306000Y-121920000D03*
X151306000Y-123190000D03*
X160606000Y-123190000D03*
X160606000Y-121920000D03*
X160606000Y-120650000D03*
X160606000Y-119380000D03*
X160606000Y-118110000D03*
X160606000Y-116840000D03*
X160606000Y-115570000D03*
X160606000Y-114300000D03*
D22*
X151765000Y-111760000D03*
X153465000Y-111760000D03*
D26*
X171600000Y-99587500D03*
X172400000Y-99587500D03*
X173200000Y-99587500D03*
X174000000Y-99587500D03*
X174800000Y-99587500D03*
X175600000Y-99587500D03*
X176400000Y-99587500D03*
X177200000Y-99587500D03*
X178000000Y-99587500D03*
X178800000Y-99587500D03*
X179600000Y-99587500D03*
X180400000Y-99587500D03*
X181200000Y-99587500D03*
X182000000Y-99587500D03*
X182800000Y-99587500D03*
X183600000Y-99587500D03*
X184400000Y-99587500D03*
X185200000Y-99587500D03*
X186000000Y-99587500D03*
X186800000Y-99587500D03*
X187600000Y-99587500D03*
X188400000Y-99587500D03*
X188400000Y-88412500D03*
X187600000Y-88412500D03*
X186800000Y-88412500D03*
X186000000Y-88412500D03*
X185200000Y-88412500D03*
X184400000Y-88412500D03*
X183600000Y-88412500D03*
X182800000Y-88412500D03*
X182000000Y-88412500D03*
X181200000Y-88412500D03*
X180400000Y-88412500D03*
X179600000Y-88412500D03*
X178800000Y-88412500D03*
X178000000Y-88412500D03*
X177200000Y-88412500D03*
X176400000Y-88412500D03*
X175600000Y-88412500D03*
X174800000Y-88412500D03*
X174000000Y-88412500D03*
X173200000Y-88412500D03*
X172400000Y-88412500D03*
X171600000Y-88412500D03*
D27*
X163514823Y-88199177D03*
X147889177Y-103824823D03*
D28*
X155702000Y-96012000D03*
D22*
X170766000Y-129159000D03*
X172466000Y-129159000D03*
D29*
X145351500Y-106362500D03*
X144149418Y-105160418D03*
D30*
X163895000Y-115570000D03*
X163895000Y-116840000D03*
X163895000Y-118110000D03*
X163895000Y-119380000D03*
X163895000Y-120650000D03*
X163895000Y-121920000D03*
X163895000Y-123190000D03*
X168845000Y-123190000D03*
X168845000Y-121920000D03*
X168845000Y-120650000D03*
X168845000Y-119380000D03*
X168845000Y-118110000D03*
X168845000Y-116840000D03*
X168845000Y-115570000D03*
D31*
X213360000Y-118490000D03*
X214630000Y-118490000D03*
X215900000Y-118490000D03*
X217170000Y-118490000D03*
X218440000Y-118490000D03*
X219710000Y-118490000D03*
X220980000Y-118490000D03*
X222250000Y-118490000D03*
X223520000Y-118490000D03*
X224790000Y-118490000D03*
X226060000Y-118490000D03*
D32*
X227710000Y-116840000D03*
X227710000Y-115570000D03*
X227710000Y-114300000D03*
X227710000Y-113030000D03*
X227710000Y-111760000D03*
X227710000Y-110490000D03*
X227710000Y-109220000D03*
X227710000Y-107950000D03*
X227710000Y-106680000D03*
X227710000Y-105410000D03*
X227710000Y-104140000D03*
X227710000Y-102870000D03*
X227710000Y-101600000D03*
X227710000Y-100330000D03*
X227710000Y-99060000D03*
X227710000Y-97790000D03*
X227710000Y-96520000D03*
X227710000Y-95250000D03*
X227710000Y-93980000D03*
X227710000Y-92710000D03*
X227710000Y-91440000D03*
D31*
X226060000Y-89790000D03*
X224790000Y-89790000D03*
X223520000Y-89790000D03*
X222250000Y-89790000D03*
X220980000Y-89790000D03*
X219710000Y-89790000D03*
X218440000Y-89790000D03*
X217170000Y-89790000D03*
X215900000Y-89790000D03*
X214630000Y-89790000D03*
X213360000Y-89790000D03*
X212090000Y-89790000D03*
X210820000Y-89790000D03*
X209550000Y-89790000D03*
X208280000Y-89790000D03*
X207010000Y-89790000D03*
X205740000Y-89790000D03*
X204470000Y-89790000D03*
X203200000Y-89790000D03*
X201930000Y-89790000D03*
X200660000Y-89790000D03*
D32*
X199010000Y-91440000D03*
X199010000Y-92710000D03*
X199010000Y-93980000D03*
X199010000Y-95250000D03*
X199010000Y-96520000D03*
X199010000Y-97790000D03*
X199010000Y-99060000D03*
X199010000Y-100330000D03*
X199010000Y-101600000D03*
X199010000Y-102870000D03*
X199010000Y-104140000D03*
X199010000Y-105410000D03*
X199010000Y-106680000D03*
X199010000Y-107950000D03*
X199010000Y-109220000D03*
X199010000Y-110490000D03*
X199010000Y-111760000D03*
X199010000Y-113030000D03*
X199010000Y-114300000D03*
X199010000Y-115570000D03*
X199010000Y-116840000D03*
D31*
X200660000Y-118490000D03*
X201930000Y-118490000D03*
X203200000Y-118490000D03*
X204470000Y-118490000D03*
X205740000Y-118490000D03*
X207010000Y-118490000D03*
X208280000Y-118490000D03*
X209550000Y-118490000D03*
X210820000Y-118490000D03*
X212090000Y-118490000D03*
D21*
X203840000Y-83820000D03*
X205740000Y-83820000D03*
D33*
X233807000Y-125732500D03*
X233807000Y-127632500D03*
D34*
X145288000Y-115570000D03*
X147188000Y-115570000D03*
D35*
X166941500Y-114046000D03*
X166941500Y-112146000D03*
X241808000Y-120015000D03*
X241808000Y-118115000D03*
D21*
X223522500Y-83820000D03*
X225422500Y-83820000D03*
D22*
X207259000Y-124460000D03*
X208959000Y-124460000D03*
X237950000Y-86350000D03*
X239650000Y-86350000D03*
D36*
X169500000Y-100200000D03*
X169500000Y-98500000D03*
D37*
X193164500Y-83820000D03*
X191264500Y-83820000D03*
D36*
X241250000Y-125000000D03*
X241250000Y-123300000D03*
D38*
X241173000Y-114300000D03*
X241173000Y-115800000D03*
D21*
X234193000Y-122745500D03*
X236093000Y-122745500D03*
D39*
X168850000Y-104550000D03*
X170750000Y-104550000D03*
X169800000Y-102450000D03*
D40*
X236100000Y-83975000D03*
X235450000Y-83975000D03*
X234800000Y-83975000D03*
X234150000Y-83975000D03*
X233500000Y-83975000D03*
D41*
X238600000Y-81300000D03*
D42*
X237900000Y-83850000D03*
D43*
X236000000Y-81300000D03*
X233600000Y-81300000D03*
D42*
X231700000Y-83850000D03*
D41*
X231000000Y-81300000D03*
D22*
X234251500Y-120078500D03*
X235951500Y-120078500D03*
D37*
X239710000Y-120078500D03*
X237810000Y-120078500D03*
D44*
X239400000Y-123300000D03*
X238750000Y-123300000D03*
X238100000Y-123300000D03*
X238100000Y-125000000D03*
X239400000Y-125000000D03*
D36*
X184550000Y-85400000D03*
X184550000Y-83700000D03*
D45*
X189400000Y-85400000D03*
D46*
X189400000Y-84850000D03*
X189400000Y-84350000D03*
D45*
X189400000Y-83800000D03*
D47*
X186700000Y-83800000D03*
D46*
X186700000Y-84350000D03*
X186700000Y-84850000D03*
D45*
X186700000Y-85400000D03*
D48*
X243900000Y-111750000D03*
X242400000Y-111750000D03*
D21*
X168846500Y-109220000D03*
X170746500Y-109220000D03*
D49*
X233680000Y-97917000D03*
X234950000Y-97917000D03*
X234950000Y-90297000D03*
X233680000Y-90297000D03*
D22*
X219050500Y-124460000D03*
X220750500Y-124460000D03*
D37*
X197101500Y-83820000D03*
X195201500Y-83820000D03*
X235011000Y-106362500D03*
X233111000Y-106362500D03*
X192910500Y-97599500D03*
X191010500Y-97599500D03*
D15*
X170650000Y-106999999D03*
X168950000Y-106999999D03*
D50*
X242200000Y-105900000D03*
X243700000Y-105900000D03*
D51*
X239201500Y-118110000D03*
X239201500Y-116840000D03*
X239201500Y-115570000D03*
X239201500Y-114300000D03*
X239201500Y-113030000D03*
X239201500Y-111760000D03*
X239201500Y-110490000D03*
X239201500Y-109220000D03*
X234251500Y-109220000D03*
X234251500Y-110490000D03*
X234251500Y-111760000D03*
X234251500Y-113030000D03*
X234251500Y-114300000D03*
X234251500Y-115570000D03*
X234251500Y-116840000D03*
X234251500Y-118110000D03*
D33*
X243903500Y-118115000D03*
X243903500Y-120015000D03*
D52*
X243899400Y-109849400D03*
X243899400Y-107649400D03*
X242199400Y-107649400D03*
X242199400Y-109849400D03*
D16*
X244602000Y-127000000D03*
D21*
X168846500Y-111252000D03*
X170746500Y-111252000D03*
%LPD*%
M02*
