G04 #@! TF.GenerationSoftware,KiCad,Pcbnew,(6.0.2-0)*
G04 #@! TF.CreationDate,2022-08-15T13:28:30-04:00*
G04 #@! TF.ProjectId,TimeMachine,54696d65-4d61-4636-9869-6e652e6b6963,rev?*
G04 #@! TF.SameCoordinates,Original*
G04 #@! TF.FileFunction,Legend,Bot*
G04 #@! TF.FilePolarity,Positive*
%FSLAX46Y46*%
G04 Gerber Fmt 4.6, Leading zero omitted, Abs format (unit mm)*
G04 Created by KiCad (PCBNEW (6.0.2-0)) date 2022-08-15 13:28:30*
%MOMM*%
%LPD*%
G01*
G04 APERTURE LIST*
G04 Aperture macros list*
%AMRoundRect*
0 Rectangle with rounded corners*
0 $1 Rounding radius*
0 $2 $3 $4 $5 $6 $7 $8 $9 X,Y pos of 4 corners*
0 Add a 4 corners polygon primitive as box body*
4,1,4,$2,$3,$4,$5,$6,$7,$8,$9,$2,$3,0*
0 Add four circle primitives for the rounded corners*
1,1,$1+$1,$2,$3*
1,1,$1+$1,$4,$5*
1,1,$1+$1,$6,$7*
1,1,$1+$1,$8,$9*
0 Add four rect primitives between the rounded corners*
20,1,$1+$1,$2,$3,$4,$5,0*
20,1,$1+$1,$4,$5,$6,$7,0*
20,1,$1+$1,$6,$7,$8,$9,0*
20,1,$1+$1,$8,$9,$2,$3,0*%
G04 Aperture macros list end*
%ADD10C,0.203200*%
%ADD11C,0.000000*%
%ADD12C,2.152400*%
%ADD13RoundRect,0.457200X0.381000X3.289000X-0.381000X3.289000X-0.381000X-3.289000X0.381000X-3.289000X0*%
%ADD14C,1.152400*%
G04 APERTURE END LIST*
D10*
X243870238Y-124649895D02*
X243328371Y-124649895D01*
X243870238Y-125462695D01*
X243328371Y-125462695D01*
X243018733Y-125462695D02*
X243018733Y-124649895D01*
X242554276Y-125462695D02*
X242902619Y-124998238D01*
X242554276Y-124649895D02*
X243018733Y-125114352D01*
X242167228Y-125423990D02*
X242167228Y-125462695D01*
X242205933Y-125540104D01*
X242244638Y-125578809D01*
X240773857Y-124688600D02*
X240851266Y-124649895D01*
X240967380Y-124649895D01*
X241083495Y-124688600D01*
X241160904Y-124766009D01*
X241199609Y-124843419D01*
X241238314Y-124998238D01*
X241238314Y-125114352D01*
X241199609Y-125269171D01*
X241160904Y-125346580D01*
X241083495Y-125423990D01*
X240967380Y-125462695D01*
X240889971Y-125462695D01*
X240773857Y-125423990D01*
X240735152Y-125385285D01*
X240735152Y-125114352D01*
X240889971Y-125114352D01*
X240115876Y-125036942D02*
X240386809Y-125036942D01*
X240386809Y-125462695D02*
X240386809Y-124649895D01*
X239999761Y-124649895D01*
G36*
X162689433Y-126380078D02*
G01*
X162689452Y-126380204D01*
X162690447Y-126387865D01*
X162692590Y-126405174D01*
X162695818Y-126431588D01*
X162700064Y-126466566D01*
X162705264Y-126509564D01*
X162711352Y-126560039D01*
X162718263Y-126617451D01*
X162725932Y-126681255D01*
X162734294Y-126750909D01*
X162743283Y-126825871D01*
X162752834Y-126905598D01*
X162762883Y-126989548D01*
X162773363Y-127077178D01*
X162784209Y-127167945D01*
X162795357Y-127261308D01*
X162795899Y-127265841D01*
X162807038Y-127359138D01*
X162817874Y-127449841D01*
X162828342Y-127537406D01*
X162838376Y-127621287D01*
X162847910Y-127700941D01*
X162856880Y-127775822D01*
X162865219Y-127845385D01*
X162872864Y-127909087D01*
X162879747Y-127966382D01*
X162885805Y-128016725D01*
X162890971Y-128059573D01*
X162895180Y-128094380D01*
X162898367Y-128120602D01*
X162900466Y-128137693D01*
X162901412Y-128145110D01*
X162904588Y-128166980D01*
X162687877Y-128166980D01*
X162662625Y-128166966D01*
X162618199Y-128166869D01*
X162577696Y-128166689D01*
X162542176Y-128166435D01*
X162512702Y-128166119D01*
X162490334Y-128165749D01*
X162476135Y-128165338D01*
X162471166Y-128164894D01*
X162471157Y-128164763D01*
X162470408Y-128158117D01*
X162468520Y-128141966D01*
X162465568Y-128116943D01*
X162461628Y-128083682D01*
X162456776Y-128042817D01*
X162451087Y-127994981D01*
X162444638Y-127940807D01*
X162437503Y-127880930D01*
X162429760Y-127815983D01*
X162421483Y-127746599D01*
X162412748Y-127673413D01*
X162403632Y-127597057D01*
X162394209Y-127518165D01*
X162384556Y-127437371D01*
X162374748Y-127355308D01*
X162364861Y-127272610D01*
X162354971Y-127189911D01*
X162345154Y-127107843D01*
X162335485Y-127027042D01*
X162326040Y-126948140D01*
X162316895Y-126871770D01*
X162308126Y-126798567D01*
X162299808Y-126729164D01*
X162292017Y-126664195D01*
X162284829Y-126604292D01*
X162278320Y-126550091D01*
X162272565Y-126502224D01*
X162267641Y-126461324D01*
X162263622Y-126428027D01*
X162260585Y-126402964D01*
X162258605Y-126386770D01*
X162257759Y-126380078D01*
X162254918Y-126360781D01*
X162686388Y-126360781D01*
X162689433Y-126380078D01*
G37*
G36*
X164150566Y-129919273D02*
G01*
X164176489Y-129985297D01*
X164200623Y-130046816D01*
X164222747Y-130103269D01*
X164242642Y-130154092D01*
X164260087Y-130198720D01*
X164274860Y-130236591D01*
X164286742Y-130267141D01*
X164295511Y-130289807D01*
X164300948Y-130304024D01*
X164302831Y-130309231D01*
X164302211Y-130309673D01*
X164294073Y-130310733D01*
X164277668Y-130311511D01*
X164254486Y-130311973D01*
X164226015Y-130312082D01*
X164193745Y-130311804D01*
X164184935Y-130311675D01*
X164150346Y-130311071D01*
X164124275Y-130310343D01*
X164105264Y-130309352D01*
X164091855Y-130307957D01*
X164082593Y-130306017D01*
X164076020Y-130303392D01*
X164070679Y-130299942D01*
X164066072Y-130296273D01*
X164059558Y-130289894D01*
X164053287Y-130281643D01*
X164046738Y-130270402D01*
X164039390Y-130255049D01*
X164030721Y-130234465D01*
X164020208Y-130207531D01*
X164007331Y-130173125D01*
X163991567Y-130130129D01*
X163944656Y-130001482D01*
X163682618Y-130000178D01*
X163420579Y-129998875D01*
X163371693Y-130133763D01*
X163364121Y-130154566D01*
X163349029Y-130195162D01*
X163336367Y-130227503D01*
X163325578Y-130252641D01*
X163316109Y-130271629D01*
X163307404Y-130285521D01*
X163298910Y-130295367D01*
X163290070Y-130302222D01*
X163280332Y-130307137D01*
X163279087Y-130307586D01*
X163265474Y-130309860D01*
X163241623Y-130311291D01*
X163207527Y-130311882D01*
X163163181Y-130311631D01*
X163060250Y-130310234D01*
X163250472Y-129826542D01*
X163484902Y-129826542D01*
X163485148Y-129826669D01*
X163492219Y-129827228D01*
X163508229Y-129827739D01*
X163532070Y-129828189D01*
X163562633Y-129828564D01*
X163598810Y-129828850D01*
X163639491Y-129829032D01*
X163683569Y-129829095D01*
X163690338Y-129829095D01*
X163739594Y-129829066D01*
X163779606Y-129828958D01*
X163811304Y-129828727D01*
X163835620Y-129828332D01*
X163853488Y-129827729D01*
X163865837Y-129826875D01*
X163873600Y-129825728D01*
X163877709Y-129824243D01*
X163879095Y-129822378D01*
X163878691Y-129820090D01*
X163876113Y-129813513D01*
X163865197Y-129785246D01*
X163852231Y-129751150D01*
X163837650Y-129712416D01*
X163821890Y-129670233D01*
X163805389Y-129625791D01*
X163788581Y-129580278D01*
X163771903Y-129534884D01*
X163755792Y-129490799D01*
X163740683Y-129449211D01*
X163727013Y-129411311D01*
X163715218Y-129378288D01*
X163705733Y-129351331D01*
X163698996Y-129331629D01*
X163695442Y-129320372D01*
X163683665Y-129277350D01*
X163659544Y-129348675D01*
X163658229Y-129352535D01*
X163650272Y-129375329D01*
X163639375Y-129405896D01*
X163626090Y-129442711D01*
X163610973Y-129484252D01*
X163594576Y-129528996D01*
X163577455Y-129575417D01*
X163560162Y-129621994D01*
X163551830Y-129644373D01*
X163536312Y-129686140D01*
X163522158Y-129724349D01*
X163509740Y-129757986D01*
X163499433Y-129786038D01*
X163491609Y-129807491D01*
X163486641Y-129821330D01*
X163484902Y-129826542D01*
X163250472Y-129826542D01*
X163309709Y-129675917D01*
X163559167Y-129041600D01*
X163682695Y-129042975D01*
X163806223Y-129044351D01*
X164054395Y-129674719D01*
X164064274Y-129699816D01*
X164094238Y-129775969D01*
X164112486Y-129822378D01*
X164123076Y-129849309D01*
X164150566Y-129919273D01*
G37*
G36*
X148886077Y-130312807D02*
G01*
X148664805Y-130312807D01*
X148664805Y-129005757D01*
X148886077Y-129005757D01*
X148886077Y-130312807D01*
G37*
G36*
X158013098Y-129949270D02*
G01*
X158007854Y-129983390D01*
X157991637Y-130042469D01*
X157965624Y-130103901D01*
X157931936Y-130158893D01*
X157890989Y-130207037D01*
X157843198Y-130247925D01*
X157788977Y-130281147D01*
X157728741Y-130306297D01*
X157662906Y-130322964D01*
X157657106Y-130323756D01*
X157638664Y-130325093D01*
X157613690Y-130325957D01*
X157584721Y-130326278D01*
X157554290Y-130325984D01*
X157534417Y-130325513D01*
X157505541Y-130324403D01*
X157482915Y-130322681D01*
X157463948Y-130320040D01*
X157446051Y-130316171D01*
X157426634Y-130310765D01*
X157410667Y-130305706D01*
X157349529Y-130280166D01*
X157295184Y-130246986D01*
X157247881Y-130206405D01*
X157207863Y-130158663D01*
X157175377Y-130103998D01*
X157150669Y-130042649D01*
X157143020Y-130017071D01*
X157133458Y-129975699D01*
X157127680Y-129933596D01*
X157125320Y-129887695D01*
X157125617Y-129865116D01*
X157353688Y-129865116D01*
X157354055Y-129898403D01*
X157356073Y-129939278D01*
X157360209Y-129973688D01*
X157366865Y-130003831D01*
X157376444Y-130031908D01*
X157389349Y-130060119D01*
X157399488Y-130077132D01*
X157422564Y-130104795D01*
X157450132Y-130127958D01*
X157479151Y-130143787D01*
X157501363Y-130149992D01*
X157530053Y-130154449D01*
X157561808Y-130156951D01*
X157593369Y-130157347D01*
X157621476Y-130155491D01*
X157642871Y-130151233D01*
X157647553Y-130149657D01*
X157686206Y-130131616D01*
X157718533Y-130106487D01*
X157744671Y-130074002D01*
X157764760Y-130033891D01*
X157778938Y-129985886D01*
X157787343Y-129929717D01*
X157790114Y-129865116D01*
X157790053Y-129854713D01*
X157786826Y-129794266D01*
X157778514Y-129741954D01*
X157764877Y-129696942D01*
X157745672Y-129658396D01*
X157720658Y-129625482D01*
X157705422Y-129611206D01*
X157672520Y-129590391D01*
X157634384Y-129576328D01*
X157592844Y-129569252D01*
X157549732Y-129569404D01*
X157506879Y-129577022D01*
X157466116Y-129592343D01*
X157444751Y-129604724D01*
X157419356Y-129626445D01*
X157398251Y-129654518D01*
X157380536Y-129690214D01*
X157365310Y-129734807D01*
X157361059Y-129750694D01*
X157357875Y-129766367D01*
X157355745Y-129783418D01*
X157354470Y-129804075D01*
X157353850Y-129830565D01*
X157353688Y-129865116D01*
X157125617Y-129865116D01*
X157126015Y-129834926D01*
X157126622Y-129820563D01*
X157130044Y-129775021D01*
X157136001Y-129735684D01*
X157145233Y-129699461D01*
X157158481Y-129663259D01*
X157176484Y-129623986D01*
X157187327Y-129602890D01*
X157202714Y-129577109D01*
X157219813Y-129554239D01*
X157241485Y-129530150D01*
X157275269Y-129498116D01*
X157324146Y-129462327D01*
X157377284Y-129435020D01*
X157435430Y-129415902D01*
X157499329Y-129404679D01*
X157569728Y-129401059D01*
X157613209Y-129402452D01*
X157681106Y-129410943D01*
X157742859Y-129427318D01*
X157798993Y-129451777D01*
X157850029Y-129484518D01*
X157896490Y-129525742D01*
X157932416Y-129568715D01*
X157964960Y-129621621D01*
X157990448Y-129679862D01*
X158007938Y-129741616D01*
X158008314Y-129743446D01*
X158013409Y-129778258D01*
X158016433Y-129819561D01*
X158017389Y-129864041D01*
X158017362Y-129865116D01*
X158016277Y-129908382D01*
X158013098Y-129949270D01*
G37*
G36*
X159050998Y-129033079D02*
G01*
X159113229Y-129037103D01*
X159171205Y-129045190D01*
X159224779Y-129057889D01*
X159276675Y-129075853D01*
X159329614Y-129099733D01*
X159355932Y-129113597D01*
X159422102Y-129156130D01*
X159481171Y-129205918D01*
X159532828Y-129262538D01*
X159576767Y-129325571D01*
X159612678Y-129394595D01*
X159640253Y-129469191D01*
X159659184Y-129548937D01*
X159660989Y-129560379D01*
X159664876Y-129596750D01*
X159667333Y-129638834D01*
X159668323Y-129683456D01*
X159667809Y-129727440D01*
X159665754Y-129767611D01*
X159662121Y-129800793D01*
X159647027Y-129874902D01*
X159622540Y-129952370D01*
X159590350Y-130023629D01*
X159550769Y-130088344D01*
X159504110Y-130146182D01*
X159450684Y-130196809D01*
X159390804Y-130239892D01*
X159324782Y-130275097D01*
X159252931Y-130302091D01*
X159175562Y-130320540D01*
X159151209Y-130323633D01*
X159116397Y-130325836D01*
X159076398Y-130326717D01*
X159033785Y-130326339D01*
X158991131Y-130324764D01*
X158951008Y-130322056D01*
X158915988Y-130318278D01*
X158888644Y-130313493D01*
X158843770Y-130301104D01*
X158777934Y-130275453D01*
X158716829Y-130242440D01*
X158661894Y-130202882D01*
X158614567Y-130157597D01*
X158591087Y-130131482D01*
X158609862Y-130110222D01*
X158614653Y-130104875D01*
X158629100Y-130089169D01*
X158646679Y-130070435D01*
X158664607Y-130051654D01*
X158667160Y-130049016D01*
X158687427Y-130029452D01*
X158704082Y-130017622D01*
X158719336Y-130013397D01*
X158735404Y-130016651D01*
X158754498Y-130027257D01*
X158778833Y-130045087D01*
X158802754Y-130062599D01*
X158841653Y-130086249D01*
X158881162Y-130103494D01*
X158923547Y-130115056D01*
X158971073Y-130121662D01*
X159026008Y-130124033D01*
X159057595Y-130124021D01*
X159081959Y-130123189D01*
X159101735Y-130121257D01*
X159119773Y-130117945D01*
X159138926Y-130112973D01*
X159157829Y-130107099D01*
X159214860Y-130082778D01*
X159265560Y-130050556D01*
X159309687Y-130010780D01*
X159346993Y-129963797D01*
X159377234Y-129909955D01*
X159400165Y-129849599D01*
X159415540Y-129783079D01*
X159423113Y-129710740D01*
X159423778Y-129691338D01*
X159421029Y-129616357D01*
X159409647Y-129546418D01*
X159389702Y-129481764D01*
X159361265Y-129422637D01*
X159324406Y-129369282D01*
X159293771Y-129336678D01*
X159248919Y-129301546D01*
X159198360Y-129273406D01*
X159143362Y-129252531D01*
X159085190Y-129239192D01*
X159025109Y-129233661D01*
X158964386Y-129236210D01*
X158904287Y-129247110D01*
X158846078Y-129266632D01*
X158840944Y-129268898D01*
X158820293Y-129279212D01*
X158796614Y-129292354D01*
X158774077Y-129306042D01*
X158766372Y-129310858D01*
X158737702Y-129325885D01*
X158714149Y-129332786D01*
X158694926Y-129331698D01*
X158679251Y-129322760D01*
X158678217Y-129321758D01*
X158670322Y-129312644D01*
X158658537Y-129297770D01*
X158644319Y-129279118D01*
X158629130Y-129258671D01*
X158614428Y-129238411D01*
X158601673Y-129220321D01*
X158592325Y-129206384D01*
X158587843Y-129198583D01*
X158588480Y-129194534D01*
X158595999Y-129184811D01*
X158610219Y-129171799D01*
X158629737Y-129156520D01*
X158653148Y-129139996D01*
X158679048Y-129123249D01*
X158706031Y-129107301D01*
X158732694Y-129093175D01*
X158745363Y-129087030D01*
X158792238Y-129066761D01*
X158837745Y-129051567D01*
X158884130Y-129041026D01*
X158933637Y-129034714D01*
X158988511Y-129032206D01*
X159050998Y-129033079D01*
G37*
G36*
X150666547Y-130606121D02*
G01*
X150666547Y-130239963D01*
X150645729Y-130257782D01*
X150639744Y-130262692D01*
X150607718Y-130284199D01*
X150571191Y-130302636D01*
X150534908Y-130315530D01*
X150534222Y-130315712D01*
X150509139Y-130320208D01*
X150477369Y-130322903D01*
X150442244Y-130323796D01*
X150407098Y-130322884D01*
X150375264Y-130320166D01*
X150350076Y-130315639D01*
X150316371Y-130304911D01*
X150263260Y-130279630D01*
X150214482Y-130245672D01*
X150170871Y-130203769D01*
X150133261Y-130154649D01*
X150102487Y-130099043D01*
X150091550Y-130073771D01*
X150076552Y-130030456D01*
X150065940Y-129985150D01*
X150059151Y-129935208D01*
X150055626Y-129877981D01*
X150055405Y-129870832D01*
X150055534Y-129834489D01*
X150281225Y-129834489D01*
X150281938Y-129877781D01*
X150284715Y-129919883D01*
X150289453Y-129957811D01*
X150296046Y-129988581D01*
X150304815Y-130015463D01*
X150325486Y-130060087D01*
X150351307Y-130096388D01*
X150382015Y-130124034D01*
X150417351Y-130142693D01*
X150429946Y-130146888D01*
X150472259Y-130154826D01*
X150516623Y-130155053D01*
X150559906Y-130147738D01*
X150598977Y-130133045D01*
X150608996Y-130127129D01*
X150626825Y-130114275D01*
X150643431Y-130100010D01*
X150666547Y-130077861D01*
X150666547Y-129670882D01*
X150627345Y-129633643D01*
X150620317Y-129627082D01*
X150590579Y-129602535D01*
X150561911Y-129585196D01*
X150531276Y-129573503D01*
X150495638Y-129565895D01*
X150478725Y-129563539D01*
X150459782Y-129562385D01*
X150442355Y-129563964D01*
X150421463Y-129568447D01*
X150421128Y-129568530D01*
X150386037Y-129580814D01*
X150356825Y-129599180D01*
X150332936Y-129624375D01*
X150313817Y-129657144D01*
X150298913Y-129698233D01*
X150287670Y-129748389D01*
X150286407Y-129756267D01*
X150282680Y-129792989D01*
X150281225Y-129834489D01*
X150055534Y-129834489D01*
X150055656Y-129799896D01*
X150060858Y-129736259D01*
X150071315Y-129678187D01*
X150087330Y-129623946D01*
X150109206Y-129571802D01*
X150111662Y-129566751D01*
X150124446Y-129542519D01*
X150137461Y-129522567D01*
X150153293Y-129503307D01*
X150174527Y-129481148D01*
X150194893Y-129461856D01*
X150231569Y-129433270D01*
X150269053Y-129412869D01*
X150309378Y-129399881D01*
X150354576Y-129393535D01*
X150406681Y-129393059D01*
X150432154Y-129394599D01*
X150477687Y-129400966D01*
X150518775Y-129412550D01*
X150557753Y-129430309D01*
X150596960Y-129455200D01*
X150638733Y-129488182D01*
X150648730Y-129496634D01*
X150663485Y-129508836D01*
X150674060Y-129517224D01*
X150678649Y-129520343D01*
X150679494Y-129519186D01*
X150681826Y-129510786D01*
X150684327Y-129496929D01*
X150685428Y-129490363D01*
X150689975Y-129468809D01*
X150695393Y-129448077D01*
X150695550Y-129447551D01*
X150700475Y-129433644D01*
X150706743Y-129423333D01*
X150715844Y-129416087D01*
X150729267Y-129411374D01*
X150748503Y-129408665D01*
X150775043Y-129407428D01*
X150810376Y-129407134D01*
X150887819Y-129407134D01*
X150887819Y-130606121D01*
X150666547Y-130606121D01*
G37*
G36*
X157534245Y-127928046D02*
G01*
X157541288Y-127985891D01*
X157547396Y-128036162D01*
X157552513Y-128078420D01*
X157556587Y-128112224D01*
X157559563Y-128137134D01*
X157561389Y-128152710D01*
X157562009Y-128158512D01*
X157561839Y-128159331D01*
X157560452Y-128160653D01*
X157557167Y-128161815D01*
X157551384Y-128162826D01*
X157542502Y-128163697D01*
X157529924Y-128164439D01*
X157513049Y-128165061D01*
X157491277Y-128165573D01*
X157464010Y-128165987D01*
X157430647Y-128166312D01*
X157390590Y-128166559D01*
X157343238Y-128166738D01*
X157287993Y-128166860D01*
X157224254Y-128166933D01*
X157151423Y-128166970D01*
X157068900Y-128166980D01*
X156998815Y-128166945D01*
X156911297Y-128166790D01*
X156831636Y-128166513D01*
X156760137Y-128166117D01*
X156697104Y-128165606D01*
X156642842Y-128164983D01*
X156597653Y-128164250D01*
X156561844Y-128163411D01*
X156535718Y-128162469D01*
X156519578Y-128161427D01*
X156459992Y-128154282D01*
X156344741Y-128133059D01*
X156233744Y-128102732D01*
X156127335Y-128063618D01*
X156025847Y-128016035D01*
X155929611Y-127960301D01*
X155838962Y-127896734D01*
X155754231Y-127825652D01*
X155675752Y-127747373D01*
X155603857Y-127662215D01*
X155538879Y-127570495D01*
X155481151Y-127472531D01*
X155431006Y-127368642D01*
X155388776Y-127259144D01*
X155354794Y-127144357D01*
X155329394Y-127024598D01*
X155322509Y-126981455D01*
X155315145Y-126923078D01*
X155310183Y-126864032D01*
X155307376Y-126801154D01*
X155306477Y-126731283D01*
X155306841Y-126700069D01*
X155777337Y-126700069D01*
X155777372Y-126746193D01*
X155778256Y-126794533D01*
X155779935Y-126842730D01*
X155782353Y-126888421D01*
X155785457Y-126929247D01*
X155789190Y-126962847D01*
X155795051Y-127001127D01*
X155812997Y-127089733D01*
X155836479Y-127176220D01*
X155864926Y-127259026D01*
X155897766Y-127336586D01*
X155934429Y-127407337D01*
X155974342Y-127469715D01*
X156007780Y-127513523D01*
X156068467Y-127580521D01*
X156134389Y-127638658D01*
X156205542Y-127687931D01*
X156281921Y-127728340D01*
X156363524Y-127759880D01*
X156450347Y-127782552D01*
X156542386Y-127796352D01*
X156547312Y-127796752D01*
X156564801Y-127797640D01*
X156589727Y-127798459D01*
X156620907Y-127799203D01*
X156657160Y-127799864D01*
X156697305Y-127800437D01*
X156740159Y-127800916D01*
X156784540Y-127801293D01*
X156829267Y-127801564D01*
X156873158Y-127801721D01*
X156915031Y-127801758D01*
X156953705Y-127801668D01*
X156987997Y-127801447D01*
X157016725Y-127801086D01*
X157038709Y-127800580D01*
X157052766Y-127799923D01*
X157057714Y-127799108D01*
X157057603Y-127798090D01*
X157056474Y-127788641D01*
X157054180Y-127769712D01*
X157050782Y-127741820D01*
X157046346Y-127705483D01*
X157040934Y-127661217D01*
X157034610Y-127609539D01*
X157027436Y-127550966D01*
X157019476Y-127486015D01*
X157010794Y-127415202D01*
X157001453Y-127339046D01*
X156991516Y-127258061D01*
X156981047Y-127172767D01*
X156970109Y-127083679D01*
X156958765Y-126991314D01*
X156947078Y-126896190D01*
X156942165Y-126856199D01*
X156930609Y-126762103D01*
X156919423Y-126670954D01*
X156908670Y-126583273D01*
X156898412Y-126499578D01*
X156888713Y-126420388D01*
X156879638Y-126346222D01*
X156871248Y-126277599D01*
X156863608Y-126215039D01*
X156856781Y-126159060D01*
X156850831Y-126110181D01*
X156845820Y-126068922D01*
X156841812Y-126035801D01*
X156838871Y-126011338D01*
X156837060Y-125996051D01*
X156836442Y-125990460D01*
X156836442Y-125990459D01*
X156831487Y-125989198D01*
X156817426Y-125988106D01*
X156795443Y-125987182D01*
X156766723Y-125986427D01*
X156732447Y-125985840D01*
X156693802Y-125985422D01*
X156651969Y-125985172D01*
X156608133Y-125985090D01*
X156563478Y-125985176D01*
X156519188Y-125985431D01*
X156476446Y-125985853D01*
X156436436Y-125986444D01*
X156400342Y-125987202D01*
X156369347Y-125988129D01*
X156344636Y-125989223D01*
X156327392Y-125990485D01*
X156283527Y-125996371D01*
X156207147Y-126013891D01*
X156136242Y-126039971D01*
X156071067Y-126074445D01*
X156011871Y-126117144D01*
X155958909Y-126167900D01*
X155912431Y-126226547D01*
X155872691Y-126292915D01*
X155848600Y-126343838D01*
X155817766Y-126427818D01*
X155795291Y-126517246D01*
X155781044Y-126612572D01*
X155780035Y-126623912D01*
X155778206Y-126658521D01*
X155777337Y-126700069D01*
X155306841Y-126700069D01*
X155307107Y-126677200D01*
X155310939Y-126597789D01*
X155318564Y-126524166D01*
X155330340Y-126453882D01*
X155346626Y-126384487D01*
X155367782Y-126313534D01*
X155367841Y-126313353D01*
X155384657Y-126267170D01*
X155405901Y-126216922D01*
X155430183Y-126165416D01*
X155456115Y-126115462D01*
X155482305Y-126069869D01*
X155507364Y-126031445D01*
X155509762Y-126028105D01*
X155533305Y-125998172D01*
X155562858Y-125964406D01*
X155596401Y-125928824D01*
X155631915Y-125893447D01*
X155667379Y-125860294D01*
X155700774Y-125831385D01*
X155730080Y-125808740D01*
X155747853Y-125796561D01*
X155809281Y-125759479D01*
X155877081Y-125725076D01*
X155948316Y-125694642D01*
X156020048Y-125669468D01*
X156089341Y-125650844D01*
X156106142Y-125647177D01*
X156124282Y-125643465D01*
X156142179Y-125640189D01*
X156160535Y-125637322D01*
X156180053Y-125634837D01*
X156201434Y-125632706D01*
X156225382Y-125630903D01*
X156252598Y-125629400D01*
X156283785Y-125628171D01*
X156319645Y-125627188D01*
X156360881Y-125626424D01*
X156408194Y-125625852D01*
X156462288Y-125625445D01*
X156523864Y-125625175D01*
X156593624Y-125625016D01*
X156672272Y-125624941D01*
X156760509Y-125624922D01*
X156766388Y-125624922D01*
X156848493Y-125624936D01*
X156920937Y-125624983D01*
X156984315Y-125625072D01*
X157039218Y-125625211D01*
X157086239Y-125625412D01*
X157125970Y-125625684D01*
X157159004Y-125626035D01*
X157185932Y-125626476D01*
X157207349Y-125627016D01*
X157223845Y-125627666D01*
X157236013Y-125628433D01*
X157244446Y-125629328D01*
X157249736Y-125630361D01*
X157252476Y-125631541D01*
X157253257Y-125632877D01*
X157253282Y-125633219D01*
X157254145Y-125640944D01*
X157256202Y-125658356D01*
X157259400Y-125685015D01*
X157263684Y-125720482D01*
X157269001Y-125764317D01*
X157275297Y-125816079D01*
X157282518Y-125875329D01*
X157290611Y-125941626D01*
X157299522Y-126014532D01*
X157309196Y-126093605D01*
X157319580Y-126178406D01*
X157330621Y-126268495D01*
X157342264Y-126363432D01*
X157354456Y-126462777D01*
X157367142Y-126566090D01*
X157380270Y-126672931D01*
X157393785Y-126782860D01*
X157407633Y-126895438D01*
X157410386Y-126917814D01*
X157424174Y-127029912D01*
X157437617Y-127139279D01*
X157450663Y-127245475D01*
X157463257Y-127348059D01*
X157475345Y-127446591D01*
X157486874Y-127540631D01*
X157497790Y-127629739D01*
X157508038Y-127713475D01*
X157517567Y-127791398D01*
X157518509Y-127799108D01*
X157526320Y-127863069D01*
X157534245Y-127928046D01*
G37*
G36*
X156110875Y-130312807D02*
G01*
X155889602Y-130312807D01*
X155889602Y-129900013D01*
X155851992Y-129901912D01*
X155837273Y-129903073D01*
X155815544Y-129906803D01*
X155801527Y-129912233D01*
X155798759Y-129914942D01*
X155790050Y-129925709D01*
X155776700Y-129943550D01*
X155759366Y-129967543D01*
X155738704Y-129996763D01*
X155715374Y-130030285D01*
X155690030Y-130067187D01*
X155663331Y-130106543D01*
X155633724Y-130150253D01*
X155602796Y-130195342D01*
X155577002Y-130232207D01*
X155556152Y-130261112D01*
X155540053Y-130282322D01*
X155528514Y-130296103D01*
X155521343Y-130302719D01*
X155518040Y-130304663D01*
X155511754Y-130307546D01*
X155503928Y-130309633D01*
X155493104Y-130311025D01*
X155477824Y-130311820D01*
X155456628Y-130312118D01*
X155428060Y-130312018D01*
X155390660Y-130311620D01*
X155276622Y-130310234D01*
X155436786Y-130078670D01*
X155452423Y-130056097D01*
X155482505Y-130012875D01*
X155511023Y-129972158D01*
X155537367Y-129934801D01*
X155560930Y-129901657D01*
X155581103Y-129873581D01*
X155597276Y-129851428D01*
X155608842Y-129836050D01*
X155615191Y-129828303D01*
X155633433Y-129809500D01*
X155611406Y-129789709D01*
X155608172Y-129786550D01*
X155597210Y-129774763D01*
X155580918Y-129756453D01*
X155560108Y-129732566D01*
X155535595Y-129704044D01*
X155508191Y-129671831D01*
X155478710Y-129636870D01*
X155447965Y-129600104D01*
X155430639Y-129579302D01*
X155401446Y-129544259D01*
X155374502Y-129511928D01*
X155350531Y-129483177D01*
X155330255Y-129458871D01*
X155314396Y-129439876D01*
X155303676Y-129427059D01*
X155298819Y-129421285D01*
X155297076Y-129418917D01*
X155296925Y-129416578D01*
X155300128Y-129414863D01*
X155307839Y-129413676D01*
X155321216Y-129412921D01*
X155341415Y-129412501D01*
X155369592Y-129412319D01*
X155406905Y-129412280D01*
X155441778Y-129412312D01*
X155471106Y-129412499D01*
X155492927Y-129412967D01*
X155508693Y-129413846D01*
X155519854Y-129415261D01*
X155527859Y-129417342D01*
X155534161Y-129420214D01*
X155540209Y-129424007D01*
X155545757Y-129428948D01*
X155557662Y-129441484D01*
X155574395Y-129460222D01*
X155595082Y-129484152D01*
X155618851Y-129512259D01*
X155644827Y-129543532D01*
X155672137Y-129576959D01*
X155704138Y-129616456D01*
X155732667Y-129651572D01*
X155756077Y-129680085D01*
X155775089Y-129702700D01*
X155790426Y-129720120D01*
X155802808Y-129733050D01*
X155812958Y-129742191D01*
X155821598Y-129748250D01*
X155829450Y-129751929D01*
X155837235Y-129753931D01*
X155845676Y-129754962D01*
X155855493Y-129755724D01*
X155889602Y-129758462D01*
X155889602Y-129005757D01*
X156110875Y-129005757D01*
X156110875Y-130312807D01*
G37*
G36*
X166517104Y-130311610D02*
G01*
X166219931Y-130309807D01*
X166169132Y-130296007D01*
X166137370Y-130286394D01*
X166075879Y-130261351D01*
X166021468Y-130229922D01*
X165974621Y-130192467D01*
X165935828Y-130149346D01*
X165905574Y-130100921D01*
X165895461Y-130078017D01*
X165882015Y-130033739D01*
X165873723Y-129985706D01*
X165870858Y-129936900D01*
X165870874Y-129936635D01*
X166108210Y-129936635D01*
X166109729Y-129964339D01*
X166118704Y-130006128D01*
X166135849Y-130041707D01*
X166161307Y-130071267D01*
X166195218Y-130095001D01*
X166237723Y-130113101D01*
X166242299Y-130114561D01*
X166252770Y-130117481D01*
X166264045Y-130119796D01*
X166277480Y-130121601D01*
X166294429Y-130122993D01*
X166316248Y-130124068D01*
X166344292Y-130124922D01*
X166379917Y-130125651D01*
X166424479Y-130126351D01*
X166577568Y-130128573D01*
X166577568Y-129755952D01*
X166421906Y-129758453D01*
X166391136Y-129758994D01*
X166348012Y-129759985D01*
X166313450Y-129761153D01*
X166286370Y-129762560D01*
X166265697Y-129764266D01*
X166250352Y-129766333D01*
X166239258Y-129768821D01*
X166206233Y-129780497D01*
X166169925Y-129800376D01*
X166142290Y-129825518D01*
X166123006Y-129856334D01*
X166111753Y-129893236D01*
X166108210Y-129936635D01*
X165870874Y-129936635D01*
X165873694Y-129890306D01*
X165882504Y-129848907D01*
X165887948Y-129833661D01*
X165907327Y-129794946D01*
X165932665Y-129759499D01*
X165961636Y-129730789D01*
X165974188Y-129721531D01*
X166002930Y-129703917D01*
X166035834Y-129687078D01*
X166069077Y-129672895D01*
X166098837Y-129663250D01*
X166126973Y-129656150D01*
X166103983Y-129647087D01*
X166072556Y-129632612D01*
X166031980Y-129607865D01*
X165994864Y-129578533D01*
X165963470Y-129546458D01*
X165940062Y-129513486D01*
X165926816Y-129487031D01*
X165915393Y-129452943D01*
X165910172Y-129420973D01*
X166146336Y-129420973D01*
X166149814Y-129451170D01*
X166160564Y-129488338D01*
X166178588Y-129518882D01*
X166204422Y-129543420D01*
X166238602Y-129562568D01*
X166281661Y-129576943D01*
X166284529Y-129577666D01*
X166298528Y-129580807D01*
X166313001Y-129583190D01*
X166329585Y-129584915D01*
X166349915Y-129586082D01*
X166375628Y-129586792D01*
X166408359Y-129587144D01*
X166449745Y-129587240D01*
X166577568Y-129587240D01*
X166577568Y-129225935D01*
X166439916Y-129228341D01*
X166414574Y-129228824D01*
X166371516Y-129229959D01*
X166336560Y-129231517D01*
X166308252Y-129233715D01*
X166285140Y-129236771D01*
X166265769Y-129240904D01*
X166248685Y-129246330D01*
X166232436Y-129253267D01*
X166215567Y-129261933D01*
X166194202Y-129276750D01*
X166171550Y-129303069D01*
X166155839Y-129336298D01*
X166147343Y-129375808D01*
X166146336Y-129420973D01*
X165910172Y-129420973D01*
X165909245Y-129415296D01*
X165907695Y-129371113D01*
X165908044Y-129357376D01*
X165914531Y-129299639D01*
X165929151Y-129247882D01*
X165952020Y-129201977D01*
X165983257Y-129161795D01*
X166022976Y-129127208D01*
X166071296Y-129098088D01*
X166128332Y-129074305D01*
X166194201Y-129055732D01*
X166203650Y-129053678D01*
X166214310Y-129051697D01*
X166225923Y-129050027D01*
X166239422Y-129048631D01*
X166255741Y-129047475D01*
X166275815Y-129046524D01*
X166300577Y-129045743D01*
X166330961Y-129045095D01*
X166367901Y-129044545D01*
X166412331Y-129044059D01*
X166465185Y-129043601D01*
X166527396Y-129043136D01*
X166814278Y-129041084D01*
X166814278Y-130313414D01*
X166517104Y-130311610D01*
G37*
G36*
X154246323Y-129949270D02*
G01*
X154241079Y-129983390D01*
X154224862Y-130042469D01*
X154198849Y-130103901D01*
X154165161Y-130158893D01*
X154124215Y-130207037D01*
X154076423Y-130247925D01*
X154022202Y-130281147D01*
X153961967Y-130306297D01*
X153896131Y-130322964D01*
X153890332Y-130323756D01*
X153871889Y-130325093D01*
X153846915Y-130325957D01*
X153817946Y-130326278D01*
X153787516Y-130325984D01*
X153767643Y-130325513D01*
X153738766Y-130324403D01*
X153716140Y-130322681D01*
X153697173Y-130320040D01*
X153679277Y-130316171D01*
X153659860Y-130310765D01*
X153643893Y-130305706D01*
X153582754Y-130280166D01*
X153528410Y-130246986D01*
X153481106Y-130206405D01*
X153441088Y-130158663D01*
X153408602Y-130103998D01*
X153383894Y-130042649D01*
X153376245Y-130017071D01*
X153366684Y-129975699D01*
X153360905Y-129933596D01*
X153358546Y-129887695D01*
X153358843Y-129865116D01*
X153586913Y-129865116D01*
X153587280Y-129898403D01*
X153589298Y-129939278D01*
X153593434Y-129973688D01*
X153600090Y-130003831D01*
X153609670Y-130031908D01*
X153622574Y-130060119D01*
X153632713Y-130077132D01*
X153655789Y-130104795D01*
X153683357Y-130127958D01*
X153712376Y-130143787D01*
X153734588Y-130149992D01*
X153763278Y-130154449D01*
X153795033Y-130156951D01*
X153826594Y-130157347D01*
X153854701Y-130155491D01*
X153876096Y-130151233D01*
X153880779Y-130149657D01*
X153919431Y-130131616D01*
X153951758Y-130106487D01*
X153977896Y-130074002D01*
X153997985Y-130033891D01*
X154012163Y-129985886D01*
X154020568Y-129929717D01*
X154023339Y-129865116D01*
X154023278Y-129854713D01*
X154020051Y-129794266D01*
X154011740Y-129741954D01*
X153998102Y-129696942D01*
X153978897Y-129658396D01*
X153953883Y-129625482D01*
X153938647Y-129611206D01*
X153905745Y-129590391D01*
X153867609Y-129576328D01*
X153826070Y-129569252D01*
X153782958Y-129569404D01*
X153740105Y-129577022D01*
X153699341Y-129592343D01*
X153677976Y-129604724D01*
X153652581Y-129626445D01*
X153631476Y-129654518D01*
X153613761Y-129690214D01*
X153598536Y-129734807D01*
X153594284Y-129750694D01*
X153591100Y-129766367D01*
X153588970Y-129783418D01*
X153587695Y-129804075D01*
X153587075Y-129830565D01*
X153586913Y-129865116D01*
X153358843Y-129865116D01*
X153359240Y-129834926D01*
X153359848Y-129820563D01*
X153363269Y-129775021D01*
X153369226Y-129735684D01*
X153378459Y-129699461D01*
X153391706Y-129663259D01*
X153409709Y-129623986D01*
X153420553Y-129602890D01*
X153435939Y-129577109D01*
X153453039Y-129554239D01*
X153474710Y-129530150D01*
X153508494Y-129498116D01*
X153557371Y-129462327D01*
X153610510Y-129435020D01*
X153668655Y-129415902D01*
X153732554Y-129404679D01*
X153802953Y-129401059D01*
X153846434Y-129402452D01*
X153914331Y-129410943D01*
X153976085Y-129427318D01*
X154032218Y-129451777D01*
X154083254Y-129484518D01*
X154129716Y-129525742D01*
X154165641Y-129568715D01*
X154198185Y-129621621D01*
X154223673Y-129679862D01*
X154241163Y-129741616D01*
X154241539Y-129743446D01*
X154246634Y-129778258D01*
X154249658Y-129819561D01*
X154250614Y-129864041D01*
X154250587Y-129865116D01*
X154249502Y-129908382D01*
X154246323Y-129949270D01*
G37*
G36*
X148479420Y-129825477D02*
G01*
X148479469Y-129866424D01*
X148477863Y-129907126D01*
X148474634Y-129944572D01*
X148469810Y-129975753D01*
X148469448Y-129977483D01*
X148450616Y-130045160D01*
X148424079Y-130106558D01*
X148390095Y-130161323D01*
X148348924Y-130209101D01*
X148300824Y-130249537D01*
X148246054Y-130282277D01*
X148199253Y-130302678D01*
X148147645Y-130317817D01*
X148108916Y-130323734D01*
X148063558Y-130327049D01*
X148015477Y-130327657D01*
X147968301Y-130325515D01*
X147925660Y-130320576D01*
X147918643Y-130319390D01*
X147854052Y-130303752D01*
X147794415Y-130280639D01*
X147740900Y-130250591D01*
X147694678Y-130214147D01*
X147661502Y-130183112D01*
X147685874Y-130151832D01*
X147700399Y-130133731D01*
X147715955Y-130115239D01*
X147728747Y-130100897D01*
X147733688Y-130095876D01*
X147745313Y-130086654D01*
X147757520Y-130081990D01*
X147771951Y-130082043D01*
X147790248Y-130086970D01*
X147814054Y-130096929D01*
X147845010Y-130112078D01*
X147856150Y-130117662D01*
X147892091Y-130134349D01*
X147923102Y-130146014D01*
X147951894Y-130153400D01*
X147981172Y-130157250D01*
X148013647Y-130158305D01*
X148037595Y-130157643D01*
X148082340Y-130152133D01*
X148120737Y-130140527D01*
X148154510Y-130122206D01*
X148185386Y-130096548D01*
X148190057Y-130091788D01*
X148215097Y-130059202D01*
X148235014Y-130019407D01*
X148250109Y-129971679D01*
X148260684Y-129915289D01*
X148264058Y-129890846D01*
X147973571Y-129890846D01*
X147945031Y-129890844D01*
X147887212Y-129890816D01*
X147838498Y-129890733D01*
X147798066Y-129890569D01*
X147765092Y-129890297D01*
X147738752Y-129889890D01*
X147718223Y-129889322D01*
X147702680Y-129888565D01*
X147691300Y-129887593D01*
X147683260Y-129886379D01*
X147677735Y-129884897D01*
X147673902Y-129883119D01*
X147670936Y-129881020D01*
X147668059Y-129878552D01*
X147663743Y-129873322D01*
X147660887Y-129865904D01*
X147659094Y-129854272D01*
X147657969Y-129836401D01*
X147657116Y-129810264D01*
X147658982Y-129753194D01*
X147851847Y-129753194D01*
X147851854Y-129753590D01*
X147852579Y-129755787D01*
X147855158Y-129757576D01*
X147860527Y-129758999D01*
X147869626Y-129760097D01*
X147883390Y-129760912D01*
X147902758Y-129761486D01*
X147928667Y-129761861D01*
X147962056Y-129762076D01*
X148003861Y-129762175D01*
X148055020Y-129762199D01*
X148068799Y-129762192D01*
X148112493Y-129762071D01*
X148152472Y-129761815D01*
X148187640Y-129761439D01*
X148216902Y-129760962D01*
X148239160Y-129760398D01*
X148253318Y-129759766D01*
X148258281Y-129759082D01*
X148258076Y-129756218D01*
X148255177Y-129742271D01*
X148249647Y-129722999D01*
X148242510Y-129701540D01*
X148234789Y-129681036D01*
X148227506Y-129664625D01*
X148220588Y-129651934D01*
X148195117Y-129617759D01*
X148163339Y-129591407D01*
X148124807Y-129572569D01*
X148079075Y-129560931D01*
X148048823Y-129557993D01*
X148005644Y-129561096D01*
X147965701Y-129572621D01*
X147930247Y-129591999D01*
X147900538Y-129618663D01*
X147877826Y-129652045D01*
X147877621Y-129652450D01*
X147871083Y-129668674D01*
X147864245Y-129690720D01*
X147858099Y-129714729D01*
X147853636Y-129736840D01*
X147851847Y-129753194D01*
X147658982Y-129753194D01*
X147659192Y-129746755D01*
X147669695Y-129683385D01*
X147688375Y-129625048D01*
X147714848Y-129572269D01*
X147748727Y-129525573D01*
X147789628Y-129485486D01*
X147837164Y-129452535D01*
X147890949Y-129427244D01*
X147950599Y-129410140D01*
X147984013Y-129405281D01*
X148023967Y-129402689D01*
X148066057Y-129402472D01*
X148106312Y-129404649D01*
X148140760Y-129409239D01*
X148188954Y-129421276D01*
X148248787Y-129444962D01*
X148302977Y-129476896D01*
X148351036Y-129516583D01*
X148392470Y-129563529D01*
X148426790Y-129617239D01*
X148453504Y-129677218D01*
X148472120Y-129742972D01*
X148474241Y-129754886D01*
X148474687Y-129759082D01*
X148477688Y-129787294D01*
X148479420Y-129825477D01*
G37*
G36*
X167217280Y-129041804D02*
G01*
X167246380Y-129041975D01*
X167267850Y-129042421D01*
X167283110Y-129043274D01*
X167293580Y-129044663D01*
X167300681Y-129046720D01*
X167305832Y-129049574D01*
X167310454Y-129053356D01*
X167313956Y-129057914D01*
X167322348Y-129071315D01*
X167334699Y-129092437D01*
X167350584Y-129120474D01*
X167369575Y-129154622D01*
X167391245Y-129194077D01*
X167415169Y-129238032D01*
X167440919Y-129285684D01*
X167468068Y-129336228D01*
X167496190Y-129388858D01*
X167524858Y-129442770D01*
X167553644Y-129497159D01*
X167582124Y-129551221D01*
X167609869Y-129604149D01*
X167636453Y-129655140D01*
X167661449Y-129703389D01*
X167684430Y-129748090D01*
X167704970Y-129788440D01*
X167722642Y-129823632D01*
X167737020Y-129852863D01*
X167747675Y-129875327D01*
X167754182Y-129890220D01*
X167756293Y-129894493D01*
X167759121Y-129895486D01*
X167763037Y-129890592D01*
X167768944Y-129878585D01*
X167777747Y-129858239D01*
X167780180Y-129852755D01*
X167788634Y-129835095D01*
X167801063Y-129810246D01*
X167817029Y-129779022D01*
X167836093Y-129742240D01*
X167857817Y-129700713D01*
X167881763Y-129655256D01*
X167907492Y-129606684D01*
X167934565Y-129555813D01*
X167962544Y-129503456D01*
X167990992Y-129450429D01*
X168019468Y-129397546D01*
X168047536Y-129345623D01*
X168074757Y-129295474D01*
X168100692Y-129247914D01*
X168124903Y-129203757D01*
X168146951Y-129163820D01*
X168166398Y-129128915D01*
X168182806Y-129099859D01*
X168195736Y-129077466D01*
X168204750Y-129062551D01*
X168209410Y-129055929D01*
X168224408Y-129041778D01*
X168450664Y-129041778D01*
X168450664Y-130312807D01*
X168239218Y-130312807D01*
X168240737Y-129855251D01*
X168240947Y-129790382D01*
X168241147Y-129725657D01*
X168241324Y-129664664D01*
X168241477Y-129608133D01*
X168241605Y-129556792D01*
X168241706Y-129511371D01*
X168241778Y-129472597D01*
X168241820Y-129441200D01*
X168241830Y-129417908D01*
X168241807Y-129403450D01*
X168241749Y-129398555D01*
X168241586Y-129398854D01*
X168238006Y-129405507D01*
X168230017Y-129420368D01*
X168217991Y-129442747D01*
X168202298Y-129471954D01*
X168183310Y-129507299D01*
X168161397Y-129548090D01*
X168136930Y-129593636D01*
X168110281Y-129643249D01*
X168081820Y-129696236D01*
X168051918Y-129751907D01*
X168046254Y-129762450D01*
X168016218Y-129818260D01*
X167987421Y-129871608D01*
X167960265Y-129921758D01*
X167935151Y-129967975D01*
X167912482Y-130009526D01*
X167892658Y-130045675D01*
X167876082Y-130075688D01*
X167863155Y-130098830D01*
X167854279Y-130114366D01*
X167849855Y-130121561D01*
X167841670Y-130131763D01*
X167827131Y-130144954D01*
X167810129Y-130153104D01*
X167788115Y-130157242D01*
X167758545Y-130158392D01*
X167740637Y-130158042D01*
X167715634Y-130155306D01*
X167696771Y-130148994D01*
X167681524Y-130138086D01*
X167667366Y-130121561D01*
X167667146Y-130121250D01*
X167662307Y-130113184D01*
X167653101Y-130096834D01*
X167639929Y-130072943D01*
X167623193Y-130042255D01*
X167603295Y-130005515D01*
X167580637Y-129963465D01*
X167555621Y-129916851D01*
X167528648Y-129866414D01*
X167500121Y-129812901D01*
X167470441Y-129757053D01*
X167466150Y-129748967D01*
X167436901Y-129693884D01*
X167409078Y-129641539D01*
X167383058Y-129592638D01*
X167359216Y-129547889D01*
X167337932Y-129507996D01*
X167319581Y-129473667D01*
X167304540Y-129445606D01*
X167293187Y-129424521D01*
X167285899Y-129411118D01*
X167283052Y-129406102D01*
X167282640Y-129410012D01*
X167282252Y-129423479D01*
X167281918Y-129445835D01*
X167281642Y-129476352D01*
X167281425Y-129514308D01*
X167281271Y-129558977D01*
X167281182Y-129609635D01*
X167281160Y-129665556D01*
X167281208Y-129726016D01*
X167281329Y-129790289D01*
X167281523Y-129857652D01*
X167283068Y-130312807D01*
X167071572Y-130312807D01*
X167071572Y-129041778D01*
X167184494Y-129041778D01*
X167217280Y-129041804D01*
G37*
G36*
X162454960Y-125560582D02*
G01*
X162500749Y-125571501D01*
X162544377Y-125590993D01*
X162584805Y-125618913D01*
X162620996Y-125655117D01*
X162651911Y-125699459D01*
X162665748Y-125727767D01*
X162679849Y-125772303D01*
X162687024Y-125819178D01*
X162686895Y-125865480D01*
X162679083Y-125908297D01*
X162677018Y-125915025D01*
X162656100Y-125964054D01*
X162626859Y-126007556D01*
X162590064Y-126044732D01*
X162546487Y-126074787D01*
X162496896Y-126096922D01*
X162476458Y-126102503D01*
X162438630Y-126107725D01*
X162399264Y-126107979D01*
X162363103Y-126103049D01*
X162335926Y-126094699D01*
X162294722Y-126074441D01*
X162255587Y-126046619D01*
X162220164Y-126012874D01*
X162190092Y-125974847D01*
X162167011Y-125934178D01*
X162152561Y-125892507D01*
X162148422Y-125869181D01*
X162147093Y-125820196D01*
X162155008Y-125771176D01*
X162171668Y-125723766D01*
X162196572Y-125679612D01*
X162229219Y-125640359D01*
X162229914Y-125639669D01*
X162270944Y-125605543D01*
X162315001Y-125580717D01*
X162361048Y-125565045D01*
X162408047Y-125558382D01*
X162454960Y-125560582D01*
G37*
G36*
X154463388Y-129017551D02*
G01*
X154496534Y-129019889D01*
X154523375Y-129023846D01*
X154526878Y-129024606D01*
X154579932Y-129041201D01*
X154627886Y-129065899D01*
X154669807Y-129097994D01*
X154704759Y-129136777D01*
X154731809Y-129181542D01*
X154736492Y-129191603D01*
X154751046Y-129229048D01*
X154760678Y-129267020D01*
X154766022Y-129308623D01*
X154767714Y-129356962D01*
X154767803Y-129417426D01*
X154901596Y-129417426D01*
X154901596Y-129475458D01*
X154901382Y-129495223D01*
X154899412Y-129522428D01*
X154894204Y-129542061D01*
X154884351Y-129555735D01*
X154868443Y-129565063D01*
X154845072Y-129571660D01*
X154812830Y-129577137D01*
X154767803Y-129583751D01*
X154767803Y-130313011D01*
X154658454Y-130311623D01*
X154549104Y-130310234D01*
X154547783Y-129941018D01*
X154546463Y-129571802D01*
X154320113Y-129571802D01*
X154320113Y-129417426D01*
X154558258Y-129417426D01*
X154555401Y-129359535D01*
X154553690Y-129333619D01*
X154549232Y-129298617D01*
X154542230Y-129270720D01*
X154532151Y-129248042D01*
X154518462Y-129228696D01*
X154507146Y-129217106D01*
X154489584Y-129204824D01*
X154467725Y-129195882D01*
X154439588Y-129189532D01*
X154403197Y-129185022D01*
X154387722Y-129183435D01*
X154365463Y-129180637D01*
X154347772Y-129177796D01*
X154337495Y-129175331D01*
X154336330Y-129174865D01*
X154327359Y-129168740D01*
X154321199Y-129158254D01*
X154317501Y-129141948D01*
X154315915Y-129118364D01*
X154316092Y-129086044D01*
X154317540Y-129028913D01*
X154345842Y-129022977D01*
X154361597Y-129020420D01*
X154392372Y-129017799D01*
X154427485Y-129016848D01*
X154463388Y-129017551D01*
G37*
G36*
X154924320Y-126380078D02*
G01*
X154924339Y-126380204D01*
X154925333Y-126387865D01*
X154927477Y-126405174D01*
X154930705Y-126431588D01*
X154934951Y-126466566D01*
X154940151Y-126509564D01*
X154946239Y-126560039D01*
X154953150Y-126617451D01*
X154960819Y-126681255D01*
X154969181Y-126750909D01*
X154978170Y-126825871D01*
X154987721Y-126905598D01*
X154997769Y-126989548D01*
X155008249Y-127077178D01*
X155019096Y-127167945D01*
X155030244Y-127261308D01*
X155030785Y-127265841D01*
X155041925Y-127359138D01*
X155052761Y-127449841D01*
X155063228Y-127537406D01*
X155073262Y-127621287D01*
X155082797Y-127700941D01*
X155091766Y-127775822D01*
X155100106Y-127845385D01*
X155107750Y-127909087D01*
X155114634Y-127966382D01*
X155120691Y-128016725D01*
X155125857Y-128059573D01*
X155130066Y-128094380D01*
X155133253Y-128120602D01*
X155135352Y-128137693D01*
X155136299Y-128145110D01*
X155139474Y-128166980D01*
X154922764Y-128166980D01*
X154897511Y-128166966D01*
X154853086Y-128166869D01*
X154812582Y-128166689D01*
X154777063Y-128166435D01*
X154747588Y-128166119D01*
X154725221Y-128165749D01*
X154711022Y-128165338D01*
X154706053Y-128164894D01*
X154706043Y-128164763D01*
X154705294Y-128158117D01*
X154703406Y-128141966D01*
X154700454Y-128116943D01*
X154696514Y-128083682D01*
X154691662Y-128042817D01*
X154685974Y-127994981D01*
X154679524Y-127940807D01*
X154672390Y-127880930D01*
X154664646Y-127815983D01*
X154656369Y-127746599D01*
X154647635Y-127673413D01*
X154638518Y-127597057D01*
X154629096Y-127518165D01*
X154619442Y-127437371D01*
X154609635Y-127355308D01*
X154599748Y-127272610D01*
X154589858Y-127189911D01*
X154580041Y-127107843D01*
X154570372Y-127027042D01*
X154560927Y-126948140D01*
X154551782Y-126871770D01*
X154543013Y-126798567D01*
X154534695Y-126729164D01*
X154526904Y-126664195D01*
X154519716Y-126604292D01*
X154513207Y-126550091D01*
X154507452Y-126502224D01*
X154502527Y-126461324D01*
X154498509Y-126428027D01*
X154495471Y-126402964D01*
X154493492Y-126386770D01*
X154492645Y-126380078D01*
X154489805Y-126360781D01*
X154921275Y-126360781D01*
X154924320Y-126380078D01*
G37*
G36*
X159254477Y-127300996D02*
G01*
X159261394Y-127406129D01*
X159259652Y-127512874D01*
X159257517Y-127542394D01*
X159245045Y-127633289D01*
X159224004Y-127718631D01*
X159194426Y-127798343D01*
X159156341Y-127872351D01*
X159109782Y-127940580D01*
X159054779Y-128002955D01*
X159049518Y-128008176D01*
X158988447Y-128061062D01*
X158921955Y-128105222D01*
X158850200Y-128140577D01*
X158773339Y-128167050D01*
X158691527Y-128184562D01*
X158682710Y-128185749D01*
X158657294Y-128188165D01*
X158626156Y-128190169D01*
X158592439Y-128191578D01*
X158559284Y-128192211D01*
X158464066Y-128189304D01*
X158370236Y-128178593D01*
X158281474Y-128159720D01*
X158196782Y-128132358D01*
X158115163Y-128096183D01*
X158035619Y-128050871D01*
X157957151Y-127996096D01*
X157954955Y-127994414D01*
X157934619Y-127978313D01*
X157910548Y-127958522D01*
X157884417Y-127936496D01*
X157857902Y-127913687D01*
X157832677Y-127891548D01*
X157810419Y-127871534D01*
X157792801Y-127855098D01*
X157781500Y-127843694D01*
X157779562Y-127841450D01*
X157777442Y-127837650D01*
X157777538Y-127832976D01*
X157780586Y-127826263D01*
X157787320Y-127816343D01*
X157798477Y-127802051D01*
X157814793Y-127782219D01*
X157837002Y-127755681D01*
X157838124Y-127754345D01*
X157859215Y-127729817D01*
X157879130Y-127707671D01*
X157896542Y-127689309D01*
X157910123Y-127676135D01*
X157918545Y-127669550D01*
X157921858Y-127668005D01*
X157941719Y-127662770D01*
X157966877Y-127660829D01*
X157975598Y-127661136D01*
X157999023Y-127665132D01*
X158024770Y-127674203D01*
X158054050Y-127688928D01*
X158088075Y-127709885D01*
X158128055Y-127737650D01*
X158187260Y-127776774D01*
X158246703Y-127807986D01*
X158307651Y-127831560D01*
X158372483Y-127848574D01*
X158389697Y-127851317D01*
X158420308Y-127853922D01*
X158455551Y-127855063D01*
X158492457Y-127854779D01*
X158528057Y-127853111D01*
X158559383Y-127850096D01*
X158583464Y-127845775D01*
X158599760Y-127841265D01*
X158653246Y-127820530D01*
X158699671Y-127792409D01*
X158739160Y-127756774D01*
X158771835Y-127713497D01*
X158797820Y-127662451D01*
X158817238Y-127603508D01*
X158817505Y-127602450D01*
X158821049Y-127585340D01*
X158824758Y-127562664D01*
X158828423Y-127536391D01*
X158831831Y-127508489D01*
X158834772Y-127480926D01*
X158837034Y-127455670D01*
X158838406Y-127434688D01*
X158838677Y-127419949D01*
X158837636Y-127413421D01*
X158836749Y-127413032D01*
X158827977Y-127411242D01*
X158811530Y-127408730D01*
X158789327Y-127405774D01*
X158763285Y-127402651D01*
X158683992Y-127392971D01*
X158556160Y-127374293D01*
X158438101Y-127352902D01*
X158329705Y-127328749D01*
X158230862Y-127301789D01*
X158141462Y-127271974D01*
X158061395Y-127239258D01*
X157990551Y-127203594D01*
X157928820Y-127164934D01*
X157876091Y-127123231D01*
X157832255Y-127078440D01*
X157797201Y-127030512D01*
X157770821Y-126979401D01*
X157763061Y-126959672D01*
X157747449Y-126907277D01*
X157738332Y-126851821D01*
X157735295Y-126792805D01*
X158129291Y-126792805D01*
X158131901Y-126834082D01*
X158143838Y-126878280D01*
X158147798Y-126887910D01*
X158167385Y-126919630D01*
X158196386Y-126949465D01*
X158234895Y-126977456D01*
X158283006Y-127003645D01*
X158340817Y-127028074D01*
X158408420Y-127050783D01*
X158485913Y-127071816D01*
X158573389Y-127091213D01*
X158670943Y-127109016D01*
X158702385Y-127114227D01*
X158734171Y-127119430D01*
X158757902Y-127123133D01*
X158774753Y-127125428D01*
X158785899Y-127126411D01*
X158792515Y-127126175D01*
X158795778Y-127124814D01*
X158796861Y-127122423D01*
X158796941Y-127119094D01*
X158795566Y-127110128D01*
X158790763Y-127092273D01*
X158783204Y-127068618D01*
X158773616Y-127041160D01*
X158762722Y-127011895D01*
X158751247Y-126982821D01*
X158739918Y-126955933D01*
X158729458Y-126933229D01*
X158726329Y-126926923D01*
X158688326Y-126860330D01*
X158645440Y-126801960D01*
X158598018Y-126752092D01*
X158546406Y-126711007D01*
X158490954Y-126678985D01*
X158432007Y-126656306D01*
X158369914Y-126643251D01*
X158359686Y-126642075D01*
X158308176Y-126640873D01*
X158261051Y-126648353D01*
X158217092Y-126664686D01*
X158207798Y-126669517D01*
X158175262Y-126692805D01*
X158151188Y-126721535D01*
X158135792Y-126755079D01*
X158129291Y-126792805D01*
X157735295Y-126792805D01*
X157735174Y-126790461D01*
X157735158Y-126785940D01*
X157736104Y-126746165D01*
X157739580Y-126712710D01*
X157746330Y-126682099D01*
X157757097Y-126650854D01*
X157772626Y-126615501D01*
X157800663Y-126565198D01*
X157840476Y-126513492D01*
X157888881Y-126467361D01*
X157945926Y-126426762D01*
X158011658Y-126391651D01*
X158012226Y-126391389D01*
X158059652Y-126371597D01*
X158106636Y-126356553D01*
X158155235Y-126345904D01*
X158207510Y-126339297D01*
X158265517Y-126336379D01*
X158331316Y-126336795D01*
X158332343Y-126336824D01*
X158400498Y-126340423D01*
X158461598Y-126347529D01*
X158518447Y-126358828D01*
X158573848Y-126375004D01*
X158630607Y-126396741D01*
X158691527Y-126424724D01*
X158699892Y-126428881D01*
X158780601Y-126475212D01*
X158856227Y-126530001D01*
X158926445Y-126592625D01*
X158990928Y-126662461D01*
X159049354Y-126738888D01*
X159101395Y-126821283D01*
X159146728Y-126909024D01*
X159185028Y-127001488D01*
X159215969Y-127098053D01*
X159220861Y-127119094D01*
X159239227Y-127198096D01*
X159254477Y-127300996D01*
G37*
G36*
X152088654Y-129919273D02*
G01*
X152114576Y-129985297D01*
X152138710Y-130046816D01*
X152160835Y-130103269D01*
X152180730Y-130154092D01*
X152198174Y-130198720D01*
X152212948Y-130236591D01*
X152224829Y-130267141D01*
X152233599Y-130289807D01*
X152239035Y-130304024D01*
X152240918Y-130309231D01*
X152240299Y-130309673D01*
X152232160Y-130310733D01*
X152215756Y-130311511D01*
X152192573Y-130311973D01*
X152164103Y-130312082D01*
X152131833Y-130311804D01*
X152123022Y-130311675D01*
X152088434Y-130311071D01*
X152062362Y-130310343D01*
X152043351Y-130309352D01*
X152029943Y-130307957D01*
X152020681Y-130306017D01*
X152014108Y-130303392D01*
X152008766Y-130299942D01*
X152004160Y-130296273D01*
X151997645Y-130289894D01*
X151991374Y-130281643D01*
X151984826Y-130270402D01*
X151977478Y-130255049D01*
X151968808Y-130234465D01*
X151958296Y-130207531D01*
X151945419Y-130173125D01*
X151929655Y-130130129D01*
X151882744Y-130001482D01*
X151620705Y-130000178D01*
X151358666Y-129998875D01*
X151309781Y-130133763D01*
X151302208Y-130154566D01*
X151287117Y-130195162D01*
X151274454Y-130227503D01*
X151263666Y-130252641D01*
X151254196Y-130271629D01*
X151245492Y-130285521D01*
X151236997Y-130295367D01*
X151228158Y-130302222D01*
X151218419Y-130307137D01*
X151217175Y-130307586D01*
X151203561Y-130309860D01*
X151179710Y-130311291D01*
X151145615Y-130311882D01*
X151101268Y-130311631D01*
X150998338Y-130310234D01*
X151188560Y-129826542D01*
X151422990Y-129826542D01*
X151423235Y-129826669D01*
X151430306Y-129827228D01*
X151446316Y-129827739D01*
X151470158Y-129828189D01*
X151500721Y-129828564D01*
X151536898Y-129828850D01*
X151577579Y-129829032D01*
X151621656Y-129829095D01*
X151628426Y-129829095D01*
X151677682Y-129829066D01*
X151717693Y-129828958D01*
X151749391Y-129828727D01*
X151773708Y-129828332D01*
X151791575Y-129827729D01*
X151803924Y-129826875D01*
X151811688Y-129825728D01*
X151815797Y-129824243D01*
X151817183Y-129822378D01*
X151816779Y-129820090D01*
X151814201Y-129813513D01*
X151803285Y-129785246D01*
X151790318Y-129751150D01*
X151775737Y-129712416D01*
X151759978Y-129670233D01*
X151743476Y-129625791D01*
X151726668Y-129580278D01*
X151709991Y-129534884D01*
X151693880Y-129490799D01*
X151678771Y-129449211D01*
X151665101Y-129411311D01*
X151653305Y-129378288D01*
X151643821Y-129351331D01*
X151637084Y-129331629D01*
X151633529Y-129320372D01*
X151621752Y-129277350D01*
X151597631Y-129348675D01*
X151596317Y-129352535D01*
X151588360Y-129375329D01*
X151577462Y-129405896D01*
X151564178Y-129442711D01*
X151549060Y-129484252D01*
X151532664Y-129528996D01*
X151515543Y-129575417D01*
X151498250Y-129621994D01*
X151489918Y-129644373D01*
X151474399Y-129686140D01*
X151460245Y-129724349D01*
X151447828Y-129757986D01*
X151437521Y-129786038D01*
X151429697Y-129807491D01*
X151424729Y-129821330D01*
X151422990Y-129826542D01*
X151188560Y-129826542D01*
X151497254Y-129041600D01*
X151620782Y-129042975D01*
X151744310Y-129044351D01*
X151992482Y-129674719D01*
X152002361Y-129699816D01*
X152032326Y-129775969D01*
X152050574Y-129822378D01*
X152061163Y-129849309D01*
X152088654Y-129919273D01*
G37*
G36*
X169577897Y-129184660D02*
G01*
X169600607Y-129204106D01*
X169636591Y-129234920D01*
X169670326Y-129263809D01*
X169700885Y-129289979D01*
X169727338Y-129312634D01*
X169748759Y-129330980D01*
X169764218Y-129344222D01*
X169772788Y-129351566D01*
X169795003Y-129370612D01*
X169756181Y-129423883D01*
X169755116Y-129425339D01*
X169739246Y-129446047D01*
X169724323Y-129463848D01*
X169711978Y-129476888D01*
X169703846Y-129483311D01*
X169695050Y-129486320D01*
X169674819Y-129489129D01*
X169654060Y-129488194D01*
X169637823Y-129483500D01*
X169635000Y-129481657D01*
X169624319Y-129473628D01*
X169607727Y-129460520D01*
X169586501Y-129443360D01*
X169561915Y-129423173D01*
X169535244Y-129400985D01*
X169443816Y-129324439D01*
X169443816Y-130148139D01*
X169701110Y-130148139D01*
X169701110Y-130312807D01*
X168996126Y-130312807D01*
X168996126Y-130148139D01*
X169222498Y-130148139D01*
X169223807Y-129593672D01*
X169225117Y-129039205D01*
X169315170Y-129038003D01*
X169405222Y-129036801D01*
X169577897Y-129184660D01*
G37*
G36*
X160664967Y-129638698D02*
G01*
X161004594Y-129638698D01*
X161004594Y-129798220D01*
X160664967Y-129798220D01*
X160664967Y-130163577D01*
X160484862Y-130163577D01*
X160484862Y-129798220D01*
X160140089Y-129798220D01*
X160140089Y-129638698D01*
X160484862Y-129638698D01*
X160484862Y-129278488D01*
X160664967Y-129278488D01*
X160664967Y-129638698D01*
G37*
G36*
X161695764Y-129041804D02*
G01*
X161724865Y-129041975D01*
X161746335Y-129042421D01*
X161761595Y-129043274D01*
X161772065Y-129044663D01*
X161779165Y-129046720D01*
X161784316Y-129049574D01*
X161788938Y-129053356D01*
X161792441Y-129057914D01*
X161800832Y-129071315D01*
X161813184Y-129092437D01*
X161829068Y-129120474D01*
X161848059Y-129154622D01*
X161869730Y-129194077D01*
X161893654Y-129238032D01*
X161919403Y-129285684D01*
X161946553Y-129336228D01*
X161974674Y-129388858D01*
X162003342Y-129442770D01*
X162032129Y-129497159D01*
X162060608Y-129551221D01*
X162088353Y-129604149D01*
X162114937Y-129655140D01*
X162139933Y-129703389D01*
X162162915Y-129748090D01*
X162183455Y-129788440D01*
X162201127Y-129823632D01*
X162215504Y-129852863D01*
X162226160Y-129875327D01*
X162232667Y-129890220D01*
X162234778Y-129894493D01*
X162237606Y-129895486D01*
X162241521Y-129890592D01*
X162247429Y-129878585D01*
X162256231Y-129858239D01*
X162258664Y-129852755D01*
X162267118Y-129835095D01*
X162279548Y-129810246D01*
X162295514Y-129779022D01*
X162314578Y-129742240D01*
X162336302Y-129700713D01*
X162360248Y-129655256D01*
X162385976Y-129606684D01*
X162413049Y-129555813D01*
X162441029Y-129503456D01*
X162469476Y-129450429D01*
X162497953Y-129397546D01*
X162526021Y-129345623D01*
X162553242Y-129295474D01*
X162579176Y-129247914D01*
X162603387Y-129203757D01*
X162625435Y-129163820D01*
X162644883Y-129128915D01*
X162661291Y-129099859D01*
X162674221Y-129077466D01*
X162683235Y-129062551D01*
X162687895Y-129055929D01*
X162702893Y-129041778D01*
X162929149Y-129041778D01*
X162929149Y-130312807D01*
X162717702Y-130312807D01*
X162719222Y-129855251D01*
X162719432Y-129790382D01*
X162719631Y-129725657D01*
X162719808Y-129664664D01*
X162719962Y-129608133D01*
X162720089Y-129556792D01*
X162720190Y-129511371D01*
X162720263Y-129472597D01*
X162720305Y-129441200D01*
X162720315Y-129417908D01*
X162720292Y-129403450D01*
X162720233Y-129398555D01*
X162720071Y-129398854D01*
X162716491Y-129405507D01*
X162708502Y-129420368D01*
X162696476Y-129442747D01*
X162680783Y-129471954D01*
X162661794Y-129507299D01*
X162639881Y-129548090D01*
X162615415Y-129593636D01*
X162588765Y-129643249D01*
X162560305Y-129696236D01*
X162530403Y-129751907D01*
X162524739Y-129762450D01*
X162494702Y-129818260D01*
X162465905Y-129871608D01*
X162438749Y-129921758D01*
X162413636Y-129967975D01*
X162390966Y-130009526D01*
X162371143Y-130045675D01*
X162354567Y-130075688D01*
X162341640Y-130098830D01*
X162332763Y-130114366D01*
X162328339Y-130121561D01*
X162320154Y-130131763D01*
X162305616Y-130144954D01*
X162288613Y-130153104D01*
X162266600Y-130157242D01*
X162237029Y-130158392D01*
X162219122Y-130158042D01*
X162194119Y-130155306D01*
X162175256Y-130148994D01*
X162160008Y-130138086D01*
X162145851Y-130121561D01*
X162145630Y-130121250D01*
X162140792Y-130113184D01*
X162131585Y-130096834D01*
X162118413Y-130072943D01*
X162101677Y-130042255D01*
X162081780Y-130005515D01*
X162059122Y-129963465D01*
X162034105Y-129916851D01*
X162007133Y-129866414D01*
X161978605Y-129812901D01*
X161948925Y-129757053D01*
X161944634Y-129748967D01*
X161915386Y-129693884D01*
X161887563Y-129641539D01*
X161861542Y-129592638D01*
X161837701Y-129547889D01*
X161816416Y-129507996D01*
X161798065Y-129473667D01*
X161783025Y-129445606D01*
X161771672Y-129424521D01*
X161764383Y-129411118D01*
X161761537Y-129406102D01*
X161761125Y-129410012D01*
X161760736Y-129423479D01*
X161760402Y-129445835D01*
X161760126Y-129476352D01*
X161759910Y-129514308D01*
X161759756Y-129558977D01*
X161759667Y-129609635D01*
X161759645Y-129665556D01*
X161759693Y-129726016D01*
X161759813Y-129790289D01*
X161760008Y-129857652D01*
X161761552Y-130312807D01*
X161550056Y-130312807D01*
X161550056Y-129041778D01*
X161662978Y-129041778D01*
X161695764Y-129041804D01*
G37*
G36*
X147100461Y-130312807D02*
G01*
X146858606Y-130312807D01*
X146858606Y-129041778D01*
X147100461Y-129041778D01*
X147100461Y-130312807D01*
G37*
G36*
X153527643Y-126332901D02*
G01*
X153561031Y-126333330D01*
X153587648Y-126334177D01*
X153609433Y-126335573D01*
X153628329Y-126337652D01*
X153646277Y-126340543D01*
X153665217Y-126344380D01*
X153721287Y-126358744D01*
X153799086Y-126386674D01*
X153871187Y-126422346D01*
X153937116Y-126465295D01*
X153996401Y-126515052D01*
X154048570Y-126571152D01*
X154093150Y-126633128D01*
X154129668Y-126700512D01*
X154157652Y-126772837D01*
X154176629Y-126849638D01*
X154178675Y-126862778D01*
X154181897Y-126897121D01*
X154183291Y-126935889D01*
X154182920Y-126976161D01*
X154180844Y-127015017D01*
X154177126Y-127049535D01*
X154171827Y-127076795D01*
X154153518Y-127129178D01*
X154124613Y-127182908D01*
X154087100Y-127231589D01*
X154041467Y-127274596D01*
X153988204Y-127311303D01*
X153968198Y-127322342D01*
X153928240Y-127341820D01*
X153879251Y-127363182D01*
X153821846Y-127386162D01*
X153756640Y-127410498D01*
X153715232Y-127425787D01*
X153671547Y-127442940D01*
X153635422Y-127458605D01*
X153605542Y-127473446D01*
X153580588Y-127488127D01*
X153559244Y-127503313D01*
X153540193Y-127519668D01*
X153521592Y-127539204D01*
X153498834Y-127573492D01*
X153485842Y-127610709D01*
X153482492Y-127651283D01*
X153488658Y-127695638D01*
X153490858Y-127704459D01*
X153504833Y-127743686D01*
X153525252Y-127777610D01*
X153553999Y-127809516D01*
X153583877Y-127833684D01*
X153628977Y-127858639D01*
X153682025Y-127877095D01*
X153684880Y-127877821D01*
X153712689Y-127882547D01*
X153746926Y-127885329D01*
X153784318Y-127886167D01*
X153821594Y-127885064D01*
X153855483Y-127882019D01*
X153882714Y-127877035D01*
X153916607Y-127865999D01*
X153959613Y-127847208D01*
X154004270Y-127823197D01*
X154047841Y-127795322D01*
X154054645Y-127790580D01*
X154079842Y-127773147D01*
X154098697Y-127760615D01*
X154112916Y-127752170D01*
X154124201Y-127747000D01*
X154134257Y-127744293D01*
X154144788Y-127743235D01*
X154157499Y-127743013D01*
X154169201Y-127743149D01*
X154189412Y-127744890D01*
X154207196Y-127749339D01*
X154223610Y-127757395D01*
X154239710Y-127769960D01*
X154256554Y-127787934D01*
X154275198Y-127812217D01*
X154296699Y-127843712D01*
X154322113Y-127883317D01*
X154378144Y-127972167D01*
X154355561Y-127995607D01*
X154344398Y-128006770D01*
X154294958Y-128048498D01*
X154237662Y-128086430D01*
X154174138Y-128119786D01*
X154106013Y-128147781D01*
X154034916Y-128169634D01*
X153962475Y-128184562D01*
X153932266Y-128188360D01*
X153875784Y-128191994D01*
X153814787Y-128192296D01*
X153752509Y-128189367D01*
X153692186Y-128183311D01*
X153637051Y-128174230D01*
X153615219Y-128169357D01*
X153540316Y-128146792D01*
X153467225Y-128116014D01*
X153397841Y-128078023D01*
X153334060Y-128033820D01*
X153277775Y-127984406D01*
X153245435Y-127950512D01*
X153212919Y-127911101D01*
X153185089Y-127870057D01*
X153159461Y-127824009D01*
X153154659Y-127814416D01*
X153127981Y-127751396D01*
X153109545Y-127687111D01*
X153098850Y-127619391D01*
X153095396Y-127546064D01*
X153095438Y-127537546D01*
X153098260Y-127481426D01*
X153105954Y-127432287D01*
X153119130Y-127388001D01*
X153138398Y-127346440D01*
X153164368Y-127305476D01*
X153186203Y-127277426D01*
X153210643Y-127251345D01*
X153238538Y-127226770D01*
X153270821Y-127203124D01*
X153308422Y-127179829D01*
X153352273Y-127156308D01*
X153403306Y-127131986D01*
X153462451Y-127106284D01*
X153530640Y-127078627D01*
X153577910Y-127059562D01*
X153625510Y-127039136D01*
X153665004Y-127020476D01*
X153697360Y-127003003D01*
X153723550Y-126986142D01*
X153744541Y-126969317D01*
X153761304Y-126951951D01*
X153774808Y-126933468D01*
X153776328Y-126931020D01*
X153791956Y-126895844D01*
X153798466Y-126858017D01*
X153796098Y-126819015D01*
X153785096Y-126780316D01*
X153765701Y-126743397D01*
X153738155Y-126709735D01*
X153709848Y-126685921D01*
X153670913Y-126664062D01*
X153625395Y-126648753D01*
X153572695Y-126639801D01*
X153512212Y-126637012D01*
X153500709Y-126637105D01*
X153466893Y-126638283D01*
X153437003Y-126641253D01*
X153408917Y-126646604D01*
X153380513Y-126654925D01*
X153349668Y-126666803D01*
X153314259Y-126682828D01*
X153272166Y-126703588D01*
X153253572Y-126712946D01*
X153226399Y-126726330D01*
X153205782Y-126735873D01*
X153190090Y-126742203D01*
X153177694Y-126745948D01*
X153166961Y-126747735D01*
X153156263Y-126748191D01*
X153147772Y-126747862D01*
X153127793Y-126744900D01*
X153112297Y-126739758D01*
X153108353Y-126737172D01*
X153097963Y-126727467D01*
X153083749Y-126711250D01*
X153065372Y-126688087D01*
X153042493Y-126657542D01*
X153014772Y-126619180D01*
X152981871Y-126572567D01*
X152959031Y-126539925D01*
X152989780Y-126511247D01*
X153005162Y-126497643D01*
X153046652Y-126465961D01*
X153094310Y-126435114D01*
X153145332Y-126406714D01*
X153196917Y-126382373D01*
X153246262Y-126363703D01*
X153252632Y-126361659D01*
X153283729Y-126352341D01*
X153312449Y-126345191D01*
X153340901Y-126339947D01*
X153371193Y-126336346D01*
X153405435Y-126334125D01*
X153445735Y-126333020D01*
X153494201Y-126332769D01*
X153527643Y-126332901D01*
G37*
G36*
X152754427Y-129393509D02*
G01*
X152776421Y-129395567D01*
X152793877Y-129399144D01*
X152810927Y-129405277D01*
X152831705Y-129415004D01*
X152853629Y-129427716D01*
X152884702Y-129450747D01*
X152915401Y-129478392D01*
X152942883Y-129508035D01*
X152964305Y-129537058D01*
X152970918Y-129547188D01*
X152978442Y-129557501D01*
X152982547Y-129561501D01*
X152983886Y-129558371D01*
X152986235Y-129546887D01*
X152989011Y-129528942D01*
X152991860Y-129506629D01*
X152994139Y-129488769D01*
X152999235Y-129459998D01*
X153005435Y-129439458D01*
X153013219Y-129425775D01*
X153023069Y-129417578D01*
X153025669Y-129416719D01*
X153038151Y-129414947D01*
X153058161Y-129413541D01*
X153083774Y-129412614D01*
X153113069Y-129412280D01*
X153193168Y-129412280D01*
X153193168Y-130312807D01*
X152971896Y-130312807D01*
X152971896Y-129748729D01*
X152953578Y-129718156D01*
X152945771Y-129705694D01*
X152916066Y-129667529D01*
X152882880Y-129638684D01*
X152845547Y-129618667D01*
X152803402Y-129606986D01*
X152784344Y-129604311D01*
X152766490Y-129603674D01*
X152746820Y-129605383D01*
X152721263Y-129609565D01*
X152701550Y-129612795D01*
X152677672Y-129614833D01*
X152661179Y-129612961D01*
X152650676Y-129606943D01*
X152644765Y-129596540D01*
X152643935Y-129593503D01*
X152640998Y-129580464D01*
X152636870Y-129560373D01*
X152631978Y-129535340D01*
X152626750Y-129507479D01*
X152612555Y-129430291D01*
X152625790Y-129419164D01*
X152634556Y-129412745D01*
X152663112Y-129400106D01*
X152699603Y-129393460D01*
X152743659Y-129392891D01*
X152754427Y-129393509D01*
G37*
G36*
X149673395Y-130606121D02*
G01*
X149673395Y-130239963D01*
X149652576Y-130257782D01*
X149646592Y-130262692D01*
X149614565Y-130284199D01*
X149578039Y-130302636D01*
X149541756Y-130315530D01*
X149541069Y-130315712D01*
X149515987Y-130320208D01*
X149484216Y-130322903D01*
X149449092Y-130323796D01*
X149413946Y-130322884D01*
X149382112Y-130320166D01*
X149356924Y-130315639D01*
X149323218Y-130304911D01*
X149270108Y-130279630D01*
X149221330Y-130245672D01*
X149177718Y-130203769D01*
X149140108Y-130154649D01*
X149109335Y-130099043D01*
X149098397Y-130073771D01*
X149083400Y-130030456D01*
X149072787Y-129985150D01*
X149065999Y-129935208D01*
X149062474Y-129877981D01*
X149062253Y-129870832D01*
X149062382Y-129834489D01*
X149288072Y-129834489D01*
X149288785Y-129877781D01*
X149291563Y-129919883D01*
X149296300Y-129957811D01*
X149302894Y-129988581D01*
X149311663Y-130015463D01*
X149332334Y-130060087D01*
X149358154Y-130096388D01*
X149388863Y-130124034D01*
X149424198Y-130142693D01*
X149436793Y-130146888D01*
X149479106Y-130154826D01*
X149523470Y-130155053D01*
X149566753Y-130147738D01*
X149605825Y-130133045D01*
X149615844Y-130127129D01*
X149633672Y-130114275D01*
X149650279Y-130100010D01*
X149673395Y-130077861D01*
X149673395Y-129670882D01*
X149634192Y-129633643D01*
X149627164Y-129627082D01*
X149597427Y-129602535D01*
X149568759Y-129585196D01*
X149538124Y-129573503D01*
X149502485Y-129565895D01*
X149485572Y-129563539D01*
X149466629Y-129562385D01*
X149449202Y-129563964D01*
X149428311Y-129568447D01*
X149427976Y-129568530D01*
X149392885Y-129580814D01*
X149363672Y-129599180D01*
X149339784Y-129624375D01*
X149320665Y-129657144D01*
X149305761Y-129698233D01*
X149294517Y-129748389D01*
X149293254Y-129756267D01*
X149289527Y-129792989D01*
X149288072Y-129834489D01*
X149062382Y-129834489D01*
X149062504Y-129799896D01*
X149067706Y-129736259D01*
X149078163Y-129678187D01*
X149094177Y-129623946D01*
X149116053Y-129571802D01*
X149118509Y-129566751D01*
X149131294Y-129542519D01*
X149144309Y-129522567D01*
X149160140Y-129503307D01*
X149181374Y-129481148D01*
X149201741Y-129461856D01*
X149238417Y-129433270D01*
X149275901Y-129412869D01*
X149316225Y-129399881D01*
X149361424Y-129393535D01*
X149413529Y-129393059D01*
X149439001Y-129394599D01*
X149484535Y-129400966D01*
X149525622Y-129412550D01*
X149564601Y-129430309D01*
X149603808Y-129455200D01*
X149645581Y-129488182D01*
X149655578Y-129496634D01*
X149670332Y-129508836D01*
X149680907Y-129517224D01*
X149685497Y-129520343D01*
X149686342Y-129519186D01*
X149688674Y-129510786D01*
X149691175Y-129496929D01*
X149692276Y-129490363D01*
X149696823Y-129468809D01*
X149702240Y-129448077D01*
X149702397Y-129447551D01*
X149707323Y-129433644D01*
X149713591Y-129423333D01*
X149722691Y-129416087D01*
X149736115Y-129411374D01*
X149755351Y-129408665D01*
X149781891Y-129407428D01*
X149817224Y-129407134D01*
X149894667Y-129407134D01*
X149894667Y-130606121D01*
X149673395Y-130606121D01*
G37*
G36*
X165321954Y-129743040D02*
G01*
X165321878Y-129820495D01*
X165321751Y-129894533D01*
X165321576Y-129964528D01*
X165321358Y-130029856D01*
X165321100Y-130089893D01*
X165320805Y-130144012D01*
X165320476Y-130191589D01*
X165320117Y-130231999D01*
X165319732Y-130264617D01*
X165319324Y-130288818D01*
X165318896Y-130303978D01*
X165318452Y-130309470D01*
X165316662Y-130309975D01*
X165306122Y-130310825D01*
X165287558Y-130311440D01*
X165262478Y-130311795D01*
X165232393Y-130311862D01*
X165198811Y-130311615D01*
X165082694Y-130310234D01*
X165080022Y-129813658D01*
X165024753Y-129813780D01*
X165020412Y-129813797D01*
X164986587Y-129814649D01*
X164960955Y-129817040D01*
X164941677Y-129821367D01*
X164926916Y-129828023D01*
X164914837Y-129837404D01*
X164914514Y-129837729D01*
X164908258Y-129845597D01*
X164897060Y-129861107D01*
X164881532Y-129883360D01*
X164862286Y-129911460D01*
X164839931Y-129944509D01*
X164815079Y-129981609D01*
X164788342Y-130021862D01*
X164760329Y-130064372D01*
X164757416Y-130068808D01*
X164729521Y-130111062D01*
X164702960Y-130150909D01*
X164678342Y-130187460D01*
X164656278Y-130219826D01*
X164637378Y-130247118D01*
X164622251Y-130268446D01*
X164611509Y-130282920D01*
X164605761Y-130289652D01*
X164599947Y-130294206D01*
X164589644Y-130300406D01*
X164577325Y-130305069D01*
X164561612Y-130308374D01*
X164541129Y-130310503D01*
X164514496Y-130311633D01*
X164480338Y-130311946D01*
X164437276Y-130311620D01*
X164323720Y-130310234D01*
X164484508Y-130073451D01*
X164520627Y-130020263D01*
X164552476Y-129973403D01*
X164579487Y-129933754D01*
X164602142Y-129900656D01*
X164620919Y-129873449D01*
X164636301Y-129851476D01*
X164648767Y-129834076D01*
X164658797Y-129820591D01*
X164666873Y-129810361D01*
X164673474Y-129802728D01*
X164679080Y-129797031D01*
X164684173Y-129792611D01*
X164689232Y-129788811D01*
X164694739Y-129784969D01*
X164715553Y-129770544D01*
X164668427Y-129748514D01*
X164656879Y-129742959D01*
X164599603Y-129709866D01*
X164551264Y-129671686D01*
X164511818Y-129628346D01*
X164481218Y-129579777D01*
X164459418Y-129525908D01*
X164446372Y-129466669D01*
X164442033Y-129401988D01*
X164442036Y-129401756D01*
X164675436Y-129401756D01*
X164675693Y-129446608D01*
X164679013Y-129469614D01*
X164691904Y-129513463D01*
X164712854Y-129550968D01*
X164741963Y-129582248D01*
X164779329Y-129607423D01*
X164825054Y-129626614D01*
X164825227Y-129626670D01*
X164840208Y-129631293D01*
X164854082Y-129634793D01*
X164868749Y-129637375D01*
X164886110Y-129639243D01*
X164908063Y-129640603D01*
X164936508Y-129641659D01*
X164973344Y-129642618D01*
X165080121Y-129645123D01*
X165080121Y-129221883D01*
X164993928Y-129222042D01*
X164950679Y-129222587D01*
X164900380Y-129224903D01*
X164858045Y-129229267D01*
X164822410Y-129235931D01*
X164792211Y-129245149D01*
X164766185Y-129257173D01*
X164743067Y-129272256D01*
X164723564Y-129289784D01*
X164699912Y-129321945D01*
X164683689Y-129359735D01*
X164675436Y-129401756D01*
X164442036Y-129401756D01*
X164442234Y-129385900D01*
X164446723Y-129330412D01*
X164457560Y-129281589D01*
X164475337Y-129237874D01*
X164500645Y-129197711D01*
X164534073Y-129159544D01*
X164540833Y-129152859D01*
X164560391Y-129134886D01*
X164578955Y-129120779D01*
X164600071Y-129108050D01*
X164627285Y-129094216D01*
X164634189Y-129090900D01*
X164658816Y-129079609D01*
X164682323Y-129069986D01*
X164705748Y-129061898D01*
X164730127Y-129055216D01*
X164756497Y-129049808D01*
X164785897Y-129045544D01*
X164819362Y-129042294D01*
X164857931Y-129039925D01*
X164902639Y-129038309D01*
X164954526Y-129037313D01*
X165014627Y-129036808D01*
X165083980Y-129036662D01*
X165321977Y-129036632D01*
X165321977Y-129671289D01*
X165321954Y-129743040D01*
G37*
G36*
X160935321Y-126337324D02*
G01*
X160983499Y-126341806D01*
X161026420Y-126350049D01*
X161067705Y-126362899D01*
X161110973Y-126381200D01*
X161115844Y-126383508D01*
X161183304Y-126421169D01*
X161247824Y-126468120D01*
X161309621Y-126524560D01*
X161368914Y-126590686D01*
X161425920Y-126666696D01*
X161457713Y-126712745D01*
X161454198Y-126591265D01*
X161453887Y-126580249D01*
X161452936Y-126537992D01*
X161452786Y-126504312D01*
X161453621Y-126477826D01*
X161455626Y-126457152D01*
X161458985Y-126440907D01*
X161463882Y-126427708D01*
X161470501Y-126416172D01*
X161479027Y-126404918D01*
X161482187Y-126401327D01*
X161498466Y-126386522D01*
X161515819Y-126374783D01*
X161519665Y-126372789D01*
X161526506Y-126369799D01*
X161534382Y-126367482D01*
X161544615Y-126365733D01*
X161558527Y-126364445D01*
X161577440Y-126363510D01*
X161602678Y-126362823D01*
X161635563Y-126362277D01*
X161677416Y-126361765D01*
X161679918Y-126361737D01*
X161716502Y-126361465D01*
X161749394Y-126361463D01*
X161777273Y-126361713D01*
X161798820Y-126362194D01*
X161812716Y-126362888D01*
X161817641Y-126363777D01*
X161817702Y-126364401D01*
X161818692Y-126372915D01*
X161820843Y-126390960D01*
X161824091Y-126418014D01*
X161828374Y-126453556D01*
X161833629Y-126497065D01*
X161839792Y-126548019D01*
X161846800Y-126605897D01*
X161854590Y-126670177D01*
X161863099Y-126740338D01*
X161872263Y-126815858D01*
X161882020Y-126896216D01*
X161892306Y-126980891D01*
X161903058Y-127069361D01*
X161914213Y-127161105D01*
X161925707Y-127255601D01*
X161929184Y-127284179D01*
X161940594Y-127378068D01*
X161951645Y-127469128D01*
X161962273Y-127556832D01*
X161972415Y-127640651D01*
X161982008Y-127720059D01*
X161990988Y-127794527D01*
X161999291Y-127863528D01*
X162006855Y-127926534D01*
X162013616Y-127983018D01*
X162019511Y-128032452D01*
X162024475Y-128074308D01*
X162028447Y-128108059D01*
X162031363Y-128133176D01*
X162033158Y-128149133D01*
X162033771Y-128155402D01*
X162033768Y-128166980D01*
X161820214Y-128166980D01*
X161784052Y-128166957D01*
X161735991Y-128166818D01*
X161696914Y-128166532D01*
X161666028Y-128166074D01*
X161642538Y-128165420D01*
X161625651Y-128164545D01*
X161614571Y-128163424D01*
X161608506Y-128162032D01*
X161606661Y-128160346D01*
X161606654Y-128160189D01*
X161605930Y-128153196D01*
X161604071Y-128136789D01*
X161601161Y-128111697D01*
X161597289Y-128078646D01*
X161592540Y-128038366D01*
X161587000Y-127991584D01*
X161580755Y-127939030D01*
X161573892Y-127881429D01*
X161566497Y-127819512D01*
X161558655Y-127754006D01*
X161550454Y-127685640D01*
X161542835Y-127622229D01*
X161534098Y-127549708D01*
X161526401Y-127486183D01*
X161519648Y-127430965D01*
X161513739Y-127383367D01*
X161508578Y-127342702D01*
X161504066Y-127308282D01*
X161500106Y-127279420D01*
X161496600Y-127255428D01*
X161493450Y-127235619D01*
X161490559Y-127219305D01*
X161487828Y-127205800D01*
X161485160Y-127194415D01*
X161482456Y-127184463D01*
X161479621Y-127175257D01*
X161476554Y-127166109D01*
X161451842Y-127099069D01*
X161416811Y-127017982D01*
X161379047Y-126945032D01*
X161338815Y-126880630D01*
X161296377Y-126825188D01*
X161251996Y-126779117D01*
X161205935Y-126742828D01*
X161196905Y-126737010D01*
X161156092Y-126715537D01*
X161114648Y-126700920D01*
X161073908Y-126693213D01*
X161035208Y-126692467D01*
X160999883Y-126698736D01*
X160969269Y-126712073D01*
X160944700Y-126732528D01*
X160941738Y-126735973D01*
X160931220Y-126750051D01*
X160923215Y-126765078D01*
X160917420Y-126782608D01*
X160913532Y-126804194D01*
X160911246Y-126831388D01*
X160910261Y-126865744D01*
X160910271Y-126908816D01*
X160910302Y-126912189D01*
X160910510Y-126928472D01*
X160910865Y-126944378D01*
X160911435Y-126960571D01*
X160912286Y-126977711D01*
X160913487Y-126996462D01*
X160915105Y-127017485D01*
X160917209Y-127041442D01*
X160919867Y-127068995D01*
X160923145Y-127100808D01*
X160927113Y-127137540D01*
X160931838Y-127179856D01*
X160937387Y-127228417D01*
X160943829Y-127283885D01*
X160951232Y-127346922D01*
X160959663Y-127418191D01*
X160969190Y-127498353D01*
X160979882Y-127588070D01*
X161048616Y-128164407D01*
X160835408Y-128165751D01*
X160813464Y-128165879D01*
X160769074Y-128166074D01*
X160728477Y-128166166D01*
X160692756Y-128166160D01*
X160662995Y-128166056D01*
X160640277Y-128165859D01*
X160625684Y-128165571D01*
X160620299Y-128165194D01*
X160620203Y-128164858D01*
X160619077Y-128157322D01*
X160616863Y-128140439D01*
X160613648Y-128114922D01*
X160609518Y-128081481D01*
X160604558Y-128040828D01*
X160598854Y-127993674D01*
X160592494Y-127940730D01*
X160585562Y-127882708D01*
X160578145Y-127820319D01*
X160570330Y-127754274D01*
X160562202Y-127685285D01*
X160506004Y-127207276D01*
X160485421Y-127147679D01*
X160458666Y-127076274D01*
X160424072Y-126998773D01*
X160386622Y-126929365D01*
X160346566Y-126868320D01*
X160304153Y-126815909D01*
X160259633Y-126772402D01*
X160213255Y-126738069D01*
X160165270Y-126713181D01*
X160115926Y-126698008D01*
X160065473Y-126692821D01*
X160060603Y-126692859D01*
X160020932Y-126697487D01*
X159987984Y-126709887D01*
X159961638Y-126730153D01*
X159941770Y-126758373D01*
X159928258Y-126794639D01*
X159927289Y-126798658D01*
X159924087Y-126817646D01*
X159922195Y-126841065D01*
X159921650Y-126869631D01*
X159922487Y-126904062D01*
X159924746Y-126945073D01*
X159928463Y-126993382D01*
X159933674Y-127049706D01*
X159940419Y-127114761D01*
X159948732Y-127189265D01*
X159948740Y-127189330D01*
X159954167Y-127236546D01*
X159960218Y-127288960D01*
X159966791Y-127345715D01*
X159973786Y-127405954D01*
X159981102Y-127468821D01*
X159988639Y-127533460D01*
X159996296Y-127599012D01*
X160003972Y-127664622D01*
X160011567Y-127729433D01*
X160018981Y-127792588D01*
X160026113Y-127853230D01*
X160032862Y-127910503D01*
X160039128Y-127963550D01*
X160044809Y-128011515D01*
X160049807Y-128053539D01*
X160054019Y-128088768D01*
X160057346Y-128116344D01*
X160059686Y-128135410D01*
X160060940Y-128145110D01*
X160064069Y-128166980D01*
X159847358Y-128166980D01*
X159822106Y-128166966D01*
X159777681Y-128166866D01*
X159737177Y-128166681D01*
X159701658Y-128166420D01*
X159672183Y-128166095D01*
X159649816Y-128165716D01*
X159635617Y-128165293D01*
X159630648Y-128164837D01*
X159630503Y-128163485D01*
X159629338Y-128153426D01*
X159627068Y-128134100D01*
X159623768Y-128106146D01*
X159619516Y-128070203D01*
X159614386Y-128026911D01*
X159608454Y-127976909D01*
X159601797Y-127920835D01*
X159594490Y-127859330D01*
X159586608Y-127793032D01*
X159578229Y-127722581D01*
X159569427Y-127648616D01*
X159560279Y-127571776D01*
X159555670Y-127533068D01*
X159545410Y-127446849D01*
X159536277Y-127369925D01*
X159528205Y-127301643D01*
X159521128Y-127241349D01*
X159514980Y-127188390D01*
X159509697Y-127142113D01*
X159505211Y-127101864D01*
X159501458Y-127066992D01*
X159498372Y-127036841D01*
X159495887Y-127010760D01*
X159493938Y-126988095D01*
X159492459Y-126968193D01*
X159491384Y-126950401D01*
X159490648Y-126934065D01*
X159490185Y-126918532D01*
X159489930Y-126903149D01*
X159489816Y-126887264D01*
X159489779Y-126870222D01*
X159489866Y-126844234D01*
X159490974Y-126794392D01*
X159493582Y-126751569D01*
X159497983Y-126713562D01*
X159504468Y-126678172D01*
X159513331Y-126643195D01*
X159524865Y-126606432D01*
X159527447Y-126598991D01*
X159552689Y-126540992D01*
X159584703Y-126488831D01*
X159622712Y-126443452D01*
X159665940Y-126405800D01*
X159713609Y-126376821D01*
X159733677Y-126367274D01*
X159759803Y-126356266D01*
X159784309Y-126348311D01*
X159809571Y-126342944D01*
X159837967Y-126339701D01*
X159871875Y-126338117D01*
X159913670Y-126337728D01*
X159926983Y-126337758D01*
X159957771Y-126338050D01*
X159981527Y-126338842D01*
X160000641Y-126340374D01*
X160017508Y-126342884D01*
X160034519Y-126346614D01*
X160054068Y-126351803D01*
X160117728Y-126373483D01*
X160188075Y-126407584D01*
X160255205Y-126451454D01*
X160319123Y-126505094D01*
X160379830Y-126568507D01*
X160437331Y-126641696D01*
X160491627Y-126724664D01*
X160523151Y-126777223D01*
X160531961Y-126716946D01*
X160535209Y-126696224D01*
X160549442Y-126628672D01*
X160568301Y-126569268D01*
X160592233Y-126516989D01*
X160621683Y-126470813D01*
X160657095Y-126429718D01*
X160688813Y-126400742D01*
X160726759Y-126374270D01*
X160767215Y-126355189D01*
X160811784Y-126342930D01*
X160862073Y-126336924D01*
X160919687Y-126336601D01*
X160935321Y-126337324D01*
G37*
G36*
X154689846Y-125560582D02*
G01*
X154735636Y-125571501D01*
X154779263Y-125590993D01*
X154819692Y-125618913D01*
X154855882Y-125655117D01*
X154886798Y-125699459D01*
X154900635Y-125727767D01*
X154914735Y-125772303D01*
X154921910Y-125819178D01*
X154921782Y-125865480D01*
X154913970Y-125908297D01*
X154911905Y-125915025D01*
X154890987Y-125964054D01*
X154861745Y-126007556D01*
X154824951Y-126044732D01*
X154781373Y-126074787D01*
X154731782Y-126096922D01*
X154711344Y-126102503D01*
X154673517Y-126107725D01*
X154634150Y-126107979D01*
X154597990Y-126103049D01*
X154570813Y-126094699D01*
X154529608Y-126074441D01*
X154490474Y-126046619D01*
X154455051Y-126012874D01*
X154424978Y-125974847D01*
X154401897Y-125934178D01*
X154387448Y-125892507D01*
X154383309Y-125869181D01*
X154381980Y-125820196D01*
X154389895Y-125771176D01*
X154406555Y-125723766D01*
X154431458Y-125679612D01*
X154464106Y-125640359D01*
X154464801Y-125639669D01*
X154505830Y-125605543D01*
X154549887Y-125580717D01*
X154595934Y-125565045D01*
X154642933Y-125558382D01*
X154689846Y-125560582D01*
G37*
G36*
X158416223Y-130312807D02*
G01*
X158194951Y-130312807D01*
X158194951Y-129005757D01*
X158416223Y-129005757D01*
X158416223Y-130312807D01*
G37*
G36*
X152557186Y-125572177D02*
G01*
X152557751Y-125576474D01*
X152559527Y-125590610D01*
X152562428Y-125613965D01*
X152566390Y-125646015D01*
X152571348Y-125686235D01*
X152577238Y-125734098D01*
X152583996Y-125789081D01*
X152591558Y-125850657D01*
X152599859Y-125918301D01*
X152608836Y-125991489D01*
X152618423Y-126069694D01*
X152628557Y-126152392D01*
X152639173Y-126239056D01*
X152650208Y-126329163D01*
X152661597Y-126422186D01*
X152673275Y-126517601D01*
X152685179Y-126614882D01*
X152697244Y-126713503D01*
X152709407Y-126812940D01*
X152721602Y-126912668D01*
X152733766Y-127012160D01*
X152745834Y-127110892D01*
X152757743Y-127208338D01*
X152769427Y-127303974D01*
X152780823Y-127397273D01*
X152791867Y-127487711D01*
X152802493Y-127574762D01*
X152812639Y-127657902D01*
X152822239Y-127736604D01*
X152831230Y-127810343D01*
X152839548Y-127878595D01*
X152847127Y-127940833D01*
X152853904Y-127996533D01*
X152859815Y-128045170D01*
X152864795Y-128086217D01*
X152868780Y-128119151D01*
X152871706Y-128143445D01*
X152873509Y-128158574D01*
X152874124Y-128164013D01*
X152872705Y-128164353D01*
X152862713Y-128164962D01*
X152844056Y-128165518D01*
X152817797Y-128166006D01*
X152784998Y-128166410D01*
X152746724Y-128166717D01*
X152704036Y-128166912D01*
X152657998Y-128166980D01*
X152638228Y-128166963D01*
X152591989Y-128166775D01*
X152550185Y-128166400D01*
X152513795Y-128165857D01*
X152483792Y-128165168D01*
X152461153Y-128164351D01*
X152446854Y-128163429D01*
X152441871Y-128162422D01*
X152441812Y-128161708D01*
X152440841Y-128152989D01*
X152438751Y-128135077D01*
X152435635Y-128108755D01*
X152431589Y-128074802D01*
X152426704Y-128034000D01*
X152421076Y-127987131D01*
X152414796Y-127934977D01*
X152407960Y-127878318D01*
X152400661Y-127817936D01*
X152392992Y-127754612D01*
X152390618Y-127735019D01*
X152383049Y-127672442D01*
X152375877Y-127613006D01*
X152369198Y-127557497D01*
X152363105Y-127506701D01*
X152357692Y-127461404D01*
X152353052Y-127422393D01*
X152349280Y-127390454D01*
X152346469Y-127366372D01*
X152344713Y-127350935D01*
X152344107Y-127344928D01*
X152340612Y-127341872D01*
X152328973Y-127339514D01*
X152311375Y-127338495D01*
X152290110Y-127338841D01*
X152267469Y-127340582D01*
X152245744Y-127343744D01*
X152240674Y-127344789D01*
X152218738Y-127352518D01*
X152201414Y-127365614D01*
X152197399Y-127370929D01*
X152188080Y-127386120D01*
X152174317Y-127410457D01*
X152156145Y-127443877D01*
X152133597Y-127486317D01*
X152106705Y-127537715D01*
X152075504Y-127598006D01*
X152040026Y-127667128D01*
X152000306Y-127745019D01*
X151967489Y-127809520D01*
X151935814Y-127871633D01*
X151908107Y-127925687D01*
X151884014Y-127972265D01*
X151863177Y-128011952D01*
X151845242Y-128045334D01*
X151829851Y-128072995D01*
X151816649Y-128095520D01*
X151805281Y-128113493D01*
X151795390Y-128127500D01*
X151786620Y-128138126D01*
X151778615Y-128145955D01*
X151771020Y-128151571D01*
X151763479Y-128155561D01*
X151755634Y-128158509D01*
X151747132Y-128160998D01*
X151745464Y-128161413D01*
X151734591Y-128163074D01*
X151717817Y-128164367D01*
X151694408Y-128165309D01*
X151663636Y-128165915D01*
X151624768Y-128166200D01*
X151577074Y-128166181D01*
X151519822Y-128165873D01*
X151315622Y-128164407D01*
X151542979Y-127719135D01*
X151544485Y-127716185D01*
X151584712Y-127637409D01*
X151620559Y-127567245D01*
X151652312Y-127505158D01*
X151680261Y-127450611D01*
X151704691Y-127403068D01*
X151725891Y-127361994D01*
X151744149Y-127326852D01*
X151759751Y-127297106D01*
X151772985Y-127272221D01*
X151784138Y-127251661D01*
X151793499Y-127234889D01*
X151801355Y-127221371D01*
X151807993Y-127210568D01*
X151813701Y-127201947D01*
X151818766Y-127194971D01*
X151823476Y-127189103D01*
X151828118Y-127183809D01*
X151832979Y-127178551D01*
X151855164Y-127154834D01*
X151823041Y-127130171D01*
X151816077Y-127124720D01*
X151807137Y-127117353D01*
X151797602Y-127108984D01*
X151787029Y-127099130D01*
X151774978Y-127087312D01*
X151761004Y-127073049D01*
X151744666Y-127055860D01*
X151725521Y-127035263D01*
X151703127Y-127010778D01*
X151677041Y-126981924D01*
X151646822Y-126948219D01*
X151612026Y-126909184D01*
X151572211Y-126864337D01*
X151526936Y-126813198D01*
X151475756Y-126755284D01*
X151418231Y-126690116D01*
X151129899Y-126363354D01*
X151341839Y-126362009D01*
X151383826Y-126361754D01*
X151432674Y-126361559D01*
X151473035Y-126361655D01*
X151505944Y-126362165D01*
X151532443Y-126363217D01*
X151553568Y-126364933D01*
X151570358Y-126367441D01*
X151583852Y-126370864D01*
X151595088Y-126375329D01*
X151605105Y-126380960D01*
X151614940Y-126387882D01*
X151625634Y-126396221D01*
X151626297Y-126396774D01*
X151634552Y-126404896D01*
X151648837Y-126420099D01*
X151668576Y-126441734D01*
X151693196Y-126469151D01*
X151722122Y-126501703D01*
X151754779Y-126538741D01*
X151790594Y-126579615D01*
X151828992Y-126623678D01*
X151869398Y-126670281D01*
X151911239Y-126718774D01*
X151937820Y-126749663D01*
X151984274Y-126803644D01*
X152024777Y-126850608D01*
X152059854Y-126891050D01*
X152090032Y-126925467D01*
X152115835Y-126954354D01*
X152137789Y-126978208D01*
X152156421Y-126997523D01*
X152172255Y-127012795D01*
X152185817Y-127024522D01*
X152197633Y-127033197D01*
X152208229Y-127039317D01*
X152218130Y-127043378D01*
X152227862Y-127045875D01*
X152237950Y-127047305D01*
X152248920Y-127048162D01*
X152261299Y-127048944D01*
X152280498Y-127050175D01*
X152293435Y-127050389D01*
X152300099Y-127048957D01*
X152302571Y-127045391D01*
X152302933Y-127039205D01*
X152302623Y-127035775D01*
X152301177Y-127022695D01*
X152298628Y-127000605D01*
X152295060Y-126970209D01*
X152290559Y-126932211D01*
X152285211Y-126887317D01*
X152279102Y-126836231D01*
X152272316Y-126779658D01*
X152264939Y-126718303D01*
X152257057Y-126652871D01*
X152248756Y-126584065D01*
X152240119Y-126512591D01*
X152231234Y-126439154D01*
X152222186Y-126364458D01*
X152213060Y-126289208D01*
X152203941Y-126214109D01*
X152194916Y-126139865D01*
X152186069Y-126067181D01*
X152177485Y-125996762D01*
X152169252Y-125929313D01*
X152161453Y-125865538D01*
X152154175Y-125806142D01*
X152147503Y-125751829D01*
X152141523Y-125703305D01*
X152136319Y-125661275D01*
X152131978Y-125626442D01*
X152128584Y-125599511D01*
X152126224Y-125581188D01*
X152124983Y-125572177D01*
X152121923Y-125552880D01*
X152554176Y-125552880D01*
X152557186Y-125572177D01*
G37*
G36*
X156605153Y-129397804D02*
G01*
X156648194Y-129401059D01*
X156685341Y-129406680D01*
X156732410Y-129419699D01*
X156781913Y-129440216D01*
X156828312Y-129466254D01*
X156869250Y-129496478D01*
X156902367Y-129529554D01*
X156930006Y-129566003D01*
X156962644Y-129621988D01*
X156987119Y-129682968D01*
X157004024Y-129750228D01*
X157005822Y-129761302D01*
X157009029Y-129793610D01*
X157010643Y-129831454D01*
X157010733Y-129872206D01*
X157009366Y-129913240D01*
X157006612Y-129951931D01*
X157002538Y-129985651D01*
X156997213Y-130011774D01*
X156995901Y-130016446D01*
X156972439Y-130082744D01*
X156942017Y-130141896D01*
X156904906Y-130193627D01*
X156861372Y-130237663D01*
X156811686Y-130273730D01*
X156756116Y-130301553D01*
X156694931Y-130320856D01*
X156693379Y-130321207D01*
X156668303Y-130324805D01*
X156636056Y-130326672D01*
X156599384Y-130326900D01*
X156561033Y-130325577D01*
X156523749Y-130322796D01*
X156490278Y-130318646D01*
X156463367Y-130313219D01*
X156428462Y-130302426D01*
X156370663Y-130277220D01*
X156318625Y-130244755D01*
X156273769Y-130205837D01*
X156248839Y-130180244D01*
X156285526Y-130133798D01*
X156299131Y-130117038D01*
X156313059Y-130100895D01*
X156323939Y-130089391D01*
X156330174Y-130084298D01*
X156330289Y-130084254D01*
X156353462Y-130080484D01*
X156378060Y-130086505D01*
X156404546Y-130102433D01*
X156419919Y-130113163D01*
X156443512Y-130127648D01*
X156465939Y-130139605D01*
X156474797Y-130143716D01*
X156490825Y-130150010D01*
X156506652Y-130153930D01*
X156525774Y-130156207D01*
X156551689Y-130157576D01*
X156580653Y-130157792D01*
X156617016Y-130154228D01*
X156647915Y-130145342D01*
X156675741Y-130130358D01*
X156702886Y-130108500D01*
X156710511Y-130101024D01*
X156738014Y-130065656D01*
X156759975Y-130022955D01*
X156776043Y-129974208D01*
X156785871Y-129920701D01*
X156789109Y-129863717D01*
X156785409Y-129804543D01*
X156779514Y-129766719D01*
X156765501Y-129713076D01*
X156745787Y-129667945D01*
X156720283Y-129631230D01*
X156688898Y-129602838D01*
X156651543Y-129582674D01*
X156608129Y-129570645D01*
X156558565Y-129566656D01*
X156544822Y-129566854D01*
X156513278Y-129569534D01*
X156484756Y-129576136D01*
X156455714Y-129587663D01*
X156422608Y-129605118D01*
X156415463Y-129609136D01*
X156393008Y-129620457D01*
X156375518Y-129626573D01*
X156360534Y-129628406D01*
X156359024Y-129628398D01*
X156348372Y-129627458D01*
X156338928Y-129624103D01*
X156329306Y-129617105D01*
X156318118Y-129605237D01*
X156303978Y-129587272D01*
X156285500Y-129561981D01*
X156258092Y-129523857D01*
X156285136Y-129498991D01*
X156325708Y-129467058D01*
X156376202Y-129437943D01*
X156430707Y-129415932D01*
X156486523Y-129402323D01*
X156517817Y-129398756D01*
X156560324Y-129397007D01*
X156605153Y-129397804D01*
G37*
G36*
X163850933Y-125619783D02*
G01*
X163946160Y-125619829D01*
X164038285Y-125619913D01*
X164126793Y-125620036D01*
X164211172Y-125620193D01*
X164290908Y-125620383D01*
X164365487Y-125620605D01*
X164434396Y-125620855D01*
X164497121Y-125621132D01*
X164553149Y-125621433D01*
X164601967Y-125621757D01*
X164643060Y-125622100D01*
X164675915Y-125622462D01*
X164700020Y-125622840D01*
X164714859Y-125623232D01*
X164719921Y-125623635D01*
X164720420Y-125629017D01*
X164722021Y-125643403D01*
X164724555Y-125665235D01*
X164727844Y-125693063D01*
X164731712Y-125725431D01*
X164735981Y-125760887D01*
X164740476Y-125797976D01*
X164745019Y-125835247D01*
X164749434Y-125871245D01*
X164753543Y-125904516D01*
X164757171Y-125933608D01*
X164760141Y-125957067D01*
X164762276Y-125973440D01*
X164763399Y-125981273D01*
X164765966Y-125995424D01*
X164066582Y-125995424D01*
X164069556Y-126017294D01*
X164070185Y-126021992D01*
X164072692Y-126041338D01*
X164076256Y-126069469D01*
X164080809Y-126105811D01*
X164086280Y-126149787D01*
X164092599Y-126200822D01*
X164099695Y-126258340D01*
X164107501Y-126321765D01*
X164115944Y-126390521D01*
X164124956Y-126464033D01*
X164134465Y-126541724D01*
X164144404Y-126623019D01*
X164154700Y-126707343D01*
X164165285Y-126794118D01*
X164176089Y-126882770D01*
X164187040Y-126972722D01*
X164198071Y-127063400D01*
X164209110Y-127154226D01*
X164220087Y-127244626D01*
X164230933Y-127334023D01*
X164241578Y-127421841D01*
X164251952Y-127507506D01*
X164261984Y-127590440D01*
X164271605Y-127670069D01*
X164280744Y-127745816D01*
X164289333Y-127817105D01*
X164297300Y-127883362D01*
X164304577Y-127944009D01*
X164311092Y-127998472D01*
X164316776Y-128046174D01*
X164321560Y-128086539D01*
X164325372Y-128118992D01*
X164328144Y-128142958D01*
X164329804Y-128157859D01*
X164330284Y-128163121D01*
X164327612Y-128163679D01*
X164315742Y-128164448D01*
X164295357Y-128165147D01*
X164267510Y-128165760D01*
X164233253Y-128166267D01*
X164193639Y-128166651D01*
X164149722Y-128166895D01*
X164102555Y-128166980D01*
X163876893Y-128166980D01*
X163873933Y-128147683D01*
X163873510Y-128144527D01*
X163871851Y-128131468D01*
X163869039Y-128108987D01*
X163865134Y-128077572D01*
X163860195Y-128037713D01*
X163854283Y-127989898D01*
X163847459Y-127934616D01*
X163839782Y-127872356D01*
X163831312Y-127803606D01*
X163822111Y-127728855D01*
X163812237Y-127648592D01*
X163801752Y-127563305D01*
X163790715Y-127473484D01*
X163779186Y-127379617D01*
X163767227Y-127282194D01*
X163754896Y-127181701D01*
X163742255Y-127078629D01*
X163734291Y-127013695D01*
X163721843Y-126912239D01*
X163709745Y-126813691D01*
X163698056Y-126718537D01*
X163686837Y-126627266D01*
X163676148Y-126540364D01*
X163666050Y-126458319D01*
X163656601Y-126381617D01*
X163647863Y-126310746D01*
X163639895Y-126246193D01*
X163632758Y-126188445D01*
X163626511Y-126137989D01*
X163621214Y-126095313D01*
X163616929Y-126060904D01*
X163613714Y-126035249D01*
X163611630Y-126018834D01*
X163610736Y-126012148D01*
X163607937Y-125995424D01*
X162914177Y-125995424D01*
X162911296Y-125978700D01*
X162910868Y-125976051D01*
X162908917Y-125962462D01*
X162906048Y-125941234D01*
X162902451Y-125913854D01*
X162898310Y-125881810D01*
X162893813Y-125846589D01*
X162889146Y-125809677D01*
X162884496Y-125772562D01*
X162880049Y-125736730D01*
X162875992Y-125703670D01*
X162872512Y-125674868D01*
X162869795Y-125651811D01*
X162868029Y-125635985D01*
X162867398Y-125628880D01*
X162867402Y-125628746D01*
X162867832Y-125627631D01*
X162869291Y-125626612D01*
X162872218Y-125625684D01*
X162877056Y-125624845D01*
X162884245Y-125624088D01*
X162894226Y-125623411D01*
X162907440Y-125622808D01*
X162924330Y-125622276D01*
X162945335Y-125621809D01*
X162970897Y-125621404D01*
X163001457Y-125621057D01*
X163037456Y-125620762D01*
X163079335Y-125620516D01*
X163127536Y-125620315D01*
X163182500Y-125620153D01*
X163244667Y-125620027D01*
X163314480Y-125619932D01*
X163392378Y-125619864D01*
X163478803Y-125619819D01*
X163574197Y-125619792D01*
X163679000Y-125619779D01*
X163793654Y-125619776D01*
X163850933Y-125619783D01*
G37*
G36*
X146549854Y-130312807D02*
G01*
X146307998Y-130312807D01*
X146307998Y-129041778D01*
X146549854Y-129041778D01*
X146549854Y-130312807D01*
G37*
%LPC*%
D11*
G36*
X241300000Y-139446000D02*
G01*
X240792000Y-139954000D01*
X175768000Y-139954000D01*
X175260000Y-139446000D01*
X175260000Y-132080000D01*
X241300000Y-132080000D01*
X241300000Y-139446000D01*
G37*
D12*
X144653000Y-129540000D03*
X242062000Y-129540000D03*
D13*
X238760000Y-135282000D03*
X236220000Y-135282000D03*
X233680000Y-135282000D03*
X231140000Y-135282000D03*
X228600000Y-135282000D03*
X226060000Y-135282000D03*
X223520000Y-135282000D03*
X220980000Y-135282000D03*
X218440000Y-135282000D03*
X215900000Y-135282000D03*
X213360000Y-135282000D03*
X210820000Y-135282000D03*
X208280000Y-135282000D03*
X205740000Y-135282000D03*
X203200000Y-135282000D03*
X200660000Y-135282000D03*
X198120000Y-135282000D03*
X195580000Y-135282000D03*
X193040000Y-135282000D03*
X190500000Y-135282000D03*
X187960000Y-135282000D03*
X185420000Y-135282000D03*
X182880000Y-135282000D03*
X180340000Y-135282000D03*
X177800000Y-135282000D03*
D12*
X242062000Y-82423000D03*
X158369000Y-82423000D03*
X142113000Y-98679000D03*
D14*
X145288000Y-115570000D03*
X147188000Y-115570000D03*
M02*
