G04 #@! TF.GenerationSoftware,KiCad,Pcbnew,(6.0.2-0)*
G04 #@! TF.CreationDate,2022-08-15T13:28:30-04:00*
G04 #@! TF.ProjectId,TimeMachine,54696d65-4d61-4636-9869-6e652e6b6963,rev?*
G04 #@! TF.SameCoordinates,Original*
G04 #@! TF.FileFunction,Paste,Top*
G04 #@! TF.FilePolarity,Positive*
%FSLAX46Y46*%
G04 Gerber Fmt 4.6, Leading zero omitted, Abs format (unit mm)*
G04 Created by KiCad (PCBNEW (6.0.2-0)) date 2022-08-15 13:28:30*
%MOMM*%
%LPD*%
G01*
G04 APERTURE LIST*
G04 Aperture macros list*
%AMRoundRect*
0 Rectangle with rounded corners*
0 $1 Rounding radius*
0 $2 $3 $4 $5 $6 $7 $8 $9 X,Y pos of 4 corners*
0 Add a 4 corners polygon primitive as box body*
4,1,4,$2,$3,$4,$5,$6,$7,$8,$9,$2,$3,0*
0 Add four circle primitives for the rounded corners*
1,1,$1+$1,$2,$3*
1,1,$1+$1,$4,$5*
1,1,$1+$1,$6,$7*
1,1,$1+$1,$8,$9*
0 Add four rect primitives between the rounded corners*
20,1,$1+$1,$2,$3,$4,$5,0*
20,1,$1+$1,$4,$5,$6,$7,0*
20,1,$1+$1,$6,$7,$8,$9,0*
20,1,$1+$1,$8,$9,$2,$3,0*%
G04 Aperture macros list end*
%ADD10RoundRect,0.225000X0.412500X0.925000X-0.412500X0.925000X-0.412500X-0.925000X0.412500X-0.925000X0*%
%ADD11RoundRect,0.237500X0.262500X0.437500X-0.262500X0.437500X-0.262500X-0.437500X0.262500X-0.437500X0*%
%ADD12RoundRect,0.237500X-0.437500X0.262500X-0.437500X-0.262500X0.437500X-0.262500X0.437500X0.262500X0*%
%ADD13RoundRect,0.187500X-0.487500X0.212500X-0.487500X-0.212500X0.487500X-0.212500X0.487500X0.212500X0*%
%ADD14RoundRect,0.237500X-0.262500X-0.437500X0.262500X-0.437500X0.262500X0.437500X-0.262500X0.437500X0*%
%ADD15RoundRect,0.237500X0.437500X-0.262500X0.437500X0.262500X-0.437500X0.262500X-0.437500X-0.262500X0*%
%ADD16RoundRect,0.125000X-0.150000X-0.587500X0.150000X-0.587500X0.150000X0.587500X-0.150000X0.587500X0*%
%ADD17RoundRect,0.125000X-0.587500X-0.150000X0.587500X-0.150000X0.587500X0.150000X-0.587500X0.150000X0*%
%ADD18RoundRect,0.125000X-0.875000X-0.150000X0.875000X-0.150000X0.875000X0.150000X-0.875000X0.150000X0*%
%ADD19RoundRect,0.225000X0.945755X0.362392X0.362392X0.945755X-0.945755X-0.362392X-0.362392X-0.945755X0*%
%ADD20RoundRect,0.225000X-0.925000X0.412500X-0.925000X-0.412500X0.925000X-0.412500X0.925000X0.412500X0*%
%ADD21RoundRect,0.100000X0.125000X-0.637500X0.125000X0.637500X-0.125000X0.637500X-0.125000X-0.637500X0*%
%ADD22RoundRect,0.311150X-1.481742X1.975656X-1.975656X1.481742X1.481742X-1.975656X1.975656X-1.481742X0*%
%ADD23RoundRect,0.606900X0.000000X2.128391X-2.128391X0.000000X0.000000X-2.128391X2.128391X0.000000X0*%
%ADD24RoundRect,0.211900X-1.005000X-0.250000X1.005000X-0.250000X1.005000X0.250000X-1.005000X0.250000X0*%
%ADD25RoundRect,0.225000X-0.412500X-0.925000X0.412500X-0.925000X0.412500X0.925000X-0.412500X0.925000X0*%
%ADD26RoundRect,0.125000X-0.825000X-0.150000X0.825000X-0.150000X0.825000X0.150000X-0.825000X0.150000X0*%
%ADD27RoundRect,0.125000X0.150000X0.700000X-0.150000X0.700000X-0.150000X-0.700000X0.150000X-0.700000X0*%
%ADD28RoundRect,0.125000X0.700000X0.150000X-0.700000X0.150000X-0.700000X-0.150000X0.700000X-0.150000X0*%
%ADD29RoundRect,0.187500X-0.212500X-0.487500X0.212500X-0.487500X0.212500X0.487500X-0.212500X0.487500X0*%
%ADD30RoundRect,0.187500X0.487500X-0.212500X0.487500X0.212500X-0.487500X0.212500X-0.487500X-0.212500X0*%
%ADD31RoundRect,0.225000X-1.274000X-0.250000X1.274000X-0.250000X1.274000X0.250000X-1.274000X0.250000X0*%
G04 APERTURE END LIST*
D10*
X171717500Y-85598000D03*
X168642500Y-85598000D03*
D11*
X238760000Y-128270000D03*
X237060000Y-128270000D03*
X222680000Y-128270000D03*
X220980000Y-128270000D03*
X200660000Y-83820000D03*
X198960000Y-83820000D03*
D12*
X193040000Y-106680000D03*
X193040000Y-108380000D03*
D13*
X163195000Y-106685000D03*
X163195000Y-108585000D03*
D14*
X168910000Y-113411000D03*
X170610000Y-113411000D03*
X227115000Y-124460000D03*
X228815000Y-124460000D03*
D15*
X233680000Y-99060000D03*
X233680000Y-97360000D03*
D14*
X219710000Y-83820000D03*
X221410000Y-83820000D03*
X213360000Y-83820000D03*
X215060000Y-83820000D03*
D13*
X209550000Y-127320000D03*
X209550000Y-129220000D03*
X212090000Y-127320000D03*
X212090000Y-129220000D03*
D14*
X216740000Y-128270000D03*
X218440000Y-128270000D03*
D16*
X181610000Y-107462500D03*
X180340000Y-107462500D03*
X179070000Y-107462500D03*
X177800000Y-107462500D03*
D17*
X176047500Y-109220000D03*
X176047500Y-110490000D03*
X176047500Y-111760000D03*
X176047500Y-113030000D03*
X176047500Y-114300000D03*
X176047500Y-115570000D03*
X176047500Y-116840000D03*
X176047500Y-118110000D03*
X176047500Y-119380000D03*
D16*
X177800000Y-121137500D03*
X179070000Y-121137500D03*
X180340000Y-121137500D03*
X181610000Y-121137500D03*
X182880000Y-121137500D03*
X184150000Y-121137500D03*
X185420000Y-121137500D03*
D17*
X187172500Y-119380000D03*
X187172500Y-118110000D03*
X187172500Y-116840000D03*
X187172500Y-115570000D03*
X187172500Y-114300000D03*
X187172500Y-113030000D03*
X187172500Y-111760000D03*
X187172500Y-110490000D03*
X187172500Y-109220000D03*
D16*
X185420000Y-107462500D03*
X184150000Y-107462500D03*
X182880000Y-107462500D03*
D14*
X179451000Y-102235000D03*
X181151000Y-102235000D03*
D11*
X176403000Y-129159000D03*
X174703000Y-129159000D03*
D14*
X156210000Y-111760000D03*
X157910000Y-111760000D03*
X160655000Y-111760000D03*
X162355000Y-111760000D03*
X180467000Y-85725000D03*
X182167000Y-85725000D03*
D18*
X151306000Y-114300000D03*
X151306000Y-115570000D03*
X151306000Y-116840000D03*
X151306000Y-118110000D03*
X151306000Y-119380000D03*
X151306000Y-120650000D03*
X151306000Y-121920000D03*
X151306000Y-123190000D03*
X160606000Y-123190000D03*
X160606000Y-121920000D03*
X160606000Y-120650000D03*
X160606000Y-119380000D03*
X160606000Y-118110000D03*
X160606000Y-116840000D03*
X160606000Y-115570000D03*
X160606000Y-114300000D03*
D19*
X145288000Y-106426000D03*
X143113646Y-104251646D03*
D20*
X192405000Y-86727500D03*
X192405000Y-89802500D03*
D14*
X151765000Y-111760000D03*
X153465000Y-111760000D03*
D21*
X171600000Y-99587500D03*
X172400000Y-99587500D03*
X173200000Y-99587500D03*
X174000000Y-99587500D03*
X174800000Y-99587500D03*
X175600000Y-99587500D03*
X176400000Y-99587500D03*
X177200000Y-99587500D03*
X178000000Y-99587500D03*
X178800000Y-99587500D03*
X179600000Y-99587500D03*
X180400000Y-99587500D03*
X181200000Y-99587500D03*
X182000000Y-99587500D03*
X182800000Y-99587500D03*
X183600000Y-99587500D03*
X184400000Y-99587500D03*
X185200000Y-99587500D03*
X186000000Y-99587500D03*
X186800000Y-99587500D03*
X187600000Y-99587500D03*
X188400000Y-99587500D03*
X188400000Y-88412500D03*
X187600000Y-88412500D03*
X186800000Y-88412500D03*
X186000000Y-88412500D03*
X185200000Y-88412500D03*
X184400000Y-88412500D03*
X183600000Y-88412500D03*
X182800000Y-88412500D03*
X182000000Y-88412500D03*
X181200000Y-88412500D03*
X180400000Y-88412500D03*
X179600000Y-88412500D03*
X178800000Y-88412500D03*
X178000000Y-88412500D03*
X177200000Y-88412500D03*
X176400000Y-88412500D03*
X175600000Y-88412500D03*
X174800000Y-88412500D03*
X174000000Y-88412500D03*
X173200000Y-88412500D03*
X172400000Y-88412500D03*
X171600000Y-88412500D03*
D22*
X163514823Y-88199177D03*
X147889177Y-103824823D03*
D23*
X155702000Y-96012000D03*
D14*
X216740000Y-126238000D03*
X218440000Y-126238000D03*
X220980000Y-126238000D03*
X222680000Y-126238000D03*
D24*
X239645000Y-90170000D03*
X242955000Y-92710000D03*
D11*
X176403000Y-126619000D03*
X174703000Y-126619000D03*
D14*
X170766000Y-129159000D03*
X172466000Y-129159000D03*
D25*
X240397500Y-125095000D03*
X243472500Y-125095000D03*
D26*
X163895000Y-115570000D03*
X163895000Y-116840000D03*
X163895000Y-118110000D03*
X163895000Y-119380000D03*
X163895000Y-120650000D03*
X163895000Y-121920000D03*
X163895000Y-123190000D03*
X168845000Y-123190000D03*
X168845000Y-121920000D03*
X168845000Y-120650000D03*
X168845000Y-119380000D03*
X168845000Y-118110000D03*
X168845000Y-116840000D03*
X168845000Y-115570000D03*
D27*
X213360000Y-118490000D03*
X214630000Y-118490000D03*
X215900000Y-118490000D03*
X217170000Y-118490000D03*
X218440000Y-118490000D03*
X219710000Y-118490000D03*
X220980000Y-118490000D03*
X222250000Y-118490000D03*
X223520000Y-118490000D03*
X224790000Y-118490000D03*
X226060000Y-118490000D03*
D28*
X227710000Y-116840000D03*
X227710000Y-115570000D03*
X227710000Y-114300000D03*
X227710000Y-113030000D03*
X227710000Y-111760000D03*
X227710000Y-110490000D03*
X227710000Y-109220000D03*
X227710000Y-107950000D03*
X227710000Y-106680000D03*
X227710000Y-105410000D03*
X227710000Y-104140000D03*
X227710000Y-102870000D03*
X227710000Y-101600000D03*
X227710000Y-100330000D03*
X227710000Y-99060000D03*
X227710000Y-97790000D03*
X227710000Y-96520000D03*
X227710000Y-95250000D03*
X227710000Y-93980000D03*
X227710000Y-92710000D03*
X227710000Y-91440000D03*
D27*
X226060000Y-89790000D03*
X224790000Y-89790000D03*
X223520000Y-89790000D03*
X222250000Y-89790000D03*
X220980000Y-89790000D03*
X219710000Y-89790000D03*
X218440000Y-89790000D03*
X217170000Y-89790000D03*
X215900000Y-89790000D03*
X214630000Y-89790000D03*
X213360000Y-89790000D03*
X212090000Y-89790000D03*
X210820000Y-89790000D03*
X209550000Y-89790000D03*
X208280000Y-89790000D03*
X207010000Y-89790000D03*
X205740000Y-89790000D03*
X204470000Y-89790000D03*
X203200000Y-89790000D03*
X201930000Y-89790000D03*
X200660000Y-89790000D03*
D28*
X199010000Y-91440000D03*
X199010000Y-92710000D03*
X199010000Y-93980000D03*
X199010000Y-95250000D03*
X199010000Y-96520000D03*
X199010000Y-97790000D03*
X199010000Y-99060000D03*
X199010000Y-100330000D03*
X199010000Y-101600000D03*
X199010000Y-102870000D03*
X199010000Y-104140000D03*
X199010000Y-105410000D03*
X199010000Y-106680000D03*
X199010000Y-107950000D03*
X199010000Y-109220000D03*
X199010000Y-110490000D03*
X199010000Y-111760000D03*
X199010000Y-113030000D03*
X199010000Y-114300000D03*
X199010000Y-115570000D03*
X199010000Y-116840000D03*
D27*
X200660000Y-118490000D03*
X201930000Y-118490000D03*
X203200000Y-118490000D03*
X204470000Y-118490000D03*
X205740000Y-118490000D03*
X207010000Y-118490000D03*
X208280000Y-118490000D03*
X209550000Y-118490000D03*
X210820000Y-118490000D03*
X212090000Y-118490000D03*
D29*
X203840000Y-83820000D03*
X205740000Y-83820000D03*
D30*
X236220000Y-90170000D03*
X236220000Y-88270000D03*
D13*
X233680000Y-125415000D03*
X233680000Y-127315000D03*
D31*
X238760000Y-104140000D03*
X243840000Y-104140000D03*
X238760000Y-106680000D03*
X243840000Y-106680000D03*
X238760000Y-109220000D03*
X243840000Y-109220000D03*
X238760000Y-111760000D03*
X243840000Y-111760000D03*
X238760000Y-114300000D03*
X243840000Y-114300000D03*
D24*
X166620000Y-106680000D03*
X169930000Y-109220000D03*
M02*
