G04 #@! TF.GenerationSoftware,KiCad,Pcbnew,(5.1.2-1)-1*
G04 #@! TF.CreationDate,2019-07-26T14:24:01-04:00*
G04 #@! TF.ProjectId,TimeMachine,54696d65-4d61-4636-9869-6e652e6b6963,rev?*
G04 #@! TF.SameCoordinates,Original*
G04 #@! TF.FileFunction,Soldermask,Bot*
G04 #@! TF.FilePolarity,Negative*
%FSLAX46Y46*%
G04 Gerber Fmt 4.6, Leading zero omitted, Abs format (unit mm)*
G04 Created by KiCad (PCBNEW (5.1.2-1)-1) date 2019-07-26 14:24:01*
%MOMM*%
%LPD*%
G04 APERTURE LIST*
%ADD10C,0.100000*%
G04 APERTURE END LIST*
D10*
G36*
X241300000Y-139446000D02*
G01*
X240792000Y-139954000D01*
X175768000Y-139954000D01*
X175260000Y-139446000D01*
X175260000Y-132080000D01*
X241300000Y-132080000D01*
X241300000Y-139446000D01*
G37*
G36*
X239286355Y-131543544D02*
G01*
X239358967Y-131565570D01*
X239425881Y-131601336D01*
X239484531Y-131649469D01*
X239532664Y-131708119D01*
X239568430Y-131775033D01*
X239590456Y-131847645D01*
X239598200Y-131926267D01*
X239598200Y-138837733D01*
X239590456Y-138916355D01*
X239568430Y-138988967D01*
X239532664Y-139055881D01*
X239484531Y-139114531D01*
X239425881Y-139162664D01*
X239358967Y-139198430D01*
X239286355Y-139220456D01*
X239207733Y-139228200D01*
X238312267Y-139228200D01*
X238233645Y-139220456D01*
X238161033Y-139198430D01*
X238094119Y-139162664D01*
X238035469Y-139114531D01*
X237987336Y-139055881D01*
X237951570Y-138988967D01*
X237929544Y-138916355D01*
X237921800Y-138837733D01*
X237921800Y-131926267D01*
X237929544Y-131847645D01*
X237951570Y-131775033D01*
X237987336Y-131708119D01*
X238035469Y-131649469D01*
X238094119Y-131601336D01*
X238161033Y-131565570D01*
X238233645Y-131543544D01*
X238312267Y-131535800D01*
X239207733Y-131535800D01*
X239286355Y-131543544D01*
X239286355Y-131543544D01*
G37*
G36*
X236746355Y-131543544D02*
G01*
X236818967Y-131565570D01*
X236885881Y-131601336D01*
X236944531Y-131649469D01*
X236992664Y-131708119D01*
X237028430Y-131775033D01*
X237050456Y-131847645D01*
X237058200Y-131926267D01*
X237058200Y-138837733D01*
X237050456Y-138916355D01*
X237028430Y-138988967D01*
X236992664Y-139055881D01*
X236944531Y-139114531D01*
X236885881Y-139162664D01*
X236818967Y-139198430D01*
X236746355Y-139220456D01*
X236667733Y-139228200D01*
X235772267Y-139228200D01*
X235693645Y-139220456D01*
X235621033Y-139198430D01*
X235554119Y-139162664D01*
X235495469Y-139114531D01*
X235447336Y-139055881D01*
X235411570Y-138988967D01*
X235389544Y-138916355D01*
X235381800Y-138837733D01*
X235381800Y-131926267D01*
X235389544Y-131847645D01*
X235411570Y-131775033D01*
X235447336Y-131708119D01*
X235495469Y-131649469D01*
X235554119Y-131601336D01*
X235621033Y-131565570D01*
X235693645Y-131543544D01*
X235772267Y-131535800D01*
X236667733Y-131535800D01*
X236746355Y-131543544D01*
X236746355Y-131543544D01*
G37*
G36*
X234206355Y-131543544D02*
G01*
X234278967Y-131565570D01*
X234345881Y-131601336D01*
X234404531Y-131649469D01*
X234452664Y-131708119D01*
X234488430Y-131775033D01*
X234510456Y-131847645D01*
X234518200Y-131926267D01*
X234518200Y-138837733D01*
X234510456Y-138916355D01*
X234488430Y-138988967D01*
X234452664Y-139055881D01*
X234404531Y-139114531D01*
X234345881Y-139162664D01*
X234278967Y-139198430D01*
X234206355Y-139220456D01*
X234127733Y-139228200D01*
X233232267Y-139228200D01*
X233153645Y-139220456D01*
X233081033Y-139198430D01*
X233014119Y-139162664D01*
X232955469Y-139114531D01*
X232907336Y-139055881D01*
X232871570Y-138988967D01*
X232849544Y-138916355D01*
X232841800Y-138837733D01*
X232841800Y-131926267D01*
X232849544Y-131847645D01*
X232871570Y-131775033D01*
X232907336Y-131708119D01*
X232955469Y-131649469D01*
X233014119Y-131601336D01*
X233081033Y-131565570D01*
X233153645Y-131543544D01*
X233232267Y-131535800D01*
X234127733Y-131535800D01*
X234206355Y-131543544D01*
X234206355Y-131543544D01*
G37*
G36*
X231666355Y-131543544D02*
G01*
X231738967Y-131565570D01*
X231805881Y-131601336D01*
X231864531Y-131649469D01*
X231912664Y-131708119D01*
X231948430Y-131775033D01*
X231970456Y-131847645D01*
X231978200Y-131926267D01*
X231978200Y-138837733D01*
X231970456Y-138916355D01*
X231948430Y-138988967D01*
X231912664Y-139055881D01*
X231864531Y-139114531D01*
X231805881Y-139162664D01*
X231738967Y-139198430D01*
X231666355Y-139220456D01*
X231587733Y-139228200D01*
X230692267Y-139228200D01*
X230613645Y-139220456D01*
X230541033Y-139198430D01*
X230474119Y-139162664D01*
X230415469Y-139114531D01*
X230367336Y-139055881D01*
X230331570Y-138988967D01*
X230309544Y-138916355D01*
X230301800Y-138837733D01*
X230301800Y-131926267D01*
X230309544Y-131847645D01*
X230331570Y-131775033D01*
X230367336Y-131708119D01*
X230415469Y-131649469D01*
X230474119Y-131601336D01*
X230541033Y-131565570D01*
X230613645Y-131543544D01*
X230692267Y-131535800D01*
X231587733Y-131535800D01*
X231666355Y-131543544D01*
X231666355Y-131543544D01*
G37*
G36*
X229126355Y-131543544D02*
G01*
X229198967Y-131565570D01*
X229265881Y-131601336D01*
X229324531Y-131649469D01*
X229372664Y-131708119D01*
X229408430Y-131775033D01*
X229430456Y-131847645D01*
X229438200Y-131926267D01*
X229438200Y-138837733D01*
X229430456Y-138916355D01*
X229408430Y-138988967D01*
X229372664Y-139055881D01*
X229324531Y-139114531D01*
X229265881Y-139162664D01*
X229198967Y-139198430D01*
X229126355Y-139220456D01*
X229047733Y-139228200D01*
X228152267Y-139228200D01*
X228073645Y-139220456D01*
X228001033Y-139198430D01*
X227934119Y-139162664D01*
X227875469Y-139114531D01*
X227827336Y-139055881D01*
X227791570Y-138988967D01*
X227769544Y-138916355D01*
X227761800Y-138837733D01*
X227761800Y-131926267D01*
X227769544Y-131847645D01*
X227791570Y-131775033D01*
X227827336Y-131708119D01*
X227875469Y-131649469D01*
X227934119Y-131601336D01*
X228001033Y-131565570D01*
X228073645Y-131543544D01*
X228152267Y-131535800D01*
X229047733Y-131535800D01*
X229126355Y-131543544D01*
X229126355Y-131543544D01*
G37*
G36*
X226586355Y-131543544D02*
G01*
X226658967Y-131565570D01*
X226725881Y-131601336D01*
X226784531Y-131649469D01*
X226832664Y-131708119D01*
X226868430Y-131775033D01*
X226890456Y-131847645D01*
X226898200Y-131926267D01*
X226898200Y-138837733D01*
X226890456Y-138916355D01*
X226868430Y-138988967D01*
X226832664Y-139055881D01*
X226784531Y-139114531D01*
X226725881Y-139162664D01*
X226658967Y-139198430D01*
X226586355Y-139220456D01*
X226507733Y-139228200D01*
X225612267Y-139228200D01*
X225533645Y-139220456D01*
X225461033Y-139198430D01*
X225394119Y-139162664D01*
X225335469Y-139114531D01*
X225287336Y-139055881D01*
X225251570Y-138988967D01*
X225229544Y-138916355D01*
X225221800Y-138837733D01*
X225221800Y-131926267D01*
X225229544Y-131847645D01*
X225251570Y-131775033D01*
X225287336Y-131708119D01*
X225335469Y-131649469D01*
X225394119Y-131601336D01*
X225461033Y-131565570D01*
X225533645Y-131543544D01*
X225612267Y-131535800D01*
X226507733Y-131535800D01*
X226586355Y-131543544D01*
X226586355Y-131543544D01*
G37*
G36*
X224046355Y-131543544D02*
G01*
X224118967Y-131565570D01*
X224185881Y-131601336D01*
X224244531Y-131649469D01*
X224292664Y-131708119D01*
X224328430Y-131775033D01*
X224350456Y-131847645D01*
X224358200Y-131926267D01*
X224358200Y-138837733D01*
X224350456Y-138916355D01*
X224328430Y-138988967D01*
X224292664Y-139055881D01*
X224244531Y-139114531D01*
X224185881Y-139162664D01*
X224118967Y-139198430D01*
X224046355Y-139220456D01*
X223967733Y-139228200D01*
X223072267Y-139228200D01*
X222993645Y-139220456D01*
X222921033Y-139198430D01*
X222854119Y-139162664D01*
X222795469Y-139114531D01*
X222747336Y-139055881D01*
X222711570Y-138988967D01*
X222689544Y-138916355D01*
X222681800Y-138837733D01*
X222681800Y-131926267D01*
X222689544Y-131847645D01*
X222711570Y-131775033D01*
X222747336Y-131708119D01*
X222795469Y-131649469D01*
X222854119Y-131601336D01*
X222921033Y-131565570D01*
X222993645Y-131543544D01*
X223072267Y-131535800D01*
X223967733Y-131535800D01*
X224046355Y-131543544D01*
X224046355Y-131543544D01*
G37*
G36*
X221506355Y-131543544D02*
G01*
X221578967Y-131565570D01*
X221645881Y-131601336D01*
X221704531Y-131649469D01*
X221752664Y-131708119D01*
X221788430Y-131775033D01*
X221810456Y-131847645D01*
X221818200Y-131926267D01*
X221818200Y-138837733D01*
X221810456Y-138916355D01*
X221788430Y-138988967D01*
X221752664Y-139055881D01*
X221704531Y-139114531D01*
X221645881Y-139162664D01*
X221578967Y-139198430D01*
X221506355Y-139220456D01*
X221427733Y-139228200D01*
X220532267Y-139228200D01*
X220453645Y-139220456D01*
X220381033Y-139198430D01*
X220314119Y-139162664D01*
X220255469Y-139114531D01*
X220207336Y-139055881D01*
X220171570Y-138988967D01*
X220149544Y-138916355D01*
X220141800Y-138837733D01*
X220141800Y-131926267D01*
X220149544Y-131847645D01*
X220171570Y-131775033D01*
X220207336Y-131708119D01*
X220255469Y-131649469D01*
X220314119Y-131601336D01*
X220381033Y-131565570D01*
X220453645Y-131543544D01*
X220532267Y-131535800D01*
X221427733Y-131535800D01*
X221506355Y-131543544D01*
X221506355Y-131543544D01*
G37*
G36*
X218966355Y-131543544D02*
G01*
X219038967Y-131565570D01*
X219105881Y-131601336D01*
X219164531Y-131649469D01*
X219212664Y-131708119D01*
X219248430Y-131775033D01*
X219270456Y-131847645D01*
X219278200Y-131926267D01*
X219278200Y-138837733D01*
X219270456Y-138916355D01*
X219248430Y-138988967D01*
X219212664Y-139055881D01*
X219164531Y-139114531D01*
X219105881Y-139162664D01*
X219038967Y-139198430D01*
X218966355Y-139220456D01*
X218887733Y-139228200D01*
X217992267Y-139228200D01*
X217913645Y-139220456D01*
X217841033Y-139198430D01*
X217774119Y-139162664D01*
X217715469Y-139114531D01*
X217667336Y-139055881D01*
X217631570Y-138988967D01*
X217609544Y-138916355D01*
X217601800Y-138837733D01*
X217601800Y-131926267D01*
X217609544Y-131847645D01*
X217631570Y-131775033D01*
X217667336Y-131708119D01*
X217715469Y-131649469D01*
X217774119Y-131601336D01*
X217841033Y-131565570D01*
X217913645Y-131543544D01*
X217992267Y-131535800D01*
X218887733Y-131535800D01*
X218966355Y-131543544D01*
X218966355Y-131543544D01*
G37*
G36*
X216426355Y-131543544D02*
G01*
X216498967Y-131565570D01*
X216565881Y-131601336D01*
X216624531Y-131649469D01*
X216672664Y-131708119D01*
X216708430Y-131775033D01*
X216730456Y-131847645D01*
X216738200Y-131926267D01*
X216738200Y-138837733D01*
X216730456Y-138916355D01*
X216708430Y-138988967D01*
X216672664Y-139055881D01*
X216624531Y-139114531D01*
X216565881Y-139162664D01*
X216498967Y-139198430D01*
X216426355Y-139220456D01*
X216347733Y-139228200D01*
X215452267Y-139228200D01*
X215373645Y-139220456D01*
X215301033Y-139198430D01*
X215234119Y-139162664D01*
X215175469Y-139114531D01*
X215127336Y-139055881D01*
X215091570Y-138988967D01*
X215069544Y-138916355D01*
X215061800Y-138837733D01*
X215061800Y-131926267D01*
X215069544Y-131847645D01*
X215091570Y-131775033D01*
X215127336Y-131708119D01*
X215175469Y-131649469D01*
X215234119Y-131601336D01*
X215301033Y-131565570D01*
X215373645Y-131543544D01*
X215452267Y-131535800D01*
X216347733Y-131535800D01*
X216426355Y-131543544D01*
X216426355Y-131543544D01*
G37*
G36*
X213886355Y-131543544D02*
G01*
X213958967Y-131565570D01*
X214025881Y-131601336D01*
X214084531Y-131649469D01*
X214132664Y-131708119D01*
X214168430Y-131775033D01*
X214190456Y-131847645D01*
X214198200Y-131926267D01*
X214198200Y-138837733D01*
X214190456Y-138916355D01*
X214168430Y-138988967D01*
X214132664Y-139055881D01*
X214084531Y-139114531D01*
X214025881Y-139162664D01*
X213958967Y-139198430D01*
X213886355Y-139220456D01*
X213807733Y-139228200D01*
X212912267Y-139228200D01*
X212833645Y-139220456D01*
X212761033Y-139198430D01*
X212694119Y-139162664D01*
X212635469Y-139114531D01*
X212587336Y-139055881D01*
X212551570Y-138988967D01*
X212529544Y-138916355D01*
X212521800Y-138837733D01*
X212521800Y-131926267D01*
X212529544Y-131847645D01*
X212551570Y-131775033D01*
X212587336Y-131708119D01*
X212635469Y-131649469D01*
X212694119Y-131601336D01*
X212761033Y-131565570D01*
X212833645Y-131543544D01*
X212912267Y-131535800D01*
X213807733Y-131535800D01*
X213886355Y-131543544D01*
X213886355Y-131543544D01*
G37*
G36*
X211346355Y-131543544D02*
G01*
X211418967Y-131565570D01*
X211485881Y-131601336D01*
X211544531Y-131649469D01*
X211592664Y-131708119D01*
X211628430Y-131775033D01*
X211650456Y-131847645D01*
X211658200Y-131926267D01*
X211658200Y-138837733D01*
X211650456Y-138916355D01*
X211628430Y-138988967D01*
X211592664Y-139055881D01*
X211544531Y-139114531D01*
X211485881Y-139162664D01*
X211418967Y-139198430D01*
X211346355Y-139220456D01*
X211267733Y-139228200D01*
X210372267Y-139228200D01*
X210293645Y-139220456D01*
X210221033Y-139198430D01*
X210154119Y-139162664D01*
X210095469Y-139114531D01*
X210047336Y-139055881D01*
X210011570Y-138988967D01*
X209989544Y-138916355D01*
X209981800Y-138837733D01*
X209981800Y-131926267D01*
X209989544Y-131847645D01*
X210011570Y-131775033D01*
X210047336Y-131708119D01*
X210095469Y-131649469D01*
X210154119Y-131601336D01*
X210221033Y-131565570D01*
X210293645Y-131543544D01*
X210372267Y-131535800D01*
X211267733Y-131535800D01*
X211346355Y-131543544D01*
X211346355Y-131543544D01*
G37*
G36*
X208806355Y-131543544D02*
G01*
X208878967Y-131565570D01*
X208945881Y-131601336D01*
X209004531Y-131649469D01*
X209052664Y-131708119D01*
X209088430Y-131775033D01*
X209110456Y-131847645D01*
X209118200Y-131926267D01*
X209118200Y-138837733D01*
X209110456Y-138916355D01*
X209088430Y-138988967D01*
X209052664Y-139055881D01*
X209004531Y-139114531D01*
X208945881Y-139162664D01*
X208878967Y-139198430D01*
X208806355Y-139220456D01*
X208727733Y-139228200D01*
X207832267Y-139228200D01*
X207753645Y-139220456D01*
X207681033Y-139198430D01*
X207614119Y-139162664D01*
X207555469Y-139114531D01*
X207507336Y-139055881D01*
X207471570Y-138988967D01*
X207449544Y-138916355D01*
X207441800Y-138837733D01*
X207441800Y-131926267D01*
X207449544Y-131847645D01*
X207471570Y-131775033D01*
X207507336Y-131708119D01*
X207555469Y-131649469D01*
X207614119Y-131601336D01*
X207681033Y-131565570D01*
X207753645Y-131543544D01*
X207832267Y-131535800D01*
X208727733Y-131535800D01*
X208806355Y-131543544D01*
X208806355Y-131543544D01*
G37*
G36*
X206266355Y-131543544D02*
G01*
X206338967Y-131565570D01*
X206405881Y-131601336D01*
X206464531Y-131649469D01*
X206512664Y-131708119D01*
X206548430Y-131775033D01*
X206570456Y-131847645D01*
X206578200Y-131926267D01*
X206578200Y-138837733D01*
X206570456Y-138916355D01*
X206548430Y-138988967D01*
X206512664Y-139055881D01*
X206464531Y-139114531D01*
X206405881Y-139162664D01*
X206338967Y-139198430D01*
X206266355Y-139220456D01*
X206187733Y-139228200D01*
X205292267Y-139228200D01*
X205213645Y-139220456D01*
X205141033Y-139198430D01*
X205074119Y-139162664D01*
X205015469Y-139114531D01*
X204967336Y-139055881D01*
X204931570Y-138988967D01*
X204909544Y-138916355D01*
X204901800Y-138837733D01*
X204901800Y-131926267D01*
X204909544Y-131847645D01*
X204931570Y-131775033D01*
X204967336Y-131708119D01*
X205015469Y-131649469D01*
X205074119Y-131601336D01*
X205141033Y-131565570D01*
X205213645Y-131543544D01*
X205292267Y-131535800D01*
X206187733Y-131535800D01*
X206266355Y-131543544D01*
X206266355Y-131543544D01*
G37*
G36*
X203726355Y-131543544D02*
G01*
X203798967Y-131565570D01*
X203865881Y-131601336D01*
X203924531Y-131649469D01*
X203972664Y-131708119D01*
X204008430Y-131775033D01*
X204030456Y-131847645D01*
X204038200Y-131926267D01*
X204038200Y-138837733D01*
X204030456Y-138916355D01*
X204008430Y-138988967D01*
X203972664Y-139055881D01*
X203924531Y-139114531D01*
X203865881Y-139162664D01*
X203798967Y-139198430D01*
X203726355Y-139220456D01*
X203647733Y-139228200D01*
X202752267Y-139228200D01*
X202673645Y-139220456D01*
X202601033Y-139198430D01*
X202534119Y-139162664D01*
X202475469Y-139114531D01*
X202427336Y-139055881D01*
X202391570Y-138988967D01*
X202369544Y-138916355D01*
X202361800Y-138837733D01*
X202361800Y-131926267D01*
X202369544Y-131847645D01*
X202391570Y-131775033D01*
X202427336Y-131708119D01*
X202475469Y-131649469D01*
X202534119Y-131601336D01*
X202601033Y-131565570D01*
X202673645Y-131543544D01*
X202752267Y-131535800D01*
X203647733Y-131535800D01*
X203726355Y-131543544D01*
X203726355Y-131543544D01*
G37*
G36*
X201186355Y-131543544D02*
G01*
X201258967Y-131565570D01*
X201325881Y-131601336D01*
X201384531Y-131649469D01*
X201432664Y-131708119D01*
X201468430Y-131775033D01*
X201490456Y-131847645D01*
X201498200Y-131926267D01*
X201498200Y-138837733D01*
X201490456Y-138916355D01*
X201468430Y-138988967D01*
X201432664Y-139055881D01*
X201384531Y-139114531D01*
X201325881Y-139162664D01*
X201258967Y-139198430D01*
X201186355Y-139220456D01*
X201107733Y-139228200D01*
X200212267Y-139228200D01*
X200133645Y-139220456D01*
X200061033Y-139198430D01*
X199994119Y-139162664D01*
X199935469Y-139114531D01*
X199887336Y-139055881D01*
X199851570Y-138988967D01*
X199829544Y-138916355D01*
X199821800Y-138837733D01*
X199821800Y-131926267D01*
X199829544Y-131847645D01*
X199851570Y-131775033D01*
X199887336Y-131708119D01*
X199935469Y-131649469D01*
X199994119Y-131601336D01*
X200061033Y-131565570D01*
X200133645Y-131543544D01*
X200212267Y-131535800D01*
X201107733Y-131535800D01*
X201186355Y-131543544D01*
X201186355Y-131543544D01*
G37*
G36*
X198646355Y-131543544D02*
G01*
X198718967Y-131565570D01*
X198785881Y-131601336D01*
X198844531Y-131649469D01*
X198892664Y-131708119D01*
X198928430Y-131775033D01*
X198950456Y-131847645D01*
X198958200Y-131926267D01*
X198958200Y-138837733D01*
X198950456Y-138916355D01*
X198928430Y-138988967D01*
X198892664Y-139055881D01*
X198844531Y-139114531D01*
X198785881Y-139162664D01*
X198718967Y-139198430D01*
X198646355Y-139220456D01*
X198567733Y-139228200D01*
X197672267Y-139228200D01*
X197593645Y-139220456D01*
X197521033Y-139198430D01*
X197454119Y-139162664D01*
X197395469Y-139114531D01*
X197347336Y-139055881D01*
X197311570Y-138988967D01*
X197289544Y-138916355D01*
X197281800Y-138837733D01*
X197281800Y-131926267D01*
X197289544Y-131847645D01*
X197311570Y-131775033D01*
X197347336Y-131708119D01*
X197395469Y-131649469D01*
X197454119Y-131601336D01*
X197521033Y-131565570D01*
X197593645Y-131543544D01*
X197672267Y-131535800D01*
X198567733Y-131535800D01*
X198646355Y-131543544D01*
X198646355Y-131543544D01*
G37*
G36*
X196106355Y-131543544D02*
G01*
X196178967Y-131565570D01*
X196245881Y-131601336D01*
X196304531Y-131649469D01*
X196352664Y-131708119D01*
X196388430Y-131775033D01*
X196410456Y-131847645D01*
X196418200Y-131926267D01*
X196418200Y-138837733D01*
X196410456Y-138916355D01*
X196388430Y-138988967D01*
X196352664Y-139055881D01*
X196304531Y-139114531D01*
X196245881Y-139162664D01*
X196178967Y-139198430D01*
X196106355Y-139220456D01*
X196027733Y-139228200D01*
X195132267Y-139228200D01*
X195053645Y-139220456D01*
X194981033Y-139198430D01*
X194914119Y-139162664D01*
X194855469Y-139114531D01*
X194807336Y-139055881D01*
X194771570Y-138988967D01*
X194749544Y-138916355D01*
X194741800Y-138837733D01*
X194741800Y-131926267D01*
X194749544Y-131847645D01*
X194771570Y-131775033D01*
X194807336Y-131708119D01*
X194855469Y-131649469D01*
X194914119Y-131601336D01*
X194981033Y-131565570D01*
X195053645Y-131543544D01*
X195132267Y-131535800D01*
X196027733Y-131535800D01*
X196106355Y-131543544D01*
X196106355Y-131543544D01*
G37*
G36*
X193566355Y-131543544D02*
G01*
X193638967Y-131565570D01*
X193705881Y-131601336D01*
X193764531Y-131649469D01*
X193812664Y-131708119D01*
X193848430Y-131775033D01*
X193870456Y-131847645D01*
X193878200Y-131926267D01*
X193878200Y-138837733D01*
X193870456Y-138916355D01*
X193848430Y-138988967D01*
X193812664Y-139055881D01*
X193764531Y-139114531D01*
X193705881Y-139162664D01*
X193638967Y-139198430D01*
X193566355Y-139220456D01*
X193487733Y-139228200D01*
X192592267Y-139228200D01*
X192513645Y-139220456D01*
X192441033Y-139198430D01*
X192374119Y-139162664D01*
X192315469Y-139114531D01*
X192267336Y-139055881D01*
X192231570Y-138988967D01*
X192209544Y-138916355D01*
X192201800Y-138837733D01*
X192201800Y-131926267D01*
X192209544Y-131847645D01*
X192231570Y-131775033D01*
X192267336Y-131708119D01*
X192315469Y-131649469D01*
X192374119Y-131601336D01*
X192441033Y-131565570D01*
X192513645Y-131543544D01*
X192592267Y-131535800D01*
X193487733Y-131535800D01*
X193566355Y-131543544D01*
X193566355Y-131543544D01*
G37*
G36*
X191026355Y-131543544D02*
G01*
X191098967Y-131565570D01*
X191165881Y-131601336D01*
X191224531Y-131649469D01*
X191272664Y-131708119D01*
X191308430Y-131775033D01*
X191330456Y-131847645D01*
X191338200Y-131926267D01*
X191338200Y-138837733D01*
X191330456Y-138916355D01*
X191308430Y-138988967D01*
X191272664Y-139055881D01*
X191224531Y-139114531D01*
X191165881Y-139162664D01*
X191098967Y-139198430D01*
X191026355Y-139220456D01*
X190947733Y-139228200D01*
X190052267Y-139228200D01*
X189973645Y-139220456D01*
X189901033Y-139198430D01*
X189834119Y-139162664D01*
X189775469Y-139114531D01*
X189727336Y-139055881D01*
X189691570Y-138988967D01*
X189669544Y-138916355D01*
X189661800Y-138837733D01*
X189661800Y-131926267D01*
X189669544Y-131847645D01*
X189691570Y-131775033D01*
X189727336Y-131708119D01*
X189775469Y-131649469D01*
X189834119Y-131601336D01*
X189901033Y-131565570D01*
X189973645Y-131543544D01*
X190052267Y-131535800D01*
X190947733Y-131535800D01*
X191026355Y-131543544D01*
X191026355Y-131543544D01*
G37*
G36*
X188486355Y-131543544D02*
G01*
X188558967Y-131565570D01*
X188625881Y-131601336D01*
X188684531Y-131649469D01*
X188732664Y-131708119D01*
X188768430Y-131775033D01*
X188790456Y-131847645D01*
X188798200Y-131926267D01*
X188798200Y-138837733D01*
X188790456Y-138916355D01*
X188768430Y-138988967D01*
X188732664Y-139055881D01*
X188684531Y-139114531D01*
X188625881Y-139162664D01*
X188558967Y-139198430D01*
X188486355Y-139220456D01*
X188407733Y-139228200D01*
X187512267Y-139228200D01*
X187433645Y-139220456D01*
X187361033Y-139198430D01*
X187294119Y-139162664D01*
X187235469Y-139114531D01*
X187187336Y-139055881D01*
X187151570Y-138988967D01*
X187129544Y-138916355D01*
X187121800Y-138837733D01*
X187121800Y-131926267D01*
X187129544Y-131847645D01*
X187151570Y-131775033D01*
X187187336Y-131708119D01*
X187235469Y-131649469D01*
X187294119Y-131601336D01*
X187361033Y-131565570D01*
X187433645Y-131543544D01*
X187512267Y-131535800D01*
X188407733Y-131535800D01*
X188486355Y-131543544D01*
X188486355Y-131543544D01*
G37*
G36*
X185946355Y-131543544D02*
G01*
X186018967Y-131565570D01*
X186085881Y-131601336D01*
X186144531Y-131649469D01*
X186192664Y-131708119D01*
X186228430Y-131775033D01*
X186250456Y-131847645D01*
X186258200Y-131926267D01*
X186258200Y-138837733D01*
X186250456Y-138916355D01*
X186228430Y-138988967D01*
X186192664Y-139055881D01*
X186144531Y-139114531D01*
X186085881Y-139162664D01*
X186018967Y-139198430D01*
X185946355Y-139220456D01*
X185867733Y-139228200D01*
X184972267Y-139228200D01*
X184893645Y-139220456D01*
X184821033Y-139198430D01*
X184754119Y-139162664D01*
X184695469Y-139114531D01*
X184647336Y-139055881D01*
X184611570Y-138988967D01*
X184589544Y-138916355D01*
X184581800Y-138837733D01*
X184581800Y-131926267D01*
X184589544Y-131847645D01*
X184611570Y-131775033D01*
X184647336Y-131708119D01*
X184695469Y-131649469D01*
X184754119Y-131601336D01*
X184821033Y-131565570D01*
X184893645Y-131543544D01*
X184972267Y-131535800D01*
X185867733Y-131535800D01*
X185946355Y-131543544D01*
X185946355Y-131543544D01*
G37*
G36*
X183406355Y-131543544D02*
G01*
X183478967Y-131565570D01*
X183545881Y-131601336D01*
X183604531Y-131649469D01*
X183652664Y-131708119D01*
X183688430Y-131775033D01*
X183710456Y-131847645D01*
X183718200Y-131926267D01*
X183718200Y-138837733D01*
X183710456Y-138916355D01*
X183688430Y-138988967D01*
X183652664Y-139055881D01*
X183604531Y-139114531D01*
X183545881Y-139162664D01*
X183478967Y-139198430D01*
X183406355Y-139220456D01*
X183327733Y-139228200D01*
X182432267Y-139228200D01*
X182353645Y-139220456D01*
X182281033Y-139198430D01*
X182214119Y-139162664D01*
X182155469Y-139114531D01*
X182107336Y-139055881D01*
X182071570Y-138988967D01*
X182049544Y-138916355D01*
X182041800Y-138837733D01*
X182041800Y-131926267D01*
X182049544Y-131847645D01*
X182071570Y-131775033D01*
X182107336Y-131708119D01*
X182155469Y-131649469D01*
X182214119Y-131601336D01*
X182281033Y-131565570D01*
X182353645Y-131543544D01*
X182432267Y-131535800D01*
X183327733Y-131535800D01*
X183406355Y-131543544D01*
X183406355Y-131543544D01*
G37*
G36*
X180866355Y-131543544D02*
G01*
X180938967Y-131565570D01*
X181005881Y-131601336D01*
X181064531Y-131649469D01*
X181112664Y-131708119D01*
X181148430Y-131775033D01*
X181170456Y-131847645D01*
X181178200Y-131926267D01*
X181178200Y-138837733D01*
X181170456Y-138916355D01*
X181148430Y-138988967D01*
X181112664Y-139055881D01*
X181064531Y-139114531D01*
X181005881Y-139162664D01*
X180938967Y-139198430D01*
X180866355Y-139220456D01*
X180787733Y-139228200D01*
X179892267Y-139228200D01*
X179813645Y-139220456D01*
X179741033Y-139198430D01*
X179674119Y-139162664D01*
X179615469Y-139114531D01*
X179567336Y-139055881D01*
X179531570Y-138988967D01*
X179509544Y-138916355D01*
X179501800Y-138837733D01*
X179501800Y-131926267D01*
X179509544Y-131847645D01*
X179531570Y-131775033D01*
X179567336Y-131708119D01*
X179615469Y-131649469D01*
X179674119Y-131601336D01*
X179741033Y-131565570D01*
X179813645Y-131543544D01*
X179892267Y-131535800D01*
X180787733Y-131535800D01*
X180866355Y-131543544D01*
X180866355Y-131543544D01*
G37*
G36*
X178326355Y-131543544D02*
G01*
X178398967Y-131565570D01*
X178465881Y-131601336D01*
X178524531Y-131649469D01*
X178572664Y-131708119D01*
X178608430Y-131775033D01*
X178630456Y-131847645D01*
X178638200Y-131926267D01*
X178638200Y-138837733D01*
X178630456Y-138916355D01*
X178608430Y-138988967D01*
X178572664Y-139055881D01*
X178524531Y-139114531D01*
X178465881Y-139162664D01*
X178398967Y-139198430D01*
X178326355Y-139220456D01*
X178247733Y-139228200D01*
X177352267Y-139228200D01*
X177273645Y-139220456D01*
X177201033Y-139198430D01*
X177134119Y-139162664D01*
X177075469Y-139114531D01*
X177027336Y-139055881D01*
X176991570Y-138988967D01*
X176969544Y-138916355D01*
X176961800Y-138837733D01*
X176961800Y-131926267D01*
X176969544Y-131847645D01*
X176991570Y-131775033D01*
X177027336Y-131708119D01*
X177075469Y-131649469D01*
X177134119Y-131601336D01*
X177201033Y-131565570D01*
X177273645Y-131543544D01*
X177352267Y-131535800D01*
X178247733Y-131535800D01*
X178326355Y-131543544D01*
X178326355Y-131543544D01*
G37*
G36*
X144966914Y-128505157D02*
G01*
X145162777Y-128586286D01*
X145339033Y-128704057D01*
X145488943Y-128853967D01*
X145606714Y-129030223D01*
X145687843Y-129226086D01*
X145729200Y-129434004D01*
X145729200Y-129645996D01*
X145687843Y-129853914D01*
X145606714Y-130049777D01*
X145488943Y-130226033D01*
X145339033Y-130375943D01*
X145162777Y-130493714D01*
X144966914Y-130574843D01*
X144758996Y-130616200D01*
X144547004Y-130616200D01*
X144339086Y-130574843D01*
X144143223Y-130493714D01*
X143966967Y-130375943D01*
X143817057Y-130226033D01*
X143699286Y-130049777D01*
X143618157Y-129853914D01*
X143576800Y-129645996D01*
X143576800Y-129434004D01*
X143618157Y-129226086D01*
X143699286Y-129030223D01*
X143817057Y-128853967D01*
X143966967Y-128704057D01*
X144143223Y-128586286D01*
X144339086Y-128505157D01*
X144547004Y-128463800D01*
X144758996Y-128463800D01*
X144966914Y-128505157D01*
X144966914Y-128505157D01*
G37*
G36*
X242375914Y-128505157D02*
G01*
X242571777Y-128586286D01*
X242748033Y-128704057D01*
X242897943Y-128853967D01*
X243015714Y-129030223D01*
X243096843Y-129226086D01*
X243138200Y-129434004D01*
X243138200Y-129645996D01*
X243096843Y-129853914D01*
X243015714Y-130049777D01*
X242897943Y-130226033D01*
X242748033Y-130375943D01*
X242571777Y-130493714D01*
X242375914Y-130574843D01*
X242167996Y-130616200D01*
X241956004Y-130616200D01*
X241748086Y-130574843D01*
X241552223Y-130493714D01*
X241375967Y-130375943D01*
X241226057Y-130226033D01*
X241108286Y-130049777D01*
X241027157Y-129853914D01*
X240985800Y-129645996D01*
X240985800Y-129434004D01*
X241027157Y-129226086D01*
X241108286Y-129030223D01*
X241226057Y-128853967D01*
X241375967Y-128704057D01*
X241552223Y-128586286D01*
X241748086Y-128505157D01*
X241956004Y-128463800D01*
X242167996Y-128463800D01*
X242375914Y-128505157D01*
X242375914Y-128505157D01*
G37*
G36*
X142426914Y-97644157D02*
G01*
X142622777Y-97725286D01*
X142799033Y-97843057D01*
X142948943Y-97992967D01*
X143066714Y-98169223D01*
X143147843Y-98365086D01*
X143189200Y-98573004D01*
X143189200Y-98784996D01*
X143147843Y-98992914D01*
X143066714Y-99188777D01*
X142948943Y-99365033D01*
X142799033Y-99514943D01*
X142622777Y-99632714D01*
X142426914Y-99713843D01*
X142218996Y-99755200D01*
X142007004Y-99755200D01*
X141799086Y-99713843D01*
X141603223Y-99632714D01*
X141426967Y-99514943D01*
X141277057Y-99365033D01*
X141159286Y-99188777D01*
X141078157Y-98992914D01*
X141036800Y-98784996D01*
X141036800Y-98573004D01*
X141078157Y-98365086D01*
X141159286Y-98169223D01*
X141277057Y-97992967D01*
X141426967Y-97843057D01*
X141603223Y-97725286D01*
X141799086Y-97644157D01*
X142007004Y-97602800D01*
X142218996Y-97602800D01*
X142426914Y-97644157D01*
X142426914Y-97644157D01*
G37*
G36*
X158682914Y-81388157D02*
G01*
X158878777Y-81469286D01*
X159055033Y-81587057D01*
X159204943Y-81736967D01*
X159322714Y-81913223D01*
X159403843Y-82109086D01*
X159445200Y-82317004D01*
X159445200Y-82528996D01*
X159403843Y-82736914D01*
X159322714Y-82932777D01*
X159204943Y-83109033D01*
X159055033Y-83258943D01*
X158878777Y-83376714D01*
X158682914Y-83457843D01*
X158474996Y-83499200D01*
X158263004Y-83499200D01*
X158055086Y-83457843D01*
X157859223Y-83376714D01*
X157682967Y-83258943D01*
X157533057Y-83109033D01*
X157415286Y-82932777D01*
X157334157Y-82736914D01*
X157292800Y-82528996D01*
X157292800Y-82317004D01*
X157334157Y-82109086D01*
X157415286Y-81913223D01*
X157533057Y-81736967D01*
X157682967Y-81587057D01*
X157859223Y-81469286D01*
X158055086Y-81388157D01*
X158263004Y-81346800D01*
X158474996Y-81346800D01*
X158682914Y-81388157D01*
X158682914Y-81388157D01*
G37*
G36*
X242375914Y-81388157D02*
G01*
X242571777Y-81469286D01*
X242748033Y-81587057D01*
X242897943Y-81736967D01*
X243015714Y-81913223D01*
X243096843Y-82109086D01*
X243138200Y-82317004D01*
X243138200Y-82528996D01*
X243096843Y-82736914D01*
X243015714Y-82932777D01*
X242897943Y-83109033D01*
X242748033Y-83258943D01*
X242571777Y-83376714D01*
X242375914Y-83457843D01*
X242167996Y-83499200D01*
X241956004Y-83499200D01*
X241748086Y-83457843D01*
X241552223Y-83376714D01*
X241375967Y-83258943D01*
X241226057Y-83109033D01*
X241108286Y-82932777D01*
X241027157Y-82736914D01*
X240985800Y-82528996D01*
X240985800Y-82317004D01*
X241027157Y-82109086D01*
X241108286Y-81913223D01*
X241226057Y-81736967D01*
X241375967Y-81587057D01*
X241552223Y-81469286D01*
X241748086Y-81388157D01*
X241956004Y-81346800D01*
X242167996Y-81346800D01*
X242375914Y-81388157D01*
X242375914Y-81388157D01*
G37*
M02*
